<?xml version="1.0" encoding="UTF-8" standalone="no"?>
<!-- Created with Inkscape (http://www.inkscape.org/) -->

<svg
   xmlns:dc="http://purl.org/dc/elements/1.1/"
   xmlns:cc="http://creativecommons.org/ns#"
   xmlns:rdf="http://www.w3.org/1999/02/22-rdf-syntax-ns#"
   xmlns:svg="http://www.w3.org/2000/svg"
   xmlns="http://www.w3.org/2000/svg"
   xmlns:sodipodi="http://sodipodi.sourceforge.net/DTD/sodipodi-0.dtd"
   xmlns:inkscape="http://www.inkscape.org/namespaces/inkscape"
   width="32"
   height="32"
   viewBox="0 0 32.000001 32"
   version="1.1"
   id="svg5216"
   inkscape:version="0.92.4 (5da689c313, 2019-01-14)"
   sodipodi:docname="bakery_32.svg">
  <defs
     id="defs5210" />
  <sodipodi:namedview
     id="base"
     pagecolor="#ffffff"
     bordercolor="#666666"
     borderopacity="1.0"
     inkscape:pageopacity="0.0"
     inkscape:pageshadow="2"
     inkscape:zoom="5.6"
     inkscape:cx="-41.388785"
     inkscape:cy="44.999293"
     inkscape:document-units="px"
     inkscape:current-layer="layer1"
     showgrid="false"
     inkscape:window-width="1920"
     inkscape:window-height="1016"
     inkscape:window-x="0"
     inkscape:window-y="27"
     inkscape:window-maximized="1"
     scale-x="0.8"
     fit-margin-top="0"
     fit-margin-left="0"
     fit-margin-right="0"
     fit-margin-bottom="0"
     units="px"
     inkscape:snap-bbox="true"
     inkscape:bbox-paths="true"
     inkscape:bbox-nodes="true"
     inkscape:snap-bbox-edge-midpoints="true"
     inkscape:snap-bbox-midpoints="true"
     inkscape:object-paths="true"
     inkscape:snap-intersection-paths="true"
     inkscape:snap-smooth-nodes="true"
     inkscape:snap-midpoints="true" />
  <metadata
     id="metadata5213">
    <rdf:RDF>
      <cc:Work
         rdf:about="">
        <dc:format>image/svg+xml</dc:format>
        <dc:type
           rdf:resource="http://purl.org/dc/dcmitype/StillImage" />
        <dc:title />
      </cc:Work>
    </rdf:RDF>
  </metadata>
  <g
     inkscape:label="Layer 1"
     inkscape:groupmode="layer"
     id="layer1"
     transform="translate(-81.838892,-94.08138)">
    <g
       id="g4784"
       transform="matrix(0.53090216,0,0,0.53090216,80.773019,93.015507)">
      <path
         id="path4674"
         d="m 52.4,5.1 c 7.9,-0.8 15.2,8 3.4,14 -7.9,4 -15.1,9.2 -21.3,15.3 L 17.5,17.5 C 24.9,10.3 36,6.8 52.4,5.1"
         inkscape:connector-curvature="0"
         style="fill:#fbbf67" />
      <path
         id="path4676"
         d="m 5.1,52.4 c 1.4,-16.7 5,-27.7 12.4,-34.9 l 17,16.9 c -6.2,6.2 -11.4,13.4 -15.4,21.3 -6,12 -14.7,4.5 -14,-3.3"
         inkscape:connector-curvature="0"
         style="fill:#d99634" />
      <path
         id="path4678"
         d="m 53.3,9 c -12.7,0.2 -22.6,1.7 -30.4,5 7,-4.1 16.2,-6.4 28.3,-7.8 4.3,-0.5 8.5,2 9.3,5.3 C 58.7,10 56.1,8.9 53.3,9"
         inkscape:connector-curvature="0"
         style="fill:#ffebb8" />
      <path
         id="path4680"
         d="m 11.7,54.7 c 4.3,1.8 8.6,1 9.8,-1.5 6.4,-13 16.9,-23.5 30,-29.9 C 54,22 54.8,17.7 53,13.5 52.5,12.4 52,11.2 51.5,10.1 49.7,5.8 45.4,3.5 42,5.2 25.2,13.4 11.7,27 3.4,43.8 c -1.7,3.4 0.7,7.8 4.9,9.5 1.1,0.5 2.3,1 3.4,1.4"
         inkscape:connector-curvature="0"
         style="fill:#d99634" />
      <path
         id="path4682"
         d="m 10.3,52.1 c 4.1,1.6 8.3,0.7 9.6,-1.8 6.8,-13 17.4,-23.6 30.4,-30.3 2.5,-1.3 3.4,-5.5 1.8,-9.6 C 51.7,9.3 51.2,8.2 50.8,7.1 49.2,3 45.1,0.9 41.7,2.6 25,11.3 11.3,25 2.6,41.7 0.9,45 3,49.2 7.1,50.8 c 1.1,0.4 2.2,0.8 3.2,1.3"
         inkscape:connector-curvature="0"
         style="fill:#fbbf67" />
      <path
         id="path4684"
         d="M 42.2,7.2 C 34,10.5 26.4,14.9 19.4,20.2 25.8,13.9 33.2,8.6 41.2,4.5 c 3.4,-1.7 7.7,0.5 9.4,4.7 0.3,0.7 0.6,1.4 0.9,2.1 -2,-3.6 -5.9,-5.5 -9.3,-4.1"
         inkscape:connector-curvature="0"
         style="fill:#ffebb8" />
      <path
         id="path4686"
         d="m 16.7,45.5 c 4,1.5 8.3,0.1 10.1,-2.9 3.9,-6.5 9.4,-12 15.9,-15.9 3,-1.8 4.4,-6.1 2.9,-10.1 C 44.3,13.5 43,10.3 41.7,7.2 40.2,3.2 34.5,1.7 29.6,4.6 19.3,10.8 10.8,19.3 4.7,29.5 1.8,34.4 3.3,40.1 7.3,41.6 c 3.1,1.3 6.2,2.6 9.4,3.9"
         inkscape:connector-curvature="0"
         style="fill:#fbbf67" />
      <path
         id="path4688"
         d="m 17.9,48.4 c 4.2,1.6 8.6,0.1 10.3,-3 3.7,-6.7 9.1,-12.4 15.6,-16.4 3,-1.9 4.3,-6.3 2.5,-10.4 -1.5,-3.2 -3,-6.5 -4.5,-9.7 C 40,4.8 34.1,3.3 29.1,6.3 18.8,12.5 10.4,21.3 4.6,31.9 1.9,37 3.8,42.8 8,44.4 c 3.3,1.3 6.6,2.7 9.9,4"
         inkscape:connector-curvature="0"
         style="fill:#d99634" />
      <path
         id="path4690"
         d="m 16.4,45.2 c 4,1.5 8.3,0.1 10.1,-2.9 3.9,-6.5 9.4,-12 15.9,-15.9 3,-1.8 4.4,-6.1 2.9,-10.1 C 44,13.2 42.7,10 41.4,6.9 39.9,2.9 34.2,1.4 29.3,4.3 19,10.5 10.5,19 4.4,29.2 c -3,5 -1.4,10.6 2.5,12.1 3.2,1.3 6.3,2.6 9.5,3.9"
         inkscape:connector-curvature="0"
         style="fill:#fbbf67" />
      <path
         id="path4692"
         d="M 43.4,19 C 42,16.2 40.7,13.3 39.3,10.5 37.7,6.9 32.4,5.7 28.1,8.6 c -9,5.9 -16.4,14 -21.5,23.5 -1,2 -1.3,4 -1,5.8 -1.3,-2.3 -1.3,-5.6 0.5,-8.7 5.6,-9.5 13.6,-17.4 23,-23 4.6,-2.7 9.8,-1.3 11.2,2.4 1.2,2.9 2.4,5.8 3.6,8.7 0.7,1.9 0.7,3.9 0.2,5.6 C 44.2,21.7 44,20.3 43.4,19"
         inkscape:connector-curvature="0"
         style="fill:#ffebb8" />
      <path
         id="path4694"
         d="M 27.9,30.9 C 31.6,34.6 28,6.3 22.9,7.5 17.1,8.8 8.7,17.2 7.4,22.9 6.3,28 18.3,21.3 27.9,30.9"
         inkscape:connector-curvature="0"
         style="fill:#d99634" />
      <path
         id="path4696"
         d="M 26.1,27.9 C 31.7,33.5 27.2,4.2 22.2,5.5 16.6,7 8,15.5 6.5,21.2 c -1.3,5 10.3,-2.6 19.6,6.7"
         inkscape:connector-curvature="0"
         style="fill:#fbbf67" />
      <g
         id="g4712"
         style="fill:#ffebb8">
        <path
           id="path4698"
           d="M 20.6,10.8 C 17,11.8 12.2,17.5 10,21.4 9.7,20.8 9.5,20.2 9.7,19.6 10.8,15.4 17.2,9 21.4,7.9 c 3.7,-1 6,9.6 6.1,14.7 C 26,18.1 23.7,10 20.6,10.8"
           inkscape:connector-curvature="0" />
        <path
           id="path4700"
           d="m 18.8,17.2 h 1.3 v 1.3 h -1.3 z"
           transform="matrix(0.7077,-0.7065,0.7065,0.7077,-6.8974,18.913)"
           inkscape:connector-curvature="0" />
        <path
           id="path4702"
           d="m 21.8,16.9 h 1.3 v 1.3 h -1.3 z"
           transform="matrix(0.7073,-0.7069,0.7069,0.7073,-5.805,20.9655)"
           inkscape:connector-curvature="0" />
        <path
           id="path4704"
           d="m 9.4,30.9 h 1.3 v 1.3 H 9.4 Z"
           transform="matrix(0.7073,-0.7069,0.7069,0.7073,-19.3501,16.2871)"
           inkscape:connector-curvature="0" />
        <path
           id="path4706"
           d="M 8.1,34.7 H 9.4 V 36 H 8.1 Z"
           transform="matrix(0.7071,-0.7071,0.7071,0.7071,-22.4351,16.5292)"
           inkscape:connector-curvature="0" />
        <path
           id="path4708"
           d="m 3.4,43.9 h 1.3 v 1.3 H 3.4 Z"
           transform="matrix(0.7067,-0.7075,0.7075,0.7067,-30.3525,15.9475)"
           inkscape:connector-curvature="0" />
        <path
           id="path4710"
           d="m 4.3,46.4 h 1.3 v 1.3 H 4.3 Z"
           transform="matrix(0.7075,-0.7067,0.7067,0.7075,-31.8156,17.2783)"
           inkscape:connector-curvature="0" />
      </g>
      <g
         id="g4718"
         style="fill:#fbbf67">
        <path
           id="path4714"
           d="M 10.7,56.4 H 12 v 1.3 h -1.3 z"
           transform="matrix(0.7075,-0.7067,0.7067,0.7075,-37.0121,24.7162)"
           inkscape:connector-curvature="0" />
        <path
           id="path4716"
           d="m 9.4,58.2 h 1.3 v 1.3 H 9.4 Z"
           transform="matrix(0.7071,-0.7071,0.7071,0.7071,-38.7091,24.3121)"
           inkscape:connector-curvature="0" />
      </g>
      <g
         id="g4738"
         style="fill:#ffebb8">
        <path
           id="path4720"
           d="m 35.1,9.1 h 1.3 v 1.3 h -1.3 z"
           transform="matrix(0.7071,-0.7071,0.7071,0.7071,3.5572,28.1592)"
           inkscape:connector-curvature="0" />
        <path
           id="path4722"
           d="m 36.9,13.4 h 1.3 v 1.3 h -1.3 z"
           transform="matrix(0.7073,-0.7069,0.7069,0.7073,1.1047,30.6667)"
           inkscape:connector-curvature="0" />
        <path
           id="path4724"
           d="m 49.3,12.5 h 1.3 v 1.3 h -1.3 z"
           transform="matrix(0.7073,-0.7069,0.7069,0.7073,5.3647,39.1435)"
           inkscape:connector-curvature="0" />
        <path
           id="path4726"
           d="m 48.4,9.5 h 1.3 v 1.3 h -1.3 z"
           transform="matrix(0.7073,-0.7069,0.7069,0.7073,7.1954,37.6337)"
           inkscape:connector-curvature="0" />
        <path
           id="path4728"
           d="m 47.5,11.5 h 1.3 v 1.3 h -1.3 z"
           transform="matrix(0.7073,-0.7069,0.7069,0.7073,5.4746,37.595)"
           inkscape:connector-curvature="0" />
        <path
           id="path4730"
           d="m 57.6,11.5 h 1.3 v 1.3 h -1.3 z"
           transform="matrix(0.7079,-0.7063,0.7063,0.7079,8.3941,44.6746)"
           inkscape:connector-curvature="0" />
        <path
           id="path4732"
           d="M 56.7,13.8 H 58 v 1.3 h -1.3 z"
           transform="matrix(0.7069,-0.7073,0.7073,0.7069,6.5722,44.7649)"
           inkscape:connector-curvature="0" />
        <path
           id="path4734"
           d="m 19.8,13.9 h 1.9 v 1.9 h -1.9 z"
           transform="matrix(0.7074,-0.7069,0.7069,0.7074,-4.4574,19.0453)"
           inkscape:connector-curvature="0" />
        <path
           id="path4736"
           d="m 9.9,36.2 h 1.9 v 1.9 H 9.9 Z"
           transform="matrix(0.7071,-0.7071,0.7071,0.7071,-23.0582,18.581)"
           inkscape:connector-curvature="0" />
      </g>
      <path
         id="path4740"
         d="M 8.1,54.7 H 10 v 1.9 H 8.1 Z"
         transform="matrix(0.7074,-0.7069,0.7069,0.7074,-36.7195,22.7284)"
         inkscape:connector-curvature="0"
         style="fill:#fbbf67" />
    </g>
  </g>
</svg>
