<?xml version="1.0" encoding="UTF-8" standalone="no"?>
<!-- Created with Inkscape (http://www.inkscape.org/) -->

<svg
   xmlns:dc="http://purl.org/dc/elements/1.1/"
   xmlns:cc="http://creativecommons.org/ns#"
   xmlns:rdf="http://www.w3.org/1999/02/22-rdf-syntax-ns#"
   xmlns:svg="http://www.w3.org/2000/svg"
   xmlns="http://www.w3.org/2000/svg"
   xmlns:xlink="http://www.w3.org/1999/xlink"
   xmlns:sodipodi="http://sodipodi.sourceforge.net/DTD/sodipodi-0.dtd"
   xmlns:inkscape="http://www.inkscape.org/namespaces/inkscape"
   width="32"
   height="32"
   viewBox="0 0 32.000001 32"
   version="1.1"
   id="svg5216"
   inkscape:version="0.92.4 (5da689c313, 2019-01-14)"
   sodipodi:docname="bank_32.svg">
  <defs
     id="defs5210">
    <linearGradient
       id="linearGradient20061">
      <stop
         id="stop20063"
         offset="0"
         style="stop-color:#5f5f5f;stop-opacity:1" />
      <stop
         id="stop20065"
         offset="1"
         style="stop-color:#ffffff;stop-opacity:1" />
    </linearGradient>
    <linearGradient
       gradientUnits="userSpaceOnUse"
       xlink:href="#linearGradient20061"
       id="linearGradient20067"
       y2="367.57013"
       x2="153.14944"
       y1="355.18741"
       x1="153.14944" />
    <linearGradient
       gradientUnits="userSpaceOnUse"
       xlink:href="#linearGradient20061"
       id="linearGradient20069"
       y2="393.97476"
       x2="158.83301"
       y1="387.77567"
       x1="158.83301" />
    <linearGradient
       gradientUnits="userSpaceOnUse"
       xlink:href="#linearGradient20061"
       id="linearGradient20071"
       y2="431.20993"
       x2="166.60176"
       y1="418.82721"
       x1="166.60176" />
    <linearGradient
       gradientUnits="userSpaceOnUse"
       xlink:href="#linearGradient20061"
       id="linearGradient20073"
       y2="465.61682"
       x2="180.57149"
       y1="453.2341"
       x1="180.57149" />
    <linearGradient
       gradientUnits="userSpaceOnUse"
       xlink:href="#linearGradient20061"
       id="linearGradient20075"
       y2="500.28241"
       x2="180.57149"
       y1="486.8649"
       x1="180.57149" />
    <linearGradient
       gradientUnits="userSpaceOnUse"
       xlink:href="#linearGradient20061"
       id="linearGradient20077"
       y2="533.39581"
       x2="186.74384"
       y1="523.08264"
       x1="186.70538" />
    <linearGradient
       gradientUnits="userSpaceOnUse"
       xlink:href="#linearGradient20061"
       id="linearGradient20079"
       y2="573.23535"
       x2="205.59526"
       y1="559.81781"
       x1="205.30762" />
    <linearGradient
       gradientUnits="userSpaceOnUse"
       xlink:href="#linearGradient20061"
       id="linearGradient20081"
       y2="614.62708"
       x2="221.21588"
       y1="595.51819"
       x1="221.21588" />
    <linearGradient
       gradientUnits="userSpaceOnUse"
       xlink:href="#linearGradient20061"
       id="linearGradient20083"
       y2="690.71924"
       x2="226.68576"
       y1="707.24115"
       x1="227.04597" />
    <linearGradient
       gradientUnits="userSpaceOnUse"
       xlink:href="#linearGradient20061"
       id="linearGradient20085"
       y2="745.0459"
       x2="257.6636"
       y1="762.45709"
       x1="257.6636" />
    <linearGradient
       gradientUnits="userSpaceOnUse"
       xlink:href="#linearGradient20061"
       id="linearGradient20087"
       y2="798.33777"
       x2="256.77985"
       y1="815.7113"
       x1="257.41745" />
    <linearGradient
       gradientUnits="userSpaceOnUse"
       xlink:href="#linearGradient20061"
       id="linearGradient20089"
       y2="860.10504"
       x2="281.27908"
       y1="881.56299"
       x1="281.27908" />
    <linearGradient
       gradientUnits="userSpaceOnUse"
       xlink:href="#linearGradient20061"
       id="linearGradient20091"
       y2="924.73041"
       x2="280.50275"
       y1="957.51337"
       x1="280.8739" />
    <linearGradient
       gradientUnits="userSpaceOnUse"
       xlink:href="#linearGradient20061"
       id="linearGradient20093"
       y2="1009.5486"
       x2="309.45578"
       y1="1029.2899"
       x1="311.73923" />
    <linearGradient
       gradientUnits="userSpaceOnUse"
       xlink:href="#linearGradient20061"
       id="linearGradient20101"
       y2="644.1535"
       x2="218.4669"
       y1="659.64062"
       x1="219.27121" />
    <linearGradient
       gradientTransform="translate(79.812648,-124.83517)"
       gradientUnits="userSpaceOnUse"
       xlink:href="#linearGradient20061"
       id="linearGradient28902"
       y2="367.57013"
       x2="153.14944"
       y1="355.18741"
       x1="153.14944" />
    <linearGradient
       gradientTransform="translate(79.812648,-124.83517)"
       gradientUnits="userSpaceOnUse"
       xlink:href="#linearGradient20061"
       id="linearGradient28906"
       y2="400.16614"
       x2="159.16794"
       y1="390.45505"
       x1="158.83301" />
    <linearGradient
       gradientTransform="translate(79.812648,-124.83517)"
       gradientUnits="userSpaceOnUse"
       xlink:href="#linearGradient20061"
       id="linearGradient28910"
       y2="431.20993"
       x2="166.60176"
       y1="418.82721"
       x1="166.60176" />
    <linearGradient
       gradientTransform="translate(79.812648,-124.83517)"
       gradientUnits="userSpaceOnUse"
       xlink:href="#linearGradient20061"
       id="linearGradient28914"
       y2="465.61682"
       x2="180.57149"
       y1="453.2341"
       x1="180.57149" />
    <linearGradient
       gradientTransform="translate(79.812648,-124.83517)"
       gradientUnits="userSpaceOnUse"
       xlink:href="#linearGradient20061"
       id="linearGradient28918"
       y2="500.28241"
       x2="180.57149"
       y1="486.8649"
       x1="180.57149" />
    <linearGradient
       gradientTransform="translate(79.812648,-124.83517)"
       gradientUnits="userSpaceOnUse"
       xlink:href="#linearGradient20061"
       id="linearGradient28923"
       y2="533.39581"
       x2="186.74384"
       y1="523.08264"
       x1="186.70538" />
    <linearGradient
       gradientTransform="translate(79.812648,-124.83517)"
       gradientUnits="userSpaceOnUse"
       xlink:href="#linearGradient20061"
       id="linearGradient28926"
       y2="573.23535"
       x2="205.59526"
       y1="559.81781"
       x1="205.30762" />
    <linearGradient
       gradientTransform="translate(79.812648,-124.83517)"
       gradientUnits="userSpaceOnUse"
       xlink:href="#linearGradient20061"
       id="linearGradient28930"
       y2="614.62708"
       x2="221.21588"
       y1="595.51819"
       x1="221.21588" />
    <linearGradient
       gradientTransform="translate(79.812648,-124.83517)"
       gradientUnits="userSpaceOnUse"
       xlink:href="#linearGradient20061"
       id="linearGradient28935"
       y2="644.1535"
       x2="218.4669"
       y1="659.64062"
       x1="219.27121" />
    <linearGradient
       gradientTransform="translate(79.812648,-125.81877)"
       gradientUnits="userSpaceOnUse"
       xlink:href="#linearGradient20061"
       id="linearGradient28938"
       y2="690.71924"
       x2="226.68576"
       y1="707.24115"
       x1="227.04597" />
    <linearGradient
       gradientTransform="translate(79.812648,-124.83517)"
       gradientUnits="userSpaceOnUse"
       xlink:href="#linearGradient20061"
       id="linearGradient28942"
       y2="745.0459"
       x2="257.6636"
       y1="762.45709"
       x1="257.6636" />
    <linearGradient
       gradientTransform="translate(79.812648,-124.83517)"
       gradientUnits="userSpaceOnUse"
       xlink:href="#linearGradient20061"
       id="linearGradient28947"
       y2="798.33777"
       x2="256.77985"
       y1="815.7113"
       x1="257.41745" />
    <linearGradient
       gradientTransform="translate(79.812648,-124.83517)"
       gradientUnits="userSpaceOnUse"
       xlink:href="#linearGradient20061"
       id="linearGradient28950"
       y2="863.25891"
       x2="280.49063"
       y1="877.62067"
       x1="281.27908" />
    <linearGradient
       gradientTransform="translate(79.812648,-124.83517)"
       gradientUnits="userSpaceOnUse"
       xlink:href="#linearGradient20061"
       id="linearGradient28955"
       y2="930.67859"
       x2="278.12347"
       y1="946.83441"
       x1="278.89581" />
    <linearGradient
       gradientTransform="translate(79.812648,-124.83517)"
       gradientUnits="userSpaceOnUse"
       xlink:href="#linearGradient20061"
       id="linearGradient28959"
       y2="985.89465"
       x2="306.30194"
       y1="1037.0074"
       x1="311.51562" />
    <linearGradient
       gradientTransform="translate(79.812648,-124.83517)"
       gradientUnits="userSpaceOnUse"
       xlink:href="#linearGradient20061"
       id="linearGradient2290"
       y2="854.80792"
       x2="280.49063"
       y1="877.62067"
       x1="281.27908" />
    <linearGradient
       gradientTransform="translate(79.812648,-124.83517)"
       gradientUnits="userSpaceOnUse"
       xlink:href="#linearGradient20061"
       id="linearGradient2296"
       y2="636.08295"
       x2="218.70227"
       y1="655.94257"
       x1="218.70227" />
    <linearGradient
       gradientTransform="translate(-31.257732,-191.82839)"
       gradientUnits="userSpaceOnUse"
       xlink:href="#linearGradient20061"
       id="linearGradient2339"
       y2="745.0459"
       x2="257.6636"
       y1="762.45709"
       x1="257.6636" />
    <linearGradient
       gradientTransform="translate(-31.257732,-191.82839)"
       gradientUnits="userSpaceOnUse"
       xlink:href="#linearGradient20061"
       id="linearGradient2345"
       y2="367.57013"
       x2="153.14944"
       y1="355.18741"
       x1="153.14944" />
    <linearGradient
       gradientTransform="translate(-31.257732,-191.82839)"
       gradientUnits="userSpaceOnUse"
       xlink:href="#linearGradient20061"
       id="linearGradient2349"
       y2="400.16614"
       x2="159.16794"
       y1="390.45505"
       x1="158.83301" />
    <linearGradient
       gradientTransform="translate(-31.257732,-191.82839)"
       gradientUnits="userSpaceOnUse"
       xlink:href="#linearGradient20061"
       id="linearGradient2353"
       y2="431.20993"
       x2="166.60176"
       y1="418.82721"
       x1="166.60176" />
    <linearGradient
       gradientTransform="translate(-31.257732,-191.82839)"
       gradientUnits="userSpaceOnUse"
       xlink:href="#linearGradient20061"
       id="linearGradient2357"
       y2="465.61682"
       x2="180.57149"
       y1="453.2341"
       x1="180.57149" />
    <linearGradient
       gradientTransform="translate(-31.257732,-191.82839)"
       gradientUnits="userSpaceOnUse"
       xlink:href="#linearGradient20061"
       id="linearGradient2361"
       y2="500.28241"
       x2="180.57149"
       y1="486.8649"
       x1="180.57149" />
    <linearGradient
       gradientTransform="translate(-31.257732,-191.82839)"
       gradientUnits="userSpaceOnUse"
       xlink:href="#linearGradient20061"
       id="linearGradient2366"
       y2="533.39581"
       x2="186.74384"
       y1="523.08264"
       x1="186.70538" />
    <linearGradient
       gradientTransform="translate(-31.257732,-191.82839)"
       gradientUnits="userSpaceOnUse"
       xlink:href="#linearGradient20061"
       id="linearGradient2369"
       y2="573.23535"
       x2="205.59526"
       y1="559.81781"
       x1="205.30762" />
    <linearGradient
       gradientTransform="translate(-31.257732,-191.82839)"
       gradientUnits="userSpaceOnUse"
       xlink:href="#linearGradient20061"
       id="linearGradient2373"
       y2="614.62708"
       x2="221.21588"
       y1="595.51819"
       x1="221.21588" />
    <linearGradient
       gradientTransform="translate(-31.257732,-191.82839)"
       gradientUnits="userSpaceOnUse"
       xlink:href="#linearGradient20061"
       id="linearGradient2378"
       y2="636.08295"
       x2="218.70227"
       y1="655.94257"
       x1="218.70227" />
    <linearGradient
       gradientTransform="translate(-31.257732,-192.81199)"
       gradientUnits="userSpaceOnUse"
       xlink:href="#linearGradient20061"
       id="linearGradient2381"
       y2="690.71924"
       x2="226.68576"
       y1="707.24115"
       x1="227.04597" />
    <linearGradient
       gradientTransform="translate(-31.257732,-191.82839)"
       gradientUnits="userSpaceOnUse"
       xlink:href="#linearGradient20061"
       id="linearGradient2387"
       y2="798.33777"
       x2="256.77985"
       y1="815.7113"
       x1="257.41745" />
    <linearGradient
       gradientTransform="translate(-31.257732,-191.82839)"
       gradientUnits="userSpaceOnUse"
       xlink:href="#linearGradient20061"
       id="linearGradient2390"
       y2="854.80792"
       x2="280.49063"
       y1="877.62067"
       x1="281.27908" />
    <linearGradient
       gradientTransform="translate(-31.257732,-191.82839)"
       gradientUnits="userSpaceOnUse"
       xlink:href="#linearGradient20061"
       id="linearGradient2395"
       y2="930.67859"
       x2="278.12347"
       y1="946.83441"
       x1="278.89581" />
    <linearGradient
       gradientTransform="translate(-31.257732,-191.82839)"
       gradientUnits="userSpaceOnUse"
       xlink:href="#linearGradient20061"
       id="linearGradient2399"
       y2="985.89465"
       x2="306.30194"
       y1="1037.0074"
       x1="311.51562" />
  </defs>
  <sodipodi:namedview
     id="base"
     pagecolor="#ffffff"
     bordercolor="#666666"
     borderopacity="1.0"
     inkscape:pageopacity="0.0"
     inkscape:pageshadow="2"
     inkscape:zoom="3.959798"
     inkscape:cx="-62.760838"
     inkscape:cy="0.48856338"
     inkscape:document-units="px"
     inkscape:current-layer="layer1"
     showgrid="false"
     inkscape:window-width="1920"
     inkscape:window-height="1016"
     inkscape:window-x="0"
     inkscape:window-y="27"
     inkscape:window-maximized="1"
     scale-x="0.8"
     fit-margin-top="0"
     fit-margin-left="0"
     fit-margin-right="0"
     fit-margin-bottom="0"
     units="px" />
  <metadata
     id="metadata5213">
    <rdf:RDF>
      <cc:Work
         rdf:about="">
        <dc:format>image/svg+xml</dc:format>
        <dc:type
           rdf:resource="http://purl.org/dc/dcmitype/StillImage" />
        <dc:title></dc:title>
      </cc:Work>
    </rdf:RDF>
  </metadata>
  <g
     inkscape:label="Layer 1"
     inkscape:groupmode="layer"
     id="layer1"
     transform="translate(-81.838892,-94.08138)">
    <g
       style="fill:#000000;stroke:none"
       transform="matrix(0.00237629,0,0,-0.00237629,86.655676,125.28588)"
       id="g10611">
      <path
         inkscape:connector-curvature="0"
         d="m 5020,12793 c -45,-14 -64,-68 -280,-784 -120,-396 -219,-722 -222,-724 -2,-3 -413,119 -914,269 -500,151 -910,273 -910,273 -11,-12 -433,-1442 -427,-1447 4,-5 109,-38 233,-75 425,-127 503,-165 551,-270 33,-71 18,-191 -51,-432 -106,-363 -1491,-4948 -1536,-5084 -72,-215 -114,-294 -179,-334 -88,-54 -181,-41 -608,87 -130,39 -239,69 -240,67 -2,-2 -99,-323 -217,-714 C 103,3235 5,2910 3,2905 c -2,-6 383,-127 907,-285 565,-169 910,-278 910,-286 0,-6 -95,-325 -210,-708 -151,-500 -210,-710 -210,-745 0,-85 6,-88 542,-249 507,-153 516,-155 571,-104 32,30 20,-5 277,847 99,330 182,605 184,611 3,8 96,-16 273,-69 147,-44 269,-81 270,-81 1,-1 -96,-328 -216,-727 -207,-685 -218,-725 -204,-750 41,-70 26,-64 529,-215 263,-79 489,-144 501,-144 12,0 41,8 65,19 l 43,19 220,732 220,732 30,-6 c 16,-3 107,-21 200,-40 374,-76 605,-101 935,-101 192,1 283,5 370,18 698,108 1257,421 1676,940 383,475 600,1119 581,1722 -7,207 -25,336 -73,523 -123,480 -368,839 -808,1182 l -68,54 93,19 c 143,29 380,110 514,177 232,114 411,244 606,439 492,492 743,1206 664,1885 -32,269 -95,489 -210,721 -295,601 -802,1007 -1646,1320 -85,31 -155,58 -156,59 -1,1 98,335 221,741 l 223,740 -23,47 c -13,26 -28,49 -33,52 -5,4 -231,73 -503,155 l -493,149 -49,-27 -49,-27 -221,-734 c -122,-403 -226,-735 -233,-737 -9,-3 -541,152 -549,160 -2,1 95,327 215,723 188,624 217,726 212,766 -10,81 -16,84 -534,239 -421,126 -502,146 -547,132 z m 641,-3657 c 924,-278 1183,-395 1355,-610 129,-161 184,-376 155,-601 -61,-461 -306,-772 -686,-872 -84,-22 -123,-26 -245,-27 -279,-2 -485,43 -1230,268 -238,72 -345,108 -344,117 1,8 126,429 279,936 171,567 282,920 289,918 6,-2 198,-60 427,-129 z M 4733,5714 c 536,-162 690,-215 885,-309 178,-86 288,-160 386,-258 219,-220 300,-488 250,-825 -31,-211 -122,-450 -234,-618 -66,-98 -201,-233 -301,-301 -284,-194 -517,-225 -979,-133 -159,32 -242,55 -706,196 -373,113 -444,140 -462,177 -25,52 5,164 362,1352 141,468 259,856 261,864 6,17 -34,28 538,-145 z"
         id="path10609" />
    </g>
  </g>
</svg>
