<?xml version="1.0" encoding="UTF-8" standalone="no"?>
<!-- Created with Inkscape (http://www.inkscape.org/) -->

<svg
   xmlns:dc="http://purl.org/dc/elements/1.1/"
   xmlns:cc="http://creativecommons.org/ns#"
   xmlns:rdf="http://www.w3.org/1999/02/22-rdf-syntax-ns#"
   xmlns:svg="http://www.w3.org/2000/svg"
   xmlns="http://www.w3.org/2000/svg"
   xmlns:sodipodi="http://sodipodi.sourceforge.net/DTD/sodipodi-0.dtd"
   xmlns:inkscape="http://www.inkscape.org/namespaces/inkscape"
   width="32"
   height="32"
   viewBox="0 0 32.000001 32"
   version="1.1"
   id="svg5216"
   inkscape:version="0.92.4 (5da689c313, 2019-01-14)"
   sodipodi:docname="clothing_store_32.svg">
  <defs
     id="defs5210" />
  <sodipodi:namedview
     id="base"
     pagecolor="#ffffff"
     bordercolor="#666666"
     borderopacity="1.0"
     inkscape:pageopacity="0.0"
     inkscape:pageshadow="2"
     inkscape:zoom="5.6"
     inkscape:cx="-27.797451"
     inkscape:cy="-13.40519"
     inkscape:document-units="px"
     inkscape:current-layer="layer1"
     showgrid="false"
     inkscape:window-width="1920"
     inkscape:window-height="1016"
     inkscape:window-x="0"
     inkscape:window-y="27"
     inkscape:window-maximized="1"
     scale-x="0.8"
     fit-margin-top="0"
     fit-margin-left="0"
     fit-margin-right="0"
     fit-margin-bottom="0"
     units="px" />
  <metadata
     id="metadata5213">
    <rdf:RDF>
      <cc:Work
         rdf:about="">
        <dc:format>image/svg+xml</dc:format>
        <dc:type
           rdf:resource="http://purl.org/dc/dcmitype/StillImage" />
        <dc:title></dc:title>
      </cc:Work>
    </rdf:RDF>
  </metadata>
  <g
     inkscape:label="Layer 1"
     inkscape:groupmode="layer"
     id="layer1"
     transform="translate(-81.838892,-94.08138)">
    <path
       style="fill:#000000;stroke:none;stroke-width:0.00597461"
       inkscape:connector-curvature="0"
       d="m 90.398785,96.058977 c -1.838383,0.801376 -3.449953,1.525008 -3.581266,1.608744 -0.966941,0.604016 -1.665288,1.931681 -4.202019,7.959949 l -0.304407,0.71766 0.226813,0.19735 c 0.919192,0.80736 2.477043,1.50109 4.136362,1.84198 0.722222,0.14353 0.82966,0.14353 0.82966,-0.006 0,-0.0418 0.107439,-0.39472 0.238751,-0.78345 l 0.238752,-0.70569 v -1.5011 c 0,-1.94363 -0.14922,-3.83943 -0.483472,-6.171803 -0.07162,-0.472456 -0.113406,-0.891088 -0.101469,-0.926968 0.02985,-0.08373 0.471535,2.631391 0.608817,3.719841 0.214876,1.66854 0.33425,3.28325 0.33425,4.47336 0,0.71765 0.01194,0.81932 0.143252,1.07648 0.196968,0.3947 0.501377,1.26785 0.638659,1.85393 0.256657,1.07648 0.370064,2.78091 0.226813,3.42082 -0.02985,0.14951 -0.07162,0.76549 -0.08356,1.3755 -0.01194,0.6399 -0.07162,1.48315 -0.143251,2.00345 -0.06566,0.49039 -0.214877,1.62069 -0.334251,2.51179 -0.119376,0.88509 -0.322315,2.34433 -0.453628,3.2354 -0.262625,1.82404 -0.274563,1.97356 -0.137281,2.17092 0.322314,0.45452 2.662074,1.01069 5.455462,1.29775 1.26538,0.12559 5.11524,0.17941 6.661158,0.0897 3.1336,-0.18539 6.01652,-0.72961 6.77455,-1.26785 0.29247,-0.20931 0.29844,-0.34686 0.0478,-2.29648 -0.25666,-2.00346 -0.54913,-4.8322 -0.68044,-6.6383 -0.0537,-0.65784 -0.13132,-1.61472 -0.17907,-2.12306 -0.10744,-1.15422 -0.0358,-3.03806 0.15519,-3.97699 0.15519,-0.74157 0.45363,-1.70443 0.5551,-1.78816 0.0597,-0.0478 0.0895,-0.3648 0.11937,-1.20206 0.0537,-1.8958 0.30441,-3.97699 0.81772,-6.907401 0.37007,-2.105112 0.38201,-1.93168 0.0299,0.478433 -0.34619,2.386198 -0.45959,3.624138 -0.49541,5.531898 -0.0179,0.95089 -0.0537,1.76424 -0.0836,1.80012 -0.0299,0.0418 0.13131,0.38872 0.43572,0.915 l 0.48944,0.8552 0.4775,-0.0418 c 1.37879,-0.11363 2.53076,-0.5203 3.65886,-1.2858 0.75804,-0.51432 0.93113,-0.66981 0.93113,-0.84921 0,-0.20334 -3.26492,-7.445649 -3.57529,-7.930065 -0.31635,-0.490392 -0.87741,-1.06452 -1.3012,-1.32168 -0.35216,-0.215296 -1.79063,-0.777456 -3.61708,-1.41736 -0.87741,-0.310992 -1.28328,-0.4904 -1.97566,-0.885112 -0.48347,-0.275104 -0.93113,-0.520296 -0.99679,-0.53824 -0.10744,-0.03584 -0.16115,0.02992 -0.37603,0.442552 -0.62672,1.214032 -1.838379,2.05728 -3.258948,2.278552 -0.435721,0.06584 -0.531222,0.05984 -1.038567,-0.05984 -0.698347,-0.161464 -1.4146,-0.448528 -1.856291,-0.747552 -0.507345,-0.334904 -1.06841,-0.968832 -1.325068,-1.501096 -0.119376,-0.245192 -0.23875,-0.448528 -0.262625,-0.442544 -0.02387,0 -1.545913,0.65784 -3.384297,1.459224 z m -3.032138,2.045312 c -0.01791,0.05984 -0.02985,0.02392 -0.02985,-0.07176 0,-0.101664 0.01194,-0.143528 0.02985,-0.10764 0.01194,0.04184 0.01194,0.125592 0,0.179408 z"
       id="path817" />
  </g>
</svg>
