<?xml version="1.0" encoding="UTF-8" standalone="no"?>
<!-- Created with Inkscape (http://www.inkscape.org/) -->

<svg
   xmlns:dc="http://purl.org/dc/elements/1.1/"
   xmlns:cc="http://creativecommons.org/ns#"
   xmlns:rdf="http://www.w3.org/1999/02/22-rdf-syntax-ns#"
   xmlns:svg="http://www.w3.org/2000/svg"
   xmlns="http://www.w3.org/2000/svg"
   xmlns:sodipodi="http://sodipodi.sourceforge.net/DTD/sodipodi-0.dtd"
   xmlns:inkscape="http://www.inkscape.org/namespaces/inkscape"
   width="32"
   height="32"
   viewBox="0 0 32.000001 32"
   version="1.1"
   id="svg5216"
   inkscape:version="0.92.4 (5da689c313, 2019-01-14)"
   sodipodi:docname="dim_32.svg">
  <defs
     id="defs5210" />
  <sodipodi:namedview
     id="base"
     pagecolor="#ffffff"
     bordercolor="#666666"
     borderopacity="1.0"
     inkscape:pageopacity="0.0"
     inkscape:pageshadow="2"
     inkscape:zoom="5.6"
     inkscape:cx="-64.226022"
     inkscape:cy="-13.40519"
     inkscape:document-units="px"
     inkscape:current-layer="layer1"
     showgrid="false"
     inkscape:window-width="1920"
     inkscape:window-height="1016"
     inkscape:window-x="0"
     inkscape:window-y="27"
     inkscape:window-maximized="1"
     scale-x="0.8"
     fit-margin-top="0"
     fit-margin-left="0"
     fit-margin-right="0"
     fit-margin-bottom="0"
     units="px" />
  <metadata
     id="metadata5213">
    <rdf:RDF>
      <cc:Work
         rdf:about="">
        <dc:format>image/svg+xml</dc:format>
        <dc:type
           rdf:resource="http://purl.org/dc/dcmitype/StillImage" />
        <dc:title></dc:title>
      </cc:Work>
    </rdf:RDF>
  </metadata>
  <g
     inkscape:label="Layer 1"
     inkscape:groupmode="layer"
     id="layer1"
     transform="translate(-81.838892,-94.08138)">
    <path
       style="clip-rule:evenodd;fill-rule:evenodd;stroke-width:0.17777552"
       inkscape:connector-curvature="0"
       d="m 103.91592,102.03656 9.22282,9.19936 c 0.19413,0.19341 0.32603,0.47394 0.32195,0.75181 a 0.77403458,0.77403458 0 0 1 -0.23857,0.5527 l -5.49398,5.39744 c -0.36835,0.24551 -0.83164,0.28409 -1.16176,-0.0848 l -4.62287,-4.62288 c -0.2576,-0.29796 -0.31182,-0.58862 -0.14507,-0.88337 0.20586,-0.32675 0.50826,-0.55662 0.76248,-0.84729 H 83.187302 c -0.719814,0 -0.9703,-0.44692 -0.9703,-0.95305 v -7.61217 c 0.01992,-0.55661 0.301865,-0.89012 0.966564,-0.89759 h 20.732354 z m -0.1207,0.26631 8.84468,8.89429 H 83.004904 c -0.367641,0 -0.460972,-0.37955 -0.459728,-0.68959 v -7.69644 c 0.0055,-0.2896 0.274844,-0.50417 0.556619,-0.50826 z m -7.043111,1.1134 2.29899,2.3598 2.456511,-2.3598 h 1.77366 c 0.19715,0 0.19928,0.14951 0.19928,0.30259 v 6.11102 c 0,0.18826 -0.0379,0.27841 -0.25422,0.27841 h -1.77917 c -0.13583,0 -0.14508,-0.12321 -0.14508,-0.22987 v -2.96494 l -2.262891,2.10575 -2.27499,-2.14202 v 2.94432 c 0,0.15413 -0.0137,0.28676 -0.25405,0.28676 h -1.68548 c -0.12142,0 -0.20231,-0.0714 -0.20231,-0.23858 v -6.23566 c 0,-0.12533 0.0976,-0.21778 0.19359,-0.21778 z m -2.89863,0 c 0.0999,0 0.12729,0.0872 0.12729,0.26631 v 6.24046 c 0,0.15413 -0.10827,0.18542 -0.22987,0.18542 h -1.82966 c -0.13049,0 -0.13085,-0.091 -0.13085,-0.2048 v -6.25751 c 0,-0.14064 0.0597,-0.22988 0.18151,-0.22988 z m -6.492187,2.15393 c 0.791104,0 1.535447,0.35609 1.539717,1.23377 0.004,0.78915 -0.664525,1.18648 -1.361405,1.18648 h -1.642472 c -0.12142,0 -0.169951,-0.1081 -0.169419,-0.2057 l 0.01211,-2.05722 a 0.15768688,0.15768688 0 0 1 0.157331,-0.15733 z m 0.343641,-2.15642 c 0.908256,-6.8e-4 1.710556,0.21778 2.408506,0.79644 0.82683,0.68568 1.22985,1.6334 1.22452,2.72281 -0.005,0.92924 -0.49955,1.80744 -1.1911,2.40744 -0.67003,0.58115 -1.42878,0.76763 -2.313571,0.76763 h -3.93293 c -0.208351,0 -0.303285,-0.19644 -0.302572,-0.37492 l 0.02419,-6.00241 c 10e-4,-0.25191 0.206574,-0.31467 0.39946,-0.31467 z m 25.226517,8.08612 c 0.11111,0.102 0.20214,0.30099 0.20516,0.48266 0.004,0.28481 -0.24818,0.46595 -0.42293,0.65493 l -5.11904,5.04653 c -0.31983,0.21314 -0.60142,0.18541 -0.87715,-0.0896 l -4.5443,-4.53328 c -0.12089,-0.14507 -0.19341,-0.39929 -0.0966,-0.6048 0.2542,-0.35111 0.58095,-0.6295 0.88334,-0.95626 h 9.97144 z"
       id="path840" />
  </g>
</svg>
