<?xml version="1.0" encoding="UTF-8" standalone="no"?>
<!-- Created with Inkscape (http://www.inkscape.org/) -->

<svg
   xmlns:dc="http://purl.org/dc/elements/1.1/"
   xmlns:cc="http://creativecommons.org/ns#"
   xmlns:rdf="http://www.w3.org/1999/02/22-rdf-syntax-ns#"
   xmlns:svg="http://www.w3.org/2000/svg"
   xmlns="http://www.w3.org/2000/svg"
   xmlns:sodipodi="http://sodipodi.sourceforge.net/DTD/sodipodi-0.dtd"
   xmlns:inkscape="http://www.inkscape.org/namespaces/inkscape"
   width="32"
   height="32"
   viewBox="0 0 32.000001 32"
   version="1.1"
   id="svg5216"
   inkscape:version="0.92.4 (5da689c313, 2019-01-14)"
   sodipodi:docname="electronics_32.svg">
  <defs
     id="defs5210" />
  <sodipodi:namedview
     id="base"
     pagecolor="#ffffff"
     bordercolor="#666666"
     borderopacity="1.0"
     inkscape:pageopacity="0.0"
     inkscape:pageshadow="2"
     inkscape:zoom="1.979899"
     inkscape:cx="-52.695072"
     inkscape:cy="-38.480844"
     inkscape:document-units="px"
     inkscape:current-layer="layer1"
     showgrid="false"
     inkscape:window-width="1920"
     inkscape:window-height="1016"
     inkscape:window-x="0"
     inkscape:window-y="27"
     inkscape:window-maximized="1"
     scale-x="0.8"
     fit-margin-top="0"
     fit-margin-left="0"
     fit-margin-right="0"
     fit-margin-bottom="0"
     units="px"
     inkscape:snap-bbox="true"
     inkscape:bbox-paths="true"
     inkscape:bbox-nodes="true"
     inkscape:snap-bbox-edge-midpoints="true"
     inkscape:snap-bbox-midpoints="true" />
  <metadata
     id="metadata5213">
    <rdf:RDF>
      <cc:Work
         rdf:about="">
        <dc:format>image/svg+xml</dc:format>
        <dc:type
           rdf:resource="http://purl.org/dc/dcmitype/StillImage" />
        <dc:title />
      </cc:Work>
    </rdf:RDF>
  </metadata>
  <g
     inkscape:label="Layer 1"
     inkscape:groupmode="layer"
     id="layer1"
     transform="translate(-81.838892,-94.08138)">
    <g
       id="g4602"
       transform="matrix(1.9943689,0,0,1.9943689,81.883941,94.126429)">
      <rect
         style="visibility:hidden;fill:none;stroke:none"
         id="canvas-7"
         y="0"
         x="0"
         height="16"
         width="16" />
      <path
         transform="translate(1,1)"
         style="fill:#ac39ac;fill-opacity:1"
         id="electronics"
         d="M 9.375,0.03125 C 9.228609,0.0143576 9.069653,0.0553473 8.9375,0.1875 L 6.03125,3.125 4.125,1.1875 C 3.913054,0.9017344 3.437513,0.8725487 3.1875,1.125 2.937487,1.3774513 2.966994,1.8484875 3.25,2.0625 L 5.15625,4 H 2 C 1,4 0,5 0,6 v 6 c 0,1 1,2 2,2 h 10 c 1,0 2,-1 2,-2 V 6 C 14,5 13,4 12,4 H 6.90625 L 9.8125,1.0625 C 10.20002,0.6749802 9.814172,0.0819271 9.375,0.03125 Z M 6,6 c 3,0 4,0 4,3 0,3 -1,3 -4,3 C 3,12 2,12 2,9 2,6 3,6 6,6 Z m 6,0.125 c 0.483249,0 0.875,0.3917508 0.875,0.875 0,0.4832492 -0.391751,0.875 -0.875,0.875 -0.483249,0 -0.875,-0.3917508 -0.875,-0.875 0,-0.4832492 0.391751,-0.875 0.875,-0.875 z m 0,3 c 0.483249,0 0.875,0.391751 0.875,0.875 0,0.483249 -0.391751,0.875 -0.875,0.875 -0.483249,0 -0.875,-0.391751 -0.875,-0.875 0,-0.483249 0.391751,-0.875 0.875,-0.875 z"
         inkscape:connector-curvature="0" />
    </g>
  </g>
</svg>
