<?xml version="1.0" encoding="UTF-8" standalone="no"?>
<!-- Created with Inkscape (http://www.inkscape.org/) -->

<svg
   xmlns:dc="http://purl.org/dc/elements/1.1/"
   xmlns:cc="http://creativecommons.org/ns#"
   xmlns:rdf="http://www.w3.org/1999/02/22-rdf-syntax-ns#"
   xmlns:svg="http://www.w3.org/2000/svg"
   xmlns="http://www.w3.org/2000/svg"
   xmlns:sodipodi="http://sodipodi.sourceforge.net/DTD/sodipodi-0.dtd"
   xmlns:inkscape="http://www.inkscape.org/namespaces/inkscape"
   width="32"
   height="32"
   viewBox="0 0 32.000001 32"
   version="1.1"
   id="svg5216"
   inkscape:version="0.92.4 (5da689c313, 2019-01-14)"
   sodipodi:docname="fnac_32.svg">
  <defs
     id="defs5210" />
  <sodipodi:namedview
     id="base"
     pagecolor="#ffffff"
     bordercolor="#666666"
     borderopacity="1.0"
     inkscape:pageopacity="0.0"
     inkscape:pageshadow="2"
     inkscape:zoom="11.2"
     inkscape:cx="31.379194"
     inkscape:cy="9.8715136"
     inkscape:document-units="px"
     inkscape:current-layer="layer1"
     showgrid="false"
     inkscape:window-width="1920"
     inkscape:window-height="1016"
     inkscape:window-x="0"
     inkscape:window-y="27"
     inkscape:window-maximized="1"
     scale-x="0.8"
     fit-margin-top="0"
     fit-margin-left="0"
     fit-margin-right="0"
     fit-margin-bottom="0"
     units="px" />
  <metadata
     id="metadata5213">
    <rdf:RDF>
      <cc:Work
         rdf:about="">
        <dc:format>image/svg+xml</dc:format>
        <dc:type
           rdf:resource="http://purl.org/dc/dcmitype/StillImage" />
        <dc:title></dc:title>
      </cc:Work>
    </rdf:RDF>
  </metadata>
  <g
     inkscape:label="Layer 1"
     inkscape:groupmode="layer"
     id="layer1"
     transform="translate(-81.838892,-94.08138)">
    <g
       style="overflow:visible"
       id="g835"
       transform="matrix(0.06185974,0,0,0.06185974,82.401856,94.149466)">
      <g
         id="g822">
	<path
   id="path816"
   d="m 287.471,208.043 c 0,10.078 9.727,12.551 20.639,12.551 11.387,0 31.281,-4.162 31.281,-30.711 -5.695,3.994 -21.555,4.184 -31.992,5.705 -10.44,1.711 -19.928,2.564 -19.928,12.455 z"
   inkscape:connector-curvature="0"
   style="fill:#ebb300" />

	<path
   id="path818"
   d="m 144.246,137.674 h 14.207 v 13.693 h 0.625 c 7.5,-11.031 29.25,-16.035 41.75,-16.035 31.461,0 50,15.846 50,40.188 V 236 H 221.244 V 180.465 C 221.244,164.299 204.58,156 190.828,156 c -16.041,0 -30.916,8.49 -30.916,28.459 V 236 H 130.326 V 155.74 H 84.828 V 236 H 57.244 V 155.74 H 44.977 L 0,441.436 429.604,515.098 475.708,222.243 c -10.248,10.73 -26.371,16.42 -46.297,16.42 -36.232,0 -60.619,-20.92 -60.619,-50.398 0,-30.621 22.297,-53.252 61.316,-53.252 25.039,0 48.252,9.512 54.76,29.045 L 499.098,73.663 69.496,0 47.822,137.674 h 9.422 v -7.607 c 0,-17.307 15.584,-37.4 49.584,-37.4 22.668,0 50.668,6 50.668,36 h -26 C 131.496,118 114.828,114 106.828,114 c -11.332,0 -22,9.6 -22,17.777 v 5.896 h 45.498 13.92 z m 222.828,99.658 h -28.92 V 226.49 c -10.676,8.939 -27.674,12.172 -42.617,12.172 -23.248,0 -41.752,-9.318 -41.752,-29.479 0,-22.252 20.875,-27.578 41.752,-29.859 20.637,-2.473 39.854,-1.902 39.854,-12.934 0,-11.6 -9.965,-13.313 -21.826,-13.313 -12.809,0 -21.111,4.184 -22.299,14.834 H 257.58 c 1.898,-25.293 28.127,-32.9 55.646,-32.9 24.434,0 53.848,8.373 53.848,31.957 z"
   inkscape:connector-curvature="0"
   style="fill:#ebb300" />

	<path
   id="path820"
   d="m 429.875,155.361 c -21.135,0 -28.104,17.496 -28.104,31.951 0,14.072 6.736,31 27.406,31 15.33,0 24.156,-7.988 26.246,-19.971 h 24.045 l 4.102,-26.055 h -29.309 c -2.089,-11.03 -10.683,-16.925 -24.386,-16.925 z"
   inkscape:connector-curvature="0"
   style="fill:#ebb300" />

</g>
    </g>
  </g>
</svg>
