<?xml version="1.0" encoding="UTF-8" standalone="no"?>
<!-- Created with Inkscape (http://www.inkscape.org/) -->

<svg
   xmlns:dc="http://purl.org/dc/elements/1.1/"
   xmlns:cc="http://creativecommons.org/ns#"
   xmlns:rdf="http://www.w3.org/1999/02/22-rdf-syntax-ns#"
   xmlns:svg="http://www.w3.org/2000/svg"
   xmlns="http://www.w3.org/2000/svg"
   xmlns:sodipodi="http://sodipodi.sourceforge.net/DTD/sodipodi-0.dtd"
   xmlns:inkscape="http://www.inkscape.org/namespaces/inkscape"
   width="32"
   height="32"
   viewBox="0 0 32.000001 32"
   version="1.1"
   id="svg5216"
   inkscape:version="0.92.4 (5da689c313, 2019-01-14)"
   sodipodi:docname="grocery_32.svg">
  <defs
     id="defs5210" />
  <sodipodi:namedview
     id="base"
     pagecolor="#ffffff"
     bordercolor="#666666"
     borderopacity="1.0"
     inkscape:pageopacity="0.0"
     inkscape:pageshadow="2"
     inkscape:zoom="5.6"
     inkscape:cx="32.285741"
     inkscape:cy="-5.9113486"
     inkscape:document-units="px"
     inkscape:current-layer="layer1"
     showgrid="false"
     inkscape:window-width="1920"
     inkscape:window-height="1016"
     inkscape:window-x="0"
     inkscape:window-y="27"
     inkscape:window-maximized="1"
     scale-x="0.8"
     fit-margin-top="0"
     fit-margin-left="0"
     fit-margin-right="0"
     fit-margin-bottom="0"
     units="px" />
  <metadata
     id="metadata5213">
    <rdf:RDF>
      <cc:Work
         rdf:about="">
        <dc:format>image/svg+xml</dc:format>
        <dc:type
           rdf:resource="http://purl.org/dc/dcmitype/StillImage" />
        <dc:title></dc:title>
      </cc:Work>
    </rdf:RDF>
  </metadata>
  <g
     inkscape:label="Layer 1"
     inkscape:groupmode="layer"
     id="layer1"
     transform="translate(-81.838892,-94.08138)">
    <g
       id="g10033"
       transform="matrix(0.51488096,0,0,0.51488096,81.362797,93.605189)">
      <g
         id="g9990"
         style="fill:#b2c1c0">
        <path
           id="path9986"
           d="m 53.1,38.6 h -7.5 v 3.8 h 7.5 c 1,0 1.9,0.8 1.9,1.9 0,1.1 -0.8,1.9 -1.9,1.9 H 6.3 c -1,0 -1.9,0.8 -1.9,1.9 0,1 0.8,1.9 1.9,1.9 h 46.9 c 3.1,0 5.6,-2.5 5.6,-5.6 0,-3.3 -2.6,-5.8 -5.7,-5.8"
           inkscape:connector-curvature="0" />
        <path
           id="path9988"
           d="m 54.5,25.7 -3.7,-0.3 c 0,-0.1 2.3,-13.8 2.8,-16.6 0.3,-1.6 0.9,-6.1 6.6,-6.1 v 3.8 c -2.3,0 -2.6,0.9 -2.8,2.6 -0.6,2.8 -2.9,16.4 -2.9,16.6"
           inkscape:connector-curvature="0" />
      </g>
      <path
         id="path9992"
         d="M 54.7,12.3 H 4 c -1.9,0 -2.2,1.8 -1.9,2.8 l 5.7,25.4 c 0.3,1 1.3,1.8 2.4,1.8 H 50 c 1,0 2,-0.8 2.2,-1.9 l 4.2,-26.3 c 0.1,-0.9 -0.7,-1.8 -1.7,-1.8 M 6.9,20.8 5.9,17 C 5.8,16.5 6.1,16.1 6.6,16.1 h 7.1 c 0.5,0 1,0.4 1,0.9 l 0.4,3.8 c 0.1,0.5 -0.3,0.9 -0.8,0.9 H 8 c -0.5,0 -1,-0.4 -1.1,-0.9 m 3.2,9.3 c -0.5,0 -1,-0.4 -1.2,-0.9 L 8.2,26.3 C 8.1,25.8 8.4,25.4 8.9,25.4 h 5.7 c 0.5,0 1,0.4 1,0.9 l 0.3,2.8 c 0.1,0.5 -0.3,0.9 -0.8,0.9 0.1,0.1 -5,0.1 -5,0.1 m 6,8.5 h -3.9 c -0.5,0 -1,-0.4 -1.2,-0.9 l -0.7,-2.9 c -0.1,-0.5 0.2,-0.9 0.7,-0.9 h 4.5 c 0.5,0 1,0.4 1,0.9 l 0.3,2.8 c 0.2,0.5 -0.2,1 -0.7,1 m 11.5,-1 c 0,0.5 -0.4,0.9 -0.9,0.9 h -4.9 c -0.5,0 -1,-0.4 -1,-0.9 l -0.3,-2.8 c -0.1,-0.5 0.3,-0.9 0.8,-0.9 h 5.4 c 0.5,0 0.9,0.4 0.9,0.9 v 2.8 m 0,-8.4 c 0,0.5 -0.4,0.9 -0.9,0.9 h -5.8 c -0.5,0 -1,-0.4 -1,-0.9 l -0.3,-2.8 c -0.1,-0.5 0.3,-0.9 0.8,-0.9 h 6.3 c 0.5,0 0.9,0.4 0.9,0.9 0,0 0,2.8 0,2.8 m 0,-8.4 c 0,0.5 -0.4,0.9 -0.9,0.9 H 20 c -0.5,0 -1,-0.4 -1,-0.9 L 18.5,17 c -0.1,-0.5 0.3,-0.9 0.8,-0.9 h 7.3 c 0.5,0 0.9,0.4 0.9,0.9 0.1,0 0.1,3.8 0.1,3.8 m 10.2,16.8 c -0.1,0.5 -0.5,0.9 -1,0.9 h -4.4 c -0.5,0 -0.9,-0.4 -0.9,-0.9 v -2.8 c 0,-0.5 0.4,-0.9 0.9,-0.9 h 4.9 c 0.5,0 0.9,0.4 0.8,0.9 l -0.3,2.8 m 0.9,-8.4 c -0.1,0.5 -0.5,0.9 -1,0.9 h -5.3 c -0.5,0 -0.9,-0.4 -0.9,-0.9 v -2.8 c 0,-0.5 0.4,-0.9 0.9,-0.9 h 5.8 c 0.5,0 0.9,0.4 0.8,0.9 l -0.3,2.8 m 0.9,-8.4 c -0.1,0.5 -0.5,0.9 -1,0.9 h -6.2 c -0.5,0 -0.9,-0.4 -0.9,-0.9 V 17 c 0,-0.5 0.4,-0.9 0.9,-0.9 h 6.8 c 0.5,0 0.9,0.4 0.8,0.9 l -0.4,3.8 m 8.7,16.8 c -0.1,0.5 -0.6,0.9 -1.1,0.9 h -4.8 c -0.5,0 -0.9,-0.4 -0.8,-0.9 l 0.3,-2.8 c 0.1,-0.5 0.5,-0.9 1,-0.9 H 48 c 0.5,0 0.9,0.4 0.8,0.9 l -0.5,2.8 m 1.3,-8.4 c -0.1,0.5 -0.6,0.9 -1.1,0.9 h -5.3 c -0.5,0 -0.9,-0.4 -0.8,-0.9 l 0.3,-2.8 c 0.1,-0.5 0.5,-0.9 1,-0.9 h 5.5 c 0.5,0 0.9,0.4 0.8,0.9 l -0.4,2.8 m 1.3,-8.4 c -0.1,0.5 -0.6,0.9 -1.1,0.9 h -5.7 c -0.5,0 -0.9,-0.4 -0.8,-0.9 L 43.7,17 c 0.1,-0.5 0.5,-0.9 1,-0.9 h 5.9 c 0.5,0 0.9,0.4 0.8,0.9 l -0.5,3.8"
         inkscape:connector-curvature="0"
         style="fill:#f15744" />
      <circle
         id="circle9994"
         r="5.5999999"
         cy="56.400002"
         cx="12.3"
         style="fill:#62727a" />
      <circle
         id="circle9996"
         r="2.8"
         cy="56.400002"
         cx="12.3"
         style="fill:#ffffff" />
      <circle
         id="circle9998"
         r="5.5999999"
         cy="56.400002"
         cx="46.099998"
         style="fill:#62727a" />
      <path
         id="path10000"
         d="m 48.9,56.4 c 0,1.6 -1.3,2.8 -2.8,2.8 -1.6,0 -2.8,-1.3 -2.8,-2.8 0,-1.6 1.3,-2.8 2.8,-2.8 1.5,0 2.8,1.2 2.8,2.8"
         inkscape:connector-curvature="0"
         style="fill:#ffffff" />
      <path
         id="path10002"
         d="m 61.1,2 h -2.8 v 5.6 h 2.8 C 61.6,7.6 62,7.2 62,6.7 V 2.9 C 62,2.4 61.6,2 61.1,2"
         inkscape:connector-curvature="0"
         style="fill:#62727a" />
      <g
         id="g10008"
         style="fill:#f15744">
        <path
           id="path10004"
           d="m 12.3,48.9 c -4.1,0 -7.5,3.4 -7.5,7.5 h 15 c 0,-4.2 -3.3,-7.5 -7.5,-7.5"
           inkscape:connector-curvature="0" />
        <path
           id="path10006"
           d="m 46.1,48.9 c -4.1,0 -7.5,3.4 -7.5,7.5 h 15 c 0,-4.2 -3.4,-7.5 -7.5,-7.5"
           inkscape:connector-curvature="0" />
      </g>
      <path
         id="path10010"
         d="m 42.3,38.4 c 0,0.1 0,0.1 0,0.1 0,0 0,0 0,-0.1"
         inkscape:connector-curvature="0"
         style="fill:#75a843" />
    </g>
  </g>
</svg>
