<?xml version="1.0" encoding="UTF-8" standalone="no"?>
<!-- Created with Inkscape (http://www.inkscape.org/) -->

<svg
   xmlns:dc="http://purl.org/dc/elements/1.1/"
   xmlns:cc="http://creativecommons.org/ns#"
   xmlns:rdf="http://www.w3.org/1999/02/22-rdf-syntax-ns#"
   xmlns:svg="http://www.w3.org/2000/svg"
   xmlns="http://www.w3.org/2000/svg"
   xmlns:sodipodi="http://sodipodi.sourceforge.net/DTD/sodipodi-0.dtd"
   xmlns:inkscape="http://www.inkscape.org/namespaces/inkscape"
   width="32"
   height="32"
   viewBox="0 0 32.000001 32"
   version="1.1"
   id="svg5216"
   inkscape:version="0.92.4 (5da689c313, 2019-01-14)"
   sodipodi:docname="perfumery_32.svg">
  <defs
     id="defs5210" />
  <sodipodi:namedview
     id="base"
     pagecolor="#ffffff"
     bordercolor="#666666"
     borderopacity="1.0"
     inkscape:pageopacity="0.0"
     inkscape:pageshadow="2"
     inkscape:zoom="1.979899"
     inkscape:cx="-165.42033"
     inkscape:cy="-59.487392"
     inkscape:document-units="px"
     inkscape:current-layer="layer1"
     showgrid="false"
     inkscape:window-width="1920"
     inkscape:window-height="1016"
     inkscape:window-x="0"
     inkscape:window-y="27"
     inkscape:window-maximized="1"
     scale-x="0.8"
     fit-margin-top="0"
     fit-margin-left="0"
     fit-margin-right="0"
     fit-margin-bottom="0"
     units="px"
     inkscape:snap-bbox="true"
     inkscape:bbox-paths="true"
     inkscape:bbox-nodes="true"
     inkscape:snap-bbox-edge-midpoints="true"
     inkscape:snap-bbox-midpoints="true" />
  <metadata
     id="metadata5213">
    <rdf:RDF>
      <cc:Work
         rdf:about="">
        <dc:format>image/svg+xml</dc:format>
        <dc:type
           rdf:resource="http://purl.org/dc/dcmitype/StillImage" />
        <dc:title />
      </cc:Work>
    </rdf:RDF>
  </metadata>
  <g
     inkscape:label="Layer 1"
     inkscape:groupmode="layer"
     id="layer1"
     transform="translate(-81.838892,-94.08138)">
    <path
       inkscape:connector-curvature="0"
       id="perfumery"
       style="fill:#ac39ac;fill-opacity:1;stroke:none;stroke-width:2.27344441"
       d="m 113.753,99.850863 c 0,2.638427 -2.54464,4.777287 -5.68361,4.777287 -3.13898,0 -5.68361,-2.13886 -5.68361,-4.777287 0,-2.638415 2.54463,-4.777272 5.68361,-4.777272 3.13897,0 5.68361,2.138857 5.68361,4.777272 z m -13.64066,-1.136714 h 4.54688 v 2.273441 h -4.54688 z M 88.745118,94.16726 h 2.273444 v 2.273443 h -2.273444 z m -4.54689,0 h 2.273445 v 2.273443 h -2.273446 z m 0,9.09378 h 2.273445 v 2.27343 h -2.273446 z m 4.54689,0 h 2.273444 v 2.27343 h -2.273444 z m 2.273444,-4.546891 h 2.273444 v 2.273441 h -2.273444 z m -4.546888,0 h 2.273444 v 2.273441 h -2.273444 z m -4.54689,0 h 2.273444 v 2.273441 h -2.273444 z m 13.640667,7.779991 4.546889,-0.0532 v -7.726679 c 0,-2.273444 0,-2.273444 -2.273445,-2.273444 -2.197056,0.03819 -2.273444,0 -2.273444,2.273444 z m -2.273444,1.3138 c -4.546889,0 -8.028101,6.82034 -8.028101,11.36722 0,2.27344 5.754656,6.82034 8.0281,6.82034 h 9.093774 c 2.27344,0 7.76168,-4.5469 7.76168,-6.82034 0,-4.54688 -3.21479,-11.36722 -7.76168,-11.36722 z" />
  </g>
</svg>
