<?xml version="1.0" encoding="UTF-8" standalone="no"?>
<!-- Created with Inkscape (http://www.inkscape.org/) -->

<svg
   xmlns:dc="http://purl.org/dc/elements/1.1/"
   xmlns:cc="http://creativecommons.org/ns#"
   xmlns:rdf="http://www.w3.org/1999/02/22-rdf-syntax-ns#"
   xmlns:svg="http://www.w3.org/2000/svg"
   xmlns="http://www.w3.org/2000/svg"
   xmlns:sodipodi="http://sodipodi.sourceforge.net/DTD/sodipodi-0.dtd"
   xmlns:inkscape="http://www.inkscape.org/namespaces/inkscape"
   width="32"
   height="32"
   viewBox="0 0 32.000001 32"
   version="1.1"
   id="svg5216"
   inkscape:version="0.92.4 (5da689c313, 2019-01-14)"
   sodipodi:docname="shop-32.svg">
  <defs
     id="defs5210" />
  <sodipodi:namedview
     id="base"
     pagecolor="#ffffff"
     bordercolor="#666666"
     borderopacity="1.0"
     inkscape:pageopacity="0.0"
     inkscape:pageshadow="2"
     inkscape:zoom="5.6"
     inkscape:cx="8.6311205"
     inkscape:cy="-13.40519"
     inkscape:document-units="px"
     inkscape:current-layer="layer1"
     showgrid="false"
     inkscape:window-width="1920"
     inkscape:window-height="1016"
     inkscape:window-x="0"
     inkscape:window-y="27"
     inkscape:window-maximized="1"
     scale-x="0.8"
     fit-margin-top="0"
     fit-margin-left="0"
     fit-margin-right="0"
     fit-margin-bottom="0"
     units="px" />
  <metadata
     id="metadata5213">
    <rdf:RDF>
      <cc:Work
         rdf:about="">
        <dc:format>image/svg+xml</dc:format>
        <dc:type
           rdf:resource="http://purl.org/dc/dcmitype/StillImage" />
        <dc:title></dc:title>
      </cc:Work>
    </rdf:RDF>
  </metadata>
  <g
     inkscape:label="Layer 1"
     inkscape:groupmode="layer"
     id="layer1"
     transform="translate(-81.838892,-94.08138)">
    <path
       id="path4560"
       d="m 112.44897,108.05228 v 0.81165 c 0,0.67244 -0.54508,1.21753 -1.21751,1.21753 h -0.40584 l -1.32469,9.27273 c -0.17136,1.19959 -1.19874,2.09065 -2.41052,2.09065 H 88.587366 c -1.211775,0 -2.239147,-0.89106 -2.410562,-2.09065 l -1.324647,-9.27273 h -0.405834 c -0.672421,0 -1.217506,-0.54509 -1.217506,-1.21753 v -0.81165 c 0,-0.67243 0.545085,-1.21752 1.217506,-1.21752 h 3.416171 l 5.416883,-7.448136 c 0.52734,-0.725036 1.542541,-0.885384 2.267658,-0.358042 0.725076,0.527329 0.885384,1.542568 0.358055,2.267658 l -4.028074,5.53852 h 11.923754 l -4.028077,-5.53858 c -0.527327,-0.72503 -0.366974,-1.74033 0.358097,-2.267647 0.72498,-0.527342 1.74033,-0.367043 2.26767,0.35803 l 5.41684,7.448197 h 3.41616 c 0.67243,0 1.21751,0.54509 1.21751,1.21752 z m -13.392569,8.92838 v -5.68169 c 0,-0.67244 -0.545088,-1.21751 -1.217509,-1.21751 -0.672422,0 -1.21751,0.54507 -1.21751,1.21751 v 5.68169 c 0,0.67241 0.545088,1.21751 1.21751,1.21751 0.672421,0 1.217509,-0.5451 1.217509,-1.21751 z m 5.681689,0 v -5.68169 c 0,-0.67244 -0.54508,-1.21751 -1.2175,-1.21751 -0.67242,0 -1.21751,0.54507 -1.21751,1.21751 v 5.68169 c 0,0.67241 0.54509,1.21751 1.21751,1.21751 0.67242,0 1.2175,-0.5451 1.2175,-1.21751 z m -11.363394,0 v -5.68169 c 0,-0.67244 -0.545077,-1.21751 -1.2175,-1.21751 -0.672425,0 -1.217512,0.54507 -1.217512,1.21751 v 5.68169 c 0,0.67241 0.545087,1.21751 1.217512,1.21751 0.672423,0 1.2175,-0.5451 1.2175,-1.21751 z"
       inkscape:connector-curvature="0"
       style="stroke-width:0.05072945" />
  </g>
</svg>
