<?xml version="1.0" encoding="UTF-8" standalone="no"?>
<!-- Created with Inkscape (http://www.inkscape.org/) -->

<svg
   xmlns:dc="http://purl.org/dc/elements/1.1/"
   xmlns:cc="http://creativecommons.org/ns#"
   xmlns:rdf="http://www.w3.org/1999/02/22-rdf-syntax-ns#"
   xmlns:svg="http://www.w3.org/2000/svg"
   xmlns="http://www.w3.org/2000/svg"
   xmlns:xlink="http://www.w3.org/1999/xlink"
   xmlns:sodipodi="http://sodipodi.sourceforge.net/DTD/sodipodi-0.dtd"
   xmlns:inkscape="http://www.inkscape.org/namespaces/inkscape"
   width="32"
   height="32"
   viewBox="0 0 32.000001 32"
   version="1.1"
   id="svg5216"
   inkscape:version="0.92.4 (5da689c313, 2019-01-14)"
   sodipodi:docname="stairs_32.svg">
  <defs
     id="defs5210">
    <linearGradient
       id="linearGradient20061">
      <stop
         id="stop20063"
         offset="0"
         style="stop-color:#5f5f5f;stop-opacity:1" />
      <stop
         id="stop20065"
         offset="1"
         style="stop-color:#ffffff;stop-opacity:1" />
    </linearGradient>
    <linearGradient
       gradientUnits="userSpaceOnUse"
       xlink:href="#linearGradient20061"
       id="linearGradient20067"
       y2="367.57013"
       x2="153.14944"
       y1="355.18741"
       x1="153.14944" />
    <linearGradient
       gradientUnits="userSpaceOnUse"
       xlink:href="#linearGradient20061"
       id="linearGradient20069"
       y2="393.97476"
       x2="158.83301"
       y1="387.77567"
       x1="158.83301" />
    <linearGradient
       gradientUnits="userSpaceOnUse"
       xlink:href="#linearGradient20061"
       id="linearGradient20071"
       y2="431.20993"
       x2="166.60176"
       y1="418.82721"
       x1="166.60176" />
    <linearGradient
       gradientUnits="userSpaceOnUse"
       xlink:href="#linearGradient20061"
       id="linearGradient20073"
       y2="465.61682"
       x2="180.57149"
       y1="453.2341"
       x1="180.57149" />
    <linearGradient
       gradientUnits="userSpaceOnUse"
       xlink:href="#linearGradient20061"
       id="linearGradient20075"
       y2="500.28241"
       x2="180.57149"
       y1="486.8649"
       x1="180.57149" />
    <linearGradient
       gradientUnits="userSpaceOnUse"
       xlink:href="#linearGradient20061"
       id="linearGradient20077"
       y2="533.39581"
       x2="186.74384"
       y1="523.08264"
       x1="186.70538" />
    <linearGradient
       gradientUnits="userSpaceOnUse"
       xlink:href="#linearGradient20061"
       id="linearGradient20079"
       y2="573.23535"
       x2="205.59526"
       y1="559.81781"
       x1="205.30762" />
    <linearGradient
       gradientUnits="userSpaceOnUse"
       xlink:href="#linearGradient20061"
       id="linearGradient20081"
       y2="614.62708"
       x2="221.21588"
       y1="595.51819"
       x1="221.21588" />
    <linearGradient
       gradientUnits="userSpaceOnUse"
       xlink:href="#linearGradient20061"
       id="linearGradient20083"
       y2="690.71924"
       x2="226.68576"
       y1="707.24115"
       x1="227.04597" />
    <linearGradient
       gradientUnits="userSpaceOnUse"
       xlink:href="#linearGradient20061"
       id="linearGradient20085"
       y2="745.0459"
       x2="257.6636"
       y1="762.45709"
       x1="257.6636" />
    <linearGradient
       gradientUnits="userSpaceOnUse"
       xlink:href="#linearGradient20061"
       id="linearGradient20087"
       y2="798.33777"
       x2="256.77985"
       y1="815.7113"
       x1="257.41745" />
    <linearGradient
       gradientUnits="userSpaceOnUse"
       xlink:href="#linearGradient20061"
       id="linearGradient20089"
       y2="860.10504"
       x2="281.27908"
       y1="881.56299"
       x1="281.27908" />
    <linearGradient
       gradientUnits="userSpaceOnUse"
       xlink:href="#linearGradient20061"
       id="linearGradient20091"
       y2="924.73041"
       x2="280.50275"
       y1="957.51337"
       x1="280.8739" />
    <linearGradient
       gradientUnits="userSpaceOnUse"
       xlink:href="#linearGradient20061"
       id="linearGradient20093"
       y2="1009.5486"
       x2="309.45578"
       y1="1029.2899"
       x1="311.73923" />
    <linearGradient
       gradientUnits="userSpaceOnUse"
       xlink:href="#linearGradient20061"
       id="linearGradient20101"
       y2="644.1535"
       x2="218.4669"
       y1="659.64062"
       x1="219.27121" />
    <linearGradient
       gradientTransform="translate(79.812648,-124.83517)"
       gradientUnits="userSpaceOnUse"
       xlink:href="#linearGradient20061"
       id="linearGradient28902"
       y2="367.57013"
       x2="153.14944"
       y1="355.18741"
       x1="153.14944" />
    <linearGradient
       gradientTransform="translate(79.812648,-124.83517)"
       gradientUnits="userSpaceOnUse"
       xlink:href="#linearGradient20061"
       id="linearGradient28906"
       y2="400.16614"
       x2="159.16794"
       y1="390.45505"
       x1="158.83301" />
    <linearGradient
       gradientTransform="translate(79.812648,-124.83517)"
       gradientUnits="userSpaceOnUse"
       xlink:href="#linearGradient20061"
       id="linearGradient28910"
       y2="431.20993"
       x2="166.60176"
       y1="418.82721"
       x1="166.60176" />
    <linearGradient
       gradientTransform="translate(79.812648,-124.83517)"
       gradientUnits="userSpaceOnUse"
       xlink:href="#linearGradient20061"
       id="linearGradient28914"
       y2="465.61682"
       x2="180.57149"
       y1="453.2341"
       x1="180.57149" />
    <linearGradient
       gradientTransform="translate(79.812648,-124.83517)"
       gradientUnits="userSpaceOnUse"
       xlink:href="#linearGradient20061"
       id="linearGradient28918"
       y2="500.28241"
       x2="180.57149"
       y1="486.8649"
       x1="180.57149" />
    <linearGradient
       gradientTransform="translate(79.812648,-124.83517)"
       gradientUnits="userSpaceOnUse"
       xlink:href="#linearGradient20061"
       id="linearGradient28923"
       y2="533.39581"
       x2="186.74384"
       y1="523.08264"
       x1="186.70538" />
    <linearGradient
       gradientTransform="translate(79.812648,-124.83517)"
       gradientUnits="userSpaceOnUse"
       xlink:href="#linearGradient20061"
       id="linearGradient28926"
       y2="573.23535"
       x2="205.59526"
       y1="559.81781"
       x1="205.30762" />
    <linearGradient
       gradientTransform="translate(79.812648,-124.83517)"
       gradientUnits="userSpaceOnUse"
       xlink:href="#linearGradient20061"
       id="linearGradient28930"
       y2="614.62708"
       x2="221.21588"
       y1="595.51819"
       x1="221.21588" />
    <linearGradient
       gradientTransform="translate(79.812648,-124.83517)"
       gradientUnits="userSpaceOnUse"
       xlink:href="#linearGradient20061"
       id="linearGradient28935"
       y2="644.1535"
       x2="218.4669"
       y1="659.64062"
       x1="219.27121" />
    <linearGradient
       gradientTransform="translate(79.812648,-125.81877)"
       gradientUnits="userSpaceOnUse"
       xlink:href="#linearGradient20061"
       id="linearGradient28938"
       y2="690.71924"
       x2="226.68576"
       y1="707.24115"
       x1="227.04597" />
    <linearGradient
       gradientTransform="translate(79.812648,-124.83517)"
       gradientUnits="userSpaceOnUse"
       xlink:href="#linearGradient20061"
       id="linearGradient28942"
       y2="745.0459"
       x2="257.6636"
       y1="762.45709"
       x1="257.6636" />
    <linearGradient
       gradientTransform="translate(79.812648,-124.83517)"
       gradientUnits="userSpaceOnUse"
       xlink:href="#linearGradient20061"
       id="linearGradient28947"
       y2="798.33777"
       x2="256.77985"
       y1="815.7113"
       x1="257.41745" />
    <linearGradient
       gradientTransform="translate(79.812648,-124.83517)"
       gradientUnits="userSpaceOnUse"
       xlink:href="#linearGradient20061"
       id="linearGradient28950"
       y2="863.25891"
       x2="280.49063"
       y1="877.62067"
       x1="281.27908" />
    <linearGradient
       gradientTransform="translate(79.812648,-124.83517)"
       gradientUnits="userSpaceOnUse"
       xlink:href="#linearGradient20061"
       id="linearGradient28955"
       y2="930.67859"
       x2="278.12347"
       y1="946.83441"
       x1="278.89581" />
    <linearGradient
       gradientTransform="translate(79.812648,-124.83517)"
       gradientUnits="userSpaceOnUse"
       xlink:href="#linearGradient20061"
       id="linearGradient28959"
       y2="985.89465"
       x2="306.30194"
       y1="1037.0074"
       x1="311.51562" />
    <linearGradient
       gradientTransform="translate(79.812648,-124.83517)"
       gradientUnits="userSpaceOnUse"
       xlink:href="#linearGradient20061"
       id="linearGradient2290"
       y2="854.80792"
       x2="280.49063"
       y1="877.62067"
       x1="281.27908" />
    <linearGradient
       gradientTransform="translate(79.812648,-124.83517)"
       gradientUnits="userSpaceOnUse"
       xlink:href="#linearGradient20061"
       id="linearGradient2296"
       y2="636.08295"
       x2="218.70227"
       y1="655.94257"
       x1="218.70227" />
    <linearGradient
       gradientTransform="translate(-31.257732,-191.82839)"
       gradientUnits="userSpaceOnUse"
       xlink:href="#linearGradient20061"
       id="linearGradient2339"
       y2="745.0459"
       x2="257.6636"
       y1="762.45709"
       x1="257.6636" />
    <linearGradient
       gradientTransform="translate(-31.257732,-191.82839)"
       gradientUnits="userSpaceOnUse"
       xlink:href="#linearGradient20061"
       id="linearGradient2345"
       y2="367.57013"
       x2="153.14944"
       y1="355.18741"
       x1="153.14944" />
    <linearGradient
       gradientTransform="translate(-31.257732,-191.82839)"
       gradientUnits="userSpaceOnUse"
       xlink:href="#linearGradient20061"
       id="linearGradient2349"
       y2="400.16614"
       x2="159.16794"
       y1="390.45505"
       x1="158.83301" />
    <linearGradient
       gradientTransform="translate(-31.257732,-191.82839)"
       gradientUnits="userSpaceOnUse"
       xlink:href="#linearGradient20061"
       id="linearGradient2353"
       y2="431.20993"
       x2="166.60176"
       y1="418.82721"
       x1="166.60176" />
    <linearGradient
       gradientTransform="translate(-31.257732,-191.82839)"
       gradientUnits="userSpaceOnUse"
       xlink:href="#linearGradient20061"
       id="linearGradient2357"
       y2="465.61682"
       x2="180.57149"
       y1="453.2341"
       x1="180.57149" />
    <linearGradient
       gradientTransform="translate(-31.257732,-191.82839)"
       gradientUnits="userSpaceOnUse"
       xlink:href="#linearGradient20061"
       id="linearGradient2361"
       y2="500.28241"
       x2="180.57149"
       y1="486.8649"
       x1="180.57149" />
    <linearGradient
       gradientTransform="translate(-31.257732,-191.82839)"
       gradientUnits="userSpaceOnUse"
       xlink:href="#linearGradient20061"
       id="linearGradient2366"
       y2="533.39581"
       x2="186.74384"
       y1="523.08264"
       x1="186.70538" />
    <linearGradient
       gradientTransform="translate(-31.257732,-191.82839)"
       gradientUnits="userSpaceOnUse"
       xlink:href="#linearGradient20061"
       id="linearGradient2369"
       y2="573.23535"
       x2="205.59526"
       y1="559.81781"
       x1="205.30762" />
    <linearGradient
       gradientTransform="translate(-31.257732,-191.82839)"
       gradientUnits="userSpaceOnUse"
       xlink:href="#linearGradient20061"
       id="linearGradient2373"
       y2="614.62708"
       x2="221.21588"
       y1="595.51819"
       x1="221.21588" />
    <linearGradient
       gradientTransform="translate(-31.257732,-191.82839)"
       gradientUnits="userSpaceOnUse"
       xlink:href="#linearGradient20061"
       id="linearGradient2378"
       y2="636.08295"
       x2="218.70227"
       y1="655.94257"
       x1="218.70227" />
    <linearGradient
       gradientTransform="translate(-31.257732,-192.81199)"
       gradientUnits="userSpaceOnUse"
       xlink:href="#linearGradient20061"
       id="linearGradient2381"
       y2="690.71924"
       x2="226.68576"
       y1="707.24115"
       x1="227.04597" />
    <linearGradient
       gradientTransform="translate(-31.257732,-191.82839)"
       gradientUnits="userSpaceOnUse"
       xlink:href="#linearGradient20061"
       id="linearGradient2387"
       y2="798.33777"
       x2="256.77985"
       y1="815.7113"
       x1="257.41745" />
    <linearGradient
       gradientTransform="translate(-31.257732,-191.82839)"
       gradientUnits="userSpaceOnUse"
       xlink:href="#linearGradient20061"
       id="linearGradient2390"
       y2="854.80792"
       x2="280.49063"
       y1="877.62067"
       x1="281.27908" />
    <linearGradient
       gradientTransform="translate(-31.257732,-191.82839)"
       gradientUnits="userSpaceOnUse"
       xlink:href="#linearGradient20061"
       id="linearGradient2395"
       y2="930.67859"
       x2="278.12347"
       y1="946.83441"
       x1="278.89581" />
    <linearGradient
       gradientTransform="translate(-31.257732,-191.82839)"
       gradientUnits="userSpaceOnUse"
       xlink:href="#linearGradient20061"
       id="linearGradient2399"
       y2="985.89465"
       x2="306.30194"
       y1="1037.0074"
       x1="311.51562" />
  </defs>
  <sodipodi:namedview
     id="base"
     pagecolor="#ffffff"
     bordercolor="#666666"
     borderopacity="1.0"
     inkscape:pageopacity="0.0"
     inkscape:pageshadow="2"
     inkscape:zoom="5.6"
     inkscape:cx="34.537202"
     inkscape:cy="34.353042"
     inkscape:document-units="px"
     inkscape:current-layer="layer1"
     showgrid="false"
     inkscape:window-width="1920"
     inkscape:window-height="1016"
     inkscape:window-x="0"
     inkscape:window-y="27"
     inkscape:window-maximized="1"
     scale-x="0.8"
     fit-margin-top="0"
     fit-margin-left="0"
     fit-margin-right="0"
     fit-margin-bottom="0"
     units="px" />
  <metadata
     id="metadata5213">
    <rdf:RDF>
      <cc:Work
         rdf:about="">
        <dc:format>image/svg+xml</dc:format>
        <dc:type
           rdf:resource="http://purl.org/dc/dcmitype/StillImage" />
        <dc:title></dc:title>
      </cc:Work>
    </rdf:RDF>
  </metadata>
  <g
     inkscape:label="Layer 1"
     inkscape:groupmode="layer"
     id="layer1"
     transform="translate(-81.838892,-94.08138)">
    <g
       id="g3373"
       transform="matrix(0.03423519,0,0,0.03418423,89.225828,94.578239)">
      <path
         id="path19052"
         style="fill:#a3a3a3;fill-opacity:1;fill-rule:evenodd;stroke:#000000;stroke-width:1px;stroke-linecap:butt;stroke-linejoin:miter;stroke-opacity:1"
         d="m 296.79658,213.36266 c 0,11.15812 2.3978,122.73935 2.3978,122.73935 l 4.8516,12.98676 -2.22066,-124.57713 z"
         inkscape:connector-curvature="0" />
      <path
         id="path18980"
         style="fill:#efefef;fill-opacity:1;fill-rule:evenodd;stroke:#000000;stroke-width:1px;stroke-linecap:butt;stroke-linejoin:miter;stroke-opacity:1"
         d="m 482.03684,873.24701 -28.60465,-12.7132 -254.63503,-712.34473 -0.93205,-46.89878 15.63028,48.1184 z"
         inkscape:connector-curvature="0" />
      <path
         id="path18978"
         style="fill:#d0d0d0;fill-opacity:1;fill-rule:evenodd;stroke:#000000;stroke-width:1px;stroke-linecap:butt;stroke-linejoin:miter;stroke-opacity:1"
         d="m 212.33008,101.81794 -14.26059,-0.0882 13.81231,43.68776 270.06044,727.97704 20.65892,-1.5892 C 414.4701,611.42162 312.00555,358.3635 212.33008,101.81794 Z"
         inkscape:connector-curvature="0" />
      <path
         id="path18988"
         style="fill:url(#linearGradient2399);fill-opacity:1;fill-rule:evenodd;stroke:#000000;stroke-width:1px;stroke-linecap:round;stroke-linejoin:round;stroke-opacity:1"
         d="m 452.70514,818.19626 -351.97812,26.48276 -1.58915,-17.4807 353.51838,-23.6515 z"
         inkscape:connector-curvature="0" />
      <path
         id="path18990"
         style="fill:#7d7d7d;fill-opacity:1;fill-rule:evenodd;stroke:#000000;stroke-width:1px;stroke-linecap:round;stroke-linejoin:round;stroke-opacity:1"
         d="m 452.05955,803.7476 -22.46457,-9.95799 -336.01302,19.8827 3.19051,13.53828 z"
         inkscape:connector-curvature="0" />
      <path
         id="path18992"
         style="fill:url(#linearGradient2395);fill-opacity:1;fill-rule:evenodd;stroke:#000000;stroke-width:1px;stroke-linecap:round;stroke-linejoin:round;stroke-opacity:1"
         d="m 422.36669,730.29947 -335.16488,20.58316 3.17829,11.76366 332.55968,-21.0044 z"
         inkscape:connector-curvature="0" />
      <path
         id="path18994"
         style="fill:#7d7d7d;fill-opacity:1;fill-rule:evenodd;stroke:#000000;stroke-width:1px;stroke-linecap:round;stroke-linejoin:round;stroke-opacity:1"
         d="m 421.64925,730.22372 -9.97782,-8.58537 -322.99135,17.67676 c 0,0 -4.78328,11.22897 -3.12942,11.36892 13.80143,1.16791 334.50944,-20.46031 336.09859,-20.46031 z"
         inkscape:connector-curvature="0" />
      <path
         id="path18996"
         style="fill:#7d7d7d;fill-opacity:1;fill-rule:evenodd;stroke:#000000;stroke-width:1px;stroke-linecap:round;stroke-linejoin:round;stroke-opacity:1"
         d="m 399.51206,662.92517 -11.90014,-8.42617 -308.66365,13.30449 0.24232,11.7523 z"
         inkscape:connector-curvature="0" />
      <path
         id="path18998"
         style="fill:url(#linearGradient2390);fill-opacity:1;fill-rule:evenodd;stroke:#000000;stroke-width:1px;stroke-linecap:round;stroke-linejoin:round;stroke-opacity:1"
         d="m 399.40118,663.47953 0.80068,14.33898 -318.92531,14.58548 v -12.71318 z"
         inkscape:connector-curvature="0" />
      <path
         id="path19000"
         style="fill:url(#linearGradient2387);fill-opacity:1;fill-rule:evenodd;stroke:#000000;stroke-width:1px;stroke-linecap:round;stroke-linejoin:round;stroke-opacity:1"
         d="m 373.57883,618.39209 c -2.58698,0 -304.40965,10.34794 -304.40965,10.34794 0,0 -4.13918,-9.31314 0.51739,-11.90013 4.65657,-2.58698 303.76198,-9.83054 303.76198,-9.83054 z"
         inkscape:connector-curvature="0" />
      <path
         id="path19002"
         style="fill:#8a8a8a;fill-opacity:1;fill-rule:evenodd;stroke:#000000;stroke-width:1px;stroke-linecap:round;stroke-linejoin:round;stroke-opacity:1"
         d="m 373.02218,606.56117 c -3.10438,-1.55219 -12.6241,-10.60613 -12.6241,-10.60613 L 71.04743,607.94966 c 0,0 -0.18666,8.89024 3.95252,8.89024 4.13917,0 296.98743,-10.27873 298.02223,-10.27873 z"
         inkscape:connector-curvature="0" />
      <path
         id="path19004"
         style="fill:#8a8a8a;fill-opacity:1;fill-rule:evenodd;stroke:#000000;stroke-width:1px;stroke-linecap:round;stroke-linejoin:round;stroke-opacity:1"
         d="m 355.07397,553.74498 c 0,0 -11.2547,-11.08904 -11.96147,-10.89966 -1.55174,0.41579 -279.56723,7.81722 -279.56723,7.81722 l -0.73747,11.0904 z"
         inkscape:connector-curvature="0" />
      <path
         id="path19008"
         style="fill:#8a8a8a;fill-opacity:1;fill-rule:evenodd;stroke:#000000;stroke-width:1px;stroke-linecap:round;stroke-linejoin:round;stroke-opacity:1"
         d="m 56.96421,506.68435 c -3.62178,-6.20876 -5.71493,-10.16399 -5.71493,-10.16399 l 269.8402,-9.02965 c 0,0 12.93492,10.34793 9.83054,10.34793 -3.10438,0 -273.7641,8.55814 -273.95581,8.84571 z"
         inkscape:connector-curvature="0" />
      <path
         id="path19010"
         style="fill:url(#linearGradient2381);fill-opacity:1;fill-rule:evenodd;stroke:#000000;stroke-width:1px;stroke-linecap:round;stroke-linejoin:round;stroke-opacity:1"
         d="m 55.92584,506.80801 c 0,0 -2.58698,8.79575 -0.51739,8.79575 2.06958,0 277.58116,-6.33119 277.58116,-6.33119 0,0 -1.03479,-10.26818 -1.03479,-10.86534 0,-0.54196 -278.09857,8.91818 -276.02898,8.40078 z"
         inkscape:connector-curvature="0" />
      <path
         id="path19012"
         style="fill:url(#linearGradient2378);fill-opacity:1;fill-rule:evenodd;stroke:#000000;stroke-width:1px;stroke-linecap:round;stroke-linejoin:round;stroke-opacity:1"
         d="m 315.11299,461.62087 c -5.17397,0 -269.96241,4.35167 -269.96241,4.35167 l 1.03479,-10.34793 268.1251,-5.17877 z"
         inkscape:connector-curvature="0" />
      <path
         id="path19014"
         style="fill:#8a8a8a;fill-opacity:1;fill-rule:evenodd;stroke:#000000;stroke-width:1px;stroke-linecap:round;stroke-linejoin:round;stroke-opacity:1"
         d="m 313.71565,449.72074 c -2.06959,-0.5174 -16.5567,-11.38273 -19.14368,-11.90013 -2.58699,-0.51739 -246.13221,7.24356 -246.13221,7.24356 0,0 -0.118039,10.27932 2.468941,10.27932 2.58699,0 264.359139,-5.10535 262.806949,-5.62275 z"
         inkscape:connector-curvature="0" />
      <path
         id="path19016"
         style="fill:#8a8a8a;fill-opacity:1;fill-rule:evenodd;stroke:#000000;stroke-width:1px;stroke-linecap:round;stroke-linejoin:round;stroke-opacity:1"
         d="m 298.32403,402.12024 c -2.58699,-1.55219 -12.41753,-9.83054 -14.48711,-10.34794 -2.06959,-0.5174 -244.22293,6.29883 -244.22293,6.29883 l 7.9411,11.56521 z"
         inkscape:connector-curvature="0" />
      <path
         id="path19018"
         style="fill:url(#linearGradient2373);fill-opacity:1;fill-rule:evenodd;stroke:#000000;stroke-width:1px;stroke-linecap:round;stroke-linejoin:round;stroke-opacity:1"
         d="m 298.16918,402.40536 c 0,0 1.70704,11.615 -0.36255,11.615 -2.06959,0 -256.49265,4.25927 -256.49265,4.25927 l 3.10438,-8.79574 z"
         inkscape:connector-curvature="0" />
      <path
         id="path19020"
         style="fill:#8a8a8a;fill-opacity:1;fill-rule:evenodd;stroke:#000000;stroke-width:1px;stroke-linecap:round;stroke-linejoin:round;stroke-opacity:1"
         d="m 285.33625,367.45465 c -2.58699,-3.10438 -14.15219,-8.70335 -14.15219,-8.70335 l -236.25434,4.3817 4.40707,8.4308 z"
         inkscape:connector-curvature="0" />
      <path
         id="path19022"
         style="fill:url(#linearGradient2369);fill-opacity:1;fill-rule:evenodd;stroke:#000000;stroke-width:1px;stroke-linecap:round;stroke-linejoin:round;stroke-opacity:1"
         d="m 285.31509,374.01886 -245.9783,6.02629 v -8.27835 l 246.13314,-4.4741 z"
         inkscape:connector-curvature="0" />
      <path
         id="path19024"
         style="fill:url(#linearGradient2366);fill-opacity:1;fill-rule:evenodd;stroke:#000000;stroke-width:1px;stroke-linecap:round;stroke-linejoin:round;stroke-opacity:1"
         d="m 274.887,329.76865 c 0,0 1.35249,8.32827 -0.7171,8.32827 -2.06959,0 -236.68555,1.73434 -236.68555,1.73434 l -1.66457,-7.76095 z"
         inkscape:connector-curvature="0" />
      <path
         id="path19026"
         style="fill:#8a8a8a;fill-opacity:1;fill-rule:evenodd;stroke:#000000;stroke-width:1px;stroke-linecap:round;stroke-linejoin:round;stroke-opacity:1"
         d="m 274.45209,329.11736 c -2.58698,-0.51739 -17.62552,-10.38808 -17.62552,-10.38808 l -224.09559,3.55267 c 0,0 -1.91273,9.47232 2.22644,9.47232 4.13917,0 239.49467,-3.6717 239.49467,-2.63691 z"
         inkscape:connector-curvature="0" />
      <path
         id="path19028"
         style="fill:#8a8a8a;fill-opacity:1;fill-rule:evenodd;stroke:#000000;stroke-width:1px;stroke-linecap:round;stroke-linejoin:round;stroke-opacity:1"
         d="m 26.0716,288.11046 3.31455,10.34794 227.02874,-2.9219 -16.73918,-9.0683 z"
         inkscape:connector-curvature="0" />
      <path
         id="path19030"
         style="fill:url(#linearGradient2361);fill-opacity:1;fill-rule:evenodd;stroke:#000000;stroke-width:1px;stroke-linecap:round;stroke-linejoin:round;stroke-opacity:1"
         d="m 31.51811,299.15827 2.06959,8.79575 224.05548,-2.06959 c 0,0 -0.1496,-10.34793 -0.49269,-10.34793 -2.58698,0 -225.63238,4.65657 -225.63238,3.62177 z"
         inkscape:connector-curvature="0" />
      <path
         id="path19032"
         style="fill:#8a8a8a;fill-opacity:1;fill-rule:evenodd;stroke:#000000;stroke-width:1px;stroke-linecap:round;stroke-linejoin:round;stroke-opacity:1"
         d="m 24.06439,256.45919 c 0,0 2.61701,7.48608 3.1621,7.48608 7.24356,0 222.7965,-2.03956 222.7965,-2.03956 l -12.78247,-8.8558 z"
         inkscape:connector-curvature="0" />
      <path
         id="path19034"
         style="fill:url(#linearGradient2357);fill-opacity:1;fill-rule:evenodd;stroke:#000000;stroke-width:1px;stroke-linecap:round;stroke-linejoin:round;stroke-opacity:1"
         d="m 27.19647,264.49269 0.5174,8.79574 221.79172,-1.03479 v -10.34793 z"
         inkscape:connector-curvature="0" />
      <path
         id="path19036"
         style="fill:#8a8a8a;fill-opacity:1;fill-rule:evenodd;stroke:#000000;stroke-width:1px;stroke-linecap:round;stroke-linejoin:round;stroke-opacity:1"
         d="m 21.29725,218.70307 c 0,0 1.94717,10.16546 3.16211,10.16546 7.24355,0 214.3886,-1.36971 214.3886,-1.36971 l -13.45232,-10.86534 z"
         inkscape:connector-curvature="0" />
      <path
         id="path19038"
         style="fill:url(#linearGradient2353);fill-opacity:1;fill-rule:evenodd;stroke:#000000;stroke-width:1px;stroke-linecap:round;stroke-linejoin:round;stroke-opacity:1"
         d="m 22.75472,230.0858 0.5174,8.79574 215.05844,-1.03479 v -10.34793 z"
         inkscape:connector-curvature="0" />
      <path
         id="path19040"
         style="fill:#8a8a8a;fill-opacity:1;fill-rule:evenodd;stroke:#000000;stroke-width:1px;stroke-linecap:round;stroke-linejoin:round;stroke-opacity:1"
         d="m 17.79791,187.65927 c 0,0 -0.06238,9.83054 2.15733,9.83054 7.24355,0 209.55502,-1.03479 209.55502,-1.03479 l -13.45232,-10.86534 z"
         inkscape:connector-curvature="0" />
      <path
         id="path19042"
         style="fill:url(#linearGradient2349);fill-opacity:1;fill-rule:evenodd;stroke:#000000;stroke-width:1px;stroke-linecap:round;stroke-linejoin:round;stroke-opacity:1"
         d="m 19.25536,199.042 0.5174,8.79574 209.2201,-1.03479 v -10.34793 z"
         inkscape:connector-curvature="0" />
      <path
         id="path19044"
         style="fill:#8a8a8a;fill-opacity:1;fill-rule:evenodd;stroke:#000000;stroke-width:1px;stroke-linecap:round;stroke-linejoin:round;stroke-opacity:1"
         d="m 13.72344,158.74742 c 0,0 1.20322,6.14639 1.48748,6.14639 7.24356,0 200.84702,-1.03479 200.84702,-1.03479 l -12.78247,-6.84626 z"
         inkscape:connector-curvature="0" />
      <path
         id="path19046"
         style="fill:url(#linearGradient2345);fill-opacity:1;fill-rule:evenodd;stroke:#000000;stroke-width:1px;stroke-linecap:round;stroke-linejoin:round;stroke-opacity:1"
         d="m 14.84598,166.446 0.51739,8.79574 200.17717,-1.03479 v -10.34793 z"
         inkscape:connector-curvature="0" />
      <path
         id="path19054"
         style="fill:#a3a3a3;fill-opacity:1;fill-rule:evenodd;stroke:#000000;stroke-width:1px;stroke-linecap:butt;stroke-linejoin:miter;stroke-opacity:1"
         d="m 217.37484,33.90452 c 0,8.58318 -0.85832,109.8646 -0.85832,109.8646 0,0 5.78014,14.83186 5.78014,10.20418 0,-10.3355 1.0864,-117.49382 1.0864,-117.49382 z"
         inkscape:connector-curvature="0" />
      <path
         id="path19050"
         style="fill:#a3a3a3;fill-opacity:1;fill-rule:evenodd;stroke:#000000;stroke-width:1px;stroke-linecap:butt;stroke-linejoin:miter;stroke-opacity:1"
         d="M 442.61951,625.25625 216.79593,76.89023 v 7.72485 l 227.54022,564.67405 z"
         inkscape:connector-curvature="0" />
      <path
         id="path19048"
         style="fill:#a3a3a3;fill-opacity:1;fill-rule:evenodd;stroke:#000000;stroke-width:1px;stroke-linecap:butt;stroke-linejoin:miter;stroke-opacity:1"
         d="m 473.43276,798.73496 c -3.43327,-9.44149 -30.0411,-276.37813 -30.0411,-276.37813 L 211.91872,8.650491 211.64603,21.09961 428.80027,527.50674 460.558,791.0101 Z"
         inkscape:connector-curvature="0" />
      <path
         id="path19006"
         style="fill:url(#linearGradient2339);fill-opacity:1;fill-rule:evenodd;stroke:#000000;stroke-width:1px;stroke-linecap:round;stroke-linejoin:round;stroke-opacity:1"
         d="m 354.72028,553.7175 0.0447,9.6007 c 0,0 -289.26244,8.50818 -289.26244,6.4386 0,-2.06959 0.51739,-7.76096 0.51739,-7.76096 z"
         inkscape:connector-curvature="0" />
      <path
         id="path18982"
         style="fill:#bebebe;fill-opacity:1;fill-rule:evenodd;stroke:#000000;stroke-width:1px;stroke-linecap:butt;stroke-linejoin:miter;stroke-opacity:1"
         d="M 92.79036,906.57974 5.29266,85.02992 111.08388,904.99064 Z"
         inkscape:connector-curvature="0" />
      <path
         id="path18986"
         style="fill:#e9e9e9;fill-opacity:1;fill-rule:evenodd;stroke:#000000;stroke-width:1px;stroke-linecap:butt;stroke-linejoin:miter;stroke-opacity:1"
         d="M 90.31814,885.93567 5.29266,89.79736 83.42778,892.43155 92.63467,906.5824 Z"
         inkscape:connector-curvature="0" />
      <path
         id="path19056"
         style="fill:#bdbdbd;fill-opacity:1;fill-rule:evenodd;stroke:#000000;stroke-width:1px;stroke-linecap:butt;stroke-linejoin:miter;stroke-opacity:1"
         d="m 3.93327,0.5 85.83172,539.88149 5.88917,275.36787 -8.46412,0.15195 -4.29159,-274.6615 C 82.89845,541.23981 0.5,18.52466 0.5,13.37476 0.5,9.762631 0.37262,0.535737 0.39096,0.434165 0.40348,0.364851 4.18957,0.5 3.93327,0.5 Z"
         inkscape:connector-curvature="0" />
      <path
         id="path2261"
         style="fill:none;fill-opacity:0.75;fill-rule:evenodd;stroke:#000000;stroke-width:1px;stroke-linecap:butt;stroke-linejoin:miter;stroke-opacity:1"
         d="m 428.91629,527.35701 c 0,0 1.41556,-6.37005 14.50954,-5.30837"
         inkscape:connector-curvature="0" />
    </g>
  </g>
</svg>
