<?xml version="1.0" encoding="UTF-8" standalone="no"?>
<!-- Created with Inkscape (http://www.inkscape.org/) -->

<svg
   width="64"
   height="64"
   viewBox="0 0 16.933333 16.933334"
   version="1.1"
   id="svg5"
   inkscape:version="1.1.1 (c3084ef, 2021-09-22)"
   sodipodi:docname="administration_64.svg"
   xmlns:inkscape="http://www.inkscape.org/namespaces/inkscape"
   xmlns:sodipodi="http://sodipodi.sourceforge.net/DTD/sodipodi-0.dtd"
   xmlns="http://www.w3.org/2000/svg"
   xmlns:svg="http://www.w3.org/2000/svg">
  <sodipodi:namedview
     id="namedview7"
     pagecolor="#ffffff"
     bordercolor="#666666"
     borderopacity="1.0"
     inkscape:pageshadow="2"
     inkscape:pageopacity="0.0"
     inkscape:pagecheckerboard="0"
     inkscape:document-units="mm"
     showgrid="false"
     units="px"
     inkscape:zoom="3.1434902"
     inkscape:cx="35.15201"
     inkscape:cy="45.649895"
     inkscape:window-width="1440"
     inkscape:window-height="779"
     inkscape:window-x="17"
     inkscape:window-y="55"
     inkscape:window-maximized="0"
     inkscape:current-layer="layer1" />
  <defs
     id="defs2">
    <inkscape:perspective
       sodipodi:type="inkscape:persp3d"
       inkscape:vp_x="0 : 526.18109 : 1"
       inkscape:vp_y="0 : 1000 : 0"
       inkscape:vp_z="744.09448 : 526.18109 : 1"
       inkscape:persp3d-origin="372.04724 : 350.78739 : 1"
       id="perspective10" />
    <inkscape:perspective
       id="perspective2461"
       inkscape:persp3d-origin="10 : 6.6666667 : 1"
       inkscape:vp_z="20 : 10 : 1"
       inkscape:vp_y="0 : 1000 : 0"
       inkscape:vp_x="0 : 10 : 1"
       sodipodi:type="inkscape:persp3d" />
    <inkscape:perspective
       id="perspective2466"
       inkscape:persp3d-origin="400 : 200 : 1"
       inkscape:vp_z="800 : 300 : 1"
       inkscape:vp_y="0 : 1000 : 0"
       inkscape:vp_x="0 : 300 : 1"
       sodipodi:type="inkscape:persp3d" />
    <inkscape:perspective
       sodipodi:type="inkscape:persp3d"
       inkscape:vp_x="0 : 526.18109 : 1"
       inkscape:vp_y="0 : 1000 : 0"
       inkscape:vp_z="744.09448 : 526.18109 : 1"
       inkscape:persp3d-origin="372.04724 : 350.78739 : 1"
       id="perspective10-5" />
    <inkscape:perspective
       id="perspective2461-2"
       inkscape:persp3d-origin="10 : 6.6666667 : 1"
       inkscape:vp_z="20 : 10 : 1"
       inkscape:vp_y="0 : 1000 : 0"
       inkscape:vp_x="0 : 10 : 1"
       sodipodi:type="inkscape:persp3d" />
    <inkscape:perspective
       id="perspective2466-2"
       inkscape:persp3d-origin="400 : 200 : 1"
       inkscape:vp_z="800 : 300 : 1"
       inkscape:vp_y="0 : 1000 : 0"
       inkscape:vp_x="0 : 300 : 1"
       sodipodi:type="inkscape:persp3d" />
    <inkscape:perspective
       sodipodi:type="inkscape:persp3d"
       inkscape:vp_x="0 : 290 : 1"
       inkscape:vp_y="0 : 1000 : 0"
       inkscape:vp_z="580 : 290 : 1"
       inkscape:persp3d-origin="290 : 193.33333 : 1"
       id="perspective2441" />
    <inkscape:perspective
       id="perspective3452"
       inkscape:persp3d-origin="30 : 20 : 1"
       inkscape:vp_z="60 : 30 : 1"
       inkscape:vp_y="0 : 1000 : 0"
       inkscape:vp_x="0 : 30 : 1"
       sodipodi:type="inkscape:persp3d" />
    <symbol
       viewBox="244.5 110 489 219.9"
       id="symbol-university">
      <path
         id="path4460"
         d="M79,43l57,119c0,0,21-96,104-96s124,106,124,106l43-133l82-17L0,17L79,43z" />
      <path
         id="path4462"
         d="M94,176l-21,39"
         stroke-width="20"
         stroke="#000000"
         fill="none" />
      <path
         id="path4464"
         d="M300,19c0,10.5-22.6,19-50.5,19S199,29.5,199,19s22.6-19,50.5-19S300,8.5,300,19z" />
      <path
         id="path4466"
         d="M112,216l-16-38L64,88c0,0-9-8-4-35s16-24,16-24"
         stroke-width="20"
         stroke="#000000"
         ill="none" />
    </symbol>
    <inkscape:perspective
       id="perspective4471"
       inkscape:persp3d-origin="372.04724 : 350.78739 : 1"
       inkscape:vp_z="744.09448 : 526.18109 : 1"
       inkscape:vp_y="0 : 1000 : 0"
       inkscape:vp_x="0 : 526.18109 : 1"
       sodipodi:type="inkscape:persp3d" />
    <inkscape:perspective
       id="perspective4668"
       inkscape:persp3d-origin="6 : 4 : 1"
       inkscape:vp_z="12 : 6 : 1"
       inkscape:vp_y="0 : 1000 : 0"
       inkscape:vp_x="0 : 6 : 1"
       sodipodi:type="inkscape:persp3d" />
  </defs>
  <g
     inkscape:label="Calque 1"
     inkscape:groupmode="layer"
     id="layer1">
    <circle
       style="fill:#5a8cd2;stroke-width:0.2;fill-opacity:1;stroke:#ffffff;stroke-opacity:1;stroke-miterlimit:4;stroke-dasharray:none"
       id="path846"
       cx="8.4666662"
       cy="8.4666662"
       r="8" />
    <path
       style="fill:#ffffff;stroke-width:0.0350278"
       d="m 7.6491167,13.94425 c -0.0089,-0.01484 -0.07494,-0.294872 -0.146731,-0.622382 -0.0718,-0.327509 -0.148371,-0.612769 -0.170165,-0.63391 -0.02179,-0.02115 -0.165727,-0.08211 -0.319849,-0.135469 -0.154122,-0.05335 -0.381214,-0.147843 -0.50465,-0.20998 l -0.224428,-0.112969 -0.537078,0.344754 c -0.295393,0.189615 -0.558924,0.344754 -0.585624,0.344754 -0.0267,0 -0.296413,-0.259951 -0.599362,-0.57767 l -0.550817,-0.577672 0.351685,-0.557143 0.351686,-0.557141 -0.117429,-0.222511 c -0.06459,-0.122382 -0.167368,-0.366345 -0.228407,-0.5421423 l -0.110978,-0.319629 -0.513797,-0.111053 c -0.282588,-0.061079 -0.572906,-0.126707 -0.64515,-0.145838 l -0.131354,-0.03478 v -0.803056 c 0,-0.729372 0.0056,-0.8059675 0.0613,-0.8347935 0.03372,-0.017456 0.32996,-0.090698 0.658325,-0.162761 l 0.597027,-0.1310272 0.06186,-0.21502 c 0.03402,-0.1182609 0.130435,-0.3568822 0.214247,-0.5302695 L 4.7118147,6.2812919 4.3608157,5.7296313 4.0098167,5.1779707 4.5609317,4.5999867 c 0.303113,-0.3178911 0.572989,-0.5779839 0.599723,-0.5779839 0.02673,0 0.294335,0.1552841 0.594666,0.3450767 l 0.546057,0.3450765 0.267928,-0.1301733 c 0.14736,-0.071595 0.378265,-0.165968 0.513122,-0.2097176 0.134857,-0.04375 0.248712,-0.082238 0.253011,-0.085528 0.0043,-0.00329 0.06366,-0.2651747 0.131902,-0.5819625 0.06825,-0.3167881 0.139394,-0.6117349 0.158108,-0.6554372 l 0.03402,-0.07946 0.812303,0.00941 0.812306,0.00941 0.142658,0.643069 0.142659,0.6430694 0.31525,0.1131257 C 10.058032,4.4501805 10.2955,4.5496791 10.412351,4.6090686 l 0.212456,0.1079802 0.54064,-0.3465102 c 0.297352,-0.1905806 0.556402,-0.3466748 0.575668,-0.3468762 0.04206,-4.413e-4 1.175558,1.0897417 1.174304,1.1294341 -4.79e-4,0.015244 -0.159239,0.2782471 -0.352793,0.5844617 l -0.35192,0.5567533 0.112382,0.2211766 c 0.06181,0.1216477 0.16318,0.3626146 0.225265,0.5354838 l 0.112888,0.3143074 0.520716,0.1125322 c 0.286395,0.061893 0.580115,0.1300262 0.652712,0.1514087 l 0.131996,0.038876 -0.0095,0.8127965 -0.0095,0.812797 -0.315251,0.07538 c -0.173388,0.04146 -0.466258,0.109777 -0.650823,0.151811 l -0.335575,0.07643 -0.08046,0.251008 c -0.04425,0.138054 -0.141778,0.3733713 -0.216733,0.5229283 l -0.136284,0.271921 0.356015,0.563233 0.356016,0.563235 -0.573921,0.574711 c -0.315655,0.316092 -0.589861,0.574302 -0.609346,0.5738 -0.01948,-5e-4 -0.278144,-0.155114 -0.574802,-0.343596 l -0.539377,-0.342684 -0.260711,0.130969 c -0.14339,0.07203 -0.3769813,0.167065 -0.5190893,0.211178 l -0.258379,0.0802 -0.07477,0.333827 c -0.04112,0.183604 -0.108619,0.475689 -0.14999,0.649076 l -0.07522,0.315249 -0.811932,0.0095 c -0.446563,0.0052 -0.81922,-0.0028 -0.828126,-0.01751 z m 1.590893,-3.032433 C 10.065857,10.631474 10.691752,9.9766077 10.921981,9.1519877 11.073732,8.6084617 11.008971,7.8387527 10.772328,7.3733446 10.26584,6.3772217 9.2614287,5.8190035 8.1896067,5.9379542 c -0.641823,0.07123 -1.079964,0.280756 -1.527249,0.7303585 -0.48968,0.492216 -0.713097,0.9919462 -0.744568,1.665417 -0.06007,1.285406 0.750399,2.3540653 2.005304,2.6441453 0.33869,0.07829 0.987574,0.04575 1.316916,-0.06606 z"
       id="path4565" />
  </g>
</svg>
