<?xml version="1.0" encoding="UTF-8" standalone="no"?>
<!-- Created with Inkscape (http://www.inkscape.org/) -->

<svg
   width="64"
   height="64"
   viewBox="0 0 16.933333 16.933334"
   version="1.1"
   id="svg5"
   inkscape:version="1.1.1 (c3084ef, 2021-09-22)"
   sodipodi:docname="association_64.svg"
   xmlns:inkscape="http://www.inkscape.org/namespaces/inkscape"
   xmlns:sodipodi="http://sodipodi.sourceforge.net/DTD/sodipodi-0.dtd"
   xmlns="http://www.w3.org/2000/svg"
   xmlns:svg="http://www.w3.org/2000/svg">
  <sodipodi:namedview
     id="namedview7"
     pagecolor="#ffffff"
     bordercolor="#666666"
     borderopacity="1.0"
     inkscape:pageshadow="2"
     inkscape:pageopacity="0.0"
     inkscape:pagecheckerboard="0"
     inkscape:document-units="mm"
     showgrid="false"
     units="px"
     inkscape:zoom="2.1203944"
     inkscape:cx="17.685389"
     inkscape:cy="-6.36674"
     inkscape:window-width="1440"
     inkscape:window-height="779"
     inkscape:window-x="17"
     inkscape:window-y="27"
     inkscape:window-maximized="0"
     inkscape:current-layer="layer1" />
  <defs
     id="defs2">
    <inkscape:perspective
       sodipodi:type="inkscape:persp3d"
       inkscape:vp_x="0 : 526.18109 : 1"
       inkscape:vp_y="0 : 1000 : 0"
       inkscape:vp_z="744.09448 : 526.18109 : 1"
       inkscape:persp3d-origin="372.04724 : 350.78739 : 1"
       id="perspective10" />
    <inkscape:perspective
       id="perspective2461"
       inkscape:persp3d-origin="10 : 6.6666667 : 1"
       inkscape:vp_z="20 : 10 : 1"
       inkscape:vp_y="0 : 1000 : 0"
       inkscape:vp_x="0 : 10 : 1"
       sodipodi:type="inkscape:persp3d" />
    <inkscape:perspective
       id="perspective2466"
       inkscape:persp3d-origin="400 : 200 : 1"
       inkscape:vp_z="800 : 300 : 1"
       inkscape:vp_y="0 : 1000 : 0"
       inkscape:vp_x="0 : 300 : 1"
       sodipodi:type="inkscape:persp3d" />
    <inkscape:perspective
       sodipodi:type="inkscape:persp3d"
       inkscape:vp_x="0 : 526.18109 : 1"
       inkscape:vp_y="0 : 1000 : 0"
       inkscape:vp_z="744.09448 : 526.18109 : 1"
       inkscape:persp3d-origin="372.04724 : 350.78739 : 1"
       id="perspective10-5" />
    <inkscape:perspective
       id="perspective2461-2"
       inkscape:persp3d-origin="10 : 6.6666667 : 1"
       inkscape:vp_z="20 : 10 : 1"
       inkscape:vp_y="0 : 1000 : 0"
       inkscape:vp_x="0 : 10 : 1"
       sodipodi:type="inkscape:persp3d" />
    <inkscape:perspective
       id="perspective2466-2"
       inkscape:persp3d-origin="400 : 200 : 1"
       inkscape:vp_z="800 : 300 : 1"
       inkscape:vp_y="0 : 1000 : 0"
       inkscape:vp_x="0 : 300 : 1"
       sodipodi:type="inkscape:persp3d" />
    <inkscape:perspective
       sodipodi:type="inkscape:persp3d"
       inkscape:vp_x="0 : 290 : 1"
       inkscape:vp_y="0 : 1000 : 0"
       inkscape:vp_z="580 : 290 : 1"
       inkscape:persp3d-origin="290 : 193.33333 : 1"
       id="perspective2441" />
    <inkscape:perspective
       id="perspective3452"
       inkscape:persp3d-origin="30 : 20 : 1"
       inkscape:vp_z="60 : 30 : 1"
       inkscape:vp_y="0 : 1000 : 0"
       inkscape:vp_x="0 : 30 : 1"
       sodipodi:type="inkscape:persp3d" />
    <symbol
       viewBox="244.5 110 489 219.9"
       id="symbol-university">
      <path
         id="path4460"
         d="M79,43l57,119c0,0,21-96,104-96s124,106,124,106l43-133l82-17L0,17L79,43z" />
      <path
         id="path4462"
         d="M94,176l-21,39"
         stroke-width="20"
         stroke="#000000"
         fill="none" />
      <path
         id="path4464"
         d="M300,19c0,10.5-22.6,19-50.5,19S199,29.5,199,19s22.6-19,50.5-19S300,8.5,300,19z" />
      <path
         id="path4466"
         d="M112,216l-16-38L64,88c0,0-9-8-4-35s16-24,16-24"
         stroke-width="20"
         stroke="#000000"
         ill="none" />
    </symbol>
    <inkscape:perspective
       id="perspective4471"
       inkscape:persp3d-origin="372.04724 : 350.78739 : 1"
       inkscape:vp_z="744.09448 : 526.18109 : 1"
       inkscape:vp_y="0 : 1000 : 0"
       inkscape:vp_x="0 : 526.18109 : 1"
       sodipodi:type="inkscape:persp3d" />
    <inkscape:perspective
       id="perspective4668"
       inkscape:persp3d-origin="6 : 4 : 1"
       inkscape:vp_z="12 : 6 : 1"
       inkscape:vp_y="0 : 1000 : 0"
       inkscape:vp_x="0 : 6 : 1"
       sodipodi:type="inkscape:persp3d" />
  </defs>
  <g
     inkscape:label="Calque 1"
     inkscape:groupmode="layer"
     id="layer1">
    <circle
       style="fill:#5a8cd2;stroke-width:0.2;fill-opacity:1;stroke:#ffffff;stroke-opacity:1;stroke-miterlimit:4;stroke-dasharray:none"
       id="path846"
       cx="8.4666662"
       cy="8.4666662"
       r="8" />
    <path
       style="fill:#ffffff;stroke-width:0.0106152"
       d="m 4.4881167,13.389745 -0.11146,-0.0098 -0.0849,-0.02632 -0.0849,-0.02632 -0.0955,-0.02779 -0.0955,-0.02778 -0.0266,-0.0083 -0.0266,-0.0083 -0.0413,-0.02801 -0.0413,-0.02801 h -0.013 -0.013 l -0.0401,-0.03185 -0.0401,-0.03185 h -0.0128 -0.0128 l -0.0202,-0.02236 -0.0202,-0.02236 -0.0372,-0.01899 -0.0371,-0.01899 -0.0902,-0.0856 -0.0902,-0.0856 -0.0159,-0.01484 -0.0159,-0.01483 -0.0552,-0.05984 -0.0552,-0.05984 -0.0172,-0.03626 -0.0172,-0.03626 -0.0205,-0.01853 -0.0205,-0.01853 v -0.01346 -0.01346 l -0.0251,-0.03001 -0.0251,-0.03001 -0.0289,-0.05725 -0.0289,-0.05725 -0.0245,-0.07014 -0.0245,-0.07014 -0.0176,-0.05308 -0.0176,-0.05308 -0.0274,-0.08492 -0.0274,-0.08492 -0.0102,-0.148613 -0.0102,-0.148613 0.006,-0.191074 0.006,-0.191074 0.0147,-0.06369 0.0147,-0.06369 0.0237,-0.09023 0.0237,-0.09023 0.0251,-0.05545 0.0251,-0.05545 0.007,-0.02947 0.007,-0.02948 0.008,-0.01074 0.008,-0.01074 0.0234,-0.06356 0.0234,-0.06356 0.0133,-0.01592 0.0133,-0.01592 0.0164,-0.03185 0.0164,-0.03185 0.0644,-0.07431 0.0644,-0.07431 0.0293,-0.03408 0.0292,-0.03408 0.014,-0.01369 0.014,-0.01369 0.016,-0.01592 0.016,-0.01592 0.0516,-0.05308 0.0517,-0.05308 0.0298,-0.02466 0.0298,-0.02466 0.0566,-0.03543 0.0566,-0.03543 0.0276,-0.0069 0.0276,-0.0069 0.0307,-0.02585 0.0307,-0.02585 h 0.013 0.0131 l 0.0352,-0.02598 0.0352,-0.02598 0.0332,-0.0071 0.0332,-0.0071 0.0531,-0.02429 0.0531,-0.0243 0.11146,-0.02852 0.11146,-0.02852 0.0425,-0.0086 0.0425,-0.0086 0.15923,-0.0073 0.15922,-0.0073 0.16979,0.01201 0.1698,0.01201 0.0556,0.0263 0.0556,0.0263 0.0378,-0.01578 0.0378,-0.01578 0.0255,-0.05777 0.0255,-0.05777 0.0113,-0.007 0.0113,-0.007 0.0217,-0.03909 0.0217,-0.03909 0.0414,-0.069 0.0414,-0.069 0.0208,-0.04395 0.0207,-0.04395 0.0107,-0.0066 0.0107,-0.0066 0.019,-0.05031 0.019,-0.05031 0.0296,-0.0414 0.0296,-0.0414 v -0.01014 -0.01014 l 0.0265,-0.03154 0.0265,-0.03154 v -0.01365 -0.01365 l 0.0318,-0.04007 0.0318,-0.04007 v -0.01257 -0.01257 l 0.0315,-0.0417 0.0316,-0.0417 3e-4,-0.01327 2.9e-4,-0.01327 0.0209,-0.02087 0.0209,-0.02087 0.0296,-0.05425 0.0296,-0.05425 0.0212,-0.04023 0.0212,-0.04023 0.0131,-0.01561 0.0131,-0.01561 0.0165,-0.04685 0.0165,-0.04685 0.0244,-0.03715 0.0244,-0.03715 0.0203,-0.03086 0.0203,-0.03086 0.0287,-0.04875 0.0286,-0.04875 0.0272,-0.05308 0.0272,-0.05308 0.0291,-0.04894 0.0291,-0.04894 0.0192,-0.02537 0.0192,-0.02537 0.0365,-0.05792 0.0364,-0.05792 0.006,-0.03427 0.006,-0.03427 0.0202,-0.01826 0.0202,-0.01826 v -0.01309 -0.01309 l 0.0372,-0.05401 0.0372,-0.05401 v -0.01087 -0.01087 l 0.0194,-0.01946 0.0195,-0.01946 0.0281,-0.04689 0.0281,-0.04689 0.0209,-0.04246 0.0209,-0.04246 0.0271,-0.03656 0.0271,-0.03656 v -0.01377 -0.01377 l 0.0367,-0.04814 0.0367,-0.04813 0.0308,-0.06607 0.0308,-0.06607 0.008,-0.01592 0.008,-0.01592 0.0337,-0.05918 0.0337,-0.05917 0.0294,-0.05494 0.0294,-0.05494 h 0.009 0.009 l 0.0226,-0.05247 0.0226,-0.05247 0.0108,-0.0067 0.0108,-0.0067 0.029,-0.05343 0.029,-0.05342 0.0265,-0.04519 0.0265,-0.04519 0.0245,-0.03598 0.0245,-0.03598 -0.006,-0.04777 -0.006,-0.04777 -0.0266,-0.02338 -0.0266,-0.02338 v -0.01075 -0.01076 l -0.0304,-0.03487 -0.0304,-0.03487 -0.0187,-0.03715 -0.0187,-0.03715 -0.0133,-0.01592 -0.0133,-0.01592 -0.0126,-0.03914 -0.0126,-0.03914 -0.0191,-0.02455 -0.0191,-0.02455 -0.0129,-0.04246 -0.0129,-0.04246 -0.0195,-0.03715 -0.0195,-0.03715 -0.0174,-0.09554 -0.0174,-0.09554 -0.0181,-0.04777 -0.0181,-0.04777 5.2e-4,-0.286611 5.3e-4,-0.286611 0.0179,-0.05308 0.0179,-0.05308 0.0155,-0.08153 0.0155,-0.08154 0.0175,-0.03394 0.0175,-0.03394 0.0156,-0.05255 0.0156,-0.05255 0.0391,-0.06808 0.0392,-0.06808 0.0318,-0.05634 0.0318,-0.05634 0.0231,-0.03663 0.0231,-0.03663 0.0208,-0.02123 0.0208,-0.02123 0.0162,-0.03185 0.0162,-0.03185 0.0566,-0.05759 0.0566,-0.05759 0.11146,-0.09327 0.11146,-0.09327 0.0239,-0.02127 0.0239,-0.02127 0.0239,-0.01231 0.0239,-0.01231 0.0217,-0.01974 0.0217,-0.01974 0.0579,-0.02041 0.0579,-0.02041 0.0719,-0.02744 0.0719,-0.02744 0.0238,-0.01556 0.0238,-0.01556 0.0848,-0.02077 0.0848,-0.02077 0.0318,-0.01087 0.0318,-0.01087 0.12264,-0.01128 0.12263,-0.01128 0.15336,9.6e-5 0.15336,9.7e-5 0.11795,0.01466 0.11794,0.01467 0.0201,0.01058 0.02,0.01058 0.0845,0.01734 0.0845,0.01734 0.027,0.01834 0.027,0.01834 0.0637,0.02245 0.0637,0.02245 0.0591,0.0221 0.0591,0.0221 0.0572,0.03849 0.0572,0.03849 0.0144,0.02048 0.0143,0.02048 h 0.0106 0.0106 l 0.0764,0.06557 0.0764,0.06557 0.1035,0.102652 0.1035003,0.102653 v 0.01625 0.01625 l 0.0167,0.0139 0.0168,0.0139 0.0284,0.0519 0.0284,0.0519 0.0212,0.03955 0.0212,0.03956 0.0225,0.03129 0.0225,0.03129 0.008,0.02654 0.008,0.02654 0.0187,0.02401 0.0187,0.02401 0.0129,0.05561 0.0129,0.05561 0.0194,0.04777 0.0194,0.04777 0.0324,0.183002 0.0324,0.183002 v 0.144551 0.144551 l -0.0157,0.07052 -0.0157,0.07052 -0.0161,0.100845 -0.0161,0.100844 -0.0264,0.06369 -0.0264,0.06369 -2.5e-4,0.0214 -2.5e-4,0.0214 -0.0212,0.03699 -0.0212,0.03699 -0.0272,0.05308 -0.0272,0.05308 -0.0232,0.04318 -0.0232,0.04319 -0.0234,0.02934 -0.0234,0.02934 -0.007,0.02301 -0.007,0.02301 -0.028,0.02989 -0.028,0.02989 3.6e-4,0.06034 3.6e-4,0.06034 0.0186,0.03715 0.0186,0.03715 0.0221,0.04246 0.0221,0.04246 0.0252,0.03001 0.0252,0.03001 v 0.01365 0.01365 l 0.0318,0.04007 0.0318,0.04007 v 0.01303 0.01303 l 0.0239,0.02992 0.0239,0.02992 0.0287,0.04847 0.0287,0.04847 0.0208,0.04394 0.0208,0.04395 0.011,0.0068 0.011,0.0068 0.0541,0.110868 0.0541,0.110867 0.01,0.0062 0.0101,0.0062 0.0226,0.05247 0.0226,0.05247 h 0.01 0.01 l 0.021,0.04511 0.021,0.04511 0.0343,0.05982 0.0343,0.05982 0.0424,0.06226 0.0424,0.06226 0.0233,0.04246 0.0233,0.04246 0.0222,0.04777 0.0222,0.04777 0.0154,0.02654 0.0154,0.02654 0.0211,0.04512 0.0211,0.04511 h 0.0109 0.0108 l 0.0166,0.03966 0.0166,0.03966 0.0192,0.02138 0.0192,0.02138 0.0115,0.03447 0.0115,0.03447 0.0271,0.03553 0.0271,0.03553 2e-5,0.0096 2e-5,0.0096 0.0636,0.09023 0.0636,0.09023 2e-5,0.0118 3e-5,0.0118 0.0431,0.08904 0.0431,0.08904 0.0253,0.03715 0.0253,0.03715 0.0221,0.02854 0.0221,0.02854 0.0155,0.03707 0.0155,0.03708 0.0101,0.0062 0.0101,0.0062 0.0272,0.05553 0.0272,0.05553 0.0315,0.04777 0.0315,0.04777 0.026,0.04843 0.0261,0.04843 0.0158,0.01313 0.0158,0.01313 0.0124,0.05167 0.0124,0.05167 0.0204,0.01845 0.0204,0.01844 v 0.01008 0.01008 l 0.0311,0.04606 0.0311,0.04606 0.0221,0.04571 0.0221,0.04571 0.0237,0.03627 0.0237,0.03627 0.0383,0.04043 0.0383,0.04043 0.0678,-0.006 0.0679,-0.006 0.18045,0.0112 0.18046,0.0112 0.0894,0.02694 0.0894,0.02694 h 0.0178 0.0178 l 0.0489,0.02602 0.0489,0.02602 0.0455,0.01213 0.0455,0.01212 0.0159,0.01363 0.0159,0.01363 0.05,0.02178 0.05,0.02178 0.0227,0.0211 0.0226,0.02111 0.0281,0.007 0.0281,0.007 0.0478,0.03102 0.0478,0.03102 0.0254,0.01858 0.0254,0.01858 0.0542,0.0535 0.0542,0.0535 0.0902,0.09847 0.0902,0.09847 0.0292,0.02759 0.0292,0.02759 v 0.01187 0.01187 l 0.0362,0.05803 0.0362,0.05803 0.022,0.03501 0.022,0.03501 0.0305,0.07645 0.0305,0.07645 0.0136,0.05838 0.0136,0.05838 0.0185,0.03715 0.0185,0.03715 0.0111,0.07431 0.0111,0.07431 0.0117,0.09554 0.0118,0.09554 0.0105,0.07961 0.0105,0.07961 -0.01,0.100845 -0.01,0.100844 -0.0221,0.140875 -0.0221,0.140874 -0.0179,0.03428 -0.0179,0.03428 -0.0187,0.07431 -0.0187,0.07431 -0.0271,0.07876 -0.0271,0.07876 -0.0209,0.02223 -0.0209,0.02223 -0.0169,0.03701 -0.0169,0.03701 -0.0262,0.03715 -0.0262,0.03715 -0.0211,0.02654 -0.0211,0.02654 -0.0452,0.05261 -0.0452,0.05261 -0.0902,0.08678 -0.0902,0.08678 -0.0478,0.03764 -0.0478,0.03764 -0.0217,0.01935 -0.0217,0.01935 -0.0314,0.01399 -0.0314,0.01399 -0.0425,0.02748 -0.0425,0.02748 -0.0305,0.02088 -0.0305,0.02088 -0.10746,0.03461 -0.10747,0.03461 -0.0748,0.01679 -0.0748,0.01679 -0.0412,0.01723 -0.0413,0.01724 -0.16738,0.01175 -0.16738,0.01174 -0.2102,-0.0118 -0.21019,-0.01179 -0.0531,-0.02148 -0.0531,-0.02148 -0.0637,-0.01553 -0.0637,-0.01553 -0.0847,-0.02314 -0.0847,-0.02315 -0.0421,-0.03097 -0.0421,-0.03097 h -0.0118 -0.0118 l -0.0366,-0.02745 -0.0366,-0.02745 -0.0251,-0.0099 -0.0251,-0.0099 -0.0318,-0.02368 -0.0318,-0.02369 -0.10768,-0.09973 -0.10768,-0.09973 -0.0411,-0.03827 -0.0411,-0.03827 -0.0438,-0.05721 -0.0439,-0.05721 -0.0212,-0.03386 -0.0212,-0.03386 -0.0212,-0.03467 -0.0212,-0.03467 -0.0292,-0.0376 -0.0292,-0.0376 -2.4e-4,-0.02773 -2.3e-4,-0.02773 -0.0229,-0.04777 -0.0229,-0.04777 -0.0303,-0.08492 -0.0303,-0.08492 -0.0214,-0.06633 -0.0214,-0.06633 -0.0301,-0.01556 -0.0301,-0.01556 -1.8905103,-3.01e-4 -1.89052,-3.01e-4 -0.0255,0.0116 -0.0255,0.0116 -0.0215,0.04402 -0.0215,0.04402 -0.0119,0.05742 -0.0119,0.05742 -0.0205,0.04631 -0.0205,0.04631 -0.0105,0.05669 -0.0105,0.05669 -0.0298,0.04658 -0.0298,0.04658 -0.0136,0.02123 -0.0136,0.02123 -0.0183,0.03085 -0.0183,0.03086 -0.0182,0.01921 -0.0182,0.01921 -0.0272,0.04017 -0.0272,0.04017 -0.0237,0.03185 -0.0237,0.03184 -0.10248,0.103499 -0.10247,0.103498 h -0.0109 -0.0109 l -0.0139,0.01902 -0.0139,0.01901 -0.0504,0.0292 -0.0504,0.0292 v 0.0089 0.0089 l -0.0331,0.01372 -0.0331,0.01372 -0.0173,0.01757 -0.0173,0.01757 -0.0372,0.01415 -0.0372,0.01415 -0.0265,0.02316 -0.0265,0.02315 -0.12739,0.03464 -0.12738,0.03464 -0.0637,0.02084 -0.0637,0.02083 -0.0531,0.0094 -0.0531,0.0094 -0.22823,0.0051 -0.22823,0.0051 z m 5.9174103,-2.154585 0.0161,-0.01611 0.011,-0.0582 0.011,-0.0582 0.0368,-0.103594 0.0368,-0.103596 0.0154,-0.02379 0.0154,-0.02379 0.0125,-0.0501 0.0125,-0.0501 0.0149,-0.01234 0.0149,-0.01234 0.0211,-0.04371 0.0211,-0.04371 0.0271,-0.03692 0.0271,-0.03692 0.0817,-0.08952 0.0817,-0.08952 0.0849,-0.08258 0.0849,-0.08258 0.0241,-0.0217 0.0241,-0.0217 0.0343,-0.01732 0.0343,-0.01733 0.0239,-0.02184 0.0239,-0.02184 v -0.034 -0.034 l -0.0168,-0.01393 -0.0168,-0.01393 -0.0315,-0.05902 -0.0315,-0.05902 -0.0363,-0.05838 -0.0363,-0.05838 -0.011,-0.02654 -0.011,-0.02654 -0.0165,-0.02654 -0.0165,-0.02654 -0.0253,-0.05475 -0.0253,-0.05476 -0.0118,-0.0073 -0.0117,-0.0073 -0.0267,-0.05475 -0.0267,-0.05475 -0.0233,-0.04434 -0.0233,-0.04434 -0.0238,-0.02534 -0.0238,-0.02534 v -0.0075 -0.0075 l -0.0372,-0.05401 -0.0371,-0.05401 v -0.01309 -0.01309 l -0.0206,-0.01867 -0.0206,-0.01867 -0.007,-0.031 -0.007,-0.031 -0.0237,-0.02894 -0.0237,-0.02894 -0.0188,-0.05042 -0.0188,-0.05042 h -0.01 -0.01 l -0.026,-0.05042 -0.026,-0.05042 -0.0267,-0.05475 -0.0267,-0.05475 -0.0105,-0.0065 -0.0105,-0.0065 -0.0266,-0.05553 -0.0266,-0.05553 -0.0325,-0.04246 -0.0324,-0.04246 -0.0268,-0.05468 -0.0268,-0.05468 -0.0156,-0.01297 -0.0156,-0.01297 -2e-5,-0.01197 -3e-5,-0.01197 -0.0435,-0.08492 -0.0435,-0.08492 -0.019,-0.02123 -0.019,-0.02123 -0.007,-0.02295 -0.007,-0.02295 -0.0314,-0.03954 -0.0314,-0.03954 v -0.01021 -0.01021 l -0.0392,-0.06529 -0.0392,-0.06529 -0.0177,-0.02123 -0.0177,-0.02123 -0.0123,-0.0367 -0.0123,-0.0367 -0.0218,-0.02321 -0.0218,-0.02321 -0.0197,-0.03563 -0.0197,-0.03563 -0.0177,-0.03715 -0.0177,-0.03715 -0.0168,-0.03185 -0.0167,-0.03184 -0.0209,-0.04246 -0.0209,-0.04246 -0.0583,-0.09023 -0.0583,-0.09023 -0.0197,-0.02857 -0.0197,-0.02857 -0.0252,-0.05635 -0.0252,-0.05635 -0.0275,-0.0253 -0.0275,-0.0253 -0.0332,0.0066 -0.0332,0.0066 -0.0263,0.0207 -0.0263,0.02071 -0.0604,0.01249 -0.0604,0.01249 -0.0495,0.01946 -0.0495,0.01946 -0.12565,0.01102 -0.12565,0.01102 -0.13269,-6.6e-5 -0.13269,-6.6e-5 -0.12482,-0.01034 -0.12482,-0.01034 -0.0354,-0.01481 -0.0354,-0.01481 -0.0786,-0.01773 -0.0786,-0.01774 -0.0395,-0.02718 -0.0395,-0.02718 -0.037,0.0069 -0.037,0.0069 -0.0217,0.02757 -0.0217,0.02757 v 0.01834 0.01834 l -0.0319,0.04007 -0.0318,0.04007 -2e-4,0.01181 -1.9e-4,0.01181 -0.0313,0.04777 -0.0313,0.04777 -0.0322,0.0435 -0.0322,0.0435 v 0.0076 0.0076 l -0.039,0.08161 -0.039,0.08161 -0.0177,0.02123 -0.0177,0.02123 -0.014,0.03715 -0.014,0.03715 -0.0161,0.0131 -0.0161,0.0131 -0.0246,0.03998 -0.0246,0.03998 -0.0262,0.05475 -0.0262,0.05475 -0.0121,0.0075 -0.0121,0.0075 -0.0208,0.04395 -0.0208,0.04394 -0.0287,0.04847 -0.0287,0.04847 -0.0239,0.02992 -0.0239,0.02992 v 0.0182 0.0182 l -0.0317,0.04671 -0.0316,0.04671 -1.9e-4,0.01776 -2e-4,0.01776 -0.0253,0.0301 -0.0253,0.0301 -0.0171,0.03706 -0.0171,0.03706 -0.0426,0.06369 -0.0426,0.06369 -0.0152,0.03269 -0.0152,0.03269 -0.0154,0.01276 -0.0154,0.01276 -0.022,0.0511 -0.022,0.0511 -0.0158,0.01311 -0.0158,0.0131 -0.0128,0.03896 -0.0128,0.03896 -0.0179,0.02654 -0.0179,0.02654 -0.0388,0.06529 -0.0388,0.06529 v 0.01085 0.01086 l -0.0253,0.0301 -0.0253,0.0301 -0.0173,0.03706 -0.0173,0.03706 -0.0343,0.05455 -0.0343,0.05455 -0.0203,0.03037 -0.0203,0.03037 -0.0243,0.03715 -0.0243,0.03715 -0.0163,0.03908 -0.0162,0.03908 -0.0105,0.0065 -0.0105,0.0065 -0.0158,0.05306 -0.0158,0.05306 -0.0225,0.02875 -0.0225,0.02875 -0.0363,0.05803 -0.0363,0.05803 -3e-4,0.01097 -2.9e-4,0.01097 -0.0315,0.0417 -0.0315,0.0417 v 0.01214 0.01214 l -0.0316,0.0417 -0.0315,0.0417 -3e-4,0.0129 -2.9e-4,0.0129 -0.0318,0.03627 -0.0319,0.03627 v 0.0072 0.0072 l -0.0305,0.03918 -0.0305,0.03919 -0.0119,0.03608 -0.0119,0.03608 v 0.026 0.026 l 0.0663,0.06715 0.0663,0.06715 0.0637,0.07658 0.0637,0.07658 0.0233,0.03834 0.0233,0.03834 0.0418,0.08038 0.0417,0.08038 0.018,0.06175 0.0179,0.06175 0.0143,0.0224 0.0143,0.0224 0.0182,0.07431 0.0182,0.07431 0.0197,0.03899 0.0197,0.03899 0.0188,0.005 0.0188,0.005 1.91301,-0.0015 1.91302,-0.0015 0.0161,-0.01611 z"
       id="path1775" />
  </g>
</svg>
