<?xml version="1.0" encoding="UTF-8" standalone="no"?>
<!-- Created with Inkscape (http://www.inkscape.org/) -->

<svg
   width="64"
   height="64"
   viewBox="0 0 16.933333 16.933334"
   version="1.1"
   id="svg5"
   inkscape:version="1.1.1 (c3084ef, 2021-09-22)"
   sodipodi:docname="baby_goods_64.svg"
   xmlns:inkscape="http://www.inkscape.org/namespaces/inkscape"
   xmlns:sodipodi="http://sodipodi.sourceforge.net/DTD/sodipodi-0.dtd"
   xmlns="http://www.w3.org/2000/svg"
   xmlns:svg="http://www.w3.org/2000/svg">
  <sodipodi:namedview
     id="namedview7"
     pagecolor="#ffffff"
     bordercolor="#666666"
     borderopacity="1.0"
     inkscape:pageshadow="2"
     inkscape:pageopacity="0.0"
     inkscape:pagecheckerboard="0"
     inkscape:document-units="mm"
     showgrid="false"
     units="px"
     inkscape:zoom="2.1218127"
     inkscape:cx="0.23564756"
     inkscape:cy="13.431911"
     inkscape:window-width="1440"
     inkscape:window-height="779"
     inkscape:window-x="0"
     inkscape:window-y="25"
     inkscape:window-maximized="0"
     inkscape:current-layer="layer1" />
  <defs
     id="defs2">
    <inkscape:perspective
       sodipodi:type="inkscape:persp3d"
       inkscape:vp_x="0 : 526.18109 : 1"
       inkscape:vp_y="0 : 1000 : 0"
       inkscape:vp_z="744.09448 : 526.18109 : 1"
       inkscape:persp3d-origin="372.04724 : 350.78739 : 1"
       id="perspective10" />
    <inkscape:perspective
       id="perspective2461"
       inkscape:persp3d-origin="10 : 6.6666667 : 1"
       inkscape:vp_z="20 : 10 : 1"
       inkscape:vp_y="0 : 1000 : 0"
       inkscape:vp_x="0 : 10 : 1"
       sodipodi:type="inkscape:persp3d" />
    <inkscape:perspective
       id="perspective2466"
       inkscape:persp3d-origin="400 : 200 : 1"
       inkscape:vp_z="800 : 300 : 1"
       inkscape:vp_y="0 : 1000 : 0"
       inkscape:vp_x="0 : 300 : 1"
       sodipodi:type="inkscape:persp3d" />
  </defs>
  <g
     inkscape:label="Calque 1"
     inkscape:groupmode="layer"
     id="layer1">
    <circle
       style="fill:#ffb347;stroke-width:0.2;fill-opacity:1;stroke:#ffffff;stroke-opacity:1;stroke-miterlimit:4;stroke-dasharray:none"
       id="path846"
       cx="8.4666662"
       cy="8.4666662"
       r="8" />
    <rect
       width="11"
       height="11"
       x="5.1342812"
       y="9.5268974"
       id="canvas"
       style="visibility:hidden;fill:none;stroke:none;stroke-width:0.6875" />
    <path
       style="fill:#ffffff;stroke-width:0.008125"
       d="m 7.1144555,13.336526 c -0.455366,-0.05082 -0.852364,-0.365147 -1.007575,-0.797754 -0.158993,-0.443148 -0.04771,-0.939492 0.285291,-1.272497 0.189185,-0.189185 0.455972,-0.320693 0.701972,-0.346024 0.02681,-0.0028 0.06321,-0.0071 0.08089,-0.0097 l 0.03214,-0.0046 -0.03214,-0.0161 C 7.1250065,10.864773 6.9794885,10.779516 6.9032055,10.730579 6.4731405,10.454678 6.0799535,10.061469 5.8049955,9.6323103 5.4583639,9.0912813 5.2695866,8.5123023 5.2288003,7.8651223 l -0.00922,-0.146249 -0.041403,-0.101563 C 5.1253595,7.4877373 5.0218354,7.2833583 4.945652,7.1582483 4.5825563,6.5619623 4.1262872,6.1975653 3.5930007,6.0779583 3.4930559,6.0555433 3.3094526,6.0331673 3.2242736,6.0330223 l -0.05112,-8.7e-5 0.00435,-0.05891 c 0.00239,-0.0324 0.00808,-0.185047 0.012647,-0.339219 0.00456,-0.154171 0.010431,-0.310892 0.013043,-0.348267 l 0.00475,-0.06795 0.094662,0.0054 c 0.3949688,0.02237 0.7138335,0.102938 1.0371623,0.262071 0.6102312,0.300337 1.1129905,0.838121 1.4775316,1.58046 l 0.09059,0.184482 1.687968,3.62e-4 1.687969,3.62e-4 v -1.831269 -1.83127 l 0.262031,0.0035 c 0.441297,0.0058 0.6777355,0.02077 0.9567195,0.06043 0.833071,0.118424 1.556227,0.453818 2.082962,0.966062 0.305396,0.296994 0.533075,0.615017 0.727167,1.015711 0.22139,0.457046 0.368143,0.989151 0.41624,1.509218 0.0074,0.07968 0.01279,0.107657 0.02086,0.107657 0.01346,0 0.01346,0.0011 0.0021,0.455948 -0.0048,0.193803 -0.01186,0.354258 -0.01559,0.356566 -0.0037,0.0023 -0.01093,0.03524 -0.016,0.07318 -0.11674,0.874845 -0.552625,1.684594 -1.223043,2.2720627 -0.202084,0.17708 -0.494592,0.378284 -0.69839,0.48039 l -0.03214,0.0161 0.03214,0.0046 c 0.01768,0.0026 0.05408,0.0069 0.08089,0.0097 0.02681,0.0028 0.08112,0.01248 0.120683,0.0216 0.3956,0.09119 0.728581,0.388114 0.86658,0.772746 0.158992,0.443148 0.04771,0.939492 -0.285291,1.272497 -0.333005,0.333004 -0.829349,0.444283 -1.272497,0.28529 -0.337945,-0.121247 -0.612366,-0.395667 -0.733614,-0.733613 -0.157284,-0.438388 -0.04935,-0.931873 0.276538,-1.264362 0.04502,-0.04593 0.04828,-0.0513 0.02807,-0.04622 -0.11919,0.02992 -0.370886,0.06509 -0.555024,0.07756 -0.163754,0.01109 -1.5127645,0.01109 -1.6765195,0 -0.184137,-0.01247 -0.435832,-0.04765 -0.555023,-0.07756 -0.02021,-0.0051 -0.01695,2.93e-4 0.02807,0.04622 0.325889,0.332489 0.433822,0.825974 0.276537,1.264362 -0.189798,0.52901 -0.723012,0.860342 -1.283825,0.797754 z m 0.221007,-0.81257 c 0.183233,-0.03821 0.323368,-0.210372 0.323368,-0.397271 0,-0.219289 -0.186961,-0.40625 -0.40625,-0.40625 -0.219289,0 -0.40625,0.186961 -0.40625,0.40625 0,0.182422 0.133477,0.351513 0.311577,0.394714 0.05352,0.01298 0.122782,0.01398 0.177555,0.0026 z m 4.4687505,0 c 0.183232,-0.03821 0.323368,-0.210372 0.323368,-0.397271 0,-0.219289 -0.186961,-0.40625 -0.40625,-0.40625 -0.219289,0 -0.40625,0.186961 -0.40625,0.40625 0,0.182422 0.133477,0.351513 0.311577,0.394714 0.05352,0.01298 0.122782,0.01398 0.177555,0.0026 z M 10.433519,10.48248 c 0.354259,-0.04998 0.613313,-0.127922 0.91,-0.273808 0.429204,-0.2110457 0.792466,-0.5201967 1.072876,-0.9130637 0.202185,-0.283268 0.368949,-0.650588 0.446559,-0.983611 0.01828,-0.07844 0.04463,-0.216335 0.04463,-0.233577 0,-0.01354 -0.166831,-0.01423 -3.4206255,-0.01423 -3.253794,0 -3.420625,6.95e-4 -3.420625,0.01423 0,0.01724 0.02635,0.155139 0.04463,0.233577 0.07761,0.333023 0.244376,0.700343 0.44656,0.983611 0.280411,0.392867 0.643672,0.702018 1.072877,0.9130637 0.343468,0.168889 0.64405,0.250165 1.064375,0.287802 0.01788,0.0016 0.394468,0.0022 0.836875,0.0013 0.7062125,-0.0014 0.8162735,-0.0033 0.9018745,-0.01533 z m 2.486329,-3.2775137 c -0.05804,-0.526334 -0.213984,-1.026655 -0.441276,-1.415781 -0.473873,-0.811274 -1.230248,-1.253746 -2.327397,-1.361506 l -0.05484,-0.0054 v 1.414696 1.414697 h 1.414335 1.414334 z"
       id="path1343" />
  </g>
</svg>
