<?xml version="1.0" encoding="UTF-8" standalone="no"?>
<svg
   xmlns:dc="http://purl.org/dc/elements/1.1/"
   xmlns:cc="http://creativecommons.org/ns#"
   xmlns:rdf="http://www.w3.org/1999/02/22-rdf-syntax-ns#"
   xmlns:svg="http://www.w3.org/2000/svg"
   xmlns="http://www.w3.org/2000/svg"
   xmlns:xlink="http://www.w3.org/1999/xlink"
   xmlns:sodipodi="http://sodipodi.sourceforge.net/DTD/sodipodi-0.dtd"
   xmlns:inkscape="http://www.inkscape.org/namespaces/inkscape"
   version="1.1"
   id="Calque_1"
   x="0px"
   y="0px"
   viewBox="0 0 64 64"
   xml:space="preserve"
   sodipodi:docname="beauty_64.svg"
   width="64"
   height="64"
   inkscape:version="1.0.2 (e86c8708, 2021-01-15)"><metadata
   id="metadata18997"><rdf:RDF><cc:Work
       rdf:about=""><dc:format>image/svg+xml</dc:format><dc:type
         rdf:resource="http://purl.org/dc/dcmitype/StillImage" /><dc:title></dc:title></cc:Work></rdf:RDF></metadata><defs
   id="defs18995">
	
	

		
		
		
	
			
		
			
			
			
			
			
			
		
			
			
			
			
			
			
		
				
			
				<defs
   id="defs18865">
					<rect
   id="SVGID_1_"
   x="1.3"
   y="3.9000001"
   width="49.400002"
   height="93.699997" />
				</defs>
				<clipPath
   id="SVGID_2_">
					<use
   xlink:href="#SVGID_1_"
   style="overflow:visible"
   id="use18867"
   x="0"
   y="0"
   width="100%"
   height="100%" />
				</clipPath>
				
			
				<defs
   id="defs18875">
					<rect
   id="SVGID_3_"
   x="1.3"
   y="3.9000001"
   width="49.400002"
   height="93.699997" />
				</defs>
				<clipPath
   id="SVGID_4_">
					<use
   xlink:href="#SVGID_3_"
   style="overflow:visible"
   id="use18877"
   x="0"
   y="0"
   width="100%"
   height="100%" />
				</clipPath>
				
			
				<defs
   id="defs18885">
					<rect
   id="SVGID_5_"
   x="1.3"
   y="3.9000001"
   width="49.400002"
   height="93.699997" />
				</defs>
				<clipPath
   id="SVGID_6_">
					<use
   xlink:href="#SVGID_5_"
   style="overflow:visible"
   id="use18887"
   x="0"
   y="0"
   width="100%"
   height="100%" />
				</clipPath>
				
			
				<defs
   id="defs18895">
					<rect
   id="SVGID_7_"
   x="1.3"
   y="3.9000001"
   width="49.400002"
   height="93.699997" />
				</defs>
				<clipPath
   id="SVGID_8_">
					<use
   xlink:href="#SVGID_7_"
   style="overflow:visible"
   id="use18897"
   x="0"
   y="0"
   width="100%"
   height="100%" />
				</clipPath>
				
			
				<defs
   id="defs18905">
					<rect
   id="SVGID_9_"
   x="1.3"
   y="3.9000001"
   width="49.400002"
   height="93.699997" />
				</defs>
				<clipPath
   id="SVGID_10_">
					<use
   xlink:href="#SVGID_9_"
   style="overflow:visible"
   id="use18907"
   x="0"
   y="0"
   width="100%"
   height="100%" />
				</clipPath>
				
			
				<defs
   id="defs18915">
					<rect
   id="SVGID_11_"
   x="1.3"
   y="3.9000001"
   width="49.400002"
   height="93.699997" />
				</defs>
				<clipPath
   id="SVGID_12_">
					<use
   xlink:href="#SVGID_11_"
   style="overflow:visible"
   id="use18917"
   x="0"
   y="0"
   width="100%"
   height="100%" />
				</clipPath>
				
			
				<defs
   id="defs18927">
					<rect
   id="SVGID_13_"
   x="50.599998"
   y="3.9000001"
   width="49.400002"
   height="93.699997" />
				</defs>
				<clipPath
   id="SVGID_14_">
					<use
   xlink:href="#SVGID_13_"
   style="overflow:visible"
   id="use18929"
   x="0"
   y="0"
   width="100%"
   height="100%" />
				</clipPath>
				
			
				<defs
   id="defs18937">
					<rect
   id="SVGID_15_"
   x="50.599998"
   y="3.9000001"
   width="49.400002"
   height="93.699997" />
				</defs>
				<clipPath
   id="SVGID_16_">
					<use
   xlink:href="#SVGID_15_"
   style="overflow:visible"
   id="use18939"
   x="0"
   y="0"
   width="100%"
   height="100%" />
				</clipPath>
				
			
				<defs
   id="defs18947">
					<rect
   id="SVGID_17_"
   x="50.599998"
   y="3.9000001"
   width="49.400002"
   height="93.699997" />
				</defs>
				<clipPath
   id="SVGID_18_">
					<use
   xlink:href="#SVGID_17_"
   style="overflow:visible"
   id="use18949"
   x="0"
   y="0"
   width="100%"
   height="100%" />
				</clipPath>
				
			
				<defs
   id="defs18957">
					<rect
   id="SVGID_19_"
   x="50.599998"
   y="3.9000001"
   width="49.400002"
   height="93.699997" />
				</defs>
				<clipPath
   id="SVGID_20_">
					<use
   xlink:href="#SVGID_19_"
   style="overflow:visible"
   id="use18959"
   x="0"
   y="0"
   width="100%"
   height="100%" />
				</clipPath>
				
			
				<defs
   id="defs18967">
					<rect
   id="SVGID_21_"
   x="50.599998"
   y="3.9000001"
   width="49.400002"
   height="93.699997" />
				</defs>
				<clipPath
   id="SVGID_22_">
					<use
   xlink:href="#SVGID_21_"
   style="overflow:visible"
   id="use18969"
   x="0"
   y="0"
   width="100%"
   height="100%" />
				</clipPath>
				
			
				<defs
   id="defs18977">
					<rect
   id="SVGID_23_"
   x="50.599998"
   y="3.9000001"
   width="49.400002"
   height="93.699997" />
				</defs>
				<clipPath
   id="SVGID_24_">
					<use
   xlink:href="#SVGID_23_"
   style="overflow:visible"
   id="use18979"
   x="0"
   y="0"
   width="100%"
   height="100%" />
				</clipPath>
				
			</defs><sodipodi:namedview
   pagecolor="#ffffff"
   bordercolor="#666666"
   borderopacity="1"
   objecttolerance="10"
   gridtolerance="10"
   guidetolerance="10"
   inkscape:pageopacity="0"
   inkscape:pageshadow="2"
   inkscape:window-width="1440"
   inkscape:window-height="855"
   id="namedview18993"
   showgrid="false"
   inkscape:zoom="4.7305444"
   inkscape:cx="-0.62842239"
   inkscape:cy="50"
   inkscape:window-x="50"
   inkscape:window-y="72"
   inkscape:window-maximized="0"
   inkscape:current-layer="Calque_1"
   inkscape:document-rotation="0" />
<style
   type="text/css"
   id="style18855">
	.st0{fill:#C4114E;}
	.st1{fill:#FFFFFF;}
	.st2{clip-path:url(#SVGID_2_);fill:#FFFFFF;}
	.st3{clip-path:url(#SVGID_4_);}
	.st4{clip-path:url(#SVGID_6_);fill:#FFFFFF;}
	.st5{clip-path:url(#SVGID_8_);fill:#FFFFFF;}
	.st6{clip-path:url(#SVGID_10_);fill:#FFFFFF;}
	.st7{clip-path:url(#SVGID_12_);fill:#FFFFFF;}
	.st8{clip-path:url(#SVGID_14_);fill:#FFFFFF;}
	.st9{clip-path:url(#SVGID_16_);}
	.st10{clip-path:url(#SVGID_18_);fill:#FFFFFF;}
	.st11{clip-path:url(#SVGID_20_);fill:#FFFFFF;}
	.st12{clip-path:url(#SVGID_22_);fill:#FFFFFF;}
	.st13{clip-path:url(#SVGID_24_);fill:#FFFFFF;}
</style>
<path
   class="st3"
   d="m 70.6,71.8 h 2.6 v 2.6 h -2.6 z"
   clip-path="url(#SVGID_4_)"
   id="path18880" /><path
   class="st9"
   d="M 30.6,74.4 H 28 v -2.6 h 2.6 z"
   clip-path="url(#SVGID_16_)"
   id="path18942" /><circle
   id="Ellipse_584"
   class="st0"
   cx="32"
   cy="32"
   r="31.464872"
   style="stroke-width:0.629297;fill:#ffb347;fill-opacity:1" />
<rect
   width="14"
   height="14"
   x="70.580925"
   y="-13.553038"
   id="canvas"
   style="visibility:hidden;fill:none;stroke:none" /><path
   d="m 25.102843,11.308945 c -3.448577,0 -6.897154,1.616521 -10.345731,5.065097 -3.448576,3.448578 -6.8971545,6.897156 -6.8971545,10.345732 2.2990525,0 4.5981025,1.293217 6.8971545,1.293217 5.254907,0 6.670245,-4.514888 10.345731,-8.190371 1.858643,-1.211131 3.413557,-2.437624 8.513676,-1.832057 5.37858,1.149925 15.626365,5.250511 22.52352,10.130196 C 50.591633,22.431858 44.105418,16.174384 35.448575,12.925466 31.999998,11.218871 28.55142,11.308945 25.102843,11.308945 Z M 50.428332,29.090671 36.526255,35.125682 C 25.012646,37.01316 11.775058,32.589877 12.170679,33.078088 c 0.153634,0.189604 0.281472,0.351169 0.431072,0.538841 V 33.7247 l -4.7417935,12.07002 8.9447475,-6.897154 1.400985,13.79431 6.789386,-10.992341 c 0.626805,0.106971 1.234691,0.248367 1.939824,0.323304 l 5.065099,10.669037 3.771881,-10.669037 c 1.162508,-0.20381 2.194871,-0.591186 3.233041,-0.969912 l 6.789387,8.190371 0.107771,-12.608861 c 0.197051,-0.202258 0.352303,-0.436935 0.53884,-0.646607 l 9.699123,6.358314 -6.466082,-11.315645 c 0.275506,-0.62404 0.54929,-1.300123 0.754376,-1.939825 z"
   id="path3003"
   style="fill:#ffffff;fill-opacity:1;stroke:none;stroke-width:3.44857" /></svg>
