<?xml version="1.0" encoding="UTF-8" standalone="no"?>
<svg
   version="1.1"
   id="Calque_1"
   x="0px"
   y="0px"
   viewBox="0 0 64 64"
   xml:space="preserve"
   sodipodi:docname="beauty_64.svg"
   width="64"
   height="64"
   inkscape:version="1.1.1 (c3084ef, 2021-09-22)"
   xmlns:inkscape="http://www.inkscape.org/namespaces/inkscape"
   xmlns:sodipodi="http://sodipodi.sourceforge.net/DTD/sodipodi-0.dtd"
   xmlns:xlink="http://www.w3.org/1999/xlink"
   xmlns="http://www.w3.org/2000/svg"
   xmlns:svg="http://www.w3.org/2000/svg"
   xmlns:rdf="http://www.w3.org/1999/02/22-rdf-syntax-ns#"
   xmlns:cc="http://creativecommons.org/ns#"
   xmlns:dc="http://purl.org/dc/elements/1.1/"><metadata
   id="metadata18997"><rdf:RDF><cc:Work
       rdf:about=""><dc:format>image/svg+xml</dc:format><dc:type
         rdf:resource="http://purl.org/dc/dcmitype/StillImage" /></cc:Work></rdf:RDF></metadata><defs
   id="defs18995">
	
	

		
		
		
	
			
		
			
			
			
			
			
			
		
			
			
			
			
			
			
		
				
			
				<defs
   id="defs18865">
					<rect
   id="SVGID_1_"
   x="1.3"
   y="3.9000001"
   width="49.400002"
   height="93.699997" />
				</defs>
				<clipPath
   id="SVGID_2_">
					<use
   xlink:href="#SVGID_1_"
   style="overflow:visible"
   id="use18867"
   x="0"
   y="0"
   width="100%"
   height="100%" />
				</clipPath>
				
			
				<defs
   id="defs18875">
					<rect
   id="SVGID_3_"
   x="1.3"
   y="3.9000001"
   width="49.400002"
   height="93.699997" />
				</defs>
				<clipPath
   id="SVGID_4_">
					<use
   xlink:href="#SVGID_3_"
   style="overflow:visible"
   id="use18877"
   x="0"
   y="0"
   width="100%"
   height="100%" />
				</clipPath>
				
			
				<defs
   id="defs18885">
					<rect
   id="SVGID_5_"
   x="1.3"
   y="3.9000001"
   width="49.400002"
   height="93.699997" />
				</defs>
				<clipPath
   id="SVGID_6_">
					<use
   xlink:href="#SVGID_5_"
   style="overflow:visible"
   id="use18887"
   x="0"
   y="0"
   width="100%"
   height="100%" />
				</clipPath>
				
			
				<defs
   id="defs18895">
					<rect
   id="SVGID_7_"
   x="1.3"
   y="3.9000001"
   width="49.400002"
   height="93.699997" />
				</defs>
				<clipPath
   id="SVGID_8_">
					<use
   xlink:href="#SVGID_7_"
   style="overflow:visible"
   id="use18897"
   x="0"
   y="0"
   width="100%"
   height="100%" />
				</clipPath>
				
			
				<defs
   id="defs18905">
					<rect
   id="SVGID_9_"
   x="1.3"
   y="3.9000001"
   width="49.400002"
   height="93.699997" />
				</defs>
				<clipPath
   id="SVGID_10_">
					<use
   xlink:href="#SVGID_9_"
   style="overflow:visible"
   id="use18907"
   x="0"
   y="0"
   width="100%"
   height="100%" />
				</clipPath>
				
			
				<defs
   id="defs18915">
					<rect
   id="SVGID_11_"
   x="1.3"
   y="3.9000001"
   width="49.400002"
   height="93.699997" />
				</defs>
				<clipPath
   id="SVGID_12_">
					<use
   xlink:href="#SVGID_11_"
   style="overflow:visible"
   id="use18917"
   x="0"
   y="0"
   width="100%"
   height="100%" />
				</clipPath>
				
			
				<defs
   id="defs18927">
					<rect
   id="SVGID_13_"
   x="50.599998"
   y="3.9000001"
   width="49.400002"
   height="93.699997" />
				</defs>
				<clipPath
   id="SVGID_14_">
					<use
   xlink:href="#SVGID_13_"
   style="overflow:visible"
   id="use18929"
   x="0"
   y="0"
   width="100%"
   height="100%" />
				</clipPath>
				
			
				<defs
   id="defs18937">
					<rect
   id="SVGID_15_"
   x="50.599998"
   y="3.9000001"
   width="49.400002"
   height="93.699997" />
				</defs>
				<clipPath
   id="SVGID_16_">
					<use
   xlink:href="#SVGID_15_"
   style="overflow:visible"
   id="use18939"
   x="0"
   y="0"
   width="100%"
   height="100%" />
				</clipPath>
				
			
				<defs
   id="defs18947">
					<rect
   id="SVGID_17_"
   x="50.599998"
   y="3.9000001"
   width="49.400002"
   height="93.699997" />
				</defs>
				<clipPath
   id="SVGID_18_">
					<use
   xlink:href="#SVGID_17_"
   style="overflow:visible"
   id="use18949"
   x="0"
   y="0"
   width="100%"
   height="100%" />
				</clipPath>
				
			
				<defs
   id="defs18957">
					<rect
   id="SVGID_19_"
   x="50.599998"
   y="3.9000001"
   width="49.400002"
   height="93.699997" />
				</defs>
				<clipPath
   id="SVGID_20_">
					<use
   xlink:href="#SVGID_19_"
   style="overflow:visible"
   id="use18959"
   x="0"
   y="0"
   width="100%"
   height="100%" />
				</clipPath>
				
			
				<defs
   id="defs18967">
					<rect
   id="SVGID_21_"
   x="50.599998"
   y="3.9000001"
   width="49.400002"
   height="93.699997" />
				</defs>
				<clipPath
   id="SVGID_22_">
					<use
   xlink:href="#SVGID_21_"
   style="overflow:visible"
   id="use18969"
   x="0"
   y="0"
   width="100%"
   height="100%" />
				</clipPath>
				
			
				<defs
   id="defs18977">
					<rect
   id="SVGID_23_"
   x="50.599998"
   y="3.9000001"
   width="49.400002"
   height="93.699997" />
				</defs>
				<clipPath
   id="SVGID_24_">
					<use
   xlink:href="#SVGID_23_"
   style="overflow:visible"
   id="use18979"
   x="0"
   y="0"
   width="100%"
   height="100%" />
				</clipPath>
				
			</defs><sodipodi:namedview
   pagecolor="#ffffff"
   bordercolor="#666666"
   borderopacity="1"
   objecttolerance="10"
   gridtolerance="10"
   guidetolerance="10"
   inkscape:pageopacity="0"
   inkscape:pageshadow="2"
   inkscape:window-width="1440"
   inkscape:window-height="776"
   id="namedview18993"
   showgrid="false"
   inkscape:zoom="3.6403807"
   inkscape:cx="35.573202"
   inkscape:cy="25.821475"
   inkscape:window-x="50"
   inkscape:window-y="25"
   inkscape:window-maximized="0"
   inkscape:current-layer="Calque_1"
   inkscape:document-rotation="0"
   inkscape:pagecheckerboard="0" />
<style
   type="text/css"
   id="style18855">
	.st0{fill:#C4114E;}
	.st1{fill:#FFFFFF;}
	.st2{clip-path:url(#SVGID_2_);fill:#FFFFFF;}
	.st3{clip-path:url(#SVGID_4_);}
	.st4{clip-path:url(#SVGID_6_);fill:#FFFFFF;}
	.st5{clip-path:url(#SVGID_8_);fill:#FFFFFF;}
	.st6{clip-path:url(#SVGID_10_);fill:#FFFFFF;}
	.st7{clip-path:url(#SVGID_12_);fill:#FFFFFF;}
	.st8{clip-path:url(#SVGID_14_);fill:#FFFFFF;}
	.st9{clip-path:url(#SVGID_16_);}
	.st10{clip-path:url(#SVGID_18_);fill:#FFFFFF;}
	.st11{clip-path:url(#SVGID_20_);fill:#FFFFFF;}
	.st12{clip-path:url(#SVGID_22_);fill:#FFFFFF;}
	.st13{clip-path:url(#SVGID_24_);fill:#FFFFFF;}
</style>

<g
   id="g961"><circle
     id="Ellipse_584"
     class="st0"
     cx="32"
     cy="32"
     r="30.517185"
     style="fill:#ffb347;fill-opacity:1;stroke:#ffffff;stroke-width:0.193976;stroke-miterlimit:4;stroke-dasharray:none;stroke-opacity:1" /><path
     d="m 26.060742,14.182582 c -2.969628,0 -5.939257,1.392014 -8.908885,4.361641 -2.969628,2.96963 -5.939257,5.939259 -5.939257,8.908886 1.979753,0 3.959504,1.113611 5.939257,1.113611 4.52509,0 5.743861,-3.887846 8.908885,-7.052867 1.600509,-1.042926 2.939472,-2.09908 7.331271,-1.577616 4.631587,0.99022 13.456129,4.521304 19.395387,8.723284 C 48.009573,23.760712 42.424183,18.372294 34.969628,15.574596 32,14.105018 29.03037,14.182582 26.060742,14.182582 Z m 21.80821,15.312147 -11.971315,5.196851 c -9.914565,1.625339 -21.313678,-2.183625 -20.973002,-1.763218 0.132297,0.163271 0.242381,0.302397 0.371204,0.464005 v 0.0928 l -4.083239,10.3937 7.702474,-5.939257 1.206412,11.878516 5.846456,-9.465692 c 0.539752,0.09211 1.063213,0.213873 1.670415,0.278402 L 32,49.818126 l 3.248031,-9.18729 c 1.001056,-0.175504 1.890041,-0.50908 2.784027,-0.835207 l 5.846457,7.052867 0.0928,-10.857704 c 0.169684,-0.174168 0.303374,-0.376253 0.464005,-0.556805 l 8.35208,5.475253 -5.568054,-9.744095 c 0.237243,-0.537371 0.473003,-1.119558 0.649606,-1.670416 z"
     id="path3003"
     style="fill:#ffffff;fill-opacity:1;stroke:none;stroke-width:2.96962" /></g></svg>
