<?xml version="1.0" encoding="UTF-8" standalone="no"?>
<!-- Created with Inkscape (http://www.inkscape.org/) -->

<svg
   width="64"
   height="64"
   viewBox="0 0 16.933333 16.933334"
   version="1.1"
   id="svg5"
   xmlns:xlink="http://www.w3.org/1999/xlink"
   xmlns="http://www.w3.org/2000/svg"
   xmlns:svg="http://www.w3.org/2000/svg">
  <defs
     id="defs2">
    <symbol
       id="symbol-university"
       viewBox="244.5 110 489 219.9">
      <path
         d="M79,43l57,119c0,0,21-96,104-96s124,106,124,106l43-133l82-17L0,17L79,43z"
         id="path4460" />
      <path
         fill="none"
         stroke="#000000"
         stroke-width="20"
         d="M94,176l-21,39"
         id="path4462" />
      <path
         d="M300,19c0,10.5-22.6,19-50.5,19S199,29.5,199,19s22.6-19,50.5-19S300,8.5,300,19z"
         id="path4464" />
      <path
         ill="none"
         stroke="#000000"
         stroke-width="20"
         d="M112,216l-16-38L64,88c0,0-9-8-4-35s16-24,16-24"
         id="path4466" />
    </symbol>
    <symbol
       viewBox="244.5 110 489 219.9"
       id="symbol9807">
      <path
         id="path9809"
         d="M79,43l57,119c0,0,21-96,104-96s124,106,124,106l43-133l82-17L0,17L79,43z" />
      <path
         id="path9811"
         d="M94,176l-21,39"
         stroke-width="20"
         stroke="#000000"
         fill="none" />
      <path
         id="path9813"
         d="M300,19c0,10.5-22.6,19-50.5,19S199,29.5,199,19s22.6-19,50.5-19S300,8.5,300,19z" />
      <path
         id="path9815"
         d="M112,216l-16-38L64,88c0,0-9-8-4-35s16-24,16-24"
         stroke-width="20"
         stroke="#000000"
         ill="none" />
    </symbol>
    <defs
       id="defs48974" />
    <defs
       id="defs18865">
					<rect
   id="SVGID_1_"
   x="1.3"
   y="3.9000001"
   width="49.400002"
   height="93.699997" />

				</defs>
    <clipPath
       id="SVGID_2_">
					<use
   xlink:href="#SVGID_1_"
   style="overflow:visible"
   id="use18867"
   x="0"
   y="0"
   width="100%"
   height="100%" />

				</clipPath>
    <defs
       id="defs18875">
					<rect
   id="SVGID_3_"
   x="1.3"
   y="3.9000001"
   width="49.400002"
   height="93.699997" />

				</defs>
    <clipPath
       id="SVGID_4_">
					<use
   xlink:href="#SVGID_3_"
   style="overflow:visible"
   id="use18877"
   x="0"
   y="0"
   width="100%"
   height="100%" />

				</clipPath>
    <defs
       id="defs18885">
					<rect
   id="SVGID_5_"
   x="1.3"
   y="3.9000001"
   width="49.400002"
   height="93.699997" />

				</defs>
    <clipPath
       id="SVGID_6_">
					<use
   xlink:href="#SVGID_5_"
   style="overflow:visible"
   id="use18887"
   x="0"
   y="0"
   width="100%"
   height="100%" />

				</clipPath>
    <defs
       id="defs18895">
					<rect
   id="SVGID_7_"
   x="1.3"
   y="3.9000001"
   width="49.400002"
   height="93.699997" />

				</defs>
    <clipPath
       id="SVGID_8_">
					<use
   xlink:href="#SVGID_7_"
   style="overflow:visible"
   id="use18897"
   x="0"
   y="0"
   width="100%"
   height="100%" />

				</clipPath>
    <defs
       id="defs18905">
					<rect
   id="SVGID_9_"
   x="1.3"
   y="3.9000001"
   width="49.400002"
   height="93.699997" />

				</defs>
    <clipPath
       id="SVGID_10_">
					<use
   xlink:href="#SVGID_9_"
   style="overflow:visible"
   id="use18907"
   x="0"
   y="0"
   width="100%"
   height="100%" />

				</clipPath>
    <defs
       id="defs18915">
					<rect
   id="SVGID_11_"
   x="1.3"
   y="3.9000001"
   width="49.400002"
   height="93.699997" />

				</defs>
    <clipPath
       id="SVGID_12_">
					<use
   xlink:href="#SVGID_11_"
   style="overflow:visible"
   id="use18917"
   x="0"
   y="0"
   width="100%"
   height="100%" />

				</clipPath>
    <defs
       id="defs18927">
					<rect
   id="SVGID_13_"
   x="50.599998"
   y="3.9000001"
   width="49.400002"
   height="93.699997" />

				</defs>
    <clipPath
       id="SVGID_14_">
					<use
   xlink:href="#SVGID_13_"
   style="overflow:visible"
   id="use18929"
   x="0"
   y="0"
   width="100%"
   height="100%" />

				</clipPath>
    <defs
       id="defs18937">
					<rect
   id="SVGID_15_"
   x="50.599998"
   y="3.9000001"
   width="49.400002"
   height="93.699997" />

				</defs>
    <clipPath
       id="SVGID_16_">
					<use
   xlink:href="#SVGID_15_"
   style="overflow:visible"
   id="use18939"
   x="0"
   y="0"
   width="100%"
   height="100%" />

				</clipPath>
    <defs
       id="defs18947">
					<rect
   id="SVGID_17_"
   x="50.599998"
   y="3.9000001"
   width="49.400002"
   height="93.699997" />

				</defs>
    <clipPath
       id="SVGID_18_">
					<use
   xlink:href="#SVGID_17_"
   style="overflow:visible"
   id="use18949"
   x="0"
   y="0"
   width="100%"
   height="100%" />

				</clipPath>
    <defs
       id="defs18957">
					<rect
   id="SVGID_19_"
   x="50.599998"
   y="3.9000001"
   width="49.400002"
   height="93.699997" />

				</defs>
    <clipPath
       id="SVGID_20_">
					<use
   xlink:href="#SVGID_19_"
   style="overflow:visible"
   id="use18959"
   x="0"
   y="0"
   width="100%"
   height="100%" />

				</clipPath>
    <defs
       id="defs18967">
					<rect
   id="SVGID_21_"
   x="50.599998"
   y="3.9000001"
   width="49.400002"
   height="93.699997" />

				</defs>
    <clipPath
       id="SVGID_22_">
					<use
   xlink:href="#SVGID_21_"
   style="overflow:visible"
   id="use18969"
   x="0"
   y="0"
   width="100%"
   height="100%" />

				</clipPath>
    <defs
       id="defs18977">
					<rect
   id="SVGID_23_"
   x="50.599998"
   y="3.9000001"
   width="49.400002"
   height="93.699997" />

				</defs>
    <clipPath
       id="SVGID_24_">
					<use
   xlink:href="#SVGID_23_"
   style="overflow:visible"
   id="use18979"
   x="0"
   y="0"
   width="100%"
   height="100%" />

				</clipPath>
    <rect
       id="rect1117"
       x="1.3"
       y="3.9000001"
       width="49.400002"
       height="93.699997" />
    <rect
       id="rect1119"
       x="1.3"
       y="3.9000001"
       width="49.400002"
       height="93.699997" />
    <rect
       id="rect1121"
       x="1.3"
       y="3.9000001"
       width="49.400002"
       height="93.699997" />
    <rect
       id="rect1123"
       x="1.3"
       y="3.9000001"
       width="49.400002"
       height="93.699997" />
    <rect
       id="rect1125"
       x="1.3"
       y="3.9000001"
       width="49.400002"
       height="93.699997" />
    <rect
       id="rect1127"
       x="1.3"
       y="3.9000001"
       width="49.400002"
       height="93.699997" />
    <rect
       id="rect1129"
       x="50.599998"
       y="3.9000001"
       width="49.400002"
       height="93.699997" />
    <rect
       id="rect1131"
       x="50.599998"
       y="3.9000001"
       width="49.400002"
       height="93.699997" />
    <rect
       id="rect1133"
       x="50.599998"
       y="3.9000001"
       width="49.400002"
       height="93.699997" />
    <rect
       id="rect1135"
       x="50.599998"
       y="3.9000001"
       width="49.400002"
       height="93.699997" />
    <rect
       id="rect1137"
       x="50.599998"
       y="3.9000001"
       width="49.400002"
       height="93.699997" />
    <rect
       id="rect1139"
       x="50.599998"
       y="3.9000001"
       width="49.400002"
       height="93.699997" />
  </defs>
  <g
     id="layer1">
    <circle
       style="fill:#ffb347;stroke-width:0.2;fill-opacity:1;stroke:#ffffff;stroke-opacity:1;stroke-miterlimit:4;stroke-dasharray:none"
       id="path846"
       cx="8.4666662"
       cy="8.4666662"
       r="8" />
    <path
       class="st3"
       d="m 70.6,71.8 h 2.6 v 2.6 h -2.6 z"
       clip-path="url(#SVGID_4_)"
       id="path18880"
       transform="matrix(0.26458334,0,0,0.26458334,-33.942832,-9.3451553)" />
    <path
       class="st9"
       d="M 30.6,74.4 H 28 v -2.6 h 2.6 z"
       clip-path="url(#SVGID_16_)"
       id="path18942"
       transform="matrix(0.26458334,0,0,0.26458334,-33.942832,-9.3451553)" />
    <g
       id="g21095"
       transform="matrix(0.26458334,0,0,0.26458334,-0.0999011,-0.34965354)"
       style="fill:#ffffff;fill-opacity:1;stroke:none;stroke-opacity:1">
      <path
         class="st4"
         d="m 28.8,71.8 h 2.6 v 2.6 h -2.6 z"
         clip-path="url(#SVGID_6_)"
         id="path18890"
         transform="matrix(0.62929746,0,0,0.62929746,0.535127,0.535127)"
         style="fill:#ffffff;fill-opacity:1;stroke:none;stroke-opacity:1" />
      <path
         class="st5"
         d="m 44.5,43 h 2.6 v 2.6 h -2.6 z"
         clip-path="url(#SVGID_8_)"
         id="path18900"
         transform="matrix(0.62929746,0,0,0.62929746,0.535127,0.535127)"
         style="fill:#ffffff;fill-opacity:1;stroke:none;stroke-opacity:1" />
      <path
         class="st6"
         d="m 44.5,56.1 h 2.6 v 2.6 h -2.6 z"
         clip-path="url(#SVGID_10_)"
         id="path18910"
         transform="matrix(0.62929746,0,0,0.62929746,0.535127,0.535127)"
         style="fill:#ffffff;fill-opacity:1;stroke:none;stroke-opacity:1" />
      <path
         class="st7"
         d="m 44.5,69.2 h 2.6 v 2.6 h -2.6 z"
         clip-path="url(#SVGID_12_)"
         id="path18920"
         transform="matrix(0.62929746,0,0,0.62929746,0.535127,0.535127)"
         style="fill:#ffffff;fill-opacity:1;stroke:none;stroke-opacity:1" />
      <path
         class="st2"
         d="m 51,22.1 10,2.2 -4,10 -3.7,-3 4.9,-3 c 0.3,-0.2 0.6,-0.6 0.6,-1 0,-0.4 -0.1,-0.8 -0.4,-1.1 L 55.8,23.6 54,25.6 55.4,27 51,29.7 46.6,27 48,25.6 46.2,23.8 43.6,26.4 c -0.3,0.3 -0.4,0.7 -0.4,1.1 0,0.4 0.3,0.8 0.6,1 l 4.9,3 -3.7,3 -4,-10 z M 34,79.6 h 2.6 c 0.4,0 0.7,-0.1 0.9,-0.4 0.2,-0.3 0.4,-0.6 0.4,-1 L 36.6,45.5 34,45.7 35.3,77 H 27.6 L 30,30.9 39.6,27.8 43.3,37 c 0.2,0.4 0.5,0.7 0.9,0.8 0.4,0.1 0.8,0 1.2,-0.2 l 4.4,-3.5 V 82.4 H 34 Z M 66.8,77 68,45.7 65.4,45.6 64.1,78.3 c 0,0.4 0.1,0.7 0.4,1 0.2,0.3 0.6,0.4 0.9,0.4 H 68 v 2.6 H 52.3 V 34 l 4.4,3.5 c 0.2,0.2 0.5,0.3 0.8,0.3 0.1,0 0.2,0 0.3,0 0.4,-0.1 0.7,-0.4 0.9,-0.8 l 3.7,-9.2 9.6,3.1 2.5,46.1 z m 6.9,-48.3 v 0 L 69.4,27.3 M 52,19.3 h -1.3 c -0.7,0 -1.3,0.6 -1.3,1.3 L 49.7,19.7 39,22.1 c -0.4,0.1 -0.7,0.3 -0.9,0.7 -0.2,0.3 -0.2,0.7 -0.1,1.1 l 0.6,1.5 -10.2,3.3 c -0.5,0.2 -0.9,0.6 -0.9,1.2 l -2.6,48.4 c 0,0.4 0.1,0.7 0.4,1 0.2,0.3 0.6,0.4 0.9,0.4 h 5.2 v 3.9 c 0,0.7 0.6,1.3 1.3,1.3 h 36.6 c 0.7,0 1.3,-0.6 1.3,-1.3 v -3.9 h 5.2 c 0.4,0 0.7,-0.1 0.9,-0.4 0.2,-0.3 0.4,-0.6 0.4,-1 L 74.7,28.7"
         clip-path="url(#SVGID_2_)"
         id="path18870"
         style="fill:#ffffff;fill-opacity:1;stroke:none;stroke-opacity:1"
         transform="matrix(0.62929746,0,0,0.62929746,0.535127,0.535127)" />
      <path
         class="st8"
         d="m 60.2,24.3 -4,10 -3.7,-3 4.9,-3 c 0.3,-0.2 0.6,-0.6 0.6,-1 0,-0.4 -0.1,-0.8 -0.4,-1.1 l -2.6,-2.6 -1.8,1.8 1.4,1.4 -4.4,2.7 -4.4,-2.5 1.4,-1.4 -1.8,-1.8 -2.6,2.6 c -0.3,0.3 -0.4,0.7 -0.4,1.1 0,0.4 0.3,0.8 0.6,1 l 4.9,3 -3.7,3 -4,-10 10,-2.2 z m 7.1,57.9 H 51.6 V 33.9 l 4.4,3.5 c 0.3,0.3 0.7,0.4 1.2,0.2 0.4,-0.1 0.7,-0.4 0.9,-0.8 l 3.7,-9.2 9.6,3.1 2.3,46.3 H 66 l 1.3,-31.3 -2.6,-0.1 -1.3,32.7 c 0,0.4 0.1,0.7 0.4,1 0.2,0.3 0.6,0.4 0.9,0.4 h 2.6 z M 26.8,77 29.3,30.9 38.9,27.8 42.6,37 c 0.2,0.4 0.5,0.7 0.9,0.8 0.1,0 0.2,0 0.3,0 0.3,0 0.6,-0.1 0.8,-0.3 L 49,34 V 82.3 H 33.2 v -2.6 h 2.6 c 0.4,0 0.7,-0.1 0.9,-0.4 0.2,-0.3 0.4,-0.6 0.4,-1 L 35.8,45.6 33.2,45.7 34.5,77 Z m 5.1,-49.7 -4.2,1.4 h -0.1 m -1.1,0 -2.4,49.6 c 0,0.4 0.1,0.7 0.4,1 0.2,0.3 0.6,0.4 0.9,0.4 h 5.2 v 3.9 c 0,0.7 0.6,1.3 1.3,1.3 h 36.6 c 0.7,0 1.3,-0.6 1.3,-1.3 V 79.7 H 75 c 0.4,0 0.7,-0.1 0.9,-0.4 0.2,-0.3 0.4,-0.6 0.4,-1 L 73.7,29.9 c 0,-0.5 -0.4,-1 -0.9,-1.2 l -10.2,-3.3 0.6,-1.5 c 0.1,-0.4 0.1,-0.8 -0.1,-1.1 -0.2,-0.3 -0.5,-0.6 -0.9,-0.7 l -10.7,-2.4 0.3,0.9 c 0,-0.7 -0.6,-1.3 -1.3,-1.3 h -1.3"
         clip-path="url(#SVGID_14_)"
         id="path18932"
         style="fill:#ffffff;fill-opacity:1;stroke:none;stroke-opacity:1"
         transform="matrix(0.62929746,0,0,0.62929746,0.535127,0.535127)" />
      <path
         class="st10"
         d="m 72.5,74.4 h -2.6 v -2.6 h 2.6 z"
         clip-path="url(#SVGID_18_)"
         id="path18952"
         transform="matrix(0.62929746,0,0,0.62929746,0.535127,0.535127)"
         style="fill:#ffffff;fill-opacity:1;stroke:none;stroke-opacity:1" />
      <path
         class="st11"
         d="M 56.8,45.6 H 54.2 V 43 h 2.6 z"
         clip-path="url(#SVGID_20_)"
         id="path18962"
         transform="matrix(0.62929746,0,0,0.62929746,0.535127,0.535127)"
         style="fill:#ffffff;fill-opacity:1;stroke:none;stroke-opacity:1" />
      <path
         class="st12"
         d="m 56.8,58.7 h -2.6 v -2.6 h 2.6 z"
         clip-path="url(#SVGID_22_)"
         id="path18972"
         transform="matrix(0.62929746,0,0,0.62929746,0.535127,0.535127)"
         style="fill:#ffffff;fill-opacity:1;stroke:none;stroke-opacity:1" />
      <path
         class="st13"
         d="m 56.8,71.8 h -2.6 v -2.6 h 2.6 z"
         clip-path="url(#SVGID_24_)"
         id="path18982"
         transform="matrix(0.62929746,0,0,0.62929746,0.535127,0.535127)"
         style="fill:#ffffff;fill-opacity:1;stroke:none;stroke-opacity:1" />
    </g>
  </g>
  <style
     type="text/css"
     id="style18855">
	.st0{fill:#C4114E;}
	.st1{fill:#FFFFFF;}
	.st2{clip-path:url(#SVGID_2_);fill:#FFFFFF;}
	.st3{clip-path:url(#SVGID_4_);}
	.st4{clip-path:url(#SVGID_6_);fill:#FFFFFF;}
	.st5{clip-path:url(#SVGID_8_);fill:#FFFFFF;}
	.st6{clip-path:url(#SVGID_10_);fill:#FFFFFF;}
	.st7{clip-path:url(#SVGID_12_);fill:#FFFFFF;}
	.st8{clip-path:url(#SVGID_14_);fill:#FFFFFF;}
	.st9{clip-path:url(#SVGID_16_);}
	.st10{clip-path:url(#SVGID_18_);fill:#FFFFFF;}
	.st11{clip-path:url(#SVGID_20_);fill:#FFFFFF;}
	.st12{clip-path:url(#SVGID_22_);fill:#FFFFFF;}
	.st13{clip-path:url(#SVGID_24_);fill:#FFFFFF;}
</style>
</svg>
