<?xml version="1.0" encoding="UTF-8" standalone="no"?>
<!-- Created with Inkscape (http://www.inkscape.org/) -->

<svg
   width="64"
   height="64"
   viewBox="0 0 16.933333 16.933334"
   version="1.1"
   id="svg5"
   inkscape:version="1.1.1 (c3084ef, 2021-09-22)"
   sodipodi:docname="car_rental_64.svg"
   xmlns:inkscape="http://www.inkscape.org/namespaces/inkscape"
   xmlns:sodipodi="http://sodipodi.sourceforge.net/DTD/sodipodi-0.dtd"
   xmlns="http://www.w3.org/2000/svg"
   xmlns:svg="http://www.w3.org/2000/svg">
  <sodipodi:namedview
     id="namedview7"
     pagecolor="#ffffff"
     bordercolor="#666666"
     borderopacity="1.0"
     inkscape:pageshadow="2"
     inkscape:pageopacity="0.0"
     inkscape:pagecheckerboard="0"
     inkscape:document-units="mm"
     showgrid="false"
     units="px"
     inkscape:zoom="2.4664186"
     inkscape:cx="46.829035"
     inkscape:cy="18.042355"
     inkscape:window-width="1440"
     inkscape:window-height="779"
     inkscape:window-x="17"
     inkscape:window-y="27"
     inkscape:window-maximized="0"
     inkscape:current-layer="g5863" />
  <defs
     id="defs2">
    <inkscape:perspective
       sodipodi:type="inkscape:persp3d"
       inkscape:vp_x="0 : 526.18109 : 1"
       inkscape:vp_y="0 : 1000 : 0"
       inkscape:vp_z="744.09448 : 526.18109 : 1"
       inkscape:persp3d-origin="372.04724 : 350.78739 : 1"
       id="perspective10" />
    <inkscape:perspective
       id="perspective2461"
       inkscape:persp3d-origin="10 : 6.6666667 : 1"
       inkscape:vp_z="20 : 10 : 1"
       inkscape:vp_y="0 : 1000 : 0"
       inkscape:vp_x="0 : 10 : 1"
       sodipodi:type="inkscape:persp3d" />
    <inkscape:perspective
       id="perspective2466"
       inkscape:persp3d-origin="400 : 200 : 1"
       inkscape:vp_z="800 : 300 : 1"
       inkscape:vp_y="0 : 1000 : 0"
       inkscape:vp_x="0 : 300 : 1"
       sodipodi:type="inkscape:persp3d" />
    <inkscape:perspective
       sodipodi:type="inkscape:persp3d"
       inkscape:vp_x="0 : 526.18109 : 1"
       inkscape:vp_y="0 : 1000 : 0"
       inkscape:vp_z="744.09448 : 526.18109 : 1"
       inkscape:persp3d-origin="372.04724 : 350.78739 : 1"
       id="perspective10-5" />
    <inkscape:perspective
       id="perspective2461-2"
       inkscape:persp3d-origin="10 : 6.6666667 : 1"
       inkscape:vp_z="20 : 10 : 1"
       inkscape:vp_y="0 : 1000 : 0"
       inkscape:vp_x="0 : 10 : 1"
       sodipodi:type="inkscape:persp3d" />
    <inkscape:perspective
       id="perspective2466-2"
       inkscape:persp3d-origin="400 : 200 : 1"
       inkscape:vp_z="800 : 300 : 1"
       inkscape:vp_y="0 : 1000 : 0"
       inkscape:vp_x="0 : 300 : 1"
       sodipodi:type="inkscape:persp3d" />
    <inkscape:perspective
       sodipodi:type="inkscape:persp3d"
       inkscape:vp_x="0 : 290 : 1"
       inkscape:vp_y="0 : 1000 : 0"
       inkscape:vp_z="580 : 290 : 1"
       inkscape:persp3d-origin="290 : 193.33333 : 1"
       id="perspective2441" />
    <inkscape:perspective
       id="perspective3452"
       inkscape:persp3d-origin="30 : 20 : 1"
       inkscape:vp_z="60 : 30 : 1"
       inkscape:vp_y="0 : 1000 : 0"
       inkscape:vp_x="0 : 30 : 1"
       sodipodi:type="inkscape:persp3d" />
    <symbol
       viewBox="244.5 110 489 219.9"
       id="symbol-university">
      <path
         id="path4460"
         d="M79,43l57,119c0,0,21-96,104-96s124,106,124,106l43-133l82-17L0,17L79,43z" />
      <path
         id="path4462"
         d="M94,176l-21,39"
         stroke-width="20"
         stroke="#000000"
         fill="none" />
      <path
         id="path4464"
         d="M300,19c0,10.5-22.6,19-50.5,19S199,29.5,199,19s22.6-19,50.5-19S300,8.5,300,19z" />
      <path
         id="path4466"
         d="M112,216l-16-38L64,88c0,0-9-8-4-35s16-24,16-24"
         stroke-width="20"
         stroke="#000000"
         ill="none" />
    </symbol>
    <inkscape:perspective
       id="perspective4471"
       inkscape:persp3d-origin="372.04724 : 350.78739 : 1"
       inkscape:vp_z="744.09448 : 526.18109 : 1"
       inkscape:vp_y="0 : 1000 : 0"
       inkscape:vp_x="0 : 526.18109 : 1"
       sodipodi:type="inkscape:persp3d" />
    <inkscape:perspective
       id="perspective4668"
       inkscape:persp3d-origin="6 : 4 : 1"
       inkscape:vp_z="12 : 6 : 1"
       inkscape:vp_y="0 : 1000 : 0"
       inkscape:vp_x="0 : 6 : 1"
       sodipodi:type="inkscape:persp3d" />
    <symbol
       id="symbol-university-7"
       viewBox="244.5 110 489 219.9">
      <path
         d="M79,43l57,119c0,0,21-96,104-96s124,106,124,106l43-133l82-17L0,17L79,43z"
         id="path4460-1" />
      <path
         fill="none"
         stroke="#000000"
         stroke-width="20"
         d="M94,176l-21,39"
         id="path4462-3" />
      <path
         d="M300,19c0,10.5-22.6,19-50.5,19S199,29.5,199,19s22.6-19,50.5-19S300,8.5,300,19z"
         id="path4464-8" />
      <path
         ill="none"
         stroke="#000000"
         stroke-width="20"
         d="M112,216l-16-38L64,88c0,0-9-8-4-35s16-24,16-24"
         id="path4466-4" />
    </symbol>
    <symbol
       viewBox="244.5 110 489 219.9"
       id="symbol9807">
      <path
         id="path9809"
         d="M79,43l57,119c0,0,21-96,104-96s124,106,124,106l43-133l82-17L0,17L79,43z" />
      <path
         id="path9811"
         d="M94,176l-21,39"
         stroke-width="20"
         stroke="#000000"
         fill="none" />
      <path
         id="path9813"
         d="M300,19c0,10.5-22.6,19-50.5,19S199,29.5,199,19s22.6-19,50.5-19S300,8.5,300,19z" />
      <path
         id="path9815"
         d="M112,216l-16-38L64,88c0,0-9-8-4-35s16-24,16-24"
         stroke-width="20"
         stroke="#000000"
         ill="none" />
    </symbol>
    <defs
       id="defs48974" />
  </defs>
  <g
     inkscape:label="Calque 1"
     inkscape:groupmode="layer"
     id="layer1">
    <circle
       style="fill:#ffb347;stroke-width:0.2;fill-opacity:1;stroke:#ffffff;stroke-opacity:1;stroke-miterlimit:4;stroke-dasharray:none"
       id="path846"
       cx="8.4666662"
       cy="8.4666662"
       r="8" />
    <g
       id="g4198"
       transform="matrix(0.78571429,0,0,0.78571429,2.9666666,2.9666666)">
      <rect
         style="visibility:hidden;fill:none;stroke:none"
         id="canvas"
         y="0"
         x="0"
         height="14"
         width="14" />
      <g
         id="g4375">
        <rect
           width="14"
           height="14"
           x="0"
           y="0"
           id="canvas-8"
           style="visibility:hidden;fill:none;stroke:none" />
        <g
           id="g4618">
          <rect
             width="14"
             height="14"
             x="0"
             y="0"
             id="canvas-5"
             style="visibility:hidden;fill:none;stroke:none" />
          <path
             d="m 8.3484087,7.8911223 a 1.477387,1.442211 0 0 1 -3.19e-5,0.00947"
             id="path3855"
             style="fill:#000000;fill-opacity:1;fill-rule:evenodd;stroke:none" />
          <g
             id="g4800"
             transform="scale(0.875)">
            <rect
               width="16"
               height="16"
               x="0"
               y="0"
               id="canvas-0"
               style="visibility:hidden;fill:none;stroke:none" />
            <g
               id="g5529">
              <rect
                 width="16"
                 height="16"
                 x="0"
                 y="0"
                 id="canvas-50"
                 style="visibility:hidden;fill:none;stroke:none" />
              <g
                 id="g5863">
                <rect
                   width="16"
                   height="16"
                   x="0"
                   y="0"
                   id="canvas-7"
                   style="visibility:hidden;fill:none;stroke:none" />
                <path
                   d="M 3.5,0 C 2.119288,0 1,1.1192881 1,2.5 1,3.8807119 2.119288,5 3.5,5 4.425342,5 5.223985,4.4972377 5.65625,3.75 H 7 l 1,-1 1,1 1,-1 1,1 h 0.5 L 13,2.5 11.5,1.25 H 5.65625 C 5.223985,0.5027623 4.425342,0 3.5,0 Z m -1,2 C 2.776142,2 3,2.2238576 3,2.5 3,2.7761424 2.776142,3 2.5,3 2.223858,3 2,2.7761424 2,2.5 2,2.2238576 2.223858,2 2.5,2 Z M 4,6 3,9 C 2.527334,9 2,9.384295 2,10 v 3 h 1 c 0,0 0,1 1,1 1,0 1,-1 1,-1 h 4 c 0,0 0,1 1,1 1,0 1,-1 1,-1 h 1 V 10 C 12,9.479394 11.544575,9 11,9 L 10,6 Z m 1,1 h 4 l 0.625,2 h -5.25 z m -1,3.25 c 0.414214,0 0.75,0.335786 0.75,0.75 0,0.414214 -0.335786,0.75 -0.75,0.75 -0.414214,0 -0.75,-0.335786 -0.75,-0.75 0,-0.414214 0.335786,-0.75 0.75,-0.75 z m 6,0 c 0.414214,0 0.75,0.335786 0.75,0.75 0,0.414214 -0.335786,0.75 -0.75,0.75 -0.414214,0 -0.75,-0.335786 -0.75,-0.75 0,-0.414214 0.335786,-0.75 0.75,-0.75 z"
                   id="rental-car"
                   style="fill:#ffffff;stroke:none"
                   transform="translate(1,1)" />
              </g>
            </g>
          </g>
        </g>
      </g>
    </g>
  </g>
</svg>
