<?xml version="1.0" encoding="UTF-8" standalone="no"?>
<!-- Created with Inkscape (http://www.inkscape.org/) -->

<svg
   width="64"
   height="64"
   viewBox="0 0 16.933333 16.933334"
   version="1.1"
   id="svg5"
   inkscape:version="1.1.1 (c3084ef, 2021-09-22)"
   sodipodi:docname="clasroom_64.svg"
   xmlns:inkscape="http://www.inkscape.org/namespaces/inkscape"
   xmlns:sodipodi="http://sodipodi.sourceforge.net/DTD/sodipodi-0.dtd"
   xmlns="http://www.w3.org/2000/svg"
   xmlns:svg="http://www.w3.org/2000/svg">
  <sodipodi:namedview
     id="namedview7"
     pagecolor="#ffffff"
     bordercolor="#666666"
     borderopacity="1.0"
     inkscape:pageshadow="2"
     inkscape:pageopacity="0.0"
     inkscape:pagecheckerboard="0"
     inkscape:document-units="mm"
     showgrid="false"
     units="px"
     inkscape:zoom="2.95659"
     inkscape:cx="25.874403"
     inkscape:cy="36.697683"
     inkscape:window-width="1440"
     inkscape:window-height="785"
     inkscape:window-x="0"
     inkscape:window-y="25"
     inkscape:window-maximized="0"
     inkscape:current-layer="layer1" />
  <defs
     id="defs2">
    <inkscape:perspective
       sodipodi:type="inkscape:persp3d"
       inkscape:vp_x="0 : 526.18109 : 1"
       inkscape:vp_y="0 : 1000 : 0"
       inkscape:vp_z="744.09448 : 526.18109 : 1"
       inkscape:persp3d-origin="372.04724 : 350.78739 : 1"
       id="perspective10" />
    <inkscape:perspective
       id="perspective2461"
       inkscape:persp3d-origin="10 : 6.6666667 : 1"
       inkscape:vp_z="20 : 10 : 1"
       inkscape:vp_y="0 : 1000 : 0"
       inkscape:vp_x="0 : 10 : 1"
       sodipodi:type="inkscape:persp3d" />
    <inkscape:perspective
       id="perspective2466"
       inkscape:persp3d-origin="400 : 200 : 1"
       inkscape:vp_z="800 : 300 : 1"
       inkscape:vp_y="0 : 1000 : 0"
       inkscape:vp_x="0 : 300 : 1"
       sodipodi:type="inkscape:persp3d" />
  </defs>
  <g
     inkscape:label="Calque 1"
     inkscape:groupmode="layer"
     id="layer1">
    <circle
       style="fill:#b1c2cf;fill-opacity:1;stroke:#ffffff;stroke-width:0.2;stroke-miterlimit:4;stroke-dasharray:none;stroke-opacity:1"
       id="path846"
       cx="8.4666662"
       cy="8.4666662"
       r="8" />
    <g
       id="g4718"
       transform="matrix(1.3527314,0,0,1.3527314,12.877117,-20.203029)"
       style="fill:#ffffff;fill-opacity:1">
      <path
         style="fill:#ffffff;fill-opacity:1;stroke-width:0.0169803"
         d="m -5.4570301,19.085096 c 0.2187319,-0.04691 0.3581279,-0.216464 0.3588054,-0.436433 4.211e-4,-0.136902 -0.029219,-0.212013 -0.124422,-0.315296 -0.1775702,-0.192641 -0.4674208,-0.190288 -0.650352,0.0053 -0.077151,0.08248 -0.1304515,0.207998 -0.1304515,0.307202 0,0.08715 0.053034,0.222963 0.112971,0.289306 0.094209,0.104277 0.1685779,0.141762 0.3319257,0.167301 0.00654,0.001 0.05223,-0.0068 0.1015234,-0.01736 z"
         id="path3993" />
      <path
         style="fill:#ffffff;fill-opacity:1;stroke-width:0.0169803"
         d="m -5.6978051,19.492562 c -0.2517681,-0.04128 -0.5068019,-0.238003 -0.6214115,-0.479339 -0.1630009,-0.343233 -0.1004323,-0.697628 0.1713957,-0.9708 0.140229,-0.140922 0.2833266,-0.217602 0.4638512,-0.248559 0.4575345,-0.07846 0.9093667,0.251077 0.9889317,0.72126 0.075856,0.448262 -0.258634,0.906821 -0.7141022,0.978978 -0.1258431,0.01994 -0.158744,0.01976 -0.2886649,-0.0015 z"
         id="path3991" />
      <path
         style="fill:#ffffff;fill-opacity:1;stroke-width:0.0169803"
         d="m -2.00743,22.312388 c -0.1386471,-0.0413 -0.1884187,-0.217416 -0.091959,-0.325399 l 0.049536,-0.05545 1.0028683,-0.0085 1.00286833,-0.0085 0.047069,-0.04708 0.047069,-0.04708 v -1.704752 -1.704765 l -0.041165,-0.04382 -0.041166,-0.04382 -1.83515603,-1.87e-4 c -1.0093359,-1.03e-4 -1.86376,-0.0049 -1.8987204,-0.01069 -0.1687139,-0.02789 -0.2262022,-0.233592 -0.097801,-0.349951 l 0.051529,-0.0467 h 1.9093773 1.90937743 l 0.097415,0.03645 c 0.1296065,0.04849 0.2430025,0.156588 0.3049417,0.29069 l 0.048895,0.10586 v 1.757461 c 0,1.459275 -0.00402,1.768984 -0.023678,1.825381 -0.057601,0.165228 -0.183645,0.297157 -0.3448166,0.360914 -0.065354,0.02585 -0.176062,0.02924 -1.0578491,0.03242 -0.57919783,0.0021 -1.00700763,-0.0031 -1.03863483,-0.01248 z"
         id="path3989" />
      <path
         style="fill:#ffffff;fill-opacity:1;stroke-width:0.0169803"
         d="m -6.59751,21.400901 c 1.831e-4,-0.381658 0.00593,-0.533566 0.021359,-0.564595 0.01161,-0.02335 0.049703,-0.05645 0.084651,-0.07356 0.061604,-0.03017 0.06548,-0.03017 0.1270841,0 0.034948,0.01711 0.073041,0.05022 0.084651,0.07356 0.01543,0.03103 0.021176,0.182937 0.021359,0.564595 l 2.504e-4,0.522144 h 0.7471326 0.7471326 l 2.02e-4,-0.564595 c 2.497e-4,-0.700219 0.010315,-0.750197 0.1891727,-0.939312 0.1313787,-0.138914 0.1963634,-0.160007 1.0718707,-0.347911 0.5800434,-0.12449 0.790419,-0.175997 0.806105,-0.19736 0.032263,-0.04394 0.025515,-0.100438 -0.018046,-0.151081 l -0.039272,-0.04566 -1.0177512,0.21858 -1.0177513,0.21858 -0.7641129,0.0094 c -0.8286708,0.01015 -0.8139574,0.0085 -0.9786715,0.110374 -0.1731694,0.107119 -0.3146304,0.292848 -0.3622264,0.475581 -0.02075,0.07968 -0.02602,0.210189 -0.02602,0.645342 0,0.300003 0.0051,0.550555 0.01132,0.556781 0.0062,0.0062 0.07882,0.01132 0.1613122,0.01132 h 0.1499925 l 2.503e-4,-0.522144 z"
         id="path3987" />
      <path
         style="fill:#ffffff;fill-opacity:1;stroke-width:0.0169803"
         d="m -6.9827642,22.313127 c -0.09943,-0.02007 -0.159972,-0.05481 -0.229407,-0.131671 -0.117626,-0.130197 -0.119122,-0.141784 -0.111413,-0.86276 0.0063,-0.5905 0.0097,-0.65224 0.04131,-0.746997 0.125775,-0.377332 0.411883,-0.671393 0.7779015,-0.799525 l 0.1358423,-0.04755 0.772603,-0.0094 0.7726031,-0.0094 0.998686,-0.21589 c 0.5492773,-0.11874 1.027397,-0.215891 1.0624882,-0.215891 0.1203746,0 0.2241294,0.0497 0.3339815,0.159978 0.081199,0.08151 0.1092793,0.123996 0.1335521,0.202044 0.081975,0.263588 -0.058301,0.567837 -0.2991673,0.648872 -0.040174,0.01352 -0.4092538,0.09666 -0.8201767,0.184769 -0.7426431,0.159232 -0.8073948,0.175618 -0.858976,0.217366 -0.071793,0.05811 -0.07461,0.08264 -0.08343,0.726487 -0.00814,0.594126 -0.010007,0.622592 -0.045141,0.687702 -0.046827,0.08678 -0.1151745,0.151407 -0.2010734,0.190127 -0.063034,0.02841 -0.1485527,0.03081 -1.1886201,0.03329 -0.6163844,0.0015 -1.1525892,-0.0038 -1.1915672,-0.01163 z"
         id="path3985" />
      <path
         style="fill:#ffffff;fill-opacity:1;stroke-width:0.0169803"
         d="m 0.12643333,24.163109 c 0.3580239,-0.161876 0.3631163,-0.656189 0.00849,-0.824124 -0.1680125,-0.07956 -0.383927,-0.03851 -0.5126929,0.09747 -0.2721314,0.287388 -0.069267,0.761201 0.3259097,0.761201 0.066102,0 0.1287164,-0.01213 0.1782931,-0.03455 z"
         id="path3983" />
      <path
         style="fill:#ffffff;fill-opacity:1;stroke-width:0.0169803"
         d="m -0.31544627,24.567286 c -0.5135154,-0.175094 -0.74228983,-0.74042 -0.4962482,-1.226283 0.055202,-0.109008 0.2434039,-0.297211 0.352412,-0.352412 0.2648491,-0.13412 0.5777585,-0.130994 0.8225008,0.0082 0.270111,0.153641 0.4427547,0.448028 0.4422249,0.754067 -6.555e-4,0.378611 -0.2740167,0.73444 -0.6368207,0.828938 -0.1477163,0.03848 -0.3498269,0.03324 -0.4840688,-0.01253 z"
         id="path3981" />
      <path
         style="fill:#ffffff;fill-opacity:1;stroke-width:0.0169803"
         d="m -2.6277473,24.154454 c 0.2739599,-0.13652 0.3408728,-0.47855 0.1385808,-0.708366 -0.093022,-0.105678 -0.2097279,-0.153169 -0.3546727,-0.144325 -0.1306274,0.008 -0.2112605,0.04286 -0.2990311,0.129408 -0.1729955,0.170576 -0.1756404,0.458566 -0.00578,0.629719 0.1380035,0.139056 0.3523537,0.177557 0.5209065,0.09356 z"
         id="path3979" />
      <path
         style="fill:#ffffff;fill-opacity:1;stroke-width:0.0169803"
         d="m -3.0828409,24.567286 c -0.2371151,-0.08114 -0.4016475,-0.224547 -0.5108773,-0.445294 -0.1206609,-0.243849 -0.1206845,-0.50227 -6.79e-5,-0.747133 0.2656597,-0.539314 0.9594132,-0.652508 1.381194,-0.225357 0.2105069,0.213187 0.2974391,0.521758 0.2251651,0.799237 -0.078869,0.302798 -0.3260057,0.556652 -0.6152754,0.631997 -0.1444957,0.03764 -0.3474583,0.03195 -0.4801385,-0.01345 z"
         id="path3977" />
      <path
         style="fill:#ffffff;fill-opacity:1;stroke-width:0.0169803"
         d="m -5.4562649,24.180648 c 0.094446,-0.02623 0.1984686,-0.115016 0.25717,-0.219502 0.044573,-0.07934 0.052206,-0.110438 0.052206,-0.212721 0,-0.102282 -0.00763,-0.133381 -0.052206,-0.21272 -0.089324,-0.158994 -0.224437,-0.237803 -0.4053186,-0.236417 -0.2142231,0.0016 -0.3786465,0.138492 -0.4342571,0.361434 -0.05028,0.201572 0.098956,0.459749 0.300684,0.520181 0.068698,0.02058 0.2071529,0.02046 0.2817217,-2.55e-4 z"
         id="path3975" />
      <path
         style="fill:#ffffff;fill-opacity:1;stroke-width:0.0169803"
         d="m -5.8166671,24.581575 c -0.3196047,-0.08917 -0.5761907,-0.375503 -0.6302219,-0.703286 -0.069685,-0.422749 0.2135812,-0.850381 0.638712,-0.964229 0.1088792,-0.02916 0.3156281,-0.02916 0.4245072,0 0.4271755,0.114395 0.7076779,0.537477 0.6392825,0.964229 -0.053379,0.333059 -0.310554,0.61647 -0.6392825,0.704502 -0.1046677,0.02803 -0.3304471,0.0274 -0.4329973,-0.0012 z"
         id="path3973" />
    </g>
  </g>
</svg>
