<?xml version="1.0" encoding="UTF-8" standalone="no"?>
<!-- Created with Inkscape (http://www.inkscape.org/) -->

<svg
   width="64"
   height="64"
   viewBox="0 0 16.933333 16.933334"
   version="1.1"
   id="svg5"
   xmlns="http://www.w3.org/2000/svg"
   xmlns:svg="http://www.w3.org/2000/svg">
  <defs
     id="defs2">
    <symbol
       id="symbol-university"
       viewBox="244.5 110 489 219.9">
      <path
         d="M79,43l57,119c0,0,21-96,104-96s124,106,124,106l43-133l82-17L0,17L79,43z"
         id="path4460" />
      <path
         fill="none"
         stroke="#000000"
         stroke-width="20"
         d="M94,176l-21,39"
         id="path4462" />
      <path
         d="M300,19c0,10.5-22.6,19-50.5,19S199,29.5,199,19s22.6-19,50.5-19S300,8.5,300,19z"
         id="path4464" />
      <path
         ill="none"
         stroke="#000000"
         stroke-width="20"
         d="M112,216l-16-38L64,88c0,0-9-8-4-35s16-24,16-24"
         id="path4466" />
    </symbol>
    <symbol
       viewBox="244.5 110 489 219.9"
       id="symbol9807">
      <path
         id="path9809"
         d="M79,43l57,119c0,0,21-96,104-96s124,106,124,106l43-133l82-17L0,17L79,43z" />
      <path
         id="path9811"
         d="M94,176l-21,39"
         stroke-width="20"
         stroke="#000000"
         fill="none" />
      <path
         id="path9813"
         d="M300,19c0,10.5-22.6,19-50.5,19S199,29.5,199,19s22.6-19,50.5-19S300,8.5,300,19z" />
      <path
         id="path9815"
         d="M112,216l-16-38L64,88c0,0-9-8-4-35s16-24,16-24"
         stroke-width="20"
         stroke="#000000"
         ill="none" />
    </symbol>
    <defs
       id="defs48974" />
  </defs>
  <g
     id="layer1">
    <circle
       style="fill:#ffb347;stroke-width:0.2;fill-opacity:1;stroke:#ffffff;stroke-opacity:1;stroke-miterlimit:4;stroke-dasharray:none"
       id="path846"
       cx="8.4666662"
       cy="8.4666662"
       r="8" />
    <path
       style="fill:#ffffff;fill-opacity:1;stroke-width:0.785713"
       d="m 12.69734,3.7423857 c 0,0 -0.593852,-0.5552779 -1.572423,-0.4216294 C 10.146346,3.4544044 7.424873,4.7585607 6.1600637,5.880442 4.8952544,7.0023232 3.1554193,8.8015467 3.0439237,9.9967665 2.9324289,11.191985 2.7499423,11.710504 4.0717913,13.030693 c 1.3218481,1.320189 4.4451512,0.05973 4.4451512,0.05973 0,0 2.7487945,-1.253526 4.1002455,-3.5777413 1.351452,-2.3242167 1.303783,-3.3081599 1.303783,-3.3081599 0,0 0.187588,-0.8595149 -0.197391,-1.6118383 -0.384981,-0.7523237 -0.935166,-0.6815304 -0.935166,-0.6815304 0,0 -0.672843,0.4406564 -1.186767,1.0069789 C 11.087724,5.4844511 11.096831,5.5013278 10.84072,5.7276563 10.58461,5.9539836 10.190185,6.0408322 9.8959428,6.3133206 9.6017001,6.5858078 8.8826163,8.3624903 7.5589924,9.4532647 6.2353679,10.544039 5.5575102,10.806586 5.2276049,11.168747 4.8976994,11.530909 4.8296088,11.910949 4.5810713,11.839795 4.3325339,11.768643 4.4348441,10.465464 4.908935,10.058967 5.3830259,9.6524701 5.5097628,9.7315605 6.1934926,9.2851968 6.8772226,8.8388336 7.664397,6.6821114 9.5863804,5.2204167 11.508363,3.7587213 12.69734,3.7423857 12.69734,3.7423857 Z"
       id="path1141" />
  </g>
</svg>
