<?xml version="1.0" encoding="UTF-8" standalone="no"?>
<!-- Created with Inkscape (http://www.inkscape.org/) -->

<svg
   width="64"
   height="64"
   viewBox="0 0 16.933333 16.933334"
   version="1.1"
   id="svg5"
   inkscape:version="1.1.1 (c3084ef, 2021-09-22)"
   sodipodi:docname="department_store_64.svg"
   xmlns:inkscape="http://www.inkscape.org/namespaces/inkscape"
   xmlns:sodipodi="http://sodipodi.sourceforge.net/DTD/sodipodi-0.dtd"
   xmlns="http://www.w3.org/2000/svg"
   xmlns:svg="http://www.w3.org/2000/svg">
  <sodipodi:namedview
     id="namedview7"
     pagecolor="#ffffff"
     bordercolor="#666666"
     borderopacity="1.0"
     inkscape:pageshadow="2"
     inkscape:pageopacity="0.0"
     inkscape:pagecheckerboard="0"
     inkscape:document-units="mm"
     showgrid="false"
     units="px"
     inkscape:zoom="0.96948952"
     inkscape:cx="-14.956325"
     inkscape:cy="-30.428385"
     inkscape:window-width="1440"
     inkscape:window-height="779"
     inkscape:window-x="17"
     inkscape:window-y="27"
     inkscape:window-maximized="0"
     inkscape:current-layer="g4198" />
  <defs
     id="defs2">
    <inkscape:perspective
       sodipodi:type="inkscape:persp3d"
       inkscape:vp_x="0 : 526.18109 : 1"
       inkscape:vp_y="0 : 1000 : 0"
       inkscape:vp_z="744.09448 : 526.18109 : 1"
       inkscape:persp3d-origin="372.04724 : 350.78739 : 1"
       id="perspective10" />
    <inkscape:perspective
       id="perspective2461"
       inkscape:persp3d-origin="10 : 6.6666667 : 1"
       inkscape:vp_z="20 : 10 : 1"
       inkscape:vp_y="0 : 1000 : 0"
       inkscape:vp_x="0 : 10 : 1"
       sodipodi:type="inkscape:persp3d" />
    <inkscape:perspective
       id="perspective2466"
       inkscape:persp3d-origin="400 : 200 : 1"
       inkscape:vp_z="800 : 300 : 1"
       inkscape:vp_y="0 : 1000 : 0"
       inkscape:vp_x="0 : 300 : 1"
       sodipodi:type="inkscape:persp3d" />
    <inkscape:perspective
       sodipodi:type="inkscape:persp3d"
       inkscape:vp_x="0 : 526.18109 : 1"
       inkscape:vp_y="0 : 1000 : 0"
       inkscape:vp_z="744.09448 : 526.18109 : 1"
       inkscape:persp3d-origin="372.04724 : 350.78739 : 1"
       id="perspective10-5" />
    <inkscape:perspective
       id="perspective2461-2"
       inkscape:persp3d-origin="10 : 6.6666667 : 1"
       inkscape:vp_z="20 : 10 : 1"
       inkscape:vp_y="0 : 1000 : 0"
       inkscape:vp_x="0 : 10 : 1"
       sodipodi:type="inkscape:persp3d" />
    <inkscape:perspective
       id="perspective2466-2"
       inkscape:persp3d-origin="400 : 200 : 1"
       inkscape:vp_z="800 : 300 : 1"
       inkscape:vp_y="0 : 1000 : 0"
       inkscape:vp_x="0 : 300 : 1"
       sodipodi:type="inkscape:persp3d" />
    <inkscape:perspective
       sodipodi:type="inkscape:persp3d"
       inkscape:vp_x="0 : 290 : 1"
       inkscape:vp_y="0 : 1000 : 0"
       inkscape:vp_z="580 : 290 : 1"
       inkscape:persp3d-origin="290 : 193.33333 : 1"
       id="perspective2441" />
    <inkscape:perspective
       id="perspective3452"
       inkscape:persp3d-origin="30 : 20 : 1"
       inkscape:vp_z="60 : 30 : 1"
       inkscape:vp_y="0 : 1000 : 0"
       inkscape:vp_x="0 : 30 : 1"
       sodipodi:type="inkscape:persp3d" />
    <symbol
       viewBox="244.5 110 489 219.9"
       id="symbol-university">
      <path
         id="path4460"
         d="M79,43l57,119c0,0,21-96,104-96s124,106,124,106l43-133l82-17L0,17L79,43z" />
      <path
         id="path4462"
         d="M94,176l-21,39"
         stroke-width="20"
         stroke="#000000"
         fill="none" />
      <path
         id="path4464"
         d="M300,19c0,10.5-22.6,19-50.5,19S199,29.5,199,19s22.6-19,50.5-19S300,8.5,300,19z" />
      <path
         id="path4466"
         d="M112,216l-16-38L64,88c0,0-9-8-4-35s16-24,16-24"
         stroke-width="20"
         stroke="#000000"
         ill="none" />
    </symbol>
    <inkscape:perspective
       id="perspective4471"
       inkscape:persp3d-origin="372.04724 : 350.78739 : 1"
       inkscape:vp_z="744.09448 : 526.18109 : 1"
       inkscape:vp_y="0 : 1000 : 0"
       inkscape:vp_x="0 : 526.18109 : 1"
       sodipodi:type="inkscape:persp3d" />
    <inkscape:perspective
       id="perspective4668"
       inkscape:persp3d-origin="6 : 4 : 1"
       inkscape:vp_z="12 : 6 : 1"
       inkscape:vp_y="0 : 1000 : 0"
       inkscape:vp_x="0 : 6 : 1"
       sodipodi:type="inkscape:persp3d" />
    <symbol
       id="symbol-university-7"
       viewBox="244.5 110 489 219.9">
      <path
         d="M79,43l57,119c0,0,21-96,104-96s124,106,124,106l43-133l82-17L0,17L79,43z"
         id="path4460-1" />
      <path
         fill="none"
         stroke="#000000"
         stroke-width="20"
         d="M94,176l-21,39"
         id="path4462-3" />
      <path
         d="M300,19c0,10.5-22.6,19-50.5,19S199,29.5,199,19s22.6-19,50.5-19S300,8.5,300,19z"
         id="path4464-8" />
      <path
         ill="none"
         stroke="#000000"
         stroke-width="20"
         d="M112,216l-16-38L64,88c0,0-9-8-4-35s16-24,16-24"
         id="path4466-4" />
    </symbol>
    <symbol
       viewBox="244.5 110 489 219.9"
       id="symbol9807">
      <path
         id="path9809"
         d="M79,43l57,119c0,0,21-96,104-96s124,106,124,106l43-133l82-17L0,17L79,43z" />
      <path
         id="path9811"
         d="M94,176l-21,39"
         stroke-width="20"
         stroke="#000000"
         fill="none" />
      <path
         id="path9813"
         d="M300,19c0,10.5-22.6,19-50.5,19S199,29.5,199,19s22.6-19,50.5-19S300,8.5,300,19z" />
      <path
         id="path9815"
         d="M112,216l-16-38L64,88c0,0-9-8-4-35s16-24,16-24"
         stroke-width="20"
         stroke="#000000"
         ill="none" />
    </symbol>
    <defs
       id="defs48974" />
  </defs>
  <g
     inkscape:label="Calque 1"
     inkscape:groupmode="layer"
     id="layer1">
    <circle
       style="fill:#ffb347;stroke-width:0.2;fill-opacity:1;stroke:#ffffff;stroke-opacity:1;stroke-miterlimit:4;stroke-dasharray:none"
       id="path846"
       cx="8.4666662"
       cy="8.4666662"
       r="8" />
    <g
       id="g4198"
       transform="matrix(0.78571429,0,0,0.78571429,2.9666666,2.9666666)">
      <rect
         style="visibility:hidden;fill:none;stroke:none"
         id="canvas"
         y="0"
         x="0"
         height="14"
         width="14" />
      <path
         id="variety_store"
         d="M 5,0 C 4,0 4,0 4,1 L 4.00977,4 H 1 v 9 c 0,1 0,1 1,1 h 10 c 1,0 1,0 1,-1 V 4 H 10.039062 L 10,1 C 10,0 10,0 9,0 Z M 5,1 H 9 V 4 H 5 Z m 1.5683594,4.5 c 0.7641142,0 1.3247395,0.1496197 1.6835937,0.4453125 0.3588551,0.2956927 0.5371094,0.6497621 0.5371094,1.0625 0,0.23101 -0.052693,0.4515332 -0.1640625,0.6640625 C 8.5167249,7.8844042 8.3851479,8.0570074 8.2304688,8.1894531 8.0757896,8.321899 7.799462,8.5194386 7.4003906,8.78125 7.731404,9.1108243 8.0747386,9.4177996 8.4335938,9.7011719 8.5294954,9.5102039 8.6116295,9.3082323 8.6796875,9.0957031 L 10.154297,9.421875 c -0.07734,0.2710519 -0.151502,0.4890958 -0.2226564,0.652344 -0.071152,0.163247 -0.170851,0.356355 -0.3007812,0.578125 l 0.7089846,0.484375 c 0.08662,0.05544 0.199819,0.122219 0.335937,0.199219 L 9.6582031,12.5 C 9.4725884,12.401436 9.2792081,12.287569 9.078125,12.158203 8.8801358,12.028837 8.7026949,11.916629 8.5449219,11.824219 8.2170034,12.039828 7.8884653,12.198315 7.5605469,12.296875 7.1057911,12.432408 6.5902182,12.5 6.0117188,12.5 5.105301,12.5 4.4306627,12.311325 3.9882812,11.935547 3.5458997,11.559771 3.3242188,11.104303 3.3242188,10.568359 3.3242187,10.183343 3.4549833,9.8204104 3.7148438,9.4785156 3.9747044,9.1335408 4.3993605,8.842639 4.9902344,8.6054688 4.7427483,8.3066957 4.5732757,8.0487676 4.4804688,7.8300781 4.3876628,7.6083084 4.3417969,7.3822268 4.3417969,7.1542969 4.3417969,6.6737961 4.5244424,6.2798435 4.8925781,5.96875 5.2607138,5.6576564 5.8197136,5.5000001 6.5683594,5.5 Z m 0.078125,1.015625 c -0.1918017,0 -0.3481003,0.057084 -0.46875,0.1679688 -0.1206492,0.1108848 -0.1796875,0.2416516 -0.1796875,0.3925781 0,0.1909683 0.1694728,0.4685755 0.5097656,0.8320312 C 6.7522057,7.7757575 6.9411942,7.6325223 7.0742188,7.4785156 7.2072429,7.3214287 7.2734375,7.1718092 7.2734375,7.0332031 7.2734375,6.8884368 7.2187922,6.7684859 7.1074219,6.6699219 6.9960531,6.5682783 6.8413799,6.515625 6.6464844,6.515625 Z m -0.8125,3.0371094 c -0.2598595,0.181728 -0.4309582,0.3374319 -0.5175782,0.4667966 -0.083529,0.129366 -0.1269531,0.26539 -0.1269531,0.410157 0,0.224848 0.098074,0.425994 0.2929688,0.601562 0.1948953,0.175568 0.4492676,0.263672 0.7617187,0.263672 0.3372002,0 0.7159924,-0.132719 1.1367188,-0.394531 C 6.9786942,10.592379 6.4619816,10.14412 5.8339844,9.5527344 Z"
         style="opacity:1;fill:#ffffff;fill-opacity:1;stroke:none;stroke-width:8;stroke-miterlimit:4;stroke-dasharray:none;stroke-dashoffset:0;stroke-opacity:1" />
    </g>
  </g>
</svg>
