<?xml version="1.0" encoding="UTF-8" standalone="no"?>
<!-- Created with Inkscape (http://www.inkscape.org/) -->

<svg
   width="64"
   height="64"
   viewBox="0 0 16.933333 16.933334"
   version="1.1"
   id="svg5"
   inkscape:version="1.1.1 (c3084ef, 2021-09-22)"
   sodipodi:docname="door_restricted_key_64.svg"
   xmlns:inkscape="http://www.inkscape.org/namespaces/inkscape"
   xmlns:sodipodi="http://sodipodi.sourceforge.net/DTD/sodipodi-0.dtd"
   xmlns="http://www.w3.org/2000/svg"
   xmlns:svg="http://www.w3.org/2000/svg">
  <sodipodi:namedview
     id="namedview7"
     pagecolor="#ffffff"
     bordercolor="#666666"
     borderopacity="1.0"
     inkscape:pageshadow="2"
     inkscape:pageopacity="0.0"
     inkscape:pagecheckerboard="0"
     inkscape:document-units="mm"
     showgrid="false"
     units="px"
     inkscape:zoom="4.7060185"
     inkscape:cx="31.130349"
     inkscape:cy="41.330054"
     inkscape:window-width="1440"
     inkscape:window-height="773"
     inkscape:window-x="0"
     inkscape:window-y="25"
     inkscape:window-maximized="0"
     inkscape:current-layer="layer1" />
  <defs
     id="defs2" />
  <g
     inkscape:label="Calque 1"
     inkscape:groupmode="layer"
     id="layer1">
    <circle
       style="fill:#ffffff;fill-opacity:1;stroke:none;stroke-width:0.0963855;stroke-miterlimit:4;stroke-dasharray:none;stroke-opacity:1"
       id="path1031"
       cx="8.4666662"
       cy="8.4666662"
       r="7.951807" />
    <g
       style="fill:#000000"
       id="g987"
       transform="matrix(0.26458333,0,0,0.23096372,5.4697402,6.8046512)">
      <g
         id="g971">
        <path
           d="M 0,0 H 24 V 24 H 0 Z"
           fill="none"
           id="path969" />
      </g>
    </g>
    <g
       id="g943"
       transform="translate(0,-0.49984266)">
      <g
         id="g975"
         transform="matrix(0.61111111,0,0,0.61111111,0.91600893,1.1333334)"
         style="fill:#000000">
        <path
           d="M 19,19 V 5 C 19,3.9 18.1,3 17,3 H 7 C 5.9,3 5,3.9 5,5 V 19 H 3 v 2 h 18 v -2 z m -4,-6 h -2 v -2 h 2 z"
           id="path973" />
      </g>
      <ellipse
         style="fill:#ffffff;fill-opacity:1;stroke:none;stroke-width:0.595973;stroke-miterlimit:4;stroke-dasharray:none;stroke-opacity:1"
         id="path1764"
         cx="23.78492"
         cy="24.811363"
         rx="9.1508322"
         ry="10.526224"
         transform="matrix(0.26458333,0,0,0.23096372,5.4697402,6.8046513)" />
      <g
         id="g995"
         transform="matrix(0.18181818,0,0,0.18181818,9.7983397,10.353358)"
         style="fill:#000000">
        <path
           d="M 21,10 H 12.65 C 11.83,7.67 9.61,6 7,6 3.69,6 1,8.69 1,12 c 0,3.31 2.69,6 6,6 2.61,0 4.83,-1.67 5.65,-4 H 13 l 2,2 2,-2 2,2 4,-4.04 z M 7,15 C 5.35,15 4,13.65 4,12 4,10.35 5.35,9 7,9 c 1.65,0 3,1.35 3,3 0,1.65 -1.35,3 -3,3 z"
           id="path993" />
      </g>
    </g>
  </g>
</svg>
