<?xml version="1.0" encoding="UTF-8" standalone="no"?>
<!-- Created with Inkscape (http://www.inkscape.org/) -->

<svg
   width="64"
   height="64"
   viewBox="0 0 16.933333 16.933334"
   version="1.1"
   id="svg5"
   inkscape:version="1.1.1 (c3084ef, 2021-09-22)"
   sodipodi:docname="door_restricted_v1_64.svg"
   xmlns:inkscape="http://www.inkscape.org/namespaces/inkscape"
   xmlns:sodipodi="http://sodipodi.sourceforge.net/DTD/sodipodi-0.dtd"
   xmlns="http://www.w3.org/2000/svg"
   xmlns:svg="http://www.w3.org/2000/svg">
  <sodipodi:namedview
     id="namedview7"
     pagecolor="#ffffff"
     bordercolor="#666666"
     borderopacity="1.0"
     inkscape:pageshadow="2"
     inkscape:pageopacity="0.0"
     inkscape:pagecheckerboard="0"
     inkscape:document-units="mm"
     showgrid="false"
     units="px"
     inkscape:zoom="8.1233293"
     inkscape:cx="33.237604"
     inkscape:cy="32.437439"
     inkscape:window-width="1323"
     inkscape:window-height="785"
     inkscape:window-x="117"
     inkscape:window-y="25"
     inkscape:window-maximized="0"
     inkscape:current-layer="layer1" />
  <defs
     id="defs2" />
  <g
     inkscape:label="Calque 1"
     inkscape:groupmode="layer"
     id="layer1">
    <circle
       style="fill:#ffffff;fill-opacity:1;stroke:#000000;stroke-width:0.1;stroke-opacity:1;stroke-miterlimit:4;stroke-dasharray:none"
       id="circle1223"
       cx="8.4666662"
       cy="8.4666662"
       r="8.25" />
    <g
       style="fill:#000000"
       id="g2120"
       transform="matrix(0.26458333,0,0,0.26458333,1.6709143,5.2566347)">
      <g
         id="g2108"
         transform="matrix(2.3097113,0,0,2.3097113,-2.0318019,-15.584131)">
        <path
           d="M 19,19 V 5 C 19,3.9 18.1,3 17,3 H 7 C 5.9,3 5,3.9 5,5 V 19 H 3 v 2 h 18 v -2 z m -4,-6 h -2 v -2 h 2 z"
           id="path2106" />
      </g>
      <g
         id="g2104">
        <path
           d="M 0,0 H 24 V 24 H 0 Z"
           fill="none"
           id="path2102" />
      </g>
    </g>
    <circle
       style="fill:#ffffff;fill-opacity:1;stroke:none;stroke-width:0.118549;stroke-miterlimit:4;stroke-dasharray:none;stroke-opacity:1"
       id="path1893"
       cx="12.058784"
       cy="12.604239"
       r="2.5" />
    <path
       d="m 11.058784,12.404239 v 0.400001 h 2 v -0.400001 z m 1,-1.8 c -1.104,0 -2,0.896 -2,2 0,1.104001 0.896,2 2,2 1.104,0 1.999999,-0.895999 1.999999,-2 0,-1.104 -0.895999,-2 -1.999999,-2 z m 0,3.6 c -0.882,0 -1.6,-0.717999 -1.6,-1.6 0,-0.882 0.718,-1.6 1.6,-1.6 0.882,0 1.599999,0.718 1.599999,1.6 0,0.882001 -0.717999,1.6 -1.599999,1.6 z"
       id="path2141"
       style="fill:#000000;stroke-width:0.2" />
  </g>
</svg>
