<?xml version="1.0" encoding="UTF-8" standalone="no"?>
<!-- Created with Inkscape (http://www.inkscape.org/) -->

<svg
   width="64"
   height="64"
   viewBox="0 0 16.933333 16.933334"
   version="1.1"
   id="svg5"
   inkscape:version="1.1.1 (c3084ef, 2021-09-22)"
   sodipodi:docname="door_restricted_lock_64.svg"
   xmlns:inkscape="http://www.inkscape.org/namespaces/inkscape"
   xmlns:sodipodi="http://sodipodi.sourceforge.net/DTD/sodipodi-0.dtd"
   xmlns="http://www.w3.org/2000/svg"
   xmlns:svg="http://www.w3.org/2000/svg">
  <sodipodi:namedview
     id="namedview7"
     pagecolor="#ffffff"
     bordercolor="#666666"
     borderopacity="1.0"
     inkscape:pageshadow="2"
     inkscape:pageopacity="0.0"
     inkscape:pagecheckerboard="0"
     inkscape:document-units="mm"
     showgrid="false"
     units="px"
     inkscape:zoom="5.3550333"
     inkscape:cx="26.983959"
     inkscape:cy="57.702722"
     inkscape:window-width="1440"
     inkscape:window-height="900"
     inkscape:window-x="0"
     inkscape:window-y="0"
     inkscape:window-maximized="0"
     inkscape:current-layer="layer1" />
  <defs
     id="defs2" />
  <g
     inkscape:label="Calque 1"
     inkscape:groupmode="layer"
     id="layer1">
    <circle
       style="fill:#ffffff;fill-opacity:1;stroke:#000000;stroke-width:0.1;stroke-opacity:1;stroke-miterlimit:4;stroke-dasharray:none"
       id="path1031"
       cx="8.4666662"
       cy="8.4666662"
       r="8.25" />
    <g
       style="fill:#000000"
       id="g987"
       transform="matrix(0.26458333,0,0,0.23096372,5.6870646,6.8046512)">
      <g
         id="g971">
        <path
           d="M 0,0 H 24 V 24 H 0 Z"
           fill="none"
           id="path969" />
      </g>
      <g
         id="g975"
         transform="matrix(2.3097113,0,0,2.6459182,-17.210953,-24.555016)">
        <path
           d="M 19,19 V 5 C 19,3.9 18.1,3 17,3 H 7 C 5.9,3 5,3.9 5,5 V 19 H 3 v 2 h 18 v -2 z m -4,-6 h -2 v -2 h 2 z"
           id="path973" />
      </g>
      <ellipse
         style="fill:#ffffff;fill-opacity:1;stroke:none;stroke-width:0.595973;stroke-miterlimit:4;stroke-dasharray:none;stroke-opacity:1"
         id="path1764"
         cx="23.78492"
         cy="24.811363"
         rx="9.1508322"
         ry="10.526224" />
    </g>
    <path
       d="m 12.837301,12.035176 h -0.142858 v -0.285714 c 0,-0.394286 -0.319999,-0.714286 -0.714286,-0.714286 -0.394285,0 -0.714285,0.32 -0.714285,0.714286 v 0.285714 h -0.142857 c -0.157143,0 -0.285715,0.128572 -0.285715,0.285714 v 1.428572 c 0,0.157143 0.128572,0.285714 0.285715,0.285714 h 1.714286 c 0.157142,0 0.285714,-0.128571 0.285714,-0.285714 V 12.32089 c 0,-0.157142 -0.128572,-0.285714 -0.285714,-0.285714 z m -0.857144,1.285714 c -0.157142,0 -0.285713,-0.128571 -0.285713,-0.285714 0,-0.157143 0.128571,-0.285714 0.285713,-0.285714 0.157144,0 0.285715,0.128571 0.285715,0.285714 0,0.157143 -0.128571,0.285714 -0.285715,0.285714 z m 0.442858,-1.285714 h -0.885714 v -0.285714 c 0,-0.244286 0.198571,-0.442857 0.442857,-0.442857 0.244286,0 0.442857,0.198571 0.442857,0.442857 z"
       id="path2176"
       style="fill:#000000;stroke-width:0.142857" />
  </g>
</svg>
