<?xml version="1.0" encoding="UTF-8" standalone="no"?>
<!-- Created with Inkscape (http://www.inkscape.org/) -->

<svg
   width="64"
   height="64"
   viewBox="0 0 16.933333 16.933334"
   version="1.1"
   id="svg5"
   inkscape:version="1.1.1 (c3084ef, 2021-09-22)"
   sodipodi:docname="e_cigarette_64.svg"
   xmlns:inkscape="http://www.inkscape.org/namespaces/inkscape"
   xmlns:sodipodi="http://sodipodi.sourceforge.net/DTD/sodipodi-0.dtd"
   xmlns="http://www.w3.org/2000/svg"
   xmlns:svg="http://www.w3.org/2000/svg">
  <sodipodi:namedview
     id="namedview7"
     pagecolor="#ffffff"
     bordercolor="#666666"
     borderopacity="1.0"
     inkscape:pageshadow="2"
     inkscape:pageopacity="0.0"
     inkscape:pagecheckerboard="0"
     inkscape:document-units="mm"
     showgrid="false"
     units="px"
     inkscape:zoom="2.3469377"
     inkscape:cx="43.673933"
     inkscape:cy="28.760883"
     inkscape:window-width="1440"
     inkscape:window-height="779"
     inkscape:window-x="0"
     inkscape:window-y="25"
     inkscape:window-maximized="0"
     inkscape:current-layer="layer1" />
  <defs
     id="defs2">
    <inkscape:perspective
       sodipodi:type="inkscape:persp3d"
       inkscape:vp_x="0 : 526.18109 : 1"
       inkscape:vp_y="0 : 1000 : 0"
       inkscape:vp_z="744.09448 : 526.18109 : 1"
       inkscape:persp3d-origin="372.04724 : 350.78739 : 1"
       id="perspective10" />
    <inkscape:perspective
       id="perspective2461"
       inkscape:persp3d-origin="10 : 6.6666667 : 1"
       inkscape:vp_z="20 : 10 : 1"
       inkscape:vp_y="0 : 1000 : 0"
       inkscape:vp_x="0 : 10 : 1"
       sodipodi:type="inkscape:persp3d" />
    <inkscape:perspective
       id="perspective2466"
       inkscape:persp3d-origin="400 : 200 : 1"
       inkscape:vp_z="800 : 300 : 1"
       inkscape:vp_y="0 : 1000 : 0"
       inkscape:vp_x="0 : 300 : 1"
       sodipodi:type="inkscape:persp3d" />
  </defs>
  <g
     inkscape:label="Calque 1"
     inkscape:groupmode="layer"
     id="layer1">
    <g
       id="g915">
      <circle
         style="fill:#ffb347;fill-opacity:1;stroke:#ffffff;stroke-width:0.2;stroke-miterlimit:4;stroke-dasharray:none;stroke-opacity:1"
         id="path846"
         cx="8.4666662"
         cy="8.4666662"
         r="8" />
      <path
         style="fill:#ffffff;stroke-width:0.0718955"
         d="M 4.6561987,11.944064 C 4.2889104,11.769797 4.1313704,11.738573 3.5957414,11.733884 l -0.6290851,-0.0055 v -0.46732 -0.46732 l 0.6290851,-5.7e-5 c 0.5496326,-4.9e-5 0.6866519,-0.02729 1.0848866,-0.215686 l 0.4558019,-0.215629 h 4.4151132 4.4151129 v 0.898692 0.898693 l -4.4395419,-0.0055 -4.4395427,-0.0055 z m 1.25817,-0.354477 c 0,-0.08919 0.057807,-0.147 0.1617647,-0.161765 0.1061764,-0.01508 0.1617648,-0.07239 0.1617648,-0.166765 0,-0.09438 -0.055588,-0.151685 -0.1617648,-0.166765 -0.1039576,-0.01477 -0.1617647,-0.07257 -0.1617647,-0.161764 0,-0.09086 -0.049657,-0.138791 -0.1437907,-0.138791 -0.095861,0 -0.143791,0.04793 -0.143791,0.143791 0,0.09586 -0.04793,0.143791 -0.1437907,0.143791 -0.1054468,0 -0.143791,0.04793 -0.143791,0.179738 0,0.131808 0.038344,0.179739 0.143791,0.179739 0.095861,0 0.1437907,0.04793 0.1437907,0.143791 0,0.09586 0.04793,0.143791 0.143791,0.143791 0.094133,0 0.1437907,-0.04793 0.1437907,-0.138791 z m 7.4771243,-0.32853 c 0,-0.176742 -0.0096,-0.179738 -0.575164,-0.179738 -0.565577,0 -0.575163,0.003 -0.575163,0.179738 0,0.176743 0.0096,0.179739 0.575163,0.179739 0.565578,0 0.575164,-0.003 0.575164,-0.179739 z m -1.5817,-1.7310197 c 0,-0.2678367 -0.0391,-0.3681597 -0.210156,-0.5392157 L 11.389482,8.7806657 10.359441,8.7802377 C 9.2182451,8.7798097 8.9002141,8.7201442 8.5735791,8.4452994 8.3122971,8.2254755 8.0712311,7.7828937 8.0712311,7.5230508 8.0712311,7.2398249 7.8867411,6.8612657 7.6998671,6.76104 7.6075491,6.7115275 7.2493421,6.6475343 6.9038511,6.6188332 6.4220466,6.5788081 6.2018563,6.5233821 5.9588142,6.3809499 5.4207578,6.0656278 5.0223755,5.4696079 4.9678131,4.8983128 L 4.9437804,4.6466787 5.2787645,4.6250319 c 0.3267792,-0.021117 0.3362365,-0.015834 0.3861099,0.2156864 0.079306,0.3681463 0.2266683,0.6080301 0.5029924,0.8187925 0.2113981,0.1612412 0.3629418,0.2035527 0.9097693,0.2540109 1.073148,0.099024 1.481105,0.4218282 1.669041,1.3206614 0.165799,0.7929624 0.231714,0.8275284 1.5780349,0.8275284 0.993953,0 1.124391,0.014947 1.411758,0.1617647 0.174142,0.08897 0.4141,0.2842918 0.533239,0.4340463 0.178585,0.2244769 0.221811,0.3538611 0.246203,0.7369281 l 0.02959,0.4646467 h -0.367856 -0.367853 z m 1.496622,-0.7313977 c -0.0306,-1.1244464 -0.08316,-1.3260307 -0.430314,-1.6501633 -0.332587,-0.3105351 -0.639563,-0.3808825 -1.66206,-0.3808825 -1.171482,0 -1.5492689,-0.096514 -2.0282959,-0.5181695 C 8.8231841,5.9302849 8.5045081,5.3597659 8.5033061,5.0276686 8.5004001,4.2241505 8.1039631,3.6174187 7.4712901,3.4482043 L 7.1365911,3.3586858 V 3.0078008 2.6569157 l 0.305555,0.050966 c 0.638158,0.1064444 1.233687,0.5432896 1.535017,1.1259974 0.06477,0.1252592 0.148101,0.4726165 0.185171,0.7719055 0.07736,0.6245697 0.198972,0.8697987 0.586965,1.183598 l 0.2761079,0.2233089 1.233696,0.038792 c 1.154566,0.036304 1.257169,0.050995 1.599646,0.229043 0.417906,0.2172626 0.779095,0.5968776 0.971995,1.0215826 0.110814,0.2439773 0.133016,0.4794236 0.134333,1.424635 l 0.0016,1.1323532 H 13.650953 13.33526 Z"
         id="path1597" />
    </g>
  </g>
</svg>
