<?xml version="1.0" encoding="UTF-8" standalone="no"?>
<!-- Created with Inkscape (http://www.inkscape.org/) -->

<svg
   width="64"
   height="64"
   viewBox="0 0 16.933333 16.933334"
   version="1.1"
   id="svg5"
   inkscape:version="1.1.1 (c3084ef, 2021-09-22)"
   sodipodi:docname="emergency_exit_64.svg"
   xmlns:inkscape="http://www.inkscape.org/namespaces/inkscape"
   xmlns:sodipodi="http://sodipodi.sourceforge.net/DTD/sodipodi-0.dtd"
   xmlns="http://www.w3.org/2000/svg"
   xmlns:svg="http://www.w3.org/2000/svg">
  <sodipodi:namedview
     id="namedview7"
     pagecolor="#ffffff"
     bordercolor="#666666"
     borderopacity="1.0"
     inkscape:pageshadow="2"
     inkscape:pageopacity="0.0"
     inkscape:pagecheckerboard="0"
     inkscape:document-units="mm"
     showgrid="false"
     units="px"
     inkscape:zoom="2.5403836"
     inkscape:cx="18.697964"
     inkscape:cy="12.793343"
     inkscape:window-width="1323"
     inkscape:window-height="779"
     inkscape:window-x="0"
     inkscape:window-y="25"
     inkscape:window-maximized="0"
     inkscape:current-layer="layer1" />
  <defs
     id="defs2" />
  <g
     inkscape:label="Calque 1"
     inkscape:groupmode="layer"
     id="layer1">
    <path
       style="fill:#ffffff;stroke:none;stroke-width:0.264583px;stroke-linecap:butt;stroke-linejoin:miter;stroke-opacity:1;fill-opacity:1"
       d="M 4.1228565,1.7162869 H 12.810357 L 16.450927,16.450664 0.46660675,16.435112 4.1228565,1.7162869"
       id="path942" />
    <path
       style="fill:#3f8f4c;fill-opacity:1;stroke-width:0.03125"
       d="M 13.740045,15.536787 12.810357,14.606531 V 13.614536 12.62254 h 0.815844 c 0.764406,0 0.814478,-0.0035 0.794195,-0.05469 -0.0119,-0.03008 -0.105756,-0.279687 -0.208557,-0.554687 -0.102801,-0.275 -0.220349,-0.557426 -0.261217,-0.627614 -0.177365,-0.304607 -0.531425,-0.513407 -0.911993,-0.537831 l -0.228272,-0.01465 v -4.5583911 -4.55839 h -4.3437504 -4.34375 v 2.515625 2.515625 h 0.572296 0.572295 l 0.645159,-0.807325 c 0.819838,-1.025913 0.888432,-1.089772 1.33525,-1.243078 0.159822,-0.05484 0.285839,-0.05897 1.796875,-0.05897 h 1.6250004 l 0.18727,0.07539 c 0.341689,0.137564 0.46964,0.30431 0.983207,1.281322 0.247683,0.471194 0.464318,0.909114 0.481412,0.973155 0.02449,0.09173 0.01948,0.146813 -0.02359,0.259582 -0.134011,0.350902 -0.560868,0.466658 -0.825735,0.223924 -0.07312,-0.06701 -0.232799,-0.338695 -0.488675,-0.831456 l -0.380064,-0.731922 -0.603334,-0.0085 c -0.4782344,-0.0067 -0.6000944,-2.5e-4 -0.5877114,0.03125 0.0086,0.02186 0.219274,0.546 0.468182,1.16475 l 0.4525614,1.125 0.130015,1.4218753 c 0.07151,0.7820308 0.129637,1.4394528 0.129174,1.4609378 -6.59e-4,0.03063 0.277517,0.03913 1.288223,0.03937 1.285612,3.12e-4 1.28948,5e-4 1.445312,0.07339 0.286873,0.134182 0.402663,0.304035 0.66918,0.98162 l 0.06478,0.164691 -2.150531,-0.0084 -2.1505304,-0.0084 -0.125628,-0.08315 c -0.06909,-0.04573 -0.148937,-0.132271 -0.177427,-0.19231 -0.036,-0.07586 -0.09501,-0.512397 -0.193427,-1.430915 -0.07789,-0.726964 -0.145672,-1.325799 -0.150618,-1.3307443 -0.0049,-0.00495 -0.50721,1.0274473 -1.116144,2.2942063 -1.222047,2.542209 -1.209036,2.519989 -1.531809,2.615843 -0.123402,0.03665 -0.308649,0.04894 -0.737267,0.04894 -0.314849,0 -0.572453,-0.0091 -0.572453,-0.02022 0,-0.01112 0.599375,-1.259168 1.331943,-2.773438 0.732569,-1.5142695 1.332569,-2.7674426 1.333334,-2.7848289 0.0018,-0.041257 -0.787507,-2.0234032 -0.81842,-2.0552172 -0.013,-0.01338 -0.225046,0.221722 -0.471209,0.522452 -0.67337,0.822633 -0.688499,0.830001 -1.704108,0.830001 h -0.702788 v 3.3093701 3.30937 l 0.921875,0.905685 c 0.507031,0.498127 0.921875,0.91438 0.921875,0.925005 0,0.01063 -1.2375,0.01932 -2.75,0.01932 H 0.46660677 V 8.4506644 0.46628892 H 8.4666676 16.466727 l -0.0079,7.99218798 -0.0079,7.9921871 -0.890625,0.0082 -0.890625,0.0082 z m -7.5078134,-0.02476 -0.9375,-0.919764 0.674016,-4.84e-4 c 1.07312,-7.72e-4 1.061057,-0.0067 2.122859,1.049709 l 0.796875,0.792856 -0.859375,-0.0013 -0.859375,-0.0013 -0.9375,-0.919765 z M 6.6009766,4.5036949 c -0.304394,-0.108635 -0.502362,-0.283005 -0.659538,-0.580923 -0.07596,-0.14398 -0.08421,-0.191734 -0.08421,-0.487732 0,-0.317858 0.0035,-0.334481 0.112011,-0.53125 0.484525,-0.878655 1.770771,-0.754963 2.064446,0.198528 0.08469,0.27496 0.06829,0.529027 -0.05134,0.795599 -0.1022,0.22773 -0.348207,0.475492 -0.56916,0.573219 -0.212926,0.09418 -0.596481,0.109552 -0.812216,0.03256 z"
       id="path5951" />
  </g>
</svg>
