<?xml version="1.0" encoding="UTF-8" standalone="no"?>
<!-- Created with Inkscape (http://www.inkscape.org/) -->

<svg
   width="64"
   height="64"
   viewBox="0 0 16.933333 16.933333"
   version="1.1"
   id="svg1300"
   inkscape:version="1.1.1 (c3084ef, 2021-09-22)"
   sodipodi:docname="escalator_64.svg"
   xmlns:inkscape="http://www.inkscape.org/namespaces/inkscape"
   xmlns:sodipodi="http://sodipodi.sourceforge.net/DTD/sodipodi-0.dtd"
   xmlns="http://www.w3.org/2000/svg"
   xmlns:svg="http://www.w3.org/2000/svg">
  <sodipodi:namedview
     id="namedview1302"
     pagecolor="#ffffff"
     bordercolor="#666666"
     borderopacity="1.0"
     inkscape:pageshadow="2"
     inkscape:pageopacity="0.0"
     inkscape:pagecheckerboard="0"
     inkscape:document-units="mm"
     showgrid="false"
     inkscape:zoom="3.5986737"
     inkscape:cx="33.623499"
     inkscape:cy="42.098843"
     inkscape:window-width="1323"
     inkscape:window-height="789"
     inkscape:window-x="68"
     inkscape:window-y="25"
     inkscape:window-maximized="0"
     inkscape:current-layer="layer1"
     units="px" />
  <defs
     id="defs1297" />
  <g
     inkscape:label="Calque 1"
     inkscape:groupmode="layer"
     id="layer1"
     transform="translate(-106.80952,-149.23809)">
    <circle
       style="fill:#c2a9d4;fill-opacity:1;stroke:#ffffff;stroke-width:0.2;stroke-miterlimit:4;stroke-dasharray:none;stroke-opacity:1"
       id="circle198211"
       cx="115.27618"
       cy="157.70476"
       r="8" />
    <g
       id="g198221"
       transform="matrix(0.08628972,0,0,0.09163414,105.94509,124.19703)"
       style="fill:#ffffff;stroke:none;stroke-opacity:1">
      <path
         style="fill:#ffffff;stroke:none;stroke-width:0.176389;stroke-opacity:1"
         d="m 89.959852,347.12754 c -2.717154,-0.57549 -4.627065,-1.60237 -6.546125,-3.51956 -1.77657,-1.77484 -2.789797,-3.54825 -3.341035,-5.84769 -0.701326,-2.92551 -0.343692,-5.74567 1.093281,-8.6212 0.578344,-1.15733 1.07175,-1.82117 2.163191,-2.91042 2.184633,-2.18025 4.341866,-3.2453 7.402741,-3.65484 3.869477,-0.51773 8.407624,1.29515 10.915295,4.36039 1.0359,1.26623 2.29334,3.82645 2.59898,5.29167 0.3034,1.45451 0.26396,4.16335 -0.0818,5.62061 -0.47345,1.9952 -1.72979,4.19904 -3.2742,5.74353 -2.373176,2.37331 -4.970756,3.5155 -8.266031,3.63469 -1.036068,0.0375 -2.23498,-0.006 -2.664247,-0.0972 z"
         id="path198215" />
      <path
         style="fill:#ffffff;stroke:none;stroke-width:0.176389;stroke-opacity:1"
         d="m 92.126513,380.72488 c 0.91885,-0.53795 1.763004,-1.08938 1.875894,-1.22541 0.151936,-0.18307 0.190199,-2.62103 0.14729,-9.38475 -0.05318,-8.38196 -0.0837,-9.1753 -0.369122,-9.59532 -0.386184,-0.5683 -1.014441,-0.86504 -1.831451,-0.86504 -0.477534,0 -0.769447,0.14275 -1.226423,0.59973 l -0.599722,0.59972 v 10.42458 c 0,6.41711 0.06399,10.42459 0.166449,10.42459 0.09155,0 0.918235,-0.44014 1.837085,-0.9781 z"
         id="path198217" />
      <path
         style="fill:#ffffff;stroke:none;stroke-width:0.176389;stroke-opacity:1"
         d="m 45.906555,408.57802 c -1.023926,-0.36281 -2.235327,-1.48414 -2.776419,-2.56997 -0.591176,-1.18634 -0.629851,-3.00047 -0.08947,-4.19674 0.43631,-0.96588 1.418304,-2.01455 2.367725,-2.52849 0.685674,-0.37116 0.926735,-0.38441 8.554861,-0.47012 7.74657,-0.087 7.859696,-0.0935 8.643056,-0.49217 0.436563,-0.22219 4.524376,-2.64313 9.084029,-5.37986 l 8.290278,-4.97589 0.08819,-14.55208 c 0.08681,-14.32393 0.09416,-14.56946 0.468341,-15.66019 0.96758,-2.82046 3.283347,-5.55608 5.817535,-6.87228 2.007907,-1.04287 3.294687,-1.34635 5.708569,-1.34635 2.407921,0 3.700899,0.30362 5.687989,1.33564 2.624291,1.36297 4.692521,3.73809 5.819461,6.68297 l 0.56808,1.48451 0.0918,7.19702 0.0917,7.19701 4.23334,-2.536 c 4.11605,-2.46573 26.97587,-16.12919 30.86519,-18.44832 2.37059,-1.41353 4.16974,-2.21167 5.91189,-2.62264 1.19539,-0.28198 2.4452,-0.31207 12.96459,-0.31207 12.98412,0 12.20088,-0.0717 13.66436,1.25049 1.15222,1.04096 1.65183,2.18295 1.65225,3.7766 1.7e-4,1.0128 -0.0896,1.4975 -0.38318,2.06766 -0.59294,1.15143 -1.37034,1.92924 -2.46598,2.46728 l -1.00217,0.49214 -11.28889,0.0882 -11.28889,0.0882 -0.79375,0.42183 c -0.73632,0.39131 -2.91406,1.68698 -16.93334,10.07466 -2.86191,1.71227 -10.75972,6.43335 -17.55069,10.49128 -6.79097,4.05793 -13.696596,8.18697 -15.345833,9.17565 -19.813073,11.87748 -29.488442,17.58282 -30.49008,17.97929 -2.349991,0.93019 -2.900038,0.97637 -11.490478,0.96461 -6.537043,-0.009 -8.067455,-0.0569 -8.67406,-0.27186 z"
         id="path198219" />
    </g>
  </g>
</svg>
