<?xml version="1.0" encoding="UTF-8" standalone="no"?>
<!-- Created with Inkscape (http://www.inkscape.org/) -->

<svg
   width="64"
   height="64"
   viewBox="0 0 16.933333 16.933334"
   version="1.1"
   id="svg5"
   inkscape:version="1.1.1 (c3084ef, 2021-09-22)"
   sodipodi:docname="fabric_64.svg"
   xmlns:inkscape="http://www.inkscape.org/namespaces/inkscape"
   xmlns:sodipodi="http://sodipodi.sourceforge.net/DTD/sodipodi-0.dtd"
   xmlns="http://www.w3.org/2000/svg"
   xmlns:svg="http://www.w3.org/2000/svg">
  <sodipodi:namedview
     id="namedview7"
     pagecolor="#ffffff"
     bordercolor="#666666"
     borderopacity="1.0"
     inkscape:pageshadow="2"
     inkscape:pageopacity="0.0"
     inkscape:pagecheckerboard="0"
     inkscape:document-units="mm"
     showgrid="false"
     units="px"
     inkscape:zoom="2.7671136"
     inkscape:cx="35.596659"
     inkscape:cy="18.611451"
     inkscape:window-width="1440"
     inkscape:window-height="779"
     inkscape:window-x="17"
     inkscape:window-y="27"
     inkscape:window-maximized="0"
     inkscape:current-layer="g4800" />
  <defs
     id="defs2">
    <inkscape:perspective
       sodipodi:type="inkscape:persp3d"
       inkscape:vp_x="0 : 526.18109 : 1"
       inkscape:vp_y="0 : 1000 : 0"
       inkscape:vp_z="744.09448 : 526.18109 : 1"
       inkscape:persp3d-origin="372.04724 : 350.78739 : 1"
       id="perspective10" />
    <inkscape:perspective
       id="perspective2461"
       inkscape:persp3d-origin="10 : 6.6666667 : 1"
       inkscape:vp_z="20 : 10 : 1"
       inkscape:vp_y="0 : 1000 : 0"
       inkscape:vp_x="0 : 10 : 1"
       sodipodi:type="inkscape:persp3d" />
    <inkscape:perspective
       id="perspective2466"
       inkscape:persp3d-origin="400 : 200 : 1"
       inkscape:vp_z="800 : 300 : 1"
       inkscape:vp_y="0 : 1000 : 0"
       inkscape:vp_x="0 : 300 : 1"
       sodipodi:type="inkscape:persp3d" />
    <inkscape:perspective
       sodipodi:type="inkscape:persp3d"
       inkscape:vp_x="0 : 526.18109 : 1"
       inkscape:vp_y="0 : 1000 : 0"
       inkscape:vp_z="744.09448 : 526.18109 : 1"
       inkscape:persp3d-origin="372.04724 : 350.78739 : 1"
       id="perspective10-5" />
    <inkscape:perspective
       id="perspective2461-2"
       inkscape:persp3d-origin="10 : 6.6666667 : 1"
       inkscape:vp_z="20 : 10 : 1"
       inkscape:vp_y="0 : 1000 : 0"
       inkscape:vp_x="0 : 10 : 1"
       sodipodi:type="inkscape:persp3d" />
    <inkscape:perspective
       id="perspective2466-2"
       inkscape:persp3d-origin="400 : 200 : 1"
       inkscape:vp_z="800 : 300 : 1"
       inkscape:vp_y="0 : 1000 : 0"
       inkscape:vp_x="0 : 300 : 1"
       sodipodi:type="inkscape:persp3d" />
    <inkscape:perspective
       sodipodi:type="inkscape:persp3d"
       inkscape:vp_x="0 : 290 : 1"
       inkscape:vp_y="0 : 1000 : 0"
       inkscape:vp_z="580 : 290 : 1"
       inkscape:persp3d-origin="290 : 193.33333 : 1"
       id="perspective2441" />
    <inkscape:perspective
       id="perspective3452"
       inkscape:persp3d-origin="30 : 20 : 1"
       inkscape:vp_z="60 : 30 : 1"
       inkscape:vp_y="0 : 1000 : 0"
       inkscape:vp_x="0 : 30 : 1"
       sodipodi:type="inkscape:persp3d" />
    <symbol
       viewBox="244.5 110 489 219.9"
       id="symbol-university">
      <path
         id="path4460"
         d="M79,43l57,119c0,0,21-96,104-96s124,106,124,106l43-133l82-17L0,17L79,43z" />
      <path
         id="path4462"
         d="M94,176l-21,39"
         stroke-width="20"
         stroke="#000000"
         fill="none" />
      <path
         id="path4464"
         d="M300,19c0,10.5-22.6,19-50.5,19S199,29.5,199,19s22.6-19,50.5-19S300,8.5,300,19z" />
      <path
         id="path4466"
         d="M112,216l-16-38L64,88c0,0-9-8-4-35s16-24,16-24"
         stroke-width="20"
         stroke="#000000"
         ill="none" />
    </symbol>
    <inkscape:perspective
       id="perspective4471"
       inkscape:persp3d-origin="372.04724 : 350.78739 : 1"
       inkscape:vp_z="744.09448 : 526.18109 : 1"
       inkscape:vp_y="0 : 1000 : 0"
       inkscape:vp_x="0 : 526.18109 : 1"
       sodipodi:type="inkscape:persp3d" />
    <inkscape:perspective
       id="perspective4668"
       inkscape:persp3d-origin="6 : 4 : 1"
       inkscape:vp_z="12 : 6 : 1"
       inkscape:vp_y="0 : 1000 : 0"
       inkscape:vp_x="0 : 6 : 1"
       sodipodi:type="inkscape:persp3d" />
    <symbol
       id="symbol-university-7"
       viewBox="244.5 110 489 219.9">
      <path
         d="M79,43l57,119c0,0,21-96,104-96s124,106,124,106l43-133l82-17L0,17L79,43z"
         id="path4460-1" />
      <path
         fill="none"
         stroke="#000000"
         stroke-width="20"
         d="M94,176l-21,39"
         id="path4462-3" />
      <path
         d="M300,19c0,10.5-22.6,19-50.5,19S199,29.5,199,19s22.6-19,50.5-19S300,8.5,300,19z"
         id="path4464-8" />
      <path
         ill="none"
         stroke="#000000"
         stroke-width="20"
         d="M112,216l-16-38L64,88c0,0-9-8-4-35s16-24,16-24"
         id="path4466-4" />
    </symbol>
    <symbol
       viewBox="244.5 110 489 219.9"
       id="symbol9807">
      <path
         id="path9809"
         d="M79,43l57,119c0,0,21-96,104-96s124,106,124,106l43-133l82-17L0,17L79,43z" />
      <path
         id="path9811"
         d="M94,176l-21,39"
         stroke-width="20"
         stroke="#000000"
         fill="none" />
      <path
         id="path9813"
         d="M300,19c0,10.5-22.6,19-50.5,19S199,29.5,199,19s22.6-19,50.5-19S300,8.5,300,19z" />
      <path
         id="path9815"
         d="M112,216l-16-38L64,88c0,0-9-8-4-35s16-24,16-24"
         stroke-width="20"
         stroke="#000000"
         ill="none" />
    </symbol>
    <defs
       id="defs48974" />
  </defs>
  <g
     inkscape:label="Calque 1"
     inkscape:groupmode="layer"
     id="layer1">
    <circle
       style="fill:#ffb347;stroke-width:0.2;fill-opacity:1;stroke:#ffffff;stroke-opacity:1;stroke-miterlimit:4;stroke-dasharray:none"
       id="path846"
       cx="8.4666662"
       cy="8.4666662"
       r="8" />
    <g
       id="g4198"
       transform="matrix(0.78571429,0,0,0.78571429,2.9666666,2.9666666)">
      <rect
         style="visibility:hidden;fill:none;stroke:none"
         id="canvas"
         y="0"
         x="0"
         height="14"
         width="14" />
      <g
         id="g4375">
        <rect
           width="14"
           height="14"
           x="0"
           y="0"
           id="canvas-8"
           style="visibility:hidden;fill:none;stroke:none" />
        <g
           id="g4618">
          <rect
             width="14"
             height="14"
             x="0"
             y="0"
             id="canvas-5"
             style="visibility:hidden;fill:none;stroke:none" />
          <path
             d="m 8.3484087,7.8911223 a 1.477387,1.442211 0 0 1 -3.19e-5,0.00947"
             id="path3855"
             style="fill:#000000;fill-opacity:1;fill-rule:evenodd;stroke:none" />
          <g
             id="g4800"
             transform="scale(0.875)">
            <rect
               width="16"
               height="16"
               x="0"
               y="0"
               id="canvas-0"
               style="visibility:hidden;fill:none;stroke:none" />
            <path
               id="rect816-9-0-2-9"
               d="M 2.8051953,0.72727208 V 1.7662321 H 3.8441544 V 0.72727208 Z m 3.1168818,0 c 0,1.38528092 0,2.77056092 0,4.15584452 h 1.0389598 c 0,-1.3852836 0,-2.7705636 0,-4.15584452 z m 3.1168821,0 V 1.7662321 H 10.077922 V 0.72727208 Z m 3.1168848,0 c 0,1.38528092 0,2.77056092 0,4.15584452 h 1.038961 c 0,-1.3852836 0,-2.7705636 0,-4.15584452 z M 0.7272726,2.8051948 v 1.0389591 c 1.3852809,0 2.7705609,0 4.155842,0 V 2.8051948 c -1.3852811,0 -2.7705611,0 -4.155842,0 z m 7.2727268,0 v 1.0389591 c 1.0389598,0 2.0779226,0 3.1168826,0 V 2.8051948 c -1.03896,0 -2.0779228,0 -3.1168826,0 z m 6.2337676,0 v 1.0389591 h 1.038961 V 2.8051948 Z M 2.8051953,4.8831166 c 0,1.385281 0,2.7705619 0,4.1558449 h 1.0389591 c 0,-1.385283 0,-2.7705639 0,-4.1558449 z m 6.2337639,0 c 0,1.385281 0,2.7705619 0,4.1558449 h 1.0389628 c 0,-1.385283 0,-2.7705639 0,-4.1558449 z m -8.3116866,1.03896 v 1.0389628 h 1.03896 V 5.9220766 Z m 4.155842,0 v 1.0389628 c 1.0389625,0 2.0779223,0 3.1168848,0 V 5.9220766 c -1.0389625,0 -2.0779223,0 -3.1168848,0 z m 6.2337674,0 v 1.0389628 c 1.385282,0 2.770565,0 4.155846,0 V 5.9220766 c -1.385281,0 -2.770564,0 -4.155846,0 z M 5.9220771,7.9999989 V 9.0389615 H 6.9610369 V 7.9999989 Z m 6.2337669,0 v 1.0389626 h 1.038961 V 7.9999989 Z M 2.2857126,10.077921 c -0.8633764,0 -1.55844,0.695066 -1.55844,1.558443 v 2.077922 c 0,0.863376 0.6950636,1.558442 1.55844,1.558442 4.1558444,0 8.3116894,0 12.4675344,0 0.287792,0 0.519481,-0.231685 0.519481,-0.519482 0,-0.287792 -0.231688,-0.51948 -0.519481,-0.51948 -4.155845,0 -8.31169,0 -12.4675344,0 -0.2877927,0 -0.51948,-0.231685 -0.51948,-0.51948 v -2.077922 c 0,-0.287793 0.2316845,-0.51948 0.51948,-0.51948 h 9.3506514 c 0.287792,0 0.51948,0.231684 0.51948,0.51948 0,0.287792 -0.231687,0.51948 -0.51948,0.51948 H 2.8051953 v 1.038962 c 2.9437228,0 5.8874459,0 8.8311687,0 0.863376,0 1.558441,-0.695066 1.558441,-1.558442 0,-0.863377 -0.695065,-1.558443 -1.558441,-1.558443 z"
               style="fill:#ffffff;fill-opacity:1;stroke:none;stroke-width:0.818292" />
          </g>
        </g>
      </g>
    </g>
  </g>
</svg>
