<?xml version="1.0" encoding="UTF-8" standalone="no"?>
<!-- Created with Inkscape (http://www.inkscape.org/) -->

<svg
   width="64"
   height="64"
   viewBox="0 0 16.933333 16.933334"
   version="1.1"
   id="svg5"
   inkscape:version="1.1.1 (c3084ef, 2021-09-22)"
   sodipodi:docname="fast_food_64.svg"
   xmlns:inkscape="http://www.inkscape.org/namespaces/inkscape"
   xmlns:sodipodi="http://sodipodi.sourceforge.net/DTD/sodipodi-0.dtd"
   xmlns="http://www.w3.org/2000/svg"
   xmlns:svg="http://www.w3.org/2000/svg">
  <sodipodi:namedview
     id="namedview7"
     pagecolor="#ffffff"
     bordercolor="#666666"
     borderopacity="1.0"
     inkscape:pageshadow="2"
     inkscape:pageopacity="0.0"
     inkscape:pagecheckerboard="0"
     inkscape:document-units="mm"
     showgrid="false"
     units="px"
     inkscape:zoom="4.9397331"
     inkscape:cx="33.807495"
     inkscape:cy="35.427015"
     inkscape:window-width="1323"
     inkscape:window-height="786"
     inkscape:window-x="0"
     inkscape:window-y="25"
     inkscape:window-maximized="0"
     inkscape:current-layer="layer1" />
  <defs
     id="defs2">
    <inkscape:perspective
       sodipodi:type="inkscape:persp3d"
       inkscape:vp_x="0 : 526.18109 : 1"
       inkscape:vp_y="0 : 1000 : 0"
       inkscape:vp_z="744.09448 : 526.18109 : 1"
       inkscape:persp3d-origin="372.04724 : 350.78739 : 1"
       id="perspective10" />
    <inkscape:perspective
       id="perspective2461"
       inkscape:persp3d-origin="10 : 6.6666667 : 1"
       inkscape:vp_z="20 : 10 : 1"
       inkscape:vp_y="0 : 1000 : 0"
       inkscape:vp_x="0 : 10 : 1"
       sodipodi:type="inkscape:persp3d" />
    <inkscape:perspective
       id="perspective2466"
       inkscape:persp3d-origin="400 : 200 : 1"
       inkscape:vp_z="800 : 300 : 1"
       inkscape:vp_y="0 : 1000 : 0"
       inkscape:vp_x="0 : 300 : 1"
       sodipodi:type="inkscape:persp3d" />
  </defs>
  <g
     inkscape:label="Calque 1"
     inkscape:groupmode="layer"
     id="layer1">
    <circle
       style="fill:#fa8435;stroke-width:0.2;fill-opacity:1;stroke:#ffffff;stroke-opacity:1;stroke-miterlimit:4;stroke-dasharray:none"
       id="path846"
       cx="8.4666662"
       cy="8.4666662"
       r="8" />
    <g
       style="fill:#000000"
       id="g1146"
       transform="matrix(0.45833333,0,0,0.45833333,2.5381685,1.6276097)">
      <path
         d="M 0,0 H 24 V 24 H 0 Z"
         fill="none"
         id="path1100" />
      <path
         d="m 18.994905,25.916579 h 1.66 c 0.84,0 1.53,-0.64 1.63,-1.46 l 1.65,-16.4800001 h -5 v -4.05 h -1.97 v 4.05 h -4.97 l 0.3,2.3400001 c 1.71,0.47 3.31,1.32 4.27,2.26 1.44,1.42 2.43,2.89 2.43,5.29 z m -17.0599998,-1 v -0.99 H 16.964905 v 0.99 c 0,0.55 -0.45,1 -1.01,1 H 2.9449052 c -0.56,0 -1.01,-0.45 -1.01,-1 z m 15.0299998,-7 c 0,-8.0000001 -15.0299998,-8.0000001 -15.0299998,0 z m -15.0099998,2.01 H 16.954905 v 2 H 1.9549052 Z"
         id="path1097"
         style="fill:#ffffff;fill-opacity:1" />
    </g>
  </g>
</svg>
