<?xml version="1.0" encoding="UTF-8" standalone="no"?>
<!-- Created with Inkscape (http://www.inkscape.org/) -->

<svg
   width="64"
   height="64"
   viewBox="0 0 16.933333 16.933334"
   version="1.1"
   id="svg5"
   inkscape:version="1.1.1 (c3084ef, 2021-09-22)"
   sodipodi:docname="frame_64.svg"
   xmlns:inkscape="http://www.inkscape.org/namespaces/inkscape"
   xmlns:sodipodi="http://sodipodi.sourceforge.net/DTD/sodipodi-0.dtd"
   xmlns:xlink="http://www.w3.org/1999/xlink"
   xmlns="http://www.w3.org/2000/svg"
   xmlns:svg="http://www.w3.org/2000/svg">
  <sodipodi:namedview
     id="namedview7"
     pagecolor="#ffffff"
     bordercolor="#666666"
     borderopacity="1.0"
     inkscape:pageshadow="2"
     inkscape:pageopacity="0.0"
     inkscape:pagecheckerboard="0"
     inkscape:document-units="mm"
     showgrid="false"
     units="px"
     inkscape:zoom="4.8836591"
     inkscape:cx="26.926531"
     inkscape:cy="14.640661"
     inkscape:window-width="1440"
     inkscape:window-height="773"
     inkscape:window-x="0"
     inkscape:window-y="25"
     inkscape:window-maximized="0"
     inkscape:current-layer="layer1" />
  <defs
     id="defs2">
    <inkscape:perspective
       sodipodi:type="inkscape:persp3d"
       inkscape:vp_x="0 : 526.18109 : 1"
       inkscape:vp_y="0 : 1000 : 0"
       inkscape:vp_z="744.09448 : 526.18109 : 1"
       inkscape:persp3d-origin="372.04724 : 350.78739 : 1"
       id="perspective10" />
    <inkscape:perspective
       id="perspective2461"
       inkscape:persp3d-origin="10 : 6.6666667 : 1"
       inkscape:vp_z="20 : 10 : 1"
       inkscape:vp_y="0 : 1000 : 0"
       inkscape:vp_x="0 : 10 : 1"
       sodipodi:type="inkscape:persp3d" />
    <inkscape:perspective
       id="perspective2466"
       inkscape:persp3d-origin="400 : 200 : 1"
       inkscape:vp_z="800 : 300 : 1"
       inkscape:vp_y="0 : 1000 : 0"
       inkscape:vp_x="0 : 300 : 1"
       sodipodi:type="inkscape:persp3d" />
    <inkscape:perspective
       sodipodi:type="inkscape:persp3d"
       inkscape:vp_x="0 : 290 : 1"
       inkscape:vp_y="0 : 1000 : 0"
       inkscape:vp_z="580 : 290 : 1"
       inkscape:persp3d-origin="290 : 193.33333 : 1"
       id="perspective2441" />
    <inkscape:perspective
       id="perspective2466-9"
       inkscape:persp3d-origin="372.04724 : 350.78739 : 1"
       inkscape:vp_z="744.09448 : 526.18109 : 1"
       inkscape:vp_y="0 : 1000 : 0"
       inkscape:vp_x="0 : 526.18109 : 1"
       sodipodi:type="inkscape:persp3d" />
    <inkscape:perspective
       id="perspective3333"
       inkscape:persp3d-origin="372.04724 : 350.78739 : 1"
       inkscape:vp_z="744.09448 : 526.18109 : 1"
       inkscape:vp_y="0 : 1000 : 0"
       inkscape:vp_x="0 : 526.18109 : 1"
       sodipodi:type="inkscape:persp3d" />
    <inkscape:perspective
       id="perspective3401"
       inkscape:persp3d-origin="372.04724 : 350.78739 : 1"
       inkscape:vp_z="744.09448 : 526.18109 : 1"
       inkscape:vp_y="0 : 1000 : 0"
       inkscape:vp_x="0 : 526.18109 : 1"
       sodipodi:type="inkscape:persp3d" />
    <inkscape:perspective
       id="perspective3464"
       inkscape:persp3d-origin="372.04724 : 350.78739 : 1"
       inkscape:vp_z="744.09448 : 526.18109 : 1"
       inkscape:vp_y="0 : 1000 : 0"
       inkscape:vp_x="0 : 526.18109 : 1"
       sodipodi:type="inkscape:persp3d" />
    <inkscape:perspective
       id="perspective3581"
       inkscape:persp3d-origin="225 : 150 : 1"
       inkscape:vp_z="450 : 225 : 1"
       inkscape:vp_y="0 : 1000 : 0"
       inkscape:vp_x="0 : 225 : 1"
       sodipodi:type="inkscape:persp3d" />
    <inkscape:perspective
       id="perspective4312"
       inkscape:persp3d-origin="225 : 150 : 1"
       inkscape:vp_z="450 : 225 : 1"
       inkscape:vp_y="0 : 1000 : 0"
       inkscape:vp_x="0 : 225 : 1"
       sodipodi:type="inkscape:persp3d" />
    <inkscape:perspective
       id="perspective8860"
       inkscape:persp3d-origin="372.04724 : 350.78739 : 1"
       inkscape:vp_z="744.09448 : 526.18109 : 1"
       inkscape:vp_y="0 : 1000 : 0"
       inkscape:vp_x="0 : 526.18109 : 1"
       sodipodi:type="inkscape:persp3d" />
    <inkscape:perspective
       id="perspective8887"
       inkscape:persp3d-origin="372.04724 : 350.78739 : 1"
       inkscape:vp_z="744.09448 : 526.18109 : 1"
       inkscape:vp_y="0 : 1000 : 0"
       inkscape:vp_x="0 : 526.18109 : 1"
       sodipodi:type="inkscape:persp3d" />
    <inkscape:perspective
       sodipodi:type="inkscape:persp3d"
       inkscape:vp_x="0 : 16 : 1"
       inkscape:vp_y="0 : 1000 : 0"
       inkscape:vp_z="32 : 16 : 1"
       inkscape:persp3d-origin="16 : 10.666667 : 1"
       id="perspective4904" />
    <inkscape:perspective
       sodipodi:type="inkscape:persp3d"
       inkscape:vp_x="0 : 6 : 1"
       inkscape:vp_y="0 : 1000 : 0"
       inkscape:vp_z="12 : 6 : 1"
       inkscape:persp3d-origin="6 : 4 : 1"
       id="perspective4668" />
    <inkscape:perspective
       sodipodi:type="inkscape:persp3d"
       inkscape:vp_x="0 : 526.18109 : 1"
       inkscape:vp_y="0 : 1000 : 0"
       inkscape:vp_z="744.09448 : 526.18109 : 1"
       inkscape:persp3d-origin="372.04724 : 350.78739 : 1"
       id="perspective4471" />
    <symbol
       id="symbol-university"
       viewBox="244.5 110 489 219.9">
      <path
         d="M79,43l57,119c0,0,21-96,104-96s124,106,124,106l43-133l82-17L0,17L79,43z"
         id="path4460" />
      <path
         fill="none"
         stroke="#000000"
         stroke-width="20"
         d="M94,176l-21,39"
         id="path4462" />
      <path
         d="M300,19c0,10.5-22.6,19-50.5,19S199,29.5,199,19s22.6-19,50.5-19S300,8.5,300,19z"
         id="path4464" />
      <path
         ill="none"
         stroke="#000000"
         stroke-width="20"
         d="M112,216l-16-38L64,88c0,0-9-8-4-35s16-24,16-24"
         id="path4466" />
    </symbol>
    <inkscape:perspective
       sodipodi:type="inkscape:persp3d"
       inkscape:vp_x="0 : 30 : 1"
       inkscape:vp_y="0 : 1000 : 0"
       inkscape:vp_z="60 : 30 : 1"
       inkscape:persp3d-origin="30 : 20 : 1"
       id="perspective3452" />
    <inkscape:perspective
       id="perspective9479"
       inkscape:persp3d-origin="290 : 193.33333 : 1"
       inkscape:vp_z="580 : 290 : 1"
       inkscape:vp_y="0 : 1000 : 0"
       inkscape:vp_x="0 : 290 : 1"
       sodipodi:type="inkscape:persp3d" />
    <inkscape:perspective
       id="perspective9690"
       inkscape:persp3d-origin="372.04724 : 350.78739 : 1"
       inkscape:vp_z="744.09448 : 526.18109 : 1"
       inkscape:vp_y="0 : 1000 : 0"
       inkscape:vp_x="0 : 526.18109 : 1"
       sodipodi:type="inkscape:persp3d" />
    <inkscape:perspective
       sodipodi:type="inkscape:persp3d"
       inkscape:vp_x="0 : 290 : 1"
       inkscape:vp_y="0 : 1000 : 0"
       inkscape:vp_z="580 : 290 : 1"
       inkscape:persp3d-origin="290 : 193.33333 : 1"
       id="perspective9819" />
    <inkscape:perspective
       id="perspective9817"
       inkscape:persp3d-origin="30 : 20 : 1"
       inkscape:vp_z="60 : 30 : 1"
       inkscape:vp_y="0 : 1000 : 0"
       inkscape:vp_x="0 : 30 : 1"
       sodipodi:type="inkscape:persp3d" />
    <symbol
       viewBox="244.5 110 489 219.9"
       id="symbol9807">
      <path
         id="path9809"
         d="M79,43l57,119c0,0,21-96,104-96s124,106,124,106l43-133l82-17L0,17L79,43z" />
      <path
         id="path9811"
         d="M94,176l-21,39"
         stroke-width="20"
         stroke="#000000"
         fill="none" />
      <path
         id="path9813"
         d="M300,19c0,10.5-22.6,19-50.5,19S199,29.5,199,19s22.6-19,50.5-19S300,8.5,300,19z" />
      <path
         id="path9815"
         d="M112,216l-16-38L64,88c0,0-9-8-4-35s16-24,16-24"
         stroke-width="20"
         stroke="#000000"
         ill="none" />
    </symbol>
    <inkscape:perspective
       id="perspective9805"
       inkscape:persp3d-origin="372.04724 : 350.78739 : 1"
       inkscape:vp_z="744.09448 : 526.18109 : 1"
       inkscape:vp_y="0 : 1000 : 0"
       inkscape:vp_x="0 : 526.18109 : 1"
       sodipodi:type="inkscape:persp3d" />
    <inkscape:perspective
       id="perspective9803"
       inkscape:persp3d-origin="6 : 4 : 1"
       inkscape:vp_z="12 : 6 : 1"
       inkscape:vp_y="0 : 1000 : 0"
       inkscape:vp_x="0 : 6 : 1"
       sodipodi:type="inkscape:persp3d" />
    <inkscape:perspective
       id="perspective9801"
       inkscape:persp3d-origin="16 : 10.666667 : 1"
       inkscape:vp_z="32 : 16 : 1"
       inkscape:vp_y="0 : 1000 : 0"
       inkscape:vp_x="0 : 16 : 1"
       sodipodi:type="inkscape:persp3d" />
    <inkscape:perspective
       sodipodi:type="inkscape:persp3d"
       inkscape:vp_x="0 : 526.18109 : 1"
       inkscape:vp_y="0 : 1000 : 0"
       inkscape:vp_z="744.09448 : 526.18109 : 1"
       inkscape:persp3d-origin="372.04724 : 350.78739 : 1"
       id="perspective9799" />
    <inkscape:perspective
       sodipodi:type="inkscape:persp3d"
       inkscape:vp_x="0 : 526.18109 : 1"
       inkscape:vp_y="0 : 1000 : 0"
       inkscape:vp_z="744.09448 : 526.18109 : 1"
       inkscape:persp3d-origin="372.04724 : 350.78739 : 1"
       id="perspective9797" />
    <inkscape:perspective
       sodipodi:type="inkscape:persp3d"
       inkscape:vp_x="0 : 225 : 1"
       inkscape:vp_y="0 : 1000 : 0"
       inkscape:vp_z="450 : 225 : 1"
       inkscape:persp3d-origin="225 : 150 : 1"
       id="perspective9795" />
    <inkscape:perspective
       sodipodi:type="inkscape:persp3d"
       inkscape:vp_x="0 : 225 : 1"
       inkscape:vp_y="0 : 1000 : 0"
       inkscape:vp_z="450 : 225 : 1"
       inkscape:persp3d-origin="225 : 150 : 1"
       id="perspective9793" />
    <inkscape:perspective
       sodipodi:type="inkscape:persp3d"
       inkscape:vp_x="0 : 526.18109 : 1"
       inkscape:vp_y="0 : 1000 : 0"
       inkscape:vp_z="744.09448 : 526.18109 : 1"
       inkscape:persp3d-origin="372.04724 : 350.78739 : 1"
       id="perspective9791" />
    <inkscape:perspective
       sodipodi:type="inkscape:persp3d"
       inkscape:vp_x="0 : 526.18109 : 1"
       inkscape:vp_y="0 : 1000 : 0"
       inkscape:vp_z="744.09448 : 526.18109 : 1"
       inkscape:persp3d-origin="372.04724 : 350.78739 : 1"
       id="perspective9789" />
    <inkscape:perspective
       sodipodi:type="inkscape:persp3d"
       inkscape:vp_x="0 : 526.18109 : 1"
       inkscape:vp_y="0 : 1000 : 0"
       inkscape:vp_z="744.09448 : 526.18109 : 1"
       inkscape:persp3d-origin="372.04724 : 350.78739 : 1"
       id="perspective9787" />
    <inkscape:perspective
       sodipodi:type="inkscape:persp3d"
       inkscape:vp_x="0 : 526.18109 : 1"
       inkscape:vp_y="0 : 1000 : 0"
       inkscape:vp_z="744.09448 : 526.18109 : 1"
       inkscape:persp3d-origin="372.04724 : 350.78739 : 1"
       id="perspective9785" />
    <inkscape:perspective
       id="perspective9783"
       inkscape:persp3d-origin="290 : 193.33333 : 1"
       inkscape:vp_z="580 : 290 : 1"
       inkscape:vp_y="0 : 1000 : 0"
       inkscape:vp_x="0 : 290 : 1"
       sodipodi:type="inkscape:persp3d" />
    <defs
       id="defs48974" />
    <sodipodi:namedview
       pagecolor="#ffffff"
       inkscape:zoom="0.61399264"
       inkscape:window-y="26"
       inkscape:window-x="0"
       inkscape:window-width="1012"
       inkscape:window-height="739"
       inkscape:pageshadow="2"
       inkscape:pageopacity="0.0"
       inkscape:cy="250.37448"
       inkscape:cx="475.26707"
       id="namedview4258"
       borderopacity="1.0"
       bordercolor="#666666" />
    <inkscape:perspective
       id="perspective11483"
       inkscape:persp3d-origin="100 : 66.666667 : 1"
       inkscape:vp_z="200 : 100 : 1"
       inkscape:vp_y="0 : 1000 : 0"
       inkscape:vp_x="0 : 100 : 1"
       sodipodi:type="inkscape:persp3d" />
    <inkscape:perspective
       id="perspective12684"
       inkscape:persp3d-origin="180 : 66.666667 : 1"
       inkscape:vp_z="360 : 100 : 1"
       inkscape:vp_y="0 : 1000 : 0"
       inkscape:vp_x="0 : 100 : 1"
       sodipodi:type="inkscape:persp3d" />
    <symbol
       id="symbol-university-7"
       viewBox="244.5 110 489 219.9">
      <path
         d="M79,43l57,119c0,0,21-96,104-96s124,106,124,106l43-133l82-17L0,17L79,43z"
         id="path4460-7" />
      <path
         fill="none"
         stroke="#000000"
         stroke-width="20"
         d="M94,176l-21,39"
         id="path4462-4" />
      <path
         d="M300,19c0,10.5-22.6,19-50.5,19S199,29.5,199,19s22.6-19,50.5-19S300,8.5,300,19z"
         id="path4464-4" />
      <path
         ill="none"
         stroke="#000000"
         stroke-width="20"
         d="M112,216l-16-38L64,88c0,0-9-8-4-35s16-24,16-24"
         id="path4466-9" />
    </symbol>
    <symbol
       viewBox="244.5 110 489 219.9"
       id="symbol9807-1">
      <path
         id="path9809-5"
         d="M79,43l57,119c0,0,21-96,104-96s124,106,124,106l43-133l82-17L0,17L79,43z" />
      <path
         id="path9811-5"
         d="M94,176l-21,39"
         stroke-width="20"
         stroke="#000000"
         fill="none" />
      <path
         id="path9813-5"
         d="M300,19c0,10.5-22.6,19-50.5,19S199,29.5,199,19s22.6-19,50.5-19S300,8.5,300,19z" />
      <path
         id="path9815-8"
         d="M112,216l-16-38L64,88c0,0-9-8-4-35s16-24,16-24"
         stroke-width="20"
         stroke="#000000"
         ill="none" />
    </symbol>
    <defs
       id="defs48974-2" />
    <defs
       id="defs18865">
      <rect
         id="SVGID_1_"
         x="1.3"
         y="3.9000001"
         width="49.400002"
         height="93.699997" />
    </defs>
    <clipPath
       id="SVGID_2_">
      <use
         xlink:href="#SVGID_1_"
         style="overflow:visible"
         id="use18867"
         x="0"
         y="0"
         width="100%"
         height="100%" />
    </clipPath>
    <defs
       id="defs18875">
      <rect
         id="SVGID_3_"
         x="1.3"
         y="3.9000001"
         width="49.400002"
         height="93.699997" />
    </defs>
    <clipPath
       id="SVGID_4_">
      <use
         xlink:href="#SVGID_3_"
         style="overflow:visible"
         id="use18877"
         x="0"
         y="0"
         width="100%"
         height="100%" />
    </clipPath>
    <defs
       id="defs18885">
      <rect
         id="SVGID_5_"
         x="1.3"
         y="3.9000001"
         width="49.400002"
         height="93.699997" />
    </defs>
    <clipPath
       id="SVGID_6_">
      <use
         xlink:href="#SVGID_5_"
         style="overflow:visible"
         id="use18887"
         x="0"
         y="0"
         width="100%"
         height="100%" />
    </clipPath>
    <defs
       id="defs18895">
      <rect
         id="SVGID_7_"
         x="1.3"
         y="3.9000001"
         width="49.400002"
         height="93.699997" />
    </defs>
    <clipPath
       id="SVGID_8_">
      <use
         xlink:href="#SVGID_7_"
         style="overflow:visible"
         id="use18897"
         x="0"
         y="0"
         width="100%"
         height="100%" />
    </clipPath>
    <defs
       id="defs18905">
      <rect
         id="SVGID_9_"
         x="1.3"
         y="3.9000001"
         width="49.400002"
         height="93.699997" />
    </defs>
    <clipPath
       id="SVGID_10_">
      <use
         xlink:href="#SVGID_9_"
         style="overflow:visible"
         id="use18907"
         x="0"
         y="0"
         width="100%"
         height="100%" />
    </clipPath>
    <defs
       id="defs18915">
      <rect
         id="SVGID_11_"
         x="1.3"
         y="3.9000001"
         width="49.400002"
         height="93.699997" />
    </defs>
    <clipPath
       id="SVGID_12_">
      <use
         xlink:href="#SVGID_11_"
         style="overflow:visible"
         id="use18917"
         x="0"
         y="0"
         width="100%"
         height="100%" />
    </clipPath>
    <defs
       id="defs18927">
      <rect
         id="SVGID_13_"
         x="50.599998"
         y="3.9000001"
         width="49.400002"
         height="93.699997" />
    </defs>
    <clipPath
       id="SVGID_14_">
      <use
         xlink:href="#SVGID_13_"
         style="overflow:visible"
         id="use18929"
         x="0"
         y="0"
         width="100%"
         height="100%" />
    </clipPath>
    <defs
       id="defs18937">
      <rect
         id="SVGID_15_"
         x="50.599998"
         y="3.9000001"
         width="49.400002"
         height="93.699997" />
    </defs>
    <clipPath
       id="SVGID_16_">
      <use
         xlink:href="#SVGID_15_"
         style="overflow:visible"
         id="use18939"
         x="0"
         y="0"
         width="100%"
         height="100%" />
    </clipPath>
    <defs
       id="defs18947">
      <rect
         id="SVGID_17_"
         x="50.599998"
         y="3.9000001"
         width="49.400002"
         height="93.699997" />
    </defs>
    <clipPath
       id="SVGID_18_">
      <use
         xlink:href="#SVGID_17_"
         style="overflow:visible"
         id="use18949"
         x="0"
         y="0"
         width="100%"
         height="100%" />
    </clipPath>
    <defs
       id="defs18957">
      <rect
         id="SVGID_19_"
         x="50.599998"
         y="3.9000001"
         width="49.400002"
         height="93.699997" />
    </defs>
    <clipPath
       id="SVGID_20_">
      <use
         xlink:href="#SVGID_19_"
         style="overflow:visible"
         id="use18959"
         x="0"
         y="0"
         width="100%"
         height="100%" />
    </clipPath>
    <defs
       id="defs18967">
      <rect
         id="SVGID_21_"
         x="50.599998"
         y="3.9000001"
         width="49.400002"
         height="93.699997" />
    </defs>
    <clipPath
       id="SVGID_22_">
      <use
         xlink:href="#SVGID_21_"
         style="overflow:visible"
         id="use18969"
         x="0"
         y="0"
         width="100%"
         height="100%" />
    </clipPath>
    <defs
       id="defs18977">
      <rect
         id="SVGID_23_"
         x="50.599998"
         y="3.9000001"
         width="49.400002"
         height="93.699997" />
    </defs>
    <clipPath
       id="SVGID_24_">
      <use
         xlink:href="#SVGID_23_"
         style="overflow:visible"
         id="use18979"
         x="0"
         y="0"
         width="100%"
         height="100%" />
    </clipPath>
    <rect
       id="rect1117"
       x="1.3"
       y="3.9000001"
       width="49.400002"
       height="93.699997" />
    <rect
       id="rect1119"
       x="1.3"
       y="3.9000001"
       width="49.400002"
       height="93.699997" />
    <rect
       id="rect1121"
       x="1.3"
       y="3.9000001"
       width="49.400002"
       height="93.699997" />
    <rect
       id="rect1123"
       x="1.3"
       y="3.9000001"
       width="49.400002"
       height="93.699997" />
    <rect
       id="rect1125"
       x="1.3"
       y="3.9000001"
       width="49.400002"
       height="93.699997" />
    <rect
       id="rect1127"
       x="1.3"
       y="3.9000001"
       width="49.400002"
       height="93.699997" />
    <rect
       id="rect1129"
       x="50.599998"
       y="3.9000001"
       width="49.400002"
       height="93.699997" />
    <rect
       id="rect1131"
       x="50.599998"
       y="3.9000001"
       width="49.400002"
       height="93.699997" />
    <rect
       id="rect1133"
       x="50.599998"
       y="3.9000001"
       width="49.400002"
       height="93.699997" />
    <rect
       id="rect1135"
       x="50.599998"
       y="3.9000001"
       width="49.400002"
       height="93.699997" />
    <rect
       id="rect1137"
       x="50.599998"
       y="3.9000001"
       width="49.400002"
       height="93.699997" />
    <rect
       id="rect1139"
       x="50.599998"
       y="3.9000001"
       width="49.400002"
       height="93.699997" />
    <rect
       id="rect16927"
       x="1.3"
       y="3.9000001"
       width="49.400002"
       height="93.699997" />
    <rect
       id="rect16929"
       x="1.3"
       y="3.9000001"
       width="49.400002"
       height="93.699997" />
    <rect
       id="rect16931"
       x="1.3"
       y="3.9000001"
       width="49.400002"
       height="93.699997" />
    <rect
       id="rect16933"
       x="1.3"
       y="3.9000001"
       width="49.400002"
       height="93.699997" />
    <rect
       id="rect16935"
       x="1.3"
       y="3.9000001"
       width="49.400002"
       height="93.699997" />
    <rect
       id="rect16937"
       x="1.3"
       y="3.9000001"
       width="49.400002"
       height="93.699997" />
    <rect
       id="rect16939"
       x="50.599998"
       y="3.9000001"
       width="49.400002"
       height="93.699997" />
    <rect
       id="rect16941"
       x="50.599998"
       y="3.9000001"
       width="49.400002"
       height="93.699997" />
    <rect
       id="rect16943"
       x="50.599998"
       y="3.9000001"
       width="49.400002"
       height="93.699997" />
    <rect
       id="rect16945"
       x="50.599998"
       y="3.9000001"
       width="49.400002"
       height="93.699997" />
    <rect
       id="rect16947"
       x="50.599998"
       y="3.9000001"
       width="49.400002"
       height="93.699997" />
    <rect
       id="rect16949"
       x="50.599998"
       y="3.9000001"
       width="49.400002"
       height="93.699997" />
  </defs>
  <g
     inkscape:label="Calque 1"
     inkscape:groupmode="layer"
     id="layer1">
    <circle
       style="fill:#ffb347;stroke-width:0.2;fill-opacity:1;stroke:#ffffff;stroke-opacity:1;stroke-miterlimit:4;stroke-dasharray:none"
       id="path846"
       cx="8.4666662"
       cy="8.4666662"
       r="8" />
    <path
       style="fill:#ffffff;stroke-width:0.0214844"
       d="M 3.530889,12.659088 C 3.3124964,12.582246 3.1315312,12.417451 3.0351465,12.207642 2.9930721,12.116055 2.9777086,12.042804 2.9715211,11.904283 L 2.9633611,11.721666 3.167089,11.310527 C 3.4120214,10.816234 3.4562454,10.665736 3.4191522,10.45273 3.4053262,10.373334 3.3313732,10.113961 3.2548139,9.8763469 3.0020643,9.0918941 2.9583861,8.8622569 2.9713683,8.3861232 2.9826424,7.9726355 3.0323548,7.7369092 3.2468863,7.0796689 3.4324658,6.5111261 3.4567728,6.3775485 3.4090348,6.188592 3.389748,6.1122511 3.2847368,5.8709328 3.1756765,5.6523293 L 2.977385,5.2548683 V 5.0507668 c 0,-0.1756307 0.0079,-0.2209444 0.056615,-0.324844 0.1041765,-0.222177 0.3022696,-0.3939925 0.5312969,-0.460819 0.2222192,-0.06484 0.3851807,-0.038403 1.1147381,0.1808444 0.3574536,0.1074221 0.7283567,0.2112071 0.8242291,0.2306334 0.2757547,0.055875 0.3566058,0.036909 0.9552453,-0.2240796 0.3987429,-0.1738398 0.5505691,-0.2181415 0.7475929,-0.2181415 0.1742679,0 0.2550084,0.030972 0.5698752,0.2186046 0.35092,0.2091167 0.4416448,0.2408207 0.6896654,0.2410043 0.2529692,1.869e-4 0.3788115,-0.038242 0.8378905,-0.2558699 0.3842015,-0.1821322 0.4522152,-0.2034557 0.6494675,-0.2036192 0.1777211,-1.482e-4 0.2564961,0.029891 0.5729761,0.2184848 0.361372,0.2153452 0.439402,0.2416965 0.71115,0.2401605 0.275826,-0.00156 0.470102,-0.047382 1.181658,-0.2787153 0.572329,-0.1860692 0.734738,-0.2116457 0.948204,-0.1493258 0.229757,0.067076 0.428704,0.2400131 0.53015,0.4608383 0.04207,0.091587 0.05744,0.1648387 0.06363,0.3033596 l 0.0082,0.1826172 -0.203728,0.4111387 c -0.243451,0.491303 -0.287393,0.6402495 -0.253441,0.8590764 0.01268,0.08171 0.09096,0.3610772 0.173949,0.6208151 0.242378,0.7585452 0.268562,0.8915171 0.268562,1.3638526 0,0.4708574 -0.02583,0.6030705 -0.269099,1.3772352 -0.188544,0.6000184 -0.209077,0.7142754 -0.161914,0.9009554 0.01929,0.07634 0.124298,0.317659 0.233358,0.536263 l 0.198292,0.397461 v 0.204101 c 0,0.175631 -0.0079,0.220945 -0.05662,0.324844 -0.142602,0.304127 -0.436627,0.492057 -0.768498,0.491194 -0.15958,-4.14e-4 -0.233695,-0.01841 -0.958091,-0.232576 -0.639073,-0.188945 -0.781728,-0.222528 -0.947796,-0.223126 -0.159329,-5.73e-4 -0.262811,0.0323 -0.703406,0.223452 -0.407315,0.176712 -0.5976066,0.232619 -0.7917785,0.232619 -0.1790755,0 -0.2593998,-0.03038 -0.5755737,-0.217698 -0.3292818,-0.195081 -0.4559309,-0.239033 -0.6875,-0.238587 -0.2366972,4.56e-4 -0.3638862,0.03838 -0.7756111,0.231252 -0.4014957,0.188081 -0.5180684,0.225033 -0.7099148,0.225033 -0.1813398,0 -0.2745542,-0.03588 -0.6062347,-0.233346 -0.3071347,-0.182852 -0.4367795,-0.226069 -0.6711307,-0.223716 -0.2773959,0.0028 -0.486476,0.05353 -1.3083978,0.317547 -0.4536082,0.145709 -0.6640681,0.169908 -0.8644647,0.0994 z m 8.926482,-1.294518 c 0.05671,-0.02745 0.117066,-0.08022 0.151803,-0.132708 l 0.05766,-0.08714 V 8.4667824 5.7888397 l -0.05766,-0.087137 c -0.03474,-0.052491 -0.09509,-0.1052564 -0.151803,-0.1327083 l -0.09414,-0.045572 h -3.8965902 -3.89659 l -0.094138,0.045572 c -0.056708,0.027452 -0.117066,0.080218 -0.1518027,0.1327083 l -0.057664,0.087137 v 2.6779427 2.6779426 l 0.057326,0.08663 c 0.033559,0.05071 0.095911,0.105725 0.1503906,0.132691 l 0.093064,0.04607 3.8980021,1.7e-5 3.8980022,1.7e-5 z"
       id="path16647" />
  </g>
  <style
     type="text/css"
     id="style18855">
	.st0{fill:#C4114E;}
	.st1{fill:#FFFFFF;}
	.st2{clip-path:url(#SVGID_2_);fill:#FFFFFF;}
	.st3{clip-path:url(#SVGID_4_);}
	.st4{clip-path:url(#SVGID_6_);fill:#FFFFFF;}
	.st5{clip-path:url(#SVGID_8_);fill:#FFFFFF;}
	.st6{clip-path:url(#SVGID_10_);fill:#FFFFFF;}
	.st7{clip-path:url(#SVGID_12_);fill:#FFFFFF;}
	.st8{clip-path:url(#SVGID_14_);fill:#FFFFFF;}
	.st9{clip-path:url(#SVGID_16_);}
	.st10{clip-path:url(#SVGID_18_);fill:#FFFFFF;}
	.st11{clip-path:url(#SVGID_20_);fill:#FFFFFF;}
	.st12{clip-path:url(#SVGID_22_);fill:#FFFFFF;}
	.st13{clip-path:url(#SVGID_24_);fill:#FFFFFF;}
</style>
</svg>
