<?xml version="1.0" encoding="UTF-8" standalone="no"?>
<!-- Created with Inkscape (http://www.inkscape.org/) -->

<svg
   width="64"
   height="64"
   viewBox="0 0 16.933333 16.933334"
   version="1.1"
   id="svg5"
   xmlns="http://www.w3.org/2000/svg"
   xmlns:svg="http://www.w3.org/2000/svg">
  <defs
     id="defs2">
    <symbol
       id="symbol-university"
       viewBox="244.5 110 489 219.9">
      <path
         d="M79,43l57,119c0,0,21-96,104-96s124,106,124,106l43-133l82-17L0,17L79,43z"
         id="path4460" />
      <path
         fill="none"
         stroke="#000000"
         stroke-width="20"
         d="M94,176l-21,39"
         id="path4462" />
      <path
         d="M300,19c0,10.5-22.6,19-50.5,19S199,29.5,199,19s22.6-19,50.5-19S300,8.5,300,19z"
         id="path4464" />
      <path
         ill="none"
         stroke="#000000"
         stroke-width="20"
         d="M112,216l-16-38L64,88c0,0-9-8-4-35s16-24,16-24"
         id="path4466" />
    </symbol>
    <symbol
       viewBox="244.5 110 489 219.9"
       id="symbol9807">
      <path
         id="path9809"
         d="M79,43l57,119c0,0,21-96,104-96s124,106,124,106l43-133l82-17L0,17L79,43z" />
      <path
         id="path9811"
         d="M94,176l-21,39"
         stroke-width="20"
         stroke="#000000"
         fill="none" />
      <path
         id="path9813"
         d="M300,19c0,10.5-22.6,19-50.5,19S199,29.5,199,19s22.6-19,50.5-19S300,8.5,300,19z" />
      <path
         id="path9815"
         d="M112,216l-16-38L64,88c0,0-9-8-4-35s16-24,16-24"
         stroke-width="20"
         stroke="#000000"
         ill="none" />
    </symbol>
    <defs
       id="defs48974" />
    <clipPath
       clipPathUnits="userSpaceOnUse"
       id="clipPath3505">
      <path
         d="M 0,800 H 800 V 0 H 0 Z"
         id="path3503" />
    </clipPath>
    <clipPath
       clipPathUnits="userSpaceOnUse"
       id="clipPath3637">
      <path
         d="M 0,800 H 800 V 0 H 0 Z"
         id="path3635" />
    </clipPath>
  </defs>
  <g
     id="layer1">
    <circle
       style="fill:#ffb347;fill-opacity:1;stroke:#ffffff;stroke-width:0.2;stroke-miterlimit:4;stroke-dasharray:none;stroke-opacity:1"
       id="path846"
       cx="8.4666662"
       cy="8.4666662"
       r="8" />
    <g
       id="g8948"
       transform="matrix(0.78571429,0,0,0.78571429,2.9666666,2.9666666)">
      <rect
         style="visibility:hidden;fill:none;stroke:none"
         id="canvas"
         y="0"
         x="0"
         height="14"
         width="14" />
      <path
         id="path9170"
         style="fill:#ffffff;fill-opacity:1;stroke:#c7ffff;stroke-width:0.0811983;stroke-opacity:1"
         d="M 32.025391 11.212891 C 28.689858 11.211592 27.808035 11.233459 27.595703 11.322266 C 27.249446 11.466927 26.907081 11.880322 26.861328 12.208984 C 26.624401 13.910903 26.439873 14.391947 25.730469 15.158203 C 24.77364 16.191658 23.318445 16.631534 21.996094 16.287109 C 21.741111 16.220712 21.27832 16.037699 20.966797 15.880859 C 20.355827 15.573152 20.053838 15.534352 19.640625 15.707031 C 19.219483 15.883009 14.313409 20.547118 13.966797 21.101562 C 13.608656 21.674443 13.943489 22.472798 14.6875 22.820312 C 17.453388 24.112189 19.183684 28.050734 18.988281 32.607422 C 18.90482 34.553689 18.566342 35.998353 17.84375 37.478516 C 17.100123 39.001757 16.169719 40.092522 14.791016 41.058594 C 13.775597 41.770135 13.640224 42.123153 14.064453 42.964844 C 14.332851 43.497369 18.973663 50.478498 19.289062 50.824219 C 19.736625 51.314837 20.414145 51.382192 21.076172 51.003906 C 21.889099 50.539385 22.690764 50.330214 23.8125 50.287109 C 25.890193 50.207108 27.592581 50.854547 28.669922 52.134766 C 28.866657 52.368544 29.141101 52.609677 29.279297 52.669922 C 29.584984 52.803139 34.30216 52.833871 34.640625 52.705078 C 34.755134 52.661531 35.151049 52.323411 35.519531 51.953125 C 36.323288 51.145425 37.016304 50.75399 38.148438 50.466797 C 39.690998 50.075477 41.379731 50.240799 42.722656 50.916016 C 43.473064 51.293337 43.977664 51.34379 44.400391 51.085938 C 44.739424 50.879189 49.221011 44.293859 49.925781 42.966797 C 50.367255 42.135521 50.209101 41.739518 49.146484 41.011719 C 47.325962 39.764816 45.995859 37.786313 45.404297 35.449219 C 45.105332 34.268117 44.998313 33.342972 45 31.916016 C 45.002907 29.39061 45.53067 27.210749 46.5625 25.455078 C 47.160913 24.436866 48.216343 23.39097 49.126953 22.914062 C 49.835483 22.542996 50.069391 22.290015 50.164062 21.789062 C 50.201123 21.593013 50.162018 21.439435 50.009766 21.179688 C 49.661434 20.585306 44.851766 15.917239 44.373047 15.708984 C 43.955764 15.527607 43.606888 15.572295 43.025391 15.880859 C 41.944208 16.454621 40.809093 16.551866 39.761719 16.160156 C 38.269199 15.601973 37.205078 14.150563 37.205078 12.673828 C 37.205078 12.149376 36.919812 11.623694 36.513672 11.396484 C 36.189245 11.214872 36.184739 11.214345 32.025391 11.212891 z "
         transform="matrix(0.33674242,0,0,0.33674242,-3.7757575,-3.7757575)" />
    </g>
  </g>
</svg>
