<?xml version="1.0" encoding="UTF-8" standalone="no"?>
<!-- Created with Inkscape (http://www.inkscape.org/) -->

<svg
   width="64"
   height="64"
   viewBox="0 0 16.933333 16.933334"
   version="1.1"
   id="svg5"
   xmlns="http://www.w3.org/2000/svg"
   xmlns:svg="http://www.w3.org/2000/svg">
  <defs
     id="defs2">
    <symbol
       id="symbol-university"
       viewBox="244.5 110 489 219.9">
      <path
         d="M79,43l57,119c0,0,21-96,104-96s124,106,124,106l43-133l82-17L0,17L79,43z"
         id="path4460" />
      <path
         fill="none"
         stroke="#000000"
         stroke-width="20"
         d="M94,176l-21,39"
         id="path4462" />
      <path
         d="M300,19c0,10.5-22.6,19-50.5,19S199,29.5,199,19s22.6-19,50.5-19S300,8.5,300,19z"
         id="path4464" />
      <path
         ill="none"
         stroke="#000000"
         stroke-width="20"
         d="M112,216l-16-38L64,88c0,0-9-8-4-35s16-24,16-24"
         id="path4466" />
    </symbol>
    <symbol
       viewBox="244.5 110 489 219.9"
       id="symbol9807">
      <path
         id="path9809"
         d="M79,43l57,119c0,0,21-96,104-96s124,106,124,106l43-133l82-17L0,17L79,43z" />
      <path
         id="path9811"
         d="M94,176l-21,39"
         stroke-width="20"
         stroke="#000000"
         fill="none" />
      <path
         id="path9813"
         d="M300,19c0,10.5-22.6,19-50.5,19S199,29.5,199,19s22.6-19,50.5-19S300,8.5,300,19z" />
      <path
         id="path9815"
         d="M112,216l-16-38L64,88c0,0-9-8-4-35s16-24,16-24"
         stroke-width="20"
         stroke="#000000"
         ill="none" />
    </symbol>
    <defs
       id="defs48974" />
    <clipPath
       clipPathUnits="userSpaceOnUse"
       id="clipPath3505">
      <path
         d="M 0,800 H 800 V 0 H 0 Z"
         id="path3503" />
    </clipPath>
    <clipPath
       clipPathUnits="userSpaceOnUse"
       id="clipPath3637">
      <path
         d="M 0,800 H 800 V 0 H 0 Z"
         id="path3635" />
    </clipPath>
  </defs>
  <g
     id="layer1">
    <circle
       style="fill:#ffb347;fill-opacity:1;stroke:#ffffff;stroke-width:0.2;stroke-miterlimit:4;stroke-dasharray:none;stroke-opacity:1"
       id="path846"
       cx="8.4666662"
       cy="8.4666662"
       r="8" />
    <g
       id="g8948"
       transform="matrix(0.78571429,0,0,0.78571429,2.9666666,2.9666666)">
      <rect
         style="visibility:hidden;fill:none;stroke:none"
         id="canvas"
         y="0"
         x="0"
         height="14"
         width="14" />
      <path
         id="path4166"
         d="M 5.5,0.50781255 A 1.5,1.5 0 0 0 4,2.0078125 a 1.5,1.5 0 0 0 1.5,1.5 1.5,1.5 0 0 0 1.5,-1.5 1.5,1.5 0 0 0 -1.5,-1.49999995 z m 4.5,0.98437495 -2,1 3,6 2,-1 z m -2,2 -2,1 L 6.2949219,5.9628906 4,7.4921875 l -3,-1 v 1 l 3,2 L 6.6464844,7.7265625 7,9.4921875 l 3,-1 z m -7,5 V 13.492188 H 2 V 8.4921875 Z m 9,1 -3,1.0000005 -2,3 h 1.8339844 l 1.53125,-2 0.6347656,2 h 2 z"
         style="fill:#ffffff;fill-opacity:1;fill-rule:evenodd;stroke:none;stroke-opacity:1" />
    </g>
  </g>
</svg>
