<?xml version="1.0" encoding="UTF-8" standalone="no"?>
<!-- Created with Inkscape (http://www.inkscape.org/) -->

<svg
   width="64"
   height="64"
   viewBox="0 0 16.933333 16.933333"
   version="1.1"
   id="svg1921"
   inkscape:version="1.1.1 (c3084ef, 2021-09-22)"
   sodipodi:docname="toilets v2.svg"
   xmlns:inkscape="http://www.inkscape.org/namespaces/inkscape"
   xmlns:sodipodi="http://sodipodi.sourceforge.net/DTD/sodipodi-0.dtd"
   xmlns="http://www.w3.org/2000/svg"
   xmlns:svg="http://www.w3.org/2000/svg">
  <sodipodi:namedview
     id="namedview1923"
     pagecolor="#ffffff"
     bordercolor="#666666"
     borderopacity="1.0"
     inkscape:pageshadow="2"
     inkscape:pageopacity="0.0"
     inkscape:pagecheckerboard="0"
     inkscape:document-units="mm"
     showgrid="false"
     inkscape:zoom="1.5322136"
     inkscape:cx="-7.505481"
     inkscape:cy="-6.2001799"
     inkscape:window-width="1440"
     inkscape:window-height="777"
     inkscape:window-x="0"
     inkscape:window-y="25"
     inkscape:window-maximized="1"
     inkscape:current-layer="g199354"
     units="px"
     width="64px" />
  <defs
     id="defs1918" />
  <g
     inkscape:label="Calque 1"
     inkscape:groupmode="layer"
     id="layer1"
     transform="translate(-123.85915,-134.83979)">
    <g
       id="g199354"
       transform="translate(73.509698,-66.233712)"
       inkscape:export-filename="/Users/fred/Documents/pictos carte/proposition pictos et couleurs.png"
       inkscape:export-xdpi="96"
       inkscape:export-ydpi="96">
      <circle
         style="fill:#5a8cd2;fill-opacity:1;stroke:#ffffff;stroke-width:0.2;stroke-miterlimit:4;stroke-dasharray:none;stroke-opacity:1"
         id="path1607"
         cx="58.81612"
         cy="209.54016"
         r="8" />
      <path
         style="fill:#ffffff;stroke-width:0.0277906;fill-opacity:1"
         d="m 56.983789,213.71153 -1.896388,-1.04624 -6.57e-4,-0.95878 -6.57e-4,-0.95878 -0.650602,-0.35665 c -0.357831,-0.19615 -0.671622,-0.37201 -0.697313,-0.3908 -0.04102,-0.03 0.03984,-0.1182 0.663835,-0.72414 l 0.710547,-0.68998 0.979619,-0.53802 c 0.53879,-0.29592 0.98632,-0.53763 0.994511,-0.53714 0.02742,0.002 0.35969,0.48105 0.347301,0.50109 -0.0067,0.0109 -0.392849,0.22441 -0.858059,0.47451 -0.46521,0.2501 -0.835524,0.46536 -0.822918,0.47834 0.0126,0.013 0.683831,0.38503 1.491614,0.82677 l 1.468695,0.80317 h 0.199246 0.199245 l 1.474794,-0.81288 c 0.811136,-0.44708 1.474769,-0.81913 1.474739,-0.82677 -2.8e-5,-0.008 -0.369774,-0.21335 -0.821651,-0.45712 -0.451878,-0.24377 -0.838889,-0.45637 -0.860025,-0.47244 -0.03107,-0.0236 -0.0064,-0.0718 0.128811,-0.25154 0.09198,-0.12229 0.177308,-0.23246 0.189615,-0.24483 0.01231,-0.0124 0.464961,0.22116 1.005896,0.51899 l 0.983518,0.54149 0.701715,0.68581 c 0.385943,0.3772 0.701715,0.69571 0.701715,0.70781 0,0.0121 -0.290759,0.18101 -0.646133,0.37535 -0.355374,0.19435 -0.664893,0.3712 -0.68782,0.393 -0.03531,0.0336 -0.04214,0.18188 -0.04464,0.97029 -0.0016,0.51185 -0.0088,0.93646 -0.01591,0.94359 -0.01701,0.017 -3.803546,2.09871 -3.810729,2.095 -0.003,-0.001 -0.858894,-0.47366 -1.901907,-1.0491 z m 1.604586,-1.34211 v -1.50475 l -0.582815,0.57376 c -0.320548,0.31558 -0.593924,0.57378 -0.607503,0.57378 -0.01358,0 -0.292188,-0.14783 -0.619133,-0.32851 -0.326944,-0.18068 -0.704117,-0.38817 -0.838162,-0.46109 l -0.243718,-0.1326 0.0075,0.60247 0.0075,0.60247 1.417326,0.78746 c 0.779529,0.4331 1.426704,0.78843 1.438168,0.78961 0.01146,0.001 0.02084,-0.67498 0.02084,-1.5026 z m 2.070406,0.71636 1.417325,-0.78684 0.0075,-0.58802 c 0.0041,-0.32341 5.36e-4,-0.58802 -0.0079,-0.58802 -0.0085,0 -0.391955,0.20758 -0.852136,0.46128 l -0.836693,0.46129 -0.572932,-0.57245 c -0.315113,-0.31484 -0.582202,-0.57244 -0.593532,-0.57244 -0.01133,0 -0.0206,0.66906 -0.0206,1.4868 0,0.81774 0.0094,1.48645 0.02084,1.48602 0.01146,-4.9e-4 0.658639,-0.35486 1.438168,-0.78762 z m -1.830869,-4.19308 c -0.173073,-0.44628 -0.393169,-0.78433 -0.962074,-1.47768 -0.502221,-0.61208 -0.66972,-0.91047 -0.762067,-1.35755 -0.183607,-0.8889 0.247852,-1.74626 1.073137,-2.13246 0.5021,-0.23496 1.102572,-0.21726 1.634257,0.0482 0.282812,0.14119 0.642145,0.49586 0.787513,0.77729 0.268843,0.52049 0.286769,1.18901 0.0468,1.74527 -0.09179,0.21277 -0.380524,0.62714 -0.726173,1.04215 -0.474039,0.56917 -0.800283,1.10126 -0.915873,1.49375 -0.01913,0.065 -0.04402,0.11811 -0.0553,0.11811 -0.01129,0 -0.06538,-0.11567 -0.120214,-0.25706 z m 0.416992,-2.68342 c 0.132458,-0.0676 0.277798,-0.22442 0.337838,-0.36459 0.02339,-0.0546 0.04293,-0.17491 0.04342,-0.26734 0.0029,-0.53841 -0.562006,-0.86636 -1.042128,-0.60504 -0.521872,0.28404 -0.460154,1.06491 0.100574,1.27248 0.14972,0.0554 0.415003,0.0386 0.560296,-0.0355 z"
         id="path1026" />
    </g>
  </g>
</svg>
