<?xml version="1.0" encoding="UTF-8" standalone="no"?>
<!-- Created with Inkscape (http://www.inkscape.org/) -->

<svg
   width="64"
   height="64"
   viewBox="0 0 16.933333 16.933334"
   version="1.1"
   id="svg5"
   inkscape:version="1.1.1 (c3084ef, 2021-09-22)"
   sodipodi:docname="pharmacy_64.svg"
   xmlns:inkscape="http://www.inkscape.org/namespaces/inkscape"
   xmlns:sodipodi="http://sodipodi.sourceforge.net/DTD/sodipodi-0.dtd"
   xmlns="http://www.w3.org/2000/svg"
   xmlns:svg="http://www.w3.org/2000/svg">
  <sodipodi:namedview
     id="namedview7"
     pagecolor="#ffffff"
     bordercolor="#666666"
     borderopacity="1.0"
     inkscape:pageshadow="2"
     inkscape:pageopacity="0.0"
     inkscape:pagecheckerboard="0"
     inkscape:document-units="mm"
     showgrid="false"
     units="px"
     inkscape:zoom="3.7494157"
     inkscape:cx="15.202369"
     inkscape:cy="40.406296"
     inkscape:window-width="1323"
     inkscape:window-height="781"
     inkscape:window-x="72"
     inkscape:window-y="25"
     inkscape:window-maximized="0"
     inkscape:current-layer="layer1" />
  <defs
     id="defs2">
    <inkscape:perspective
       sodipodi:type="inkscape:persp3d"
       inkscape:vp_x="0 : 526.18109 : 1"
       inkscape:vp_y="0 : 1000 : 0"
       inkscape:vp_z="744.09448 : 526.18109 : 1"
       inkscape:persp3d-origin="372.04724 : 350.78739 : 1"
       id="perspective10" />
    <inkscape:perspective
       id="perspective2461"
       inkscape:persp3d-origin="10 : 6.6666667 : 1"
       inkscape:vp_z="20 : 10 : 1"
       inkscape:vp_y="0 : 1000 : 0"
       inkscape:vp_x="0 : 10 : 1"
       sodipodi:type="inkscape:persp3d" />
    <inkscape:perspective
       id="perspective2466"
       inkscape:persp3d-origin="400 : 200 : 1"
       inkscape:vp_z="800 : 300 : 1"
       inkscape:vp_y="0 : 1000 : 0"
       inkscape:vp_x="0 : 300 : 1"
       sodipodi:type="inkscape:persp3d" />
  </defs>
  <g
     inkscape:label="Calque 1"
     inkscape:groupmode="layer"
     id="layer1">
    <circle
       style="fill:#be2b22;stroke-width:0.2;fill-opacity:1;stroke:#ffffff;stroke-opacity:1;stroke-miterlimit:4;stroke-dasharray:none"
       id="path846"
       cx="8.4666662"
       cy="8.4666662"
       r="8" />
    <g
       style="fill:#ffffff;stroke-width:1.00157;stroke-miterlimit:4;stroke-dasharray:none;fill-opacity:1"
       id="g1038"
       transform="matrix(0.45833333,0,0,0.45833333,2.9666667,2.9666667)">
      <g
         id="g1016"
         style="stroke-width:1.00157;stroke-miterlimit:4;stroke-dasharray:none;fill:none;fill-opacity:1">
        <path
           d="M 0,0 H 24 V 24 H 0 Z"
           fill="none"
           id="path1014"
           style="stroke-width:1.00157;stroke-miterlimit:4;stroke-dasharray:none;fill:none;fill-opacity:1" />
      </g>
      <g
         id="g1024"
         style="stroke-width:1.00157;stroke-miterlimit:4;stroke-dasharray:none;fill:#ffffff;fill-opacity:1"
         transform="matrix(1.2121212,0,0,1.2121212,-2.5454544,-2.5454544)">
        <g
           id="g1022"
           style="stroke-width:1.00157;stroke-miterlimit:4;stroke-dasharray:none;fill:#ffffff;fill-opacity:1">
          <path
             d="M 17,3 H 7 C 6.45,3 6,3.45 6,4 v 0 c 0,0.55 0.45,1 1,1 h 10 c 0.55,0 1,-0.45 1,-1 V 4 C 18,3.45 17.55,3 17,3 Z"
             id="path1018"
             style="stroke-width:1.00157;stroke-miterlimit:4;stroke-dasharray:none;fill:#ffffff;fill-opacity:1" />
          <path
             d="M 17,6 H 7 C 5.9,6 5,6.9 5,8 v 11 c 0,1.1 0.9,2 2,2 h 10 c 1.1,0 2,-0.9 2,-2 V 8 C 19,6.9 18.1,6 17,6 Z m -2.5,9 h -1 v 1 c 0,0.83 -0.67,1.5 -1.5,1.5 v 0 c -0.83,0 -1.5,-0.67 -1.5,-1.5 v -1 h -1 C 8.67,15 8,14.33 8,13.5 v 0 C 8,12.67 8.67,12 9.5,12 h 1 v -1 c 0,-0.83 0.67,-1.5 1.5,-1.5 v 0 c 0.83,0 1.5,0.67 1.5,1.5 v 1 h 1 c 0.83,0 1.5,0.67 1.5,1.5 v 0 c 0,0.83 -0.67,1.5 -1.5,1.5 z"
             id="path1020"
             style="stroke-width:1.00157;stroke-miterlimit:4;stroke-dasharray:none;fill:#ffffff;fill-opacity:1" />
        </g>
      </g>
    </g>
  </g>
</svg>
