<?xml version="1.0" encoding="UTF-8" standalone="no"?>
<!-- Created with Inkscape (http://www.inkscape.org/) -->

<svg
   width="64"
   height="64"
   viewBox="0 0 16.933333 16.933334"
   version="1.1"
   id="svg5"
   xmlns="http://www.w3.org/2000/svg"
   xmlns:svg="http://www.w3.org/2000/svg">
  <defs
     id="defs2">
    <symbol
       id="symbol-university"
       viewBox="244.5 110 489 219.9">
      <path
         d="M79,43l57,119c0,0,21-96,104-96s124,106,124,106l43-133l82-17L0,17L79,43z"
         id="path4460" />
      <path
         fill="none"
         stroke="#000000"
         stroke-width="20"
         d="M94,176l-21,39"
         id="path4462" />
      <path
         d="M300,19c0,10.5-22.6,19-50.5,19S199,29.5,199,19s22.6-19,50.5-19S300,8.5,300,19z"
         id="path4464" />
      <path
         ill="none"
         stroke="#000000"
         stroke-width="20"
         d="M112,216l-16-38L64,88c0,0-9-8-4-35s16-24,16-24"
         id="path4466" />
    </symbol>
    <symbol
       viewBox="244.5 110 489 219.9"
       id="symbol9807">
      <path
         id="path9809"
         d="M79,43l57,119c0,0,21-96,104-96s124,106,124,106l43-133l82-17L0,17L79,43z" />
      <path
         id="path9811"
         d="M94,176l-21,39"
         stroke-width="20"
         stroke="#000000"
         fill="none" />
      <path
         id="path9813"
         d="M300,19c0,10.5-22.6,19-50.5,19S199,29.5,199,19s22.6-19,50.5-19S300,8.5,300,19z" />
      <path
         id="path9815"
         d="M112,216l-16-38L64,88c0,0-9-8-4-35s16-24,16-24"
         stroke-width="20"
         stroke="#000000"
         ill="none" />
    </symbol>
    <defs
       id="defs48974" />
  </defs>
  <g
     id="layer1">
    <circle
       style="fill:#ffb347;stroke-width:0.2;fill-opacity:1;stroke:#ffffff;stroke-opacity:1;stroke-miterlimit:4;stroke-dasharray:none"
       id="path846"
       cx="8.4666662"
       cy="8.4666662"
       r="8" />
    <g
       id="g1870"
       transform="matrix(0.6875,0,0,0.6875,2.9666667,2.9666667)">
      <rect
         width="16"
         height="16"
         x="0"
         y="0"
         id="canvas"
         style="visibility:hidden;fill:none;stroke:none" />
      <g
         id="g2053"
         transform="scale(1.1428571)">
        <rect
           id="canvas-8"
           width="14"
           height="14"
           fill="none"
           visibility="hidden"
           x="0"
           y="0" />
        <g
           id="g2267"
           transform="matrix(1.0015454,0,0,1.0015454,-1.8377987e-7,24.893034)">
          <path
             d="m 2.3526121,-20.610873 c -1.7179921,0.0156 -1.7179921,0.193204 -1.7171972,1.815279 l 0.0133428,5.46579 c -0.0141228,1.779265 -0.0141228,1.779265 1.7322909,1.810791 l 9.1550314,-0.03288 c 1.761334,0.0013 1.761334,0.0013 1.806937,-1.824681 l -0.0011,-5.412636 c -0.04443,-1.806175 -0.04443,-1.806175 -1.806338,-1.813495 z m 5.5178869,0.934103 c 1.9981329,0 3.61794,1.619808 3.61794,3.617942 0,1.998132 -1.6198071,3.617938 -3.61794,3.617938 -1.9981329,0 -3.6179396,-1.619806 -3.6179396,-3.617938 0,-1.998134 1.6198067,-3.617942 3.6179396,-3.617942 z m -5.4417197,-2.744514 h 0.9341055 c 0.8896746,0.01694 0.8896746,0.921412 0.9182373,1.363606 l -2.6965284,0.02962 c -0.04549,-0.471814 -0.04549,-1.3763 0.8441856,-1.393225 z m 7.7087507,6.382701 c 0,1.248834 -1.0123797,2.261215 -2.2612128,2.261215 -1.248833,0 -2.2612124,-1.012378 -2.2612122,-2.261215 0,-1.248831 1.0123794,-2.261211 2.2612122,-2.261211 1.2488329,0 2.2612128,1.01238 2.2612128,2.261211 z m -1.3614885,-7.286127 -0.015495,2.355564 4.5509875,-0.01452 0.0155,-2.444835 c -0.02962,-0.784944 -0.02962,-0.784944 -0.918229,-0.783179 l -2.678136,0.01103 c -0.9556779,-0.01291 -0.9556779,-0.01291 -0.9546202,0.875739 z m 0.9975582,0.04372 2.6352233,-0.0156 0.0303,1.796224 -2.63658,0.01452 z"
             style="fill:#ffffff;fill-opacity:1;stroke:none;stroke-width:0.904486"
             id="photo" />
        </g>
      </g>
    </g>
  </g>
</svg>
