<?xml version="1.0" encoding="UTF-8" standalone="no"?>
<svg
   xmlns:dc="http://purl.org/dc/elements/1.1/"
   xmlns:cc="http://creativecommons.org/ns#"
   xmlns:rdf="http://www.w3.org/1999/02/22-rdf-syntax-ns#"
   xmlns:svg="http://www.w3.org/2000/svg"
   xmlns="http://www.w3.org/2000/svg"
   xmlns:sodipodi="http://sodipodi.sourceforge.net/DTD/sodipodi-0.dtd"
   xmlns:inkscape="http://www.inkscape.org/namespaces/inkscape"
   viewBox="0 0 64 64"
   version="1.1"
   id="svg21785"
   sodipodi:docname="post_office_64.svg"
   width="64"
   height="64"
   inkscape:version="1.0.2 (e86c8708, 2021-01-15)">
  <metadata
     id="metadata21791">
    <rdf:RDF>
      <cc:Work
         rdf:about="">
        <dc:format>image/svg+xml</dc:format>
        <dc:type
           rdf:resource="http://purl.org/dc/dcmitype/StillImage" />
        <dc:title></dc:title>
      </cc:Work>
    </rdf:RDF>
  </metadata>
  <defs
     id="defs21789" />
  <sodipodi:namedview
     pagecolor="#ffffff"
     bordercolor="#666666"
     borderopacity="1"
     objecttolerance="10"
     gridtolerance="10"
     guidetolerance="10"
     inkscape:pageopacity="0"
     inkscape:pageshadow="2"
     inkscape:window-width="1440"
     inkscape:window-height="855"
     id="namedview21787"
     showgrid="false"
     inkscape:zoom="3.6957378"
     inkscape:cx="16"
     inkscape:cy="16"
     inkscape:window-x="0"
     inkscape:window-y="23"
     inkscape:window-maximized="1"
     inkscape:current-layer="svg21785" />
  <path
     id="Ellipse_584"
     style="fill:#ffb347;fill-opacity:1;stroke-width:0.629297"
     d="M 63.464872,32 A 31.464872,31.464872 0 0 1 32,63.464872 31.464872,31.464872 0 0 1 0.53512764,32 31.464872,31.464872 0 0 1 32,0.53512764 31.464872,31.464872 0 0 1 63.464872,32 Z"
     class="st0" />
  <path
     style="line-height:normal;-inkscape-font-specification:'Bitstream Vera Sans';text-indent:0;text-align:start;text-transform:none;fill:#ffffff;fill-opacity:1;stroke-width:1.57561"
     d="m 32.000001,12.594449 -0.590854,0.246188 -18.907303,7.878044 -0.984755,0.443139 v 1.033993 23.634129 1.575609 h 1.575609 37.814606 1.575607 V 45.829942 22.195813 21.16182 L 51.498157,20.718681 32.590854,12.840637 Z m 0,3.446643 17.331694,7.237953 V 44.254334 H 14.668306 V 23.279045 Z m -12.604869,7.73033 v 1.575609 14.180477 1.575609 h 1.575609 22.05852 1.575609 V 39.527508 25.347031 23.771422 h -1.575609 -22.05852 z m 5.416154,3.151217 h 14.377429 l -7.188714,4.431399 z m -2.264936,2.314175 8.616609,5.31768 0.837042,0.541615 0.837042,-0.541615 8.61661,-5.31768 v 8.715085 H 22.54635 Z"
     overflow="visible"
     font-family="'Bitstream Vera Sans'"
     id="path21783" />
</svg>
