<?xml version="1.0" encoding="UTF-8" standalone="no"?>
<svg
   xmlns:dc="http://purl.org/dc/elements/1.1/"
   xmlns:cc="http://creativecommons.org/ns#"
   xmlns:rdf="http://www.w3.org/1999/02/22-rdf-syntax-ns#"
   xmlns:svg="http://www.w3.org/2000/svg"
   xmlns="http://www.w3.org/2000/svg"
   xmlns:sodipodi="http://sodipodi.sourceforge.net/DTD/sodipodi-0.dtd"
   xmlns:inkscape="http://www.inkscape.org/namespaces/inkscape"
   width="64"
   height="64"
   viewBox="0 0 16.933333 16.933334"
   version="1.1"
   id="svg5"
   inkscape:version="1.0.2 (e86c8708, 2021-01-15)"
   sodipodi:docname="reception_desk_64.svg">
  <metadata
     id="metadata18226">
    <rdf:RDF>
      <cc:Work
         rdf:about="">
        <dc:format>image/svg+xml</dc:format>
        <dc:type
           rdf:resource="http://purl.org/dc/dcmitype/StillImage" />
        <dc:title></dc:title>
      </cc:Work>
    </rdf:RDF>
  </metadata>
  <sodipodi:namedview
     id="namedview7"
     pagecolor="#ffffff"
     bordercolor="#666666"
     borderopacity="1.0"
     inkscape:pageshadow="2"
     inkscape:pageopacity="0.0"
     inkscape:pagecheckerboard="0"
     inkscape:document-units="mm"
     showgrid="false"
     units="px"
     inkscape:zoom="1.4931804"
     inkscape:cx="36.831863"
     inkscape:cy="20.091343"
     inkscape:window-width="1440"
     inkscape:window-height="776"
     inkscape:window-x="64"
     inkscape:window-y="34"
     inkscape:window-maximized="0"
     inkscape:current-layer="layer1"
     inkscape:document-rotation="0" />
  <defs
     id="defs2">
    <inkscape:perspective
       sodipodi:type="inkscape:persp3d"
       inkscape:vp_x="0 : 526.18109 : 1"
       inkscape:vp_y="0 : 1000 : 0"
       inkscape:vp_z="744.09448 : 526.18109 : 1"
       inkscape:persp3d-origin="372.04724 : 350.78739 : 1"
       id="perspective10" />
    <inkscape:perspective
       id="perspective2461"
       inkscape:persp3d-origin="10 : 6.6666667 : 1"
       inkscape:vp_z="20 : 10 : 1"
       inkscape:vp_y="0 : 1000 : 0"
       inkscape:vp_x="0 : 10 : 1"
       sodipodi:type="inkscape:persp3d" />
    <inkscape:perspective
       id="perspective2466"
       inkscape:persp3d-origin="400 : 200 : 1"
       inkscape:vp_z="800 : 300 : 1"
       inkscape:vp_y="0 : 1000 : 0"
       inkscape:vp_x="0 : 300 : 1"
       sodipodi:type="inkscape:persp3d" />
    <inkscape:perspective
       sodipodi:type="inkscape:persp3d"
       inkscape:vp_x="0 : 290 : 1"
       inkscape:vp_y="0 : 1000 : 0"
       inkscape:vp_z="580 : 290 : 1"
       inkscape:persp3d-origin="290 : 193.33333 : 1"
       id="perspective2441" />
    <inkscape:perspective
       id="perspective3452"
       inkscape:persp3d-origin="30 : 20 : 1"
       inkscape:vp_z="60 : 30 : 1"
       inkscape:vp_y="0 : 1000 : 0"
       inkscape:vp_x="0 : 30 : 1"
       sodipodi:type="inkscape:persp3d" />
    <symbol
       viewBox="244.5 110 489 219.9"
       id="symbol-university">
      <path
         id="path4460"
         d="M79,43l57,119c0,0,21-96,104-96s124,106,124,106l43-133l82-17L0,17L79,43z" />
      <path
         id="path4462"
         d="M94,176l-21,39"
         stroke-width="20"
         stroke="#000000"
         fill="none" />
      <path
         id="path4464"
         d="M300,19c0,10.5-22.6,19-50.5,19S199,29.5,199,19s22.6-19,50.5-19S300,8.5,300,19z" />
      <path
         id="path4466"
         d="M112,216l-16-38L64,88c0,0-9-8-4-35s16-24,16-24"
         stroke-width="20"
         stroke="#000000"
         ill="none" />
    </symbol>
    <inkscape:perspective
       id="perspective4471"
       inkscape:persp3d-origin="372.04724 : 350.78739 : 1"
       inkscape:vp_z="744.09448 : 526.18109 : 1"
       inkscape:vp_y="0 : 1000 : 0"
       inkscape:vp_x="0 : 526.18109 : 1"
       sodipodi:type="inkscape:persp3d" />
    <inkscape:perspective
       id="perspective4668"
       inkscape:persp3d-origin="6 : 4 : 1"
       inkscape:vp_z="12 : 6 : 1"
       inkscape:vp_y="0 : 1000 : 0"
       inkscape:vp_x="0 : 6 : 1"
       sodipodi:type="inkscape:persp3d" />
  </defs>
  <g
     inkscape:label="Calque 1"
     inkscape:groupmode="layer"
     id="layer1">
    <g
       id="g18853">
      <circle
         style="fill:#b1c2cf;stroke-width:0.2;fill-opacity:1;stroke:#ffffff;stroke-opacity:1;stroke-miterlimit:4;stroke-dasharray:none"
         id="path846"
         cx="8.4666662"
         cy="8.4666662"
         r="8" />
      <path
         d="m 7.2915997,3.4008487 c -0.648973,0 -1.175069,0.5670109 -1.175069,1.2664536 0,0.6994446 0.526096,1.2664555 1.175069,1.2664555 0.648971,0 1.175067,-0.5670109 1.175067,-1.2664555 0,-0.6994427 -0.526096,-1.2664536 -1.175067,-1.2664536 z m 0,3.0394901 c -1.606553,0 -2.115122,1.013164 -2.115122,1.013164 v 0.5065806 h 4.230244 V 7.4535028 c 0,0 -0.508571,-1.013164 -2.115122,-1.013164 z m 3.7602153,0 c -0.129789,0 -0.235012,0.1134041 -0.235012,0.2532915 0,0.1398836 0.105221,0.2532896 0.235012,0.2532896 0.12979,0 0.235015,-0.1134041 0.235015,-0.2532896 0,-0.1398835 -0.105221,-0.2532915 -0.235015,-0.2532915 z m 0,0.7598726 c -0.389182,0 -0.70504,0.3404229 -0.70504,0.759872 h 1.410081 c 0,-0.4194491 -0.315858,-0.759872 -0.705041,-0.759872 z m -7.2854193,1.266454 v 1.013164 h 9.4005413 v -1.013164 z m 0.470026,1.5197454 V 13.532484 H 12.696911 V 9.9864108 Z"
         id="path17637"
         style="fill:#ffffff;fill-opacity:1;stroke-width:0.487962" />
    </g>
  </g>
</svg>
