<?xml version="1.0" encoding="UTF-8" standalone="no"?>
<!-- Created with Inkscape (http://www.inkscape.org/) -->

<svg
   width="64"
   height="64"
   viewBox="0 0 16.933333 16.933334"
   version="1.1"
   id="svg5"
   inkscape:version="1.1.1 (c3084ef, 2021-09-22)"
   sodipodi:docname="restaurant_64.svg"
   xmlns:inkscape="http://www.inkscape.org/namespaces/inkscape"
   xmlns:sodipodi="http://sodipodi.sourceforge.net/DTD/sodipodi-0.dtd"
   xmlns="http://www.w3.org/2000/svg"
   xmlns:svg="http://www.w3.org/2000/svg">
  <sodipodi:namedview
     id="namedview7"
     pagecolor="#ffffff"
     bordercolor="#666666"
     borderopacity="1.0"
     inkscape:pageshadow="2"
     inkscape:pageopacity="0.0"
     inkscape:pagecheckerboard="0"
     inkscape:document-units="mm"
     showgrid="false"
     units="px"
     inkscape:zoom="4.7570447"
     inkscape:cx="33.213899"
     inkscape:cy="33.949649"
     inkscape:window-width="1323"
     inkscape:window-height="785"
     inkscape:window-x="164"
     inkscape:window-y="25"
     inkscape:window-maximized="0"
     inkscape:current-layer="layer1" />
  <defs
     id="defs2">
    <inkscape:perspective
       sodipodi:type="inkscape:persp3d"
       inkscape:vp_x="0 : 526.18109 : 1"
       inkscape:vp_y="0 : 1000 : 0"
       inkscape:vp_z="744.09448 : 526.18109 : 1"
       inkscape:persp3d-origin="372.04724 : 350.78739 : 1"
       id="perspective10" />
    <inkscape:perspective
       id="perspective2461"
       inkscape:persp3d-origin="10 : 6.6666667 : 1"
       inkscape:vp_z="20 : 10 : 1"
       inkscape:vp_y="0 : 1000 : 0"
       inkscape:vp_x="0 : 10 : 1"
       sodipodi:type="inkscape:persp3d" />
    <inkscape:perspective
       id="perspective2466"
       inkscape:persp3d-origin="400 : 200 : 1"
       inkscape:vp_z="800 : 300 : 1"
       inkscape:vp_y="0 : 1000 : 0"
       inkscape:vp_x="0 : 300 : 1"
       sodipodi:type="inkscape:persp3d" />
  </defs>
  <g
     inkscape:label="Calque 1"
     inkscape:groupmode="layer"
     id="layer1">
    <circle
       style="fill:#fa8435;fill-opacity:1;stroke:#ffffff;stroke-width:0.2;stroke-miterlimit:4;stroke-dasharray:none;stroke-opacity:1"
       id="path846"
       cx="8.4666662"
       cy="8.4666662"
       r="8" />
    <g
       id="g1107"
       transform="matrix(0.23090086,0,0,0.23090086,4.3051229,-4.3528256)">
      <g
         id="g1191"
         transform="matrix(2.7480486,0,0,2.7480486,-10.870197,29.393645)"
         style="fill:#ffffff;fill-opacity:1">
        <path
           id="path2453"
           d="m 12.513304,4.686131 c -0.70697,0.7073233 -1.413941,1.4142938 -0.70697,2.1212643 -0.693212,0.6935649 -5.7460758,5.7460747 -7.7784398,7.7784387 -0.70697,0.707324 -1.413941,1.414294 -0.706617,2.121265 0.707323,0.70697 1.413588,3.52e-4 2.120911,-0.706971 1.414294,-1.414294 6.3641458,-6.3637917 7.7780868,-7.7784388 0.707323,0.7073233 1.406533,-0.00706 2.113856,-0.7140262 l 2.54848,-2.5410721 3.53e-4,-3.528e-4 c 0.156282,-0.1566342 0.155929,-0.4106356 -3.53e-4,-0.566917 -0.156281,-0.1559286 -0.410282,-0.1566342 -0.566564,0 h -3.52e-4 l -2.261318,2.2616707 c -0.156282,0.1562814 -0.410636,0.1562814 -0.566917,0 -0.156282,-0.1562814 -0.156282,-0.4106356 0,-0.566917 l 2.261318,-2.2616707 v 0 c 0.156634,-0.1566342 0.156281,-0.4106355 0,-0.566917 C 16.592496,3.1092057 16.338495,3.108853 16.181861,3.2651344 v 3.527e-4 l -2.261318,2.2616707 c -0.156635,0.1562814 -0.410636,0.1559286 -0.566917,-3.528e-4 -0.156282,-0.1562814 -0.156282,-0.4102828 0,-0.566917 l 2.261318,-2.2613178 v -3.528e-4 c 0.156281,-0.1562814 0.156281,-0.4106356 0,-0.566917 -0.156282,-0.1562814 -0.410636,-0.1562814 -0.566917,0 v 0 z"
           style="fill:#ffffff;fill-opacity:1" />
        <path
           id="path2455"
           d="m 4.6851885,6.1317197 c 0.6608991,1.2635193 1.293763,2.3452582 2.7627125,2.760028 0.693212,0.6935648 5.105506,5.0757273 7.138222,7.1084443 0.706971,0.706971 1.413941,1.413941 2.120912,0.706971 0.70697,-0.707677 7.05e-4,-1.413941 -0.706971,-2.121265 C 14.586123,13.171604 9.6362713,8.2217534 8.2219783,6.8074595 L 6.8480441,5.4810084 4.1740944,2.8513636 C 2.702698,1.4756568 4.6851885,6.1317197 4.6851885,6.1317197 Z"
           style="fill:#ffffff;fill-opacity:1"
           sodipodi:nodetypes="ccscccccc" />
      </g>
    </g>
  </g>
</svg>
