<?xml version="1.0" encoding="UTF-8" standalone="no"?>
<!-- Created with Inkscape (http://www.inkscape.org/) -->

<svg
   width="64"
   height="64"
   viewBox="0 0 16.933333 16.933334"
   version="1.1"
   id="svg5"
   xmlns="http://www.w3.org/2000/svg"
   xmlns:svg="http://www.w3.org/2000/svg">
  <defs
     id="defs2">
    <symbol
       id="symbol-university"
       viewBox="244.5 110 489 219.9">
      <path
         d="M79,43l57,119c0,0,21-96,104-96s124,106,124,106l43-133l82-17L0,17L79,43z"
         id="path4460" />
      <path
         fill="none"
         stroke="#000000"
         stroke-width="20"
         d="M94,176l-21,39"
         id="path4462" />
      <path
         d="M300,19c0,10.5-22.6,19-50.5,19S199,29.5,199,19s22.6-19,50.5-19S300,8.5,300,19z"
         id="path4464" />
      <path
         ill="none"
         stroke="#000000"
         stroke-width="20"
         d="M112,216l-16-38L64,88c0,0-9-8-4-35s16-24,16-24"
         id="path4466" />
    </symbol>
    <symbol
       viewBox="244.5 110 489 219.9"
       id="symbol9807">
      <path
         id="path9809"
         d="M79,43l57,119c0,0,21-96,104-96s124,106,124,106l43-133l82-17L0,17L79,43z" />
      <path
         id="path9811"
         d="M94,176l-21,39"
         stroke-width="20"
         stroke="#000000"
         fill="none" />
      <path
         id="path9813"
         d="M300,19c0,10.5-22.6,19-50.5,19S199,29.5,199,19s22.6-19,50.5-19S300,8.5,300,19z" />
      <path
         id="path9815"
         d="M112,216l-16-38L64,88c0,0-9-8-4-35s16-24,16-24"
         stroke-width="20"
         stroke="#000000"
         ill="none" />
    </symbol>
    <defs
       id="defs48974" />
  </defs>
  <g
     id="layer1">
    <circle
       style="fill:#ffb347;stroke-width:0.2;fill-opacity:1;stroke:#ffffff;stroke-opacity:1;stroke-miterlimit:4;stroke-dasharray:none"
       id="path846"
       cx="8.4666662"
       cy="8.4666662"
       r="8" />
    <g
       id="g1870"
       transform="matrix(0.6875,0,0,0.6875,2.9666667,2.9666667)">
      <rect
         width="16"
         height="16"
         x="0"
         y="0"
         id="canvas"
         style="visibility:hidden;fill:none;stroke:none" />
      <g
         id="g2053"
         transform="scale(1.1428571)">
        <rect
           id="canvas-8"
           width="14"
           height="14"
           fill="none"
           visibility="hidden"
           x="0"
           y="0" />
        <g
           id="g2267"
           transform="matrix(1.0015454,0,0,1.0015454,-1.8377987e-7,24.893034)">
          <path
             id="path4286"
             style="fill:#ffffff;fill-opacity:1;fill-rule:evenodd;stroke:none;stroke-width:0.030533;stroke-opacity:1"
             d="m 5.4911678,-23.593885 a 1.2686158,1.2607363 0 0 1 -1.2686161,1.260737 1.2686158,1.2607363 0 0 1 -1.268616,-1.260737 1.2686158,1.2607363 0 0 1 1.268616,-1.260737 1.2686158,1.2607363 0 0 1 1.2686161,1.260737 z m 6.8570152,8.565127 -2.6829785,0.689601 c -0.1095884,0.02827 -0.3523249,0.0033 -0.4442187,-0.01935 -0.2355049,-0.04566 -0.3032218,-0.155066 -0.3953811,-0.269446 l -1.2702175,-2.092975 -1.5968812,1.714088 0.6447524,3.204818 c 0.020626,0.06872 0.03093,0.125898 0.03093,0.171555 0,0.205724 -0.066518,0.382857 -0.1995836,0.531403 -0.1330687,0.148548 -0.2917456,0.222837 -0.4760979,0.222837 -0.3479524,0 -0.5630031,-0.200009 -0.6451852,-0.599977 l -0.782976,-3.890519 c -0.092159,-0.41148 -0.051252,-0.714327 0.1227587,-0.908574 L 6.0503346,-17.835122 4.5303139,-19.80602 3.54772,-18.709172 c -0.1024363,0.114023 -0.2202066,0.17105 -0.3533071,0.17105 -0.1739753,0 -0.3427968,-0.08563 -0.5064957,-0.256798 l -1.596883,-1.782624 c -0.08182,-0.11438 -0.12268395,-0.2401 -0.12274395,-0.377136 7.4e-5,-0.171198 0.0537499,-0.313985 0.16122795,-0.428374 0.107415,-0.114351 0.232868,-0.171556 0.3762224,-0.171556 0.1433995,0 0.2560237,0.04566 0.337843,0.137031 l 1.3204351,1.474505 1.5968814,-1.782588 c 0.1227587,-0.137417 0.2802987,-0.246261 0.4605996,-0.206141 l 3.47637,0.773828 c 0.15037,0.03348 0.2604197,0.175246 0.3728663,0.312639 l 0.7721874,1.33066 c 0.1227587,0.114023 0.1841876,0.256797 0.1841516,0.428374 2.5e-5,0.160067 -0.051116,0.297216 -0.1534537,0.411406 -0.1022696,0.114172 -0.2251295,0.171258 -0.3685391,0.171258 -0.1533553,0 -0.2864566,-0.06855 -0.3992035,-0.205575 l -0.8966158,-1.501707 -1.4566628,-0.246826 3.0218005,4.691118 2.4622084,-0.706899 c 0.194595,0 0.37216,0.03929 0.505261,0.176526 0.133033,0.137179 0.268238,0.258851 0.268238,0.475751 0,0.205724 -0.08481,0.384307 -0.21784,0.527135 -0.133069,0.142834 -0.264902,0.219296 -0.444078,0.265339 z" />
        </g>
      </g>
    </g>
  </g>
</svg>
