<?xml version="1.0" encoding="UTF-8" standalone="no"?>
<!-- Created with Inkscape (http://www.inkscape.org/) -->

<svg
   width="64"
   height="64"
   viewBox="0 0 16.933333 16.933333"
   version="1.1"
   id="svg5"
   inkscape:version="1.1.1 (c3084ef, 2021-09-22)"
   sodipodi:docname="stairs_64.svg"
   xmlns:inkscape="http://www.inkscape.org/namespaces/inkscape"
   xmlns:sodipodi="http://sodipodi.sourceforge.net/DTD/sodipodi-0.dtd"
   xmlns="http://www.w3.org/2000/svg"
   xmlns:svg="http://www.w3.org/2000/svg">
  <sodipodi:namedview
     id="namedview7"
     pagecolor="#ffffff"
     bordercolor="#666666"
     borderopacity="1.0"
     inkscape:pageshadow="2"
     inkscape:pageopacity="0.0"
     inkscape:pagecheckerboard="0"
     inkscape:document-units="mm"
     showgrid="false"
     inkscape:zoom="3.7854182"
     inkscape:cx="34.078137"
     inkscape:cy="32.889365"
     inkscape:window-width="1323"
     inkscape:window-height="791"
     inkscape:window-x="95"
     inkscape:window-y="25"
     inkscape:window-maximized="0"
     inkscape:current-layer="g3787"
     units="px"
     inkscape:snap-bbox="true"
     inkscape:bbox-paths="false" />
  <defs
     id="defs2" />
  <g
     inkscape:label="Calque 1"
     inkscape:groupmode="layer"
     id="layer1"
     transform="translate(-94.915642,-102.74516)">
    <g
       id="g3787"
       transform="matrix(0.8,0,0,0.8,25.986143,-98.603912)">
      <circle
         style="fill:#c2a9d4;fill-opacity:1;stroke:#ffffff;stroke-width:0.25;stroke-opacity:1;stroke-miterlimit:4;stroke-dasharray:none"
         id="circle198244"
         cx="96.745209"
         cy="262.26968"
         r="10" />
      <g
         id="g920"
         transform="matrix(0.89655985,0,0,0.89655985,10.640193,27.91304)">
        <g
           id="g199291"
           transform="translate(-8.9958338,0.35210849)">
          <polygon
             points="63.755,27.567 63.755,46.068 45.524,46.068 45.524,64.46 27.184,64.46 27.184,83.077 0,83.077 0,73.687 18.232,73.687 18.232,55.184 36.298,55.184 36.298,36.519 54.694,36.519 54.694,18.23 72.924,18.23 72.924,0 100,0 100,9.279 81.984,9.279 81.984,27.567 "
             id="polygon198235"
             transform="matrix(0.13,0,0,0.13,98.657707,256.28634)"
             style="fill:#ffffff" />
        </g>
        <g
           id="g3633"
           transform="matrix(-0.08219464,0,0,0.08219464,121.95084,245.47876)"
           style="fill:#ffffff;fill-opacity:1">
          <path
             style="fill:#ffffff;fill-opacity:1;stroke-width:0.302381"
             d="m 361.75487,141.47438 c -5.7567,-0.7573 -9.91865,-6.59919 -8.86532,-12.44372 1.06781,-5.9249 6.67606,-9.84665 12.45517,-8.70968 2.46038,0.48405 3.93354,1.26185 5.65636,2.98647 5.31177,5.31731 3.731,14.16482 -3.08631,17.27397 -2.08342,0.95018 -3.81587,1.20132 -6.1599,0.89296 z"
             id="path3451" />
          <path
             style="fill:#ffffff;fill-opacity:1;stroke-width:0.302381"
             d="m 380.75009,222.52492 c -3.04807,-4.64683 -5.65674,-8.89243 -5.79705,-9.43469 -0.1403,-0.54225 -0.47857,-7.10913 -0.7517,-14.59305 l -0.4966,-13.60715 -1.51375,-1.43631 c -0.83257,-0.78997 -1.67777,-1.43631 -1.87823,-1.43631 -0.47651,0 -13.25536,2.6672 -13.33606,2.7835 -0.034,0.049 -0.7664,6.60047 -1.62752,14.55879 -0.86113,7.95831 -1.64117,14.5918 -1.73343,14.74107 -0.0922,0.14927 -1.92604,0.27141 -4.07508,0.27141 h -3.90735 l -0.19145,-0.76279 c -0.2198,-0.87576 -0.28335,-0.20473 1.83839,-19.40996 1.45492,-13.16934 1.67619,-14.67077 2.28889,-15.53123 0.92335,-1.29674 1.62181,-1.53736 8.75265,-3.01538 3.40935,-0.70666 6.22906,-1.30619 6.26602,-1.33229 0.037,-0.0261 -1.02321,-2.62525 -2.35595,-5.77588 -1.33273,-3.15064 -2.66677,-6.31027 -2.96452,-7.0214 l -0.54137,-1.29296 -2.45005,3.40963 c -1.34753,1.8753 -2.73995,3.71955 -3.09426,4.09834 -0.35432,0.37878 -3.35555,2.04566 -6.6694,3.70416 -4.69729,2.35088 -6.29877,3.01547 -7.26653,3.01547 -3.17668,0 -4.94924,-3.17792 -3.22177,-5.77612 0.54388,-0.81801 1.82908,-1.60995 6.30472,-3.88498 l 5.6216,-2.85753 3.72054,-5.15557 c 4.28296,-5.93491 5.94942,-7.52755 9.82597,-9.39073 5.37781,-2.58473 13.65019,-5.28984 16.17662,-5.28984 0.86982,0 1.49259,0.45037 11.18886,8.09143 2.07887,1.63823 3.95725,3.34529 4.17418,3.79347 0.22101,0.4566 0.73051,4.55785 1.15886,9.3282 0.71918,8.00926 0.73498,8.57773 0.26685,9.60072 -0.9571,2.09154 -3.0904,2.92081 -4.97363,1.93339 -2.06431,-1.08235 -2.17202,-1.4396 -2.89626,-9.60544 -0.36211,-4.08282 -0.7219,-7.48684 -0.79954,-7.56448 -1.13858,-1.13858 -7.38393,-5.74782 -7.4426,-5.49284 -0.044,0.19123 1.01788,7.83163 2.35973,16.97865 l 2.43971,16.63095 0.47328,12.24643 0.47328,12.24643 5.36405,8.16429 c 6.23152,9.48461 6.35685,9.70788 6.35685,11.32427 v 1.22454 l -4.7625,-0.0147 -4.7625,-0.0147 -5.54195,-8.44877 z"
             id="path3449" />
        </g>
      </g>
    </g>
  </g>
</svg>
