<?xml version="1.0" encoding="UTF-8" standalone="no"?>
<!-- Created with Inkscape (http://www.inkscape.org/) -->

<svg
   width="64"
   height="64"
   viewBox="0 0 16.933333 16.933334"
   version="1.1"
   id="svg5"
   xmlns="http://www.w3.org/2000/svg"
   xmlns:svg="http://www.w3.org/2000/svg">
  <defs
     id="defs2">
    <symbol
       id="symbol-university"
       viewBox="244.5 110 489 219.9">
      <path
         d="M79,43l57,119c0,0,21-96,104-96s124,106,124,106l43-133l82-17L0,17L79,43z"
         id="path4460" />
      <path
         fill="none"
         stroke="#000000"
         stroke-width="20"
         d="M94,176l-21,39"
         id="path4462" />
      <path
         d="M300,19c0,10.5-22.6,19-50.5,19S199,29.5,199,19s22.6-19,50.5-19S300,8.5,300,19z"
         id="path4464" />
      <path
         ill="none"
         stroke="#000000"
         stroke-width="20"
         d="M112,216l-16-38L64,88c0,0-9-8-4-35s16-24,16-24"
         id="path4466" />
    </symbol>
    <symbol
       viewBox="244.5 110 489 219.9"
       id="symbol9807">
      <path
         id="path9809"
         d="M79,43l57,119c0,0,21-96,104-96s124,106,124,106l43-133l82-17L0,17L79,43z" />
      <path
         id="path9811"
         d="M94,176l-21,39"
         stroke-width="20"
         stroke="#000000"
         fill="none" />
      <path
         id="path9813"
         d="M300,19c0,10.5-22.6,19-50.5,19S199,29.5,199,19s22.6-19,50.5-19S300,8.5,300,19z" />
      <path
         id="path9815"
         d="M112,216l-16-38L64,88c0,0-9-8-4-35s16-24,16-24"
         stroke-width="20"
         stroke="#000000"
         ill="none" />
    </symbol>
    <defs
       id="defs48974" />
  </defs>
  <g
     id="layer1">
    <circle
       style="fill:#ffb347;stroke-width:0.2;fill-opacity:1;stroke:#ffffff;stroke-opacity:1;stroke-miterlimit:4;stroke-dasharray:none"
       id="path846"
       cx="8.4666662"
       cy="8.4666662"
       r="8" />
    <g
       id="g1870"
       transform="matrix(0.6875,0,0,0.6875,2.9666667,2.9666667)">
      <rect
         width="16"
         height="16"
         x="0"
         y="0"
         id="canvas"
         style="visibility:hidden;fill:none;stroke:none" />
      <g
         id="g2053"
         transform="scale(1.1428571)">
        <rect
           id="canvas-8"
           width="14"
           height="14"
           fill="none"
           visibility="hidden"
           x="0"
           y="0" />
        <g
           id="g2267"
           transform="matrix(1.0015454,0,0,1.0015454,-1.8377987e-7,24.893034)">
          <g
             id="g3198"
             transform="matrix(0.99845702,0,0,0.99845702,1.5526473e-7,-24.854624)">
            <rect
               width="14"
               height="14"
               x="0"
               y="0"
               id="canvas-3"
               style="visibility:hidden;fill:none;stroke:none" />
            <path
               d="m 4.5000247,9.9999955 c 0,-0.7191097 0,-5.3332822 0,-7.9999252 0,-0.999989 0,-0.999989 0.9999919,-0.999989 h 0.9999907 c 0.9999907,0 0.9999907,0 0.9999907,0.999989 L 7.489367,9.0084337 H 6.4893734 L 6.5000044,3.0000603 H 5.5000137 c 0,1.666653 -0.010631,4.3417203 -0.010631,6.0083734 0,0.9999893 1.5e-6,0.9829559 1.0106243,0.9915618 l 0.9893572,0.00831 c 0.999991,0 0.999991,0 0.999991,-0.999989 L 8.4999862,1.9999793 C 8.5030162,2.518195e-7 8.4999862,2.518195e-7 6.5000045,2.518195e-7 c -0.9999907,0 0,0 -0.9999907,0 -1.9999814,0 -1.9999814,0 -1.9999814,1.9999790481805 0,2.999975 0,4.9999566 0,7.9999282 0,0.9999895 0,0.9999895 2.6544792,3.6689365 0.2072307,0.299377 0.3454929,0.331024 0.8825459,0.331024 0.4629377,0 0.6585718,0.01633 0.9661299,-0.314486 2.4967806,-2.685485 2.4967806,-2.685485 2.4967806,-3.6854745 0,-3.3333034 0,-4.6666252 0,-7.9999282 H 9.4999769 v 7.9999282 c 0,0.4891615 -1.9999817,3.2234575 -2.4371634,2.9999715 -0.562809,0.159646 -2.5627916,-2.351176 -2.5627916,-2.9999715 z"
               id="stationery"
               style="fill:#ffffff;fill-opacity:1;stroke:none;stroke-width:0.99999" />
          </g>
        </g>
      </g>
    </g>
  </g>
</svg>
