<?xml version="1.0" encoding="UTF-8" standalone="no"?>
<!-- Created with Inkscape (http://www.inkscape.org/) -->

<svg
   width="64"
   height="64"
   viewBox="0 0 16.933333 16.933334"
   version="1.1"
   id="svg5"
   inkscape:version="1.1.1 (c3084ef, 2021-09-22)"
   sodipodi:docname="technical_64.svg"
   xmlns:inkscape="http://www.inkscape.org/namespaces/inkscape"
   xmlns:sodipodi="http://sodipodi.sourceforge.net/DTD/sodipodi-0.dtd"
   xmlns:xlink="http://www.w3.org/1999/xlink"
   xmlns="http://www.w3.org/2000/svg"
   xmlns:svg="http://www.w3.org/2000/svg">
  <sodipodi:namedview
     id="namedview7"
     pagecolor="#ffffff"
     bordercolor="#666666"
     borderopacity="1.0"
     inkscape:pageshadow="2"
     inkscape:pageopacity="0.0"
     inkscape:pagecheckerboard="0"
     inkscape:document-units="mm"
     showgrid="false"
     units="px"
     inkscape:zoom="4.5967102"
     inkscape:cx="24.691572"
     inkscape:cy="20.775728"
     inkscape:window-width="1440"
     inkscape:window-height="773"
     inkscape:window-x="0"
     inkscape:window-y="25"
     inkscape:window-maximized="0"
     inkscape:current-layer="layer1" />
  <defs
     id="defs2">
    <inkscape:perspective
       sodipodi:type="inkscape:persp3d"
       inkscape:vp_x="0 : 526.18109 : 1"
       inkscape:vp_y="0 : 1000 : 0"
       inkscape:vp_z="744.09448 : 526.18109 : 1"
       inkscape:persp3d-origin="372.04724 : 350.78739 : 1"
       id="perspective10" />
    <inkscape:perspective
       id="perspective2461"
       inkscape:persp3d-origin="10 : 6.6666667 : 1"
       inkscape:vp_z="20 : 10 : 1"
       inkscape:vp_y="0 : 1000 : 0"
       inkscape:vp_x="0 : 10 : 1"
       sodipodi:type="inkscape:persp3d" />
    <inkscape:perspective
       id="perspective2466"
       inkscape:persp3d-origin="400 : 200 : 1"
       inkscape:vp_z="800 : 300 : 1"
       inkscape:vp_y="0 : 1000 : 0"
       inkscape:vp_x="0 : 300 : 1"
       sodipodi:type="inkscape:persp3d" />
    <inkscape:perspective
       sodipodi:type="inkscape:persp3d"
       inkscape:vp_x="0 : 290 : 1"
       inkscape:vp_y="0 : 1000 : 0"
       inkscape:vp_z="580 : 290 : 1"
       inkscape:persp3d-origin="290 : 193.33333 : 1"
       id="perspective2441" />
    <inkscape:perspective
       id="perspective2466-9"
       inkscape:persp3d-origin="372.04724 : 350.78739 : 1"
       inkscape:vp_z="744.09448 : 526.18109 : 1"
       inkscape:vp_y="0 : 1000 : 0"
       inkscape:vp_x="0 : 526.18109 : 1"
       sodipodi:type="inkscape:persp3d" />
    <inkscape:perspective
       id="perspective3333"
       inkscape:persp3d-origin="372.04724 : 350.78739 : 1"
       inkscape:vp_z="744.09448 : 526.18109 : 1"
       inkscape:vp_y="0 : 1000 : 0"
       inkscape:vp_x="0 : 526.18109 : 1"
       sodipodi:type="inkscape:persp3d" />
    <inkscape:perspective
       id="perspective3401"
       inkscape:persp3d-origin="372.04724 : 350.78739 : 1"
       inkscape:vp_z="744.09448 : 526.18109 : 1"
       inkscape:vp_y="0 : 1000 : 0"
       inkscape:vp_x="0 : 526.18109 : 1"
       sodipodi:type="inkscape:persp3d" />
    <inkscape:perspective
       id="perspective3464"
       inkscape:persp3d-origin="372.04724 : 350.78739 : 1"
       inkscape:vp_z="744.09448 : 526.18109 : 1"
       inkscape:vp_y="0 : 1000 : 0"
       inkscape:vp_x="0 : 526.18109 : 1"
       sodipodi:type="inkscape:persp3d" />
    <inkscape:perspective
       id="perspective3581"
       inkscape:persp3d-origin="225 : 150 : 1"
       inkscape:vp_z="450 : 225 : 1"
       inkscape:vp_y="0 : 1000 : 0"
       inkscape:vp_x="0 : 225 : 1"
       sodipodi:type="inkscape:persp3d" />
    <inkscape:perspective
       id="perspective4312"
       inkscape:persp3d-origin="225 : 150 : 1"
       inkscape:vp_z="450 : 225 : 1"
       inkscape:vp_y="0 : 1000 : 0"
       inkscape:vp_x="0 : 225 : 1"
       sodipodi:type="inkscape:persp3d" />
    <inkscape:perspective
       id="perspective8860"
       inkscape:persp3d-origin="372.04724 : 350.78739 : 1"
       inkscape:vp_z="744.09448 : 526.18109 : 1"
       inkscape:vp_y="0 : 1000 : 0"
       inkscape:vp_x="0 : 526.18109 : 1"
       sodipodi:type="inkscape:persp3d" />
    <inkscape:perspective
       id="perspective8887"
       inkscape:persp3d-origin="372.04724 : 350.78739 : 1"
       inkscape:vp_z="744.09448 : 526.18109 : 1"
       inkscape:vp_y="0 : 1000 : 0"
       inkscape:vp_x="0 : 526.18109 : 1"
       sodipodi:type="inkscape:persp3d" />
    <inkscape:perspective
       sodipodi:type="inkscape:persp3d"
       inkscape:vp_x="0 : 16 : 1"
       inkscape:vp_y="0 : 1000 : 0"
       inkscape:vp_z="32 : 16 : 1"
       inkscape:persp3d-origin="16 : 10.666667 : 1"
       id="perspective4904" />
    <inkscape:perspective
       sodipodi:type="inkscape:persp3d"
       inkscape:vp_x="0 : 6 : 1"
       inkscape:vp_y="0 : 1000 : 0"
       inkscape:vp_z="12 : 6 : 1"
       inkscape:persp3d-origin="6 : 4 : 1"
       id="perspective4668" />
    <inkscape:perspective
       sodipodi:type="inkscape:persp3d"
       inkscape:vp_x="0 : 526.18109 : 1"
       inkscape:vp_y="0 : 1000 : 0"
       inkscape:vp_z="744.09448 : 526.18109 : 1"
       inkscape:persp3d-origin="372.04724 : 350.78739 : 1"
       id="perspective4471" />
    <symbol
       id="symbol-university"
       viewBox="244.5 110 489 219.9">
      <path
         d="M79,43l57,119c0,0,21-96,104-96s124,106,124,106l43-133l82-17L0,17L79,43z"
         id="path4460" />
      <path
         fill="none"
         stroke="#000000"
         stroke-width="20"
         d="M94,176l-21,39"
         id="path4462" />
      <path
         d="M300,19c0,10.5-22.6,19-50.5,19S199,29.5,199,19s22.6-19,50.5-19S300,8.5,300,19z"
         id="path4464" />
      <path
         ill="none"
         stroke="#000000"
         stroke-width="20"
         d="M112,216l-16-38L64,88c0,0-9-8-4-35s16-24,16-24"
         id="path4466" />
    </symbol>
    <inkscape:perspective
       sodipodi:type="inkscape:persp3d"
       inkscape:vp_x="0 : 30 : 1"
       inkscape:vp_y="0 : 1000 : 0"
       inkscape:vp_z="60 : 30 : 1"
       inkscape:persp3d-origin="30 : 20 : 1"
       id="perspective3452" />
    <inkscape:perspective
       id="perspective9479"
       inkscape:persp3d-origin="290 : 193.33333 : 1"
       inkscape:vp_z="580 : 290 : 1"
       inkscape:vp_y="0 : 1000 : 0"
       inkscape:vp_x="0 : 290 : 1"
       sodipodi:type="inkscape:persp3d" />
    <inkscape:perspective
       id="perspective9690"
       inkscape:persp3d-origin="372.04724 : 350.78739 : 1"
       inkscape:vp_z="744.09448 : 526.18109 : 1"
       inkscape:vp_y="0 : 1000 : 0"
       inkscape:vp_x="0 : 526.18109 : 1"
       sodipodi:type="inkscape:persp3d" />
    <inkscape:perspective
       sodipodi:type="inkscape:persp3d"
       inkscape:vp_x="0 : 290 : 1"
       inkscape:vp_y="0 : 1000 : 0"
       inkscape:vp_z="580 : 290 : 1"
       inkscape:persp3d-origin="290 : 193.33333 : 1"
       id="perspective9819" />
    <inkscape:perspective
       id="perspective9817"
       inkscape:persp3d-origin="30 : 20 : 1"
       inkscape:vp_z="60 : 30 : 1"
       inkscape:vp_y="0 : 1000 : 0"
       inkscape:vp_x="0 : 30 : 1"
       sodipodi:type="inkscape:persp3d" />
    <symbol
       viewBox="244.5 110 489 219.9"
       id="symbol9807">
      <path
         id="path9809"
         d="M79,43l57,119c0,0,21-96,104-96s124,106,124,106l43-133l82-17L0,17L79,43z" />
      <path
         id="path9811"
         d="M94,176l-21,39"
         stroke-width="20"
         stroke="#000000"
         fill="none" />
      <path
         id="path9813"
         d="M300,19c0,10.5-22.6,19-50.5,19S199,29.5,199,19s22.6-19,50.5-19S300,8.5,300,19z" />
      <path
         id="path9815"
         d="M112,216l-16-38L64,88c0,0-9-8-4-35s16-24,16-24"
         stroke-width="20"
         stroke="#000000"
         ill="none" />
    </symbol>
    <inkscape:perspective
       id="perspective9805"
       inkscape:persp3d-origin="372.04724 : 350.78739 : 1"
       inkscape:vp_z="744.09448 : 526.18109 : 1"
       inkscape:vp_y="0 : 1000 : 0"
       inkscape:vp_x="0 : 526.18109 : 1"
       sodipodi:type="inkscape:persp3d" />
    <inkscape:perspective
       id="perspective9803"
       inkscape:persp3d-origin="6 : 4 : 1"
       inkscape:vp_z="12 : 6 : 1"
       inkscape:vp_y="0 : 1000 : 0"
       inkscape:vp_x="0 : 6 : 1"
       sodipodi:type="inkscape:persp3d" />
    <inkscape:perspective
       id="perspective9801"
       inkscape:persp3d-origin="16 : 10.666667 : 1"
       inkscape:vp_z="32 : 16 : 1"
       inkscape:vp_y="0 : 1000 : 0"
       inkscape:vp_x="0 : 16 : 1"
       sodipodi:type="inkscape:persp3d" />
    <inkscape:perspective
       sodipodi:type="inkscape:persp3d"
       inkscape:vp_x="0 : 526.18109 : 1"
       inkscape:vp_y="0 : 1000 : 0"
       inkscape:vp_z="744.09448 : 526.18109 : 1"
       inkscape:persp3d-origin="372.04724 : 350.78739 : 1"
       id="perspective9799" />
    <inkscape:perspective
       sodipodi:type="inkscape:persp3d"
       inkscape:vp_x="0 : 526.18109 : 1"
       inkscape:vp_y="0 : 1000 : 0"
       inkscape:vp_z="744.09448 : 526.18109 : 1"
       inkscape:persp3d-origin="372.04724 : 350.78739 : 1"
       id="perspective9797" />
    <inkscape:perspective
       sodipodi:type="inkscape:persp3d"
       inkscape:vp_x="0 : 225 : 1"
       inkscape:vp_y="0 : 1000 : 0"
       inkscape:vp_z="450 : 225 : 1"
       inkscape:persp3d-origin="225 : 150 : 1"
       id="perspective9795" />
    <inkscape:perspective
       sodipodi:type="inkscape:persp3d"
       inkscape:vp_x="0 : 225 : 1"
       inkscape:vp_y="0 : 1000 : 0"
       inkscape:vp_z="450 : 225 : 1"
       inkscape:persp3d-origin="225 : 150 : 1"
       id="perspective9793" />
    <inkscape:perspective
       sodipodi:type="inkscape:persp3d"
       inkscape:vp_x="0 : 526.18109 : 1"
       inkscape:vp_y="0 : 1000 : 0"
       inkscape:vp_z="744.09448 : 526.18109 : 1"
       inkscape:persp3d-origin="372.04724 : 350.78739 : 1"
       id="perspective9791" />
    <inkscape:perspective
       sodipodi:type="inkscape:persp3d"
       inkscape:vp_x="0 : 526.18109 : 1"
       inkscape:vp_y="0 : 1000 : 0"
       inkscape:vp_z="744.09448 : 526.18109 : 1"
       inkscape:persp3d-origin="372.04724 : 350.78739 : 1"
       id="perspective9789" />
    <inkscape:perspective
       sodipodi:type="inkscape:persp3d"
       inkscape:vp_x="0 : 526.18109 : 1"
       inkscape:vp_y="0 : 1000 : 0"
       inkscape:vp_z="744.09448 : 526.18109 : 1"
       inkscape:persp3d-origin="372.04724 : 350.78739 : 1"
       id="perspective9787" />
    <inkscape:perspective
       sodipodi:type="inkscape:persp3d"
       inkscape:vp_x="0 : 526.18109 : 1"
       inkscape:vp_y="0 : 1000 : 0"
       inkscape:vp_z="744.09448 : 526.18109 : 1"
       inkscape:persp3d-origin="372.04724 : 350.78739 : 1"
       id="perspective9785" />
    <inkscape:perspective
       id="perspective9783"
       inkscape:persp3d-origin="290 : 193.33333 : 1"
       inkscape:vp_z="580 : 290 : 1"
       inkscape:vp_y="0 : 1000 : 0"
       inkscape:vp_x="0 : 290 : 1"
       sodipodi:type="inkscape:persp3d" />
    <defs
       id="defs48974" />
    <sodipodi:namedview
       pagecolor="#ffffff"
       inkscape:zoom="0.61399264"
       inkscape:window-y="26"
       inkscape:window-x="0"
       inkscape:window-width="1012"
       inkscape:window-height="739"
       inkscape:pageshadow="2"
       inkscape:pageopacity="0.0"
       inkscape:cy="250.37448"
       inkscape:cx="475.26707"
       id="namedview4258"
       borderopacity="1.0"
       bordercolor="#666666" />
    <inkscape:perspective
       id="perspective11483"
       inkscape:persp3d-origin="100 : 66.666667 : 1"
       inkscape:vp_z="200 : 100 : 1"
       inkscape:vp_y="0 : 1000 : 0"
       inkscape:vp_x="0 : 100 : 1"
       sodipodi:type="inkscape:persp3d" />
    <inkscape:perspective
       id="perspective12684"
       inkscape:persp3d-origin="180 : 66.666667 : 1"
       inkscape:vp_z="360 : 100 : 1"
       inkscape:vp_y="0 : 1000 : 0"
       inkscape:vp_x="0 : 100 : 1"
       sodipodi:type="inkscape:persp3d" />
    <symbol
       id="symbol-university-7"
       viewBox="244.5 110 489 219.9">
      <path
         d="M79,43l57,119c0,0,21-96,104-96s124,106,124,106l43-133l82-17L0,17L79,43z"
         id="path4460-7" />
      <path
         fill="none"
         stroke="#000000"
         stroke-width="20"
         d="M94,176l-21,39"
         id="path4462-4" />
      <path
         d="M300,19c0,10.5-22.6,19-50.5,19S199,29.5,199,19s22.6-19,50.5-19S300,8.5,300,19z"
         id="path4464-4" />
      <path
         ill="none"
         stroke="#000000"
         stroke-width="20"
         d="M112,216l-16-38L64,88c0,0-9-8-4-35s16-24,16-24"
         id="path4466-9" />
    </symbol>
    <symbol
       viewBox="244.5 110 489 219.9"
       id="symbol9807-1">
      <path
         id="path9809-5"
         d="M79,43l57,119c0,0,21-96,104-96s124,106,124,106l43-133l82-17L0,17L79,43z" />
      <path
         id="path9811-5"
         d="M94,176l-21,39"
         stroke-width="20"
         stroke="#000000"
         fill="none" />
      <path
         id="path9813-5"
         d="M300,19c0,10.5-22.6,19-50.5,19S199,29.5,199,19s22.6-19,50.5-19S300,8.5,300,19z" />
      <path
         id="path9815-8"
         d="M112,216l-16-38L64,88c0,0-9-8-4-35s16-24,16-24"
         stroke-width="20"
         stroke="#000000"
         ill="none" />
    </symbol>
    <defs
       id="defs48974-2" />
    <defs
       id="defs18865">
      <rect
         id="SVGID_1_"
         x="1.3"
         y="3.9000001"
         width="49.400002"
         height="93.699997" />
    </defs>
    <clipPath
       id="SVGID_2_">
      <use
         xlink:href="#SVGID_1_"
         style="overflow:visible"
         id="use18867"
         x="0"
         y="0"
         width="100%"
         height="100%" />
    </clipPath>
    <defs
       id="defs18875">
      <rect
         id="SVGID_3_"
         x="1.3"
         y="3.9000001"
         width="49.400002"
         height="93.699997" />
    </defs>
    <clipPath
       id="SVGID_4_">
      <use
         xlink:href="#SVGID_3_"
         style="overflow:visible"
         id="use18877"
         x="0"
         y="0"
         width="100%"
         height="100%" />
    </clipPath>
    <defs
       id="defs18885">
      <rect
         id="SVGID_5_"
         x="1.3"
         y="3.9000001"
         width="49.400002"
         height="93.699997" />
    </defs>
    <clipPath
       id="SVGID_6_">
      <use
         xlink:href="#SVGID_5_"
         style="overflow:visible"
         id="use18887"
         x="0"
         y="0"
         width="100%"
         height="100%" />
    </clipPath>
    <defs
       id="defs18895">
      <rect
         id="SVGID_7_"
         x="1.3"
         y="3.9000001"
         width="49.400002"
         height="93.699997" />
    </defs>
    <clipPath
       id="SVGID_8_">
      <use
         xlink:href="#SVGID_7_"
         style="overflow:visible"
         id="use18897"
         x="0"
         y="0"
         width="100%"
         height="100%" />
    </clipPath>
    <defs
       id="defs18905">
      <rect
         id="SVGID_9_"
         x="1.3"
         y="3.9000001"
         width="49.400002"
         height="93.699997" />
    </defs>
    <clipPath
       id="SVGID_10_">
      <use
         xlink:href="#SVGID_9_"
         style="overflow:visible"
         id="use18907"
         x="0"
         y="0"
         width="100%"
         height="100%" />
    </clipPath>
    <defs
       id="defs18915">
      <rect
         id="SVGID_11_"
         x="1.3"
         y="3.9000001"
         width="49.400002"
         height="93.699997" />
    </defs>
    <clipPath
       id="SVGID_12_">
      <use
         xlink:href="#SVGID_11_"
         style="overflow:visible"
         id="use18917"
         x="0"
         y="0"
         width="100%"
         height="100%" />
    </clipPath>
    <defs
       id="defs18927">
      <rect
         id="SVGID_13_"
         x="50.599998"
         y="3.9000001"
         width="49.400002"
         height="93.699997" />
    </defs>
    <clipPath
       id="SVGID_14_">
      <use
         xlink:href="#SVGID_13_"
         style="overflow:visible"
         id="use18929"
         x="0"
         y="0"
         width="100%"
         height="100%" />
    </clipPath>
    <defs
       id="defs18937">
      <rect
         id="SVGID_15_"
         x="50.599998"
         y="3.9000001"
         width="49.400002"
         height="93.699997" />
    </defs>
    <clipPath
       id="SVGID_16_">
      <use
         xlink:href="#SVGID_15_"
         style="overflow:visible"
         id="use18939"
         x="0"
         y="0"
         width="100%"
         height="100%" />
    </clipPath>
    <defs
       id="defs18947">
      <rect
         id="SVGID_17_"
         x="50.599998"
         y="3.9000001"
         width="49.400002"
         height="93.699997" />
    </defs>
    <clipPath
       id="SVGID_18_">
      <use
         xlink:href="#SVGID_17_"
         style="overflow:visible"
         id="use18949"
         x="0"
         y="0"
         width="100%"
         height="100%" />
    </clipPath>
    <defs
       id="defs18957">
      <rect
         id="SVGID_19_"
         x="50.599998"
         y="3.9000001"
         width="49.400002"
         height="93.699997" />
    </defs>
    <clipPath
       id="SVGID_20_">
      <use
         xlink:href="#SVGID_19_"
         style="overflow:visible"
         id="use18959"
         x="0"
         y="0"
         width="100%"
         height="100%" />
    </clipPath>
    <defs
       id="defs18967">
      <rect
         id="SVGID_21_"
         x="50.599998"
         y="3.9000001"
         width="49.400002"
         height="93.699997" />
    </defs>
    <clipPath
       id="SVGID_22_">
      <use
         xlink:href="#SVGID_21_"
         style="overflow:visible"
         id="use18969"
         x="0"
         y="0"
         width="100%"
         height="100%" />
    </clipPath>
    <defs
       id="defs18977">
      <rect
         id="SVGID_23_"
         x="50.599998"
         y="3.9000001"
         width="49.400002"
         height="93.699997" />
    </defs>
    <clipPath
       id="SVGID_24_">
      <use
         xlink:href="#SVGID_23_"
         style="overflow:visible"
         id="use18979"
         x="0"
         y="0"
         width="100%"
         height="100%" />
    </clipPath>
    <rect
       id="rect1117"
       x="1.3"
       y="3.9000001"
       width="49.400002"
       height="93.699997" />
    <rect
       id="rect1119"
       x="1.3"
       y="3.9000001"
       width="49.400002"
       height="93.699997" />
    <rect
       id="rect1121"
       x="1.3"
       y="3.9000001"
       width="49.400002"
       height="93.699997" />
    <rect
       id="rect1123"
       x="1.3"
       y="3.9000001"
       width="49.400002"
       height="93.699997" />
    <rect
       id="rect1125"
       x="1.3"
       y="3.9000001"
       width="49.400002"
       height="93.699997" />
    <rect
       id="rect1127"
       x="1.3"
       y="3.9000001"
       width="49.400002"
       height="93.699997" />
    <rect
       id="rect1129"
       x="50.599998"
       y="3.9000001"
       width="49.400002"
       height="93.699997" />
    <rect
       id="rect1131"
       x="50.599998"
       y="3.9000001"
       width="49.400002"
       height="93.699997" />
    <rect
       id="rect1133"
       x="50.599998"
       y="3.9000001"
       width="49.400002"
       height="93.699997" />
    <rect
       id="rect1135"
       x="50.599998"
       y="3.9000001"
       width="49.400002"
       height="93.699997" />
    <rect
       id="rect1137"
       x="50.599998"
       y="3.9000001"
       width="49.400002"
       height="93.699997" />
    <rect
       id="rect1139"
       x="50.599998"
       y="3.9000001"
       width="49.400002"
       height="93.699997" />
    <rect
       id="rect16927"
       x="1.3"
       y="3.9000001"
       width="49.400002"
       height="93.699997" />
    <rect
       id="rect16929"
       x="1.3"
       y="3.9000001"
       width="49.400002"
       height="93.699997" />
    <rect
       id="rect16931"
       x="1.3"
       y="3.9000001"
       width="49.400002"
       height="93.699997" />
    <rect
       id="rect16933"
       x="1.3"
       y="3.9000001"
       width="49.400002"
       height="93.699997" />
    <rect
       id="rect16935"
       x="1.3"
       y="3.9000001"
       width="49.400002"
       height="93.699997" />
    <rect
       id="rect16937"
       x="1.3"
       y="3.9000001"
       width="49.400002"
       height="93.699997" />
    <rect
       id="rect16939"
       x="50.599998"
       y="3.9000001"
       width="49.400002"
       height="93.699997" />
    <rect
       id="rect16941"
       x="50.599998"
       y="3.9000001"
       width="49.400002"
       height="93.699997" />
    <rect
       id="rect16943"
       x="50.599998"
       y="3.9000001"
       width="49.400002"
       height="93.699997" />
    <rect
       id="rect16945"
       x="50.599998"
       y="3.9000001"
       width="49.400002"
       height="93.699997" />
    <rect
       id="rect16947"
       x="50.599998"
       y="3.9000001"
       width="49.400002"
       height="93.699997" />
    <rect
       id="rect16949"
       x="50.599998"
       y="3.9000001"
       width="49.400002"
       height="93.699997" />
  </defs>
  <g
     inkscape:label="Calque 1"
     inkscape:groupmode="layer"
     id="layer1">
    <circle
       style="fill:#5a8cd2;stroke-width:0.2;fill-opacity:1;stroke:#ffffff;stroke-opacity:1;stroke-miterlimit:4;stroke-dasharray:none"
       id="path846"
       cx="8.4666662"
       cy="8.4666662"
       r="8" />
    <path
       style="fill:#ffffff;stroke-width:0.0127168"
       d="M 5.1980679,13.869944 C 4.9637615,13.779954 4.7562495,13.696986 4.7369302,13.685577 4.6912482,13.658597 4.6512472,13.579013 4.6512472,13.5151 c 0,-0.02785 0.03498,-0.160662 0.077735,-0.295141 C 4.8412237,12.866913 4.8396574,12.861103 4.5603487,12.594426 4.2584722,12.306202 4.2483463,12.303965 3.8823852,12.444667 3.4895936,12.595684 3.4684011,12.58539 3.2426166,12.133928 c -0.076443,-0.15285 -0.182097,-0.425509 -0.2057082,-0.530867 -0.00852,-0.038 -0.0082,-0.07201 9.881e-4,-0.105836 0.025486,-0.09385 0.060198,-0.122508 0.2933498,-0.242192 0.3555819,-0.182531 0.3587426,-0.187217 0.3549375,-0.52615 C 3.6829238,10.438374 3.6711218,10.34736 3.6283318,10.2827 3.5850938,10.21736 3.5648588,10.20533 3.2988372,10.086687 3.0373358,9.9700637 2.9987149,9.9380337 2.9889325,9.8296727 c -0.00488,-0.05409 0.013202,-0.109991 0.1616455,-0.499634 0.092075,-0.241684 0.179605,-0.452122 0.1948892,-0.468549 0.041008,-0.04408 0.094328,-0.06784 0.1533721,-0.06837 0.030273,-2.68e-4 0.157141,0.03286 0.3003848,0.07843 0.272352,0.08665 0.3053523,0.08949 0.4063985,0.03498 0.06579,-0.03549 0.4027093,-0.39273 0.4341323,-0.460314 0.043688,-0.09396 0.033486,-0.157555 -0.06658,-0.414987 -0.1031351,-0.26533 -0.1107341,-0.31548 -0.061166,-0.403675 0.024172,-0.04301 0.054301,-0.06888 0.1372604,-0.117885 0.1696227,-0.100188 0.3388074,-0.181018 0.5233654,-0.250042 0.2372467,-0.08873 0.2814232,-0.09878 0.3474444,-0.07903 0.095954,0.0287 0.11617,0.05346 0.2436776,0.298423 0.1867312,0.358745 0.1846145,0.357501 0.5905763,0.347219 0.4029551,-0.01021 0.413065,-0.01657 0.5605372,-0.352853 0.1135437,-0.258916 0.1262613,-0.280168 0.1886364,-0.315224 0.088279,-0.04961 0.1225423,-0.04154 0.5986476,0.141042 0.4041834,0.155004 0.4405077,0.171428 0.4755181,0.215011 0.064758,0.08061 0.06131,0.130905 -0.02815,0.410616 -0.042502,0.13289 -0.077319,0.263448 -0.077371,0.290128 -1.983e-4,0.102077 0.040147,0.159855 0.2495481,0.357365 0.1080829,0.101945 0.2143691,0.194588 0.2361915,0.205873 0.021822,0.01129 0.071654,0.02332 0.1107365,0.02674 0.064894,0.0057 0.090966,-0.0015 0.3005009,-0.08246 0.1261928,-0.04877 0.2473181,-0.09261 0.2691671,-0.09741 0.054951,-0.01207 0.1359334,0.01232 0.1855406,0.05587 0.1239421,0.108823 0.4158508,0.762278 0.4158508,0.930907 0,0.125783 -0.042195,0.166052 -0.3179191,0.303405 -0.3376508,0.1682023 -0.3445242,0.1805903 -0.3314872,0.5974403 0.012172,0.389197 0.018148,0.398133 0.3696375,0.552754 0.1223988,0.05384 0.2389851,0.113162 0.2590806,0.13182 0.043084,0.04 0.071555,0.100959 0.071555,0.153202 0,0.04028 -0.3145586,0.880779 -0.3497145,0.934433 -0.026139,0.03989 -0.1151953,0.08444 -0.1688119,0.08444 -0.021987,0 -0.1472529,-0.03434 -0.2783693,-0.0763 -0.2581845,-0.08263 -0.3209302,-0.09075 -0.4053069,-0.05242 -0.061472,0.02792 -0.4044911,0.381326 -0.4477974,0.461353 -0.051146,0.09451 -0.041524,0.161583 0.061718,0.430201 0.081116,0.211051 0.089807,0.242266 0.085197,0.306004 -0.00699,0.09667 -0.040296,0.138717 -0.171066,0.215957 -0.2108441,0.124536 -0.3794224,0.201006 -0.6332603,0.287258 -0.1369059,0.04652 -0.2011886,0.05272 -0.2649619,0.02554 -0.065139,-0.02776 -0.095188,-0.07016 -0.2196463,-0.309956 -0.095417,-0.183843 -0.1270077,-0.2334 -0.1700545,-0.26677 -0.08259,-0.06402 -0.1198028,-0.06896 -0.4314857,-0.05727 -0.2791268,0.01047 -0.2792548,0.01049 -0.3395886,0.04801 -0.033196,0.02064 -0.070945,0.05184 -0.083887,0.06932 -0.012941,0.01749 -0.069736,0.134798 -0.1262089,0.260694 -0.056474,0.125896 -0.112245,0.239724 -0.1239369,0.252952 -0.029565,0.03345 -0.1154695,0.07088 -0.1611423,0.07021 -0.020983,-3.06e-4 -0.2298555,-0.07419 -0.4641618,-0.164181 z m 1.5280072,-2.434786 c 0.2982511,-0.103497 0.5199512,-0.34789 0.5901425,-0.65055 0.023169,-0.0999 0.026103,-0.301359 0.00571,-0.392143 C 7.2064782,9.8784767 6.6748003,9.5618797 6.1809531,9.7130507 c -0.1550903,0.04748 -0.2544695,0.108591 -0.37944,0.233347 -0.093696,0.09354 -0.1248348,0.1349193 -0.1677573,0.2229473 -0.073117,0.149954 -0.096155,0.246802 -0.096801,0.406937 -6.383e-4,0.158124 0.021647,0.254566 0.092561,0.400578 0.1101427,0.226783 0.2963535,0.387731 0.5350263,0.46244 0.1188919,0.03722 0.1297968,0.03842 0.3052023,0.03382 0.1320651,-0.0035 0.1754338,-0.0099 0.2563309,-0.03796 z M 10.544553,9.0627577 c -0.103037,-0.01088 -0.158156,-0.0352 -0.193525,-0.08542 -0.03621,-0.0514 -0.03858,-0.06488 -0.05413,-0.307937 -0.02039,-0.318666 -0.03128,-0.334831 -0.3001181,-0.44569 -0.2566201,-0.10582 -0.295334,-0.117618 -0.3560552,-0.108513 -0.069043,0.01035 -0.118105,0.04436 -0.2848159,0.197427 -0.074784,0.06866 -0.153613,0.133964 -0.1751756,0.145115 -0.049929,0.02582 -0.1069604,0.0258 -0.1587294,-5.1e-5 -0.048429,-0.02418 -0.5875381,-0.555866 -0.613801,-0.605347 -0.025463,-0.04797 -0.022802,-0.136151 0.00549,-0.181846 0.01299,-0.02098 0.08223,-0.103959 0.1538671,-0.184393 0.155847,-0.174986 0.1709944,-0.201005 0.1702683,-0.292482 -4.54e-4,-0.05711 -0.016343,-0.107271 -0.086613,-0.273411 C 8.6038838,6.8083027 8.5516488,6.6987297 8.5351379,6.6767137 8.479434,6.6024407 8.4222678,6.5863597 8.1670278,6.5731617 7.9173863,6.5602537 7.8791858,6.5499417 7.8311609,6.4824967 7.7871467,6.4206847 7.7744667,6.3164137 7.773819,6.0109614 7.773131,5.686264 7.7821763,5.5971795 7.8217351,5.5390729 7.8795098,5.4542096 7.8951197,5.4492486 8.1569888,5.4325256 8.507845,5.41012 8.5085871,5.4095718 8.6441536,5.0725863 8.6871765,4.9656419 8.7253911,4.8595682 8.729075,4.8368669 8.7422628,4.7556003 8.7125573,4.6933581 8.6022389,4.5711052 8.4172324,4.3660845 8.3776141,4.3153832 8.3697783,4.2736147 8.3522317,4.1800832 8.3637618,4.1642031 8.6806104,3.8455218 9.0841019,3.4396965 9.0650532,3.4443635 9.3364691,3.6848366 c 0.183952,0.1629829 0.228546,0.1897108 0.3165175,0.1897108 0.074811,0 0.4681674,-0.1640021 0.5263824,-0.2194648 0.06818,-0.064952 0.07684,-0.098292 0.09048,-0.3482708 0.01297,-0.2375956 0.01933,-0.2647757 0.07628,-0.3258198 0.04219,-0.045226 0.08434,-0.055508 0.301075,-0.073439 0.272223,-0.022522 0.598998,0.00252 0.667268,0.05113 0.06967,0.049606 0.08013,0.087013 0.09684,0.3463401 0.02156,0.3344098 0.02211,0.3351524 0.345763,0.46736 0.232789,0.09509 0.293233,0.1066052 0.376639,0.071756 0.02329,-0.00973 0.116096,-0.084708 0.206239,-0.1666163 0.09014,-0.081908 0.177145,-0.1540627 0.193337,-0.1603428 0.06056,-0.023487 0.135791,-0.013364 0.188015,0.025299 0.02728,0.020195 0.17075,0.1589662 0.318826,0.3083815 0.358613,0.3618563 0.356967,0.3525567 0.11107,0.6277336 -0.08125,0.090925 -0.155706,0.1837324 -0.165458,0.2062389 -0.03599,0.083068 -0.02387,0.1426123 0.07815,0.383817 0.131489,0.3108786 0.140519,0.3178513 0.431865,0.3334583 0.273841,0.014669 0.292108,0.017356 0.337436,0.049632 0.06541,0.046579 0.08468,0.109332 0.10241,0.3335007 0.01267,0.1602511 0.01265,0.2402559 -1.32e-4,0.4002227 -0.01633,0.204467 -0.02708,0.243971 -0.07926,0.291252 -0.05317,0.04818 -0.07975,0.05415 -0.30438,0.06835 -0.250873,0.01586 -0.255607,0.01673 -0.317706,0.05867 -0.05764,0.03893 -0.08076,0.08095 -0.176006,0.319827 -0.115401,0.28943 -0.112216,0.306056 0.104969,0.547928 0.07944,0.08847 0.151023,0.173355 0.159072,0.188632 0.01577,0.02993 0.01829,0.124594 0.0042,0.158117 -0.0116,0.02762 -0.569918,0.598386 -0.604512,0.617991 -0.04109,0.02329 -0.149627,0.02014 -0.186562,-0.0054 -0.01729,-0.01196 -0.104196,-0.08573 -0.193119,-0.163938 -0.134707,-0.118475 -0.172105,-0.144696 -0.224194,-0.157192 -0.04519,-0.01084 -0.07616,-0.01129 -0.111734,-0.0016 -0.102701,0.0279 -0.442778,0.179877 -0.47852,0.213843 -0.06773,0.06437 -0.07558,0.0942 -0.0877,0.333599 -0.0062,0.122689 -0.01403,0.235506 -0.01737,0.250704 -0.0081,0.03686 -0.0645,0.102568 -0.106806,0.124445 -0.0758,0.0392 -0.526329,0.05794 -0.771291,0.03209 z m 0.535018,-2.205904 c 0.235249,-0.05967 0.459178,-0.240877 0.568964,-0.460416 0.07995,-0.159878 0.103938,-0.274388 0.09512,-0.4541021 -0.01983,-0.40428 -0.279539,-0.7199512 -0.675658,-0.8212543 -0.204014,-0.052174 -0.417291,-0.027531 -0.617632,0.071366 -0.201327,0.099383 -0.366151,0.2861798 -0.440071,0.4987362 -0.1602803,0.4608862 0.07298,0.9622852 0.528046,1.1350412 0.164684,0.06252 0.369751,0.07412 0.541229,0.03063 z"
       id="path19786" />
  </g>
  <style
     type="text/css"
     id="style18855">
	.st0{fill:#C4114E;}
	.st1{fill:#FFFFFF;}
	.st2{clip-path:url(#SVGID_2_);fill:#FFFFFF;}
	.st3{clip-path:url(#SVGID_4_);}
	.st4{clip-path:url(#SVGID_6_);fill:#FFFFFF;}
	.st5{clip-path:url(#SVGID_8_);fill:#FFFFFF;}
	.st6{clip-path:url(#SVGID_10_);fill:#FFFFFF;}
	.st7{clip-path:url(#SVGID_12_);fill:#FFFFFF;}
	.st8{clip-path:url(#SVGID_14_);fill:#FFFFFF;}
	.st9{clip-path:url(#SVGID_16_);}
	.st10{clip-path:url(#SVGID_18_);fill:#FFFFFF;}
	.st11{clip-path:url(#SVGID_20_);fill:#FFFFFF;}
	.st12{clip-path:url(#SVGID_22_);fill:#FFFFFF;}
	.st13{clip-path:url(#SVGID_24_);fill:#FFFFFF;}
</style>
</svg>
