<?xml version="1.0" encoding="UTF-8" standalone="no"?>
<!-- Created with Inkscape (http://www.inkscape.org/) -->

<svg
   width="64"
   height="64"
   viewBox="0 0 16.933333 16.933333"
   version="1.1"
   id="svg1921"
   inkscape:version="1.1.1 (c3084ef, 2021-09-22)"
   sodipodi:docname="toilets_64.svg"
   xmlns:inkscape="http://www.inkscape.org/namespaces/inkscape"
   xmlns:sodipodi="http://sodipodi.sourceforge.net/DTD/sodipodi-0.dtd"
   xmlns="http://www.w3.org/2000/svg"
   xmlns:svg="http://www.w3.org/2000/svg">
  <sodipodi:namedview
     id="namedview1923"
     pagecolor="#ffffff"
     bordercolor="#666666"
     borderopacity="1.0"
     inkscape:pageshadow="2"
     inkscape:pageopacity="0.0"
     inkscape:pagecheckerboard="0"
     inkscape:document-units="mm"
     showgrid="false"
     inkscape:zoom="5.0940093"
     inkscape:cx="33.372534"
     inkscape:cy="40.537814"
     inkscape:window-width="1323"
     inkscape:window-height="777"
     inkscape:window-x="69"
     inkscape:window-y="25"
     inkscape:window-maximized="0"
     inkscape:current-layer="g199354"
     units="px"
     width="64px" />
  <defs
     id="defs1918" />
  <g
     inkscape:label="Calque 1"
     inkscape:groupmode="layer"
     id="layer1"
     transform="translate(-123.85915,-134.83979)">
    <g
       id="g199354"
       transform="translate(73.509698,-66.233712)"
       inkscape:export-filename="/Users/fred/Documents/pictos carte/proposition pictos et couleurs.png"
       inkscape:export-xdpi="96"
       inkscape:export-ydpi="96">
      <circle
         style="fill:#5d78a3;fill-opacity:1;stroke:#ffffff;stroke-width:0.2;stroke-miterlimit:4;stroke-dasharray:none;stroke-opacity:1"
         id="path1607"
         cx="58.81612"
         cy="209.54016"
         r="8" />
      <g
         id="g3345"
         transform="matrix(0.75896191,0,0,0.75896191,26.001752,50.248822)"
         style="fill:#ffffff;fill-opacity:1">
        <path
           style="fill:#ffffff;fill-opacity:1;stroke-width:0.0137931"
           d="m 38.552705,216.07966 c 0.164435,-0.0267 0.261404,-0.10246 0.323049,-0.25246 0.02904,-0.0707 0.0291,-0.0739 0.03282,-1.96389 l 0.0037,-1.8931 h 0.234008 0.234008 l 0.0036,1.91379 0.0036,1.9138 0.02928,0.0633 c 0.07022,0.15181 0.202648,0.22267 0.418997,0.22421 0.22274,0.002 0.357692,-0.0704 0.429472,-0.22921 l 0.0326,-0.0721 0.0036,-1.9 0.0036,-1.9 h 0.625075 0.625075 l -0.239551,-0.85172 c -0.131753,-0.46845 -0.419241,-1.49104 -0.638862,-2.27241 -0.219621,-0.78138 -0.405174,-1.44087 -0.412339,-1.46552 l -0.01303,-0.0448 h 0.223318 0.223318 l 0.391375,1.3069 c 0.215257,0.71879 0.403906,1.34084 0.41922,1.38233 0.03534,0.0957 0.144401,0.20805 0.225202,0.23193 0.07871,0.0232 0.250096,0.021 0.324302,-0.004 0.07957,-0.0271 0.157325,-0.0916 0.191664,-0.15887 0.04047,-0.0793 0.06327,-0.23194 0.04557,-0.30506 -0.008,-0.0329 -0.214619,-0.72396 -0.45924,-1.53569 -0.306982,-1.01866 -0.45942,-1.50399 -0.492074,-1.56667 -0.172409,-0.33091 -0.567235,-0.63535 -0.950584,-0.73296 l -0.12331,-0.0314 h -1.17222 c -1.07326,0 -1.181162,0.002 -1.275862,0.0244 -0.365117,0.0861 -0.698071,0.35559 -0.873125,0.70663 -0.03171,0.0636 -0.199881,0.60037 -0.492631,1.57242 -0.244466,0.81172 -0.450639,1.49751 -0.458162,1.52398 -0.0075,0.0265 -0.01106,0.0979 -0.0079,0.15876 0.0098,0.18631 0.100879,0.31157 0.255138,0.35082 0.09388,0.0239 0.264761,0.0179 0.32949,-0.0115 0.06734,-0.0306 0.145931,-0.10837 0.180103,-0.17825 0.01365,-0.0279 0.205804,-0.65282 0.427011,-1.38868 l 0.402194,-1.33793 0.214838,-0.004 0.214838,-0.004 -0.01925,0.0659 c -0.03987,0.13639 -1.262225,4.5536 -1.262225,4.56128 0,0.004 0.279182,0.008 0.620404,0.008 h 0.620404 l 0.0037,1.88621 c 0.0037,1.88293 0.0038,1.88633 0.03283,1.95699 0.05967,0.14521 0.160136,0.22663 0.310421,0.25159 0.103802,0.0172 0.130992,0.0173 0.232486,8.7e-4 z"
           id="path3152" />
        <path
           style="fill:#ffffff;fill-opacity:1;stroke-width:0.0137931"
           d="m 44.042776,209.88055 v -6.22758 h -0.496552 -0.496552 v 6.22758 6.22759 h 0.496552 0.496552 z"
           id="path3150" />
        <path
           style="fill:#ffffff;fill-opacity:1;stroke-width:0.0137931"
           d="m 48.051907,205.68778 c 0.06945,-0.0131 0.154972,-0.0435 0.239145,-0.085 0.111602,-0.055 0.150647,-0.0842 0.263285,-0.19686 0.112641,-0.11264 0.141831,-0.15168 0.196856,-0.26329 0.141994,-0.288 0.142189,-0.59998 5.57e-4,-0.89358 -0.09989,-0.20707 -0.308647,-0.39855 -0.529664,-0.48584 -0.172557,-0.0682 -0.388442,-0.0857 -0.576346,-0.0469 -0.210728,0.0435 -0.360283,0.12637 -0.520205,0.28816 -0.113714,0.11504 -0.186834,0.23416 -0.237205,0.38645 -0.03236,0.0978 -0.03654,0.13222 -0.03687,0.30345 -3.36e-4,0.17318 0.0034,0.20448 0.0365,0.30345 0.05427,0.1624 0.125768,0.27424 0.265605,0.41547 0.106751,0.10781 0.143264,0.13484 0.255172,0.1889 0.210182,0.10154 0.414415,0.12872 0.643175,0.0856 z"
           id="path3158" />
        <path
           style="fill:#ffffff;fill-opacity:1;stroke-width:0.0137931"
           d="m 39.365797,205.70148 c 0.291532,-0.0613 0.553024,-0.27022 0.696923,-0.55673 0.124477,-0.24784 0.121406,-0.61871 -0.0073,-0.88186 -0.09146,-0.187 -0.269278,-0.36424 -0.460916,-0.45943 -0.143274,-0.0712 -0.231155,-0.0941 -0.400251,-0.10445 -0.190206,-0.0116 -0.331703,0.0171 -0.503197,0.10202 -0.108901,0.054 -0.152243,0.086 -0.256594,0.18947 -0.138987,0.13785 -0.20784,0.24672 -0.264877,0.41879 -0.03052,0.0921 -0.03519,0.13071 -0.0361,0.29885 -9.64e-4,0.17743 0.0022,0.20302 0.03898,0.31524 0.105553,0.32205 0.401461,0.59928 0.722844,0.67722 0.105739,0.0256 0.350601,0.0261 0.470491,8.8e-4 z"
           id="path3156" />
        <path
           style="fill:#ffffff;fill-opacity:1;stroke-width:0.0137931"
           d="m 47.312836,216.02726 c 0.168013,-0.0649 0.264272,-0.2035 0.288671,-0.41574 0.0083,-0.0718 0.01351,-1.03438 0.01358,-2.48649 l 1.05e-4,-2.36929 0.237931,0.004 0.237931,0.004 0.007,2.46897 c 0.0054,1.90124 0.01092,2.48017 0.02397,2.51772 0.02801,0.0806 0.09523,0.17517 0.155552,0.21887 0.100778,0.073 0.177839,0.0911 0.385875,0.0904 0.162528,-4.8e-4 0.196676,-0.005 0.268538,-0.0332 0.10975,-0.0435 0.212453,-0.14593 0.256926,-0.25637 l 0.03316,-0.0823 0.0036,-4.18965 0.0036,-4.18966 h 0.234092 0.234093 l 0.0037,1.60345 0.0037,1.60345 0.03268,0.0723 c 0.0434,0.096 0.118844,0.16223 0.217474,0.19091 0.162542,0.0473 0.361557,-0.006 0.438669,-0.11719 0.08787,-0.12679 0.08301,-0.027 0.0876,-1.80119 0.0042,-1.62498 6.07e-4,-1.77991 -0.04543,-1.95863 -0.1163,-0.4515 -0.447511,-0.80416 -0.883396,-0.94061 l -0.123458,-0.0386 -1.529879,-0.004 c -1.355888,-0.003 -1.543343,-0.001 -1.648276,0.0182 -0.530772,0.0991 -0.958465,0.55427 -1.034504,1.10096 -0.02127,0.15292 -0.02074,3.3317 5.66e-4,3.43224 0.02153,0.1016 0.05684,0.16546 0.12254,0.2217 0.06666,0.0571 0.146747,0.0821 0.265934,0.0832 0.173296,0.002 0.291282,-0.0624 0.356406,-0.19355 l 0.03273,-0.0659 0.0037,-1.60345 0.0037,-1.60345 h 0.2411 0.2411 l 1.11e-4,4.12069 c 6.9e-5,2.79836 0.0047,4.14946 0.01452,4.21035 0.01699,0.10569 0.06858,0.22566 0.120641,0.28054 0.05192,0.0547 0.145431,0.10723 0.228648,0.12838 0.109645,0.0279 0.368744,0.0163 0.46477,-0.0208 z"
           id="path3154" />
      </g>
    </g>
  </g>
</svg>
