<?xml version="1.0" encoding="UTF-8" standalone="no"?>
<!-- Created with Inkscape (http://www.inkscape.org/) -->

<svg
   width="64"
   height="64"
   viewBox="0 0 16.933333 16.933334"
   version="1.1"
   id="svg5"
   xmlns="http://www.w3.org/2000/svg"
   xmlns:svg="http://www.w3.org/2000/svg">
  <defs
     id="defs2">
    <symbol
       id="symbol-university"
       viewBox="244.5 110 489 219.9">
      <path
         d="M79,43l57,119c0,0,21-96,104-96s124,106,124,106l43-133l82-17L0,17L79,43z"
         id="path4460" />
      <path
         fill="none"
         stroke="#000000"
         stroke-width="20"
         d="M94,176l-21,39"
         id="path4462" />
      <path
         d="M300,19c0,10.5-22.6,19-50.5,19S199,29.5,199,19s22.6-19,50.5-19S300,8.5,300,19z"
         id="path4464" />
      <path
         ill="none"
         stroke="#000000"
         stroke-width="20"
         d="M112,216l-16-38L64,88c0,0-9-8-4-35s16-24,16-24"
         id="path4466" />
    </symbol>
    <symbol
       viewBox="244.5 110 489 219.9"
       id="symbol9807">
      <path
         id="path9809"
         d="M79,43l57,119c0,0,21-96,104-96s124,106,124,106l43-133l82-17L0,17L79,43z" />
      <path
         id="path9811"
         d="M94,176l-21,39"
         stroke-width="20"
         stroke="#000000"
         fill="none" />
      <path
         id="path9813"
         d="M300,19c0,10.5-22.6,19-50.5,19S199,29.5,199,19s22.6-19,50.5-19S300,8.5,300,19z" />
      <path
         id="path9815"
         d="M112,216l-16-38L64,88c0,0-9-8-4-35s16-24,16-24"
         stroke-width="20"
         stroke="#000000"
         ill="none" />
    </symbol>
    <defs
       id="defs48974" />
  </defs>
  <g
     id="layer1">
    <circle
       style="fill:#ffb347;stroke-width:0.2;fill-opacity:1;stroke:#ffffff;stroke-opacity:1;stroke-miterlimit:4;stroke-dasharray:none"
       id="path846"
       cx="8.4666662"
       cy="8.4666662"
       r="8" />
    <g
       id="g1870"
       transform="matrix(0.6875,0,0,0.6875,2.9666667,2.9666667)">
      <rect
         width="16"
         height="16"
         x="0"
         y="0"
         id="canvas"
         style="visibility:hidden;fill:none;stroke:none" />
      <g
         id="g2053"
         transform="scale(1.1428571)">
        <rect
           id="canvas-8"
           width="14"
           height="14"
           fill="none"
           visibility="hidden"
           x="0"
           y="0" />
        <g
           id="g2267"
           transform="matrix(1.0015454,0,0,1.0015454,-1.8377987e-7,24.893034)">
          <g
             id="gamepad"
             transform="matrix(0.04716266,0,0,0.04716266,2.0384269,-24.69545)"
             style="fill:#ffffff">
            <path
               d="m 23.397,78.626 c -9.982,2.377 -16.043,5.823 -23.649,13.548 -8.675,8.675 -15.211,18.657 -20.083,31.136 -6.472,13.722 -10.941,28.694 -14.142,42.544 -7.25,31.968 -8.965,63.987 -7.25,79.028 3.922,17.826 8.438,27.808 16.757,36.008 8.556,8.557 14.855,11.29 27.333,11.884 12.24,0.594 21.39,-1.664 30.185,-7.487 6.774,-4.516 24.48,-22.936 34.939,-36.602 l 7.011,-9.27 31.017,-0.237 c 17.113,-0.12 31.017,0 31.017,0.356 6.55,9.551 14.556,18.668 21.985,27.571 15.687,18.301 29.71,25.907 47.655,25.907 12.835,0 20.678,-3.328 29.71,-12.478 13.31,-13.548 16.518,-24.243 16.4,-54.072 0,-22.104 -1.189,-33.513 -5.824,-56.449 -6.113,-24.284 -14.458,-50.31 -28.402,-69.164 -3.565,-4.754 -8.913,-10.814 -12.122,-13.429 -18.063,-14.855 -54.903,-13.785 -73.918,2.258 -3.427,2.438 -8.53,5.282 -11.646,6.774 -2.87,1.365 -5.995,2.707 -7.25,3.09 -2.02,1.545 -11.645,1.663 -14.973,0.119 -1.426,-0.713 -5.05,-1.662 -8.319,-3.328 C 78.338,89.718 66.41,81.705 56.078,78.983 45.62,76.368 33.142,76.249 23.398,78.626 Z m 28.403,47.06 c 2.496,2.377 2.733,3.565 2.733,14.023 0,7.25 0.352,13.675 0.352,13.675 0,0 6.54,0.586 13.434,0.586 9.15,0 11.29,0.357 14.023,2.496 1.663,1.307 2.852,2.852 2.495,3.446 0.648,4.196 0.432,7.874 -2.614,10.933 -2.496,2.377 -4.519,1.88 -15.096,2.356 l -12.596,0.35 0.002,14.05 c -0.475,11.171 -2.408,13.435 -4.429,14.86 -6.06,3.666 -11.733,2.848 -14.823,-3.45 -1.545,-2.972 -2.083,-6.894 -2.139,-14.5 l -0.085,-11.626 c 0,0 -15.977,-0.09 -23.564,-0.627 -6.18,-2.14 -7.962,-9.494 -3.684,-15.08 2.377,-2.97 3.209,-3.09 14.617,-3.446 l 12.957,-0.356 0.393,-12.056 c 0.832,-13.666 0.481,-13.817 5.19,-17.654 3.921,-2.258 9.269,-1.426 12.834,2.02 z m 129.1019,3.6492 c 11.629,14.544 -10.0293,32.0653 -22.001,18.126 -12.8027,-13.6629 8.5017,-33.6523 22.001,-18.126 z m -24.6072,23.1922 c 12.5206,14.6822 -8.0614,34.5458 -21.8288,20.2435 -15.1029,-15.6896 8.6535,-35.6936 21.8288,-20.2435 z m 49.6962,-2.3494 c 15.0222,14.231 -5.2035,35.187 -19.6464,21.0765 -15.3746,-15.0207 6.0864,-33.9222 19.6464,-21.0765 z m -18.8935,36.7611 c 0.3115,21.2189 -29.1492,19.5844 -29.5327,-0.1607 -0.4612,-19.446 28.4407,-19.313 29.5327,0.1607 z"
               style="fill:#ffffff;fill-opacity:1;fill-rule:evenodd;stroke:none"
               id="path2571" />
            <path
               d="m -16.439453,-3.375 c -0.604473,11.1486588 5.623983,19.421876 13.1542968,27.134766 7.5303139,7.712889 17.4192842,14.721799 28.4843752,20.080078 11.06509,5.358278 23.298898,9.087331 35.708984,9.228515 12.410086,0.141185 25.427482,-3.779812 34.986328,-13.722656 13.628849,-14.17635 25.680949,-14.622917 32.082029,-12.058594 3.20054,1.282162 4.99362,3.268043 5.75391,5.154297 0.74358,1.844806 0.9238,3.826824 -0.85352,7.138672 -5.87004,9.385543 -14.45411,18.528616 -22.22265,28.6875 -7.84094,10.253553 -15.241852,22.271161 -15.169925,37.197262 l 22.000005,-0.10546 c -0.0361,-7.485898 3.83955,-14.829687 10.64453,-23.728521 6.80497,-8.898833 16.13196,-18.624368 23.6289,-30.722656 l 0.14258,-0.230469 0.13086,-0.236328 c 4.67283,-8.441015 5.34045,-18.193834 2.10352,-26.224609 C 150.89783,16.186022 144.23067,10.09991 136.15625,6.8652344 120.00742,0.39588215 98.255633,5.1431978 80.033203,24.097656 75.171697,29.154459 69.153618,31.161273 61.158203,31.070312 53.162788,30.979352 43.620154,28.316471 34.787109,24.039062 25.954065,19.761654 17.82302,13.888716 12.455078,8.390625 7.0871358,2.8925345 5.539633,-2.3742286 5.5292969,-2.1835938 Z"
               style="fill:#ffffff;fill-opacity:1;fill-rule:evenodd;stroke:none"
               id="path2573" />
          </g>
        </g>
      </g>
    </g>
  </g>
</svg>
