<?xml version="1.0" encoding="UTF-8" standalone="no"?>
<!-- Created with Inkscape (http://www.inkscape.org/) -->

<svg
   width="64"
   height="64"
   viewBox="0 0 16.933333 16.933334"
   version="1.1"
   id="svg5"
   inkscape:version="1.1.1 (c3084ef, 2021-09-22)"
   sodipodi:docname="office_64.svg"
   xmlns:inkscape="http://www.inkscape.org/namespaces/inkscape"
   xmlns:sodipodi="http://sodipodi.sourceforge.net/DTD/sodipodi-0.dtd"
   xmlns="http://www.w3.org/2000/svg"
   xmlns:svg="http://www.w3.org/2000/svg">
  <sodipodi:namedview
     id="namedview7"
     pagecolor="#ffffff"
     bordercolor="#666666"
     borderopacity="1.0"
     inkscape:pageshadow="2"
     inkscape:pageopacity="0.0"
     inkscape:pagecheckerboard="0"
     inkscape:document-units="mm"
     showgrid="false"
     units="px"
     inkscape:zoom="1.4931804"
     inkscape:cx="71.993979"
     inkscape:cy="20.091343"
     inkscape:window-width="1440"
     inkscape:window-height="776"
     inkscape:window-x="-1"
     inkscape:window-y="25"
     inkscape:window-maximized="0"
     inkscape:current-layer="layer1" />
  <defs
     id="defs2">
    <inkscape:perspective
       sodipodi:type="inkscape:persp3d"
       inkscape:vp_x="0 : 526.18109 : 1"
       inkscape:vp_y="0 : 1000 : 0"
       inkscape:vp_z="744.09448 : 526.18109 : 1"
       inkscape:persp3d-origin="372.04724 : 350.78739 : 1"
       id="perspective10" />
    <inkscape:perspective
       id="perspective2461"
       inkscape:persp3d-origin="10 : 6.6666667 : 1"
       inkscape:vp_z="20 : 10 : 1"
       inkscape:vp_y="0 : 1000 : 0"
       inkscape:vp_x="0 : 10 : 1"
       sodipodi:type="inkscape:persp3d" />
    <inkscape:perspective
       id="perspective2466"
       inkscape:persp3d-origin="400 : 200 : 1"
       inkscape:vp_z="800 : 300 : 1"
       inkscape:vp_y="0 : 1000 : 0"
       inkscape:vp_x="0 : 300 : 1"
       sodipodi:type="inkscape:persp3d" />
    <inkscape:perspective
       sodipodi:type="inkscape:persp3d"
       inkscape:vp_x="0 : 290 : 1"
       inkscape:vp_y="0 : 1000 : 0"
       inkscape:vp_z="580 : 290 : 1"
       inkscape:persp3d-origin="290 : 193.33333 : 1"
       id="perspective2441" />
    <inkscape:perspective
       id="perspective3452"
       inkscape:persp3d-origin="30 : 20 : 1"
       inkscape:vp_z="60 : 30 : 1"
       inkscape:vp_y="0 : 1000 : 0"
       inkscape:vp_x="0 : 30 : 1"
       sodipodi:type="inkscape:persp3d" />
    <symbol
       viewBox="244.5 110 489 219.9"
       id="symbol-university">
      <path
         id="path4460"
         d="M79,43l57,119c0,0,21-96,104-96s124,106,124,106l43-133l82-17L0,17L79,43z" />
      <path
         id="path4462"
         d="M94,176l-21,39"
         stroke-width="20"
         stroke="#000000"
         fill="none" />
      <path
         id="path4464"
         d="M300,19c0,10.5-22.6,19-50.5,19S199,29.5,199,19s22.6-19,50.5-19S300,8.5,300,19z" />
      <path
         id="path4466"
         d="M112,216l-16-38L64,88c0,0-9-8-4-35s16-24,16-24"
         stroke-width="20"
         stroke="#000000"
         ill="none" />
    </symbol>
    <inkscape:perspective
       id="perspective4471"
       inkscape:persp3d-origin="372.04724 : 350.78739 : 1"
       inkscape:vp_z="744.09448 : 526.18109 : 1"
       inkscape:vp_y="0 : 1000 : 0"
       inkscape:vp_x="0 : 526.18109 : 1"
       sodipodi:type="inkscape:persp3d" />
    <inkscape:perspective
       id="perspective4668"
       inkscape:persp3d-origin="6 : 4 : 1"
       inkscape:vp_z="12 : 6 : 1"
       inkscape:vp_y="0 : 1000 : 0"
       inkscape:vp_x="0 : 6 : 1"
       sodipodi:type="inkscape:persp3d" />
  </defs>
  <g
     inkscape:label="Calque 1"
     inkscape:groupmode="layer"
     id="layer1">
    <circle
       style="fill:#b1c2cf;stroke-width:0.2;fill-opacity:1;stroke:#ffffff;stroke-opacity:1;stroke-miterlimit:4;stroke-dasharray:none"
       id="path846"
       cx="8.4666662"
       cy="8.4666662"
       r="8" />
    <path
       style="fill:#ffffff;stroke-width:0.0500402;fill-opacity:1"
       d="m 9.6025108,13.422975 c -0.1369674,-0.05666 -0.3076518,-0.248641 -0.371969,-0.41839 -0.031762,-0.08383 -0.05337,-0.575155 -0.05337,-1.213476 V 10.718502 H 8.1604286 c -1.0920609,0 -1.3570869,-0.04193 -1.7604902,-0.278373 C 6.1325824,10.283415 5.7583324,9.8927337 5.6226878,9.6287575 5.4895371,9.3696354 4.8745153,7.0134662 4.8740449,6.7606829 4.873554,6.4969428 5.0706503,6.1601628 5.302807,6.028052 5.5318358,5.8977208 5.9090963,5.8778229 6.1146918,5.9852357 c 0.3427846,0.1790786 0.3937547,0.2900661 0.7161149,1.559324 0.1672544,0.6585459 0.3362838,1.2480217 0.3756211,1.3099471 0.071074,0.1118826 0.079447,0.1125904 1.3305954,0.1125904 1.176032,0 1.273363,0.00693 1.4757398,0.1048871 0.144472,0.069937 0.258118,0.1756149 0.341061,0.3171478 l 0.124393,0.2122615 v 1.7277534 c 0,1.676332 -0.0032,1.731706 -0.1045,1.860602 -0.192339,0.244522 -0.510951,0.340877 -0.7712033,0.23323 z M 6.6007079,11.738614 C 6.0473967,11.604855 5.5900435,11.336901 5.117981,10.869913 4.5377972,10.295968 4.4193519,10.035553 4.0430293,8.5065005 L 3.7510928,7.3203257 3.8707607,7.1929442 C 4.0017109,7.0535539 4.1557709,7.030256 4.291289,7.1293472 4.350782,7.1728462 4.4811608,7.5892097 4.7013069,8.4387319 4.9057687,9.227729 5.0729666,9.7684048 5.157421,9.9136836 c 0.3109345,0.5348734 1.0238859,1.0640824 1.6178163,1.2008694 0.1238496,0.02853 0.5444296,0.0524 0.9346225,0.0531 0.7076935,0.0012 0.709699,0.0016 0.81403,0.134186 0.1188265,0.151064 0.099783,0.294271 -0.057174,0.42999 -0.087043,0.07525 -0.204228,0.087 -0.833826,0.08341 -0.4537585,-0.0027 -0.8465817,-0.03172 -1.0321801,-0.07661 z M 10.428175,8.0114269 C 9.7954752,7.8878649 9.121757,7.3581908 8.8361946,6.7598214 8.2059205,5.4391367 8.9264855,3.9114188 10.355194,3.5392879 12.049496,3.0979776 13.600663,4.7435617 13.079844,6.4297824 12.730715,7.5601313 11.592792,8.238869 10.428175,8.0114269 Z M 11.327493,7.336567 C 12.038325,7.1254719 12.471703,6.5804808 12.517894,5.8395777 12.545946,5.3897387 12.412768,5.0170435 12.099463,4.6685723 11.765229,4.2968242 11.40752,4.1381994 10.903557,4.1382495 10.573978,4.1382821 10.452651,4.161987 10.216988,4.2724119 9.6221367,4.5511333 9.2679728,5.1089701 9.2696678,5.7645174 9.2711078,6.330588 9.5186434,6.7957686 9.9900989,7.118517 10.403517,7.4015346 10.858775,7.4757608 11.327493,7.336567 Z M 10.703397,6.2144746 C 10.562312,6.1600308 9.8777325,5.4410745 9.8777325,5.3473465 c 0,-0.075696 0.1794905,-0.2333523 0.2656655,-0.2333523 0.02379,0 0.183202,0.1343997 0.354268,0.2986675 l 0.311031,0.2986666 0.446708,-0.4487876 c 0.463138,-0.4652922 0.620562,-0.5420149 0.722257,-0.3519975 0.0285,0.053234 0.05179,0.1128955 0.05179,0.1325794 0,0.047037 -1.053741,1.1182448 -1.150925,1.1699992 -0.04128,0.021981 -0.120097,0.02259 -0.175141,0.00139 z M 5.0822897,5.4597697 C 4.4830168,5.1554357 4.3978657,4.2881473 4.9238095,3.8455959 5.3985914,3.4460927 6.1452362,3.6104269 6.4183149,4.1745324 6.621338,4.5939223 6.4988524,5.07498 6.1103428,5.3840614 5.8513153,5.5901345 5.4038772,5.6230845 5.0822897,5.459768 Z"
       id="path1038" />
  </g>
</svg>
